<svg xmlns="http://www.w3.org/2000/svg" width="31" height="31" viewBox="0 0 31 31">
  <g id="arrow-1-k" transform="translate(-644 -605)">
    <rect id="bg" width="30" height="30" rx="15" transform="translate(644.5 605.5)" fill="none" stroke="#707070" stroke-width="1"/>
    <path id="Path_5582" data-name="Path 5582" d="M290.993,402.934a.63.63,0,0,1,0,.85.516.516,0,0,1-.75,0l-4.28-4.48a.63.63,0,0,1,0-.85l4.28-4.49a.523.523,0,0,1,.37-.16.585.585,0,0,1,.38.16.61.61,0,0,1,0,.85l-3.88,4.06Z" transform="translate(371.018 221.625)" fill="#777"/>
  </g>
</svg>
