<svg id="arrow-date" xmlns="http://www.w3.org/2000/svg" width="11.869" height="11.869" viewBox="0 0 11.869 11.869">
  <g id="Ellipse_104" data-name="Ellipse 104" fill="none" stroke="#c1c1c1" stroke-width="0.6">
    <circle cx="5.935" cy="5.935" r="5.935" stroke="none"/>
    <circle cx="5.935" cy="5.935" r="5.635" fill="none"/>
  </g>
  <path id="Path_5582" data-name="Path 5582" d="M288.881,399.222a.374.374,0,0,1,0,.5.306.306,0,0,1-.445,0l-2.54-2.659a.374.374,0,0,1,0-.5l2.54-2.665a.311.311,0,0,1,.22-.095.347.347,0,0,1,.225.095.362.362,0,0,1,0,.5l-2.3,2.409Z" transform="translate(-281.644 -390.837)" fill="#c1c1c1"/>
</svg>
