<svg xmlns="http://www.w3.org/2000/svg" width="48.512" height="46.497" viewBox="0 0 48.512 46.497">
  <path id="bags" d="M304.742-41.7a2.068,2.068,0,0,1-.322-.732v-.088a3.9,3.9,0,0,1,.146-.615l.041-.164.05-.2.047-.2.05-.208.047-.211.047-.211.047-.214.044-.217.044-.217.044-.219.044-.222.041-.225.041-.225.041-.225.041-.228.038-.231.041-.231.038-.231.035-.234.038-.237.035-.237.035-.237.035-.24.032-.24.032-.24.032-.243.032-.243.032-.243.029-.246.029-.246.029-.243.026-.249.029-.246.026-.246.023-.249.026-.249.023-.249.023-.249.023-.246L306-52.38l.021-.249.02-.249.02-.249.021-.249.018-.249.021-.246.017-.249.015-.246.018-.249.015-.246.015-.246.015-.243.012-.246.015-.243.012-.243.012-.24.009-.24.012-.24.009-.24.009-.237.006-.234.009-.237.006-.231.006-.234.006-.228,0-.231.006-.225,0-.228,0-.222v-.222l0-.222v-.433l0-.217v-.214l0-.208,0-.211,0-.2-.006-.2,0-.2-.006-.2-.009-.225c-.006-.1-.012-.2-.018-.3s-.009-.2-.012-.3c0-.05,0-.1,0-.231v-4.448a1.911,1.911,0,0,0-1.931-1.931H294.348a1.9,1.9,0,0,1-.257,0,.409.409,0,0,0-.085,0l-.094,0c-.061,0-.126,0-.187,0a.668.668,0,0,1-.234-.038.337.337,0,0,1-.023-.143l-.02-.155c-.012-.1-.023-.2-.038-.307-.026-.208-.056-.413-.091-.615s-.067-.41-.108-.612-.079-.407-.126-.606-.091-.4-.14-.6-.105-.4-.161-.6-.114-.4-.176-.594-.126-.389-.193-.585-.135-.386-.208-.579-.149-.383-.225-.574-.158-.38-.243-.568-.17-.375-.257-.559-.179-.369-.272-.553-.19-.363-.29-.541-.2-.36-.3-.535-.211-.354-.319-.527-.22-.348-.334-.518-.231-.342-.351-.509-.24-.334-.363-.5-.252-.328-.38-.489-.26-.319-.392-.477-.269-.313-.41-.465-.278-.3-.421-.454-.287-.3-.46-.468a7.139,7.139,0,0,0-5.121-2.107,6.95,6.95,0,0,0-4.945,2.048,21.9,21.9,0,0,0-6.467,13.022l-.029.2H259.8a1.929,1.929,0,0,0-1.931,1.931v8.954a54.4,54.4,0,0,0,1.756,15.333,3.167,3.167,0,0,1,.146.585v.088a2.066,2.066,0,0,1-.322.732,4.049,4.049,0,0,0-.527,1.141,1.961,1.961,0,0,0,.146,1.463,2.009,2.009,0,0,0,1.141.936,3.585,3.585,0,0,0,.556.059h42.664a1.929,1.929,0,0,0,1.931-1.931,1.655,1.655,0,0,0-.088-.527A4.047,4.047,0,0,0,304.742-41.7Zm-17.5-39.328a21.04,21.04,0,0,1,5.326,12.173v5.53h-3.307v-5.5a30.537,30.537,0,0,0-2.37-11.968l-.5-1.2Zm-5.15-2.575h.029a3.945,3.945,0,0,1,3.014,1.726c2.136,3.1,3.014,8.574,3.131,12.319v.234h-12a.108.108,0,0,0-.088.029l-.263.029v-.263c.117-3.746,1.024-9.217,3.19-12.349A3.844,3.844,0,0,1,282.093-83.605ZM271.618-68.828a21.042,21.042,0,0,1,5.326-12.2l.849-.936-.5,1.17a32.224,32.224,0,0,0-2.4,11.968v5.5h-3.277Zm32.071,29.7a.855.855,0,0,1-.263.059H260.761a.943.943,0,0,1-.936-.936.649.649,0,0,1,.029-.263,3.121,3.121,0,0,1,.468-.936,2.715,2.715,0,0,0,.439-1.317,3.382,3.382,0,0,0-.2-.907,53.055,53.055,0,0,1-1.7-15.011v-8.954a.943.943,0,0,1,.936-.936h10.827v5.5a.493.493,0,0,0,.5.5h4.3a.513.513,0,0,0,.5-.5v-5.589l.322.088h12.027v5.5a.493.493,0,0,0,.5.5h4.3a.493.493,0,0,0,.5-.5v-4.4a4.683,4.683,0,0,1,.082-1.056,1.275,1.275,0,0,0,.149-.009c.058-.006.12-.015.178-.026a.737.737,0,0,1,.187-.015h10.2a.924.924,0,0,1,.936.936v4.834c0,.1,0,.2,0,.3s.006.167.009.252l.006.2.006.2.006.2.006.2,0,.2,0,.208,0,.211,0,.211v.214l0,.217v.217l0,.219v.222l0,.222,0,.225,0,.228,0,.228-.006.228-.006.231-.006.234-.006.234-.009.234-.006.237-.009.237-.012.24-.009.24-.012.24-.012.243-.012.243-.015.243-.012.243-.015.246-.015.246-.018.246-.018.246-.015.246-.021.249-.018.246-.02.249-.021.246-.02.249-.02.249-.023.246-.023.249-.023.249-.023.246-.026.249-.026.246-.026.246-.026.246-.029.246-.029.243-.029.246-.029.243-.032.243-.032.24-.032.243-.032.24-.035.237-.035.237-.035.237-.035.237-.038.234-.038.231-.038.231-.038.231-.041.228-.041.225-.041.225-.044.222-.041.222-.044.219-.047.217-.044.217-.047.214-.047.211-.047.211-.05.208-.047.2-.05.2-.032.123a4.959,4.959,0,0,0-.176.907,2.507,2.507,0,0,0,.439,1.258,3.894,3.894,0,0,1,.439.936A.932.932,0,0,1,303.689-39.127Z" transform="translate(-257.842 84.6)" fill="#171717"/>
</svg>
