<svg xmlns="http://www.w3.org/2000/svg" width="46.206" height="43.864" viewBox="0 0 46.206 43.864">
  <path id="beanies" d="M264.183-52.407l-.263-.146v-3.833a20.744,20.744,0,0,0-14.865-19.9l-.468-.176.117-.439a6.153,6.153,0,0,0-.936-4.682,6.2,6.2,0,0,0-3.98-2.663,5.155,5.155,0,0,0-1.229-.117,6.35,6.35,0,0,0-3.453,1.024,6.467,6.467,0,0,0-2.663,3.98,6.185,6.185,0,0,0,.146,3.014l.176.5-.527.146a19.433,19.433,0,0,0-9.861,6.672,20.266,20.266,0,0,0-4.214,12.67v3.775l-.234.146a3.9,3.9,0,0,0-2.048,3.453v4.536a3.971,3.971,0,0,0,3.95,3.95h38.3a3.928,3.928,0,0,0,3.95-3.921v-4.565A3.878,3.878,0,0,0,264.183-52.407ZM237.818-79.972l.029-.088a5.314,5.314,0,0,1,2.721-2.751,5.123,5.123,0,0,1,3.892-.059,5.133,5.133,0,0,1,2.838,6.642,5.138,5.138,0,0,1-4.74,3.19,5.184,5.184,0,0,1-1.873-.351,4.927,4.927,0,0,1-2.78-2.692A5,5,0,0,1,237.818-79.972ZM223.3-56.387A18.5,18.5,0,0,1,236.94-74.7l.351-.088.2.293a6.266,6.266,0,0,0,8.691,1.463A6,6,0,0,0,247.972-75l.2-.351.41.117a20.012,20.012,0,0,1,9.861,6.613,19.635,19.635,0,0,1,4.3,12.2v3.453h-.5a.644.644,0,0,1-.234-.029H223.3Zm41.64,11.939a2.8,2.8,0,0,1-2.809,2.78H223.8a2.752,2.752,0,0,1-1.9-.761,3.023,3.023,0,0,1-.878-1.961v-4.594a2.808,2.808,0,0,1,1.726-2.6l.2-.088a2.675,2.675,0,0,1,.907-.146h38.246a1.645,1.645,0,0,1,.819.146h.117l.088.088a2.786,2.786,0,0,1,1.814,2.6Z" transform="translate(-219.88 84.361)" fill="#171717"/>
</svg>
