<svg xmlns="http://www.w3.org/2000/svg" width="20.407" height="24.088" viewBox="0 0 20.407 24.088">
  <g id="captcha" transform="translate(-616.521 -1534.455)">
    <path id="Path_5538" data-name="Path 5538" d="M365.551,299l1.609.49,2.08.633,1.61.49a1.008,1.008,0,0,0,1.279-.789l.371-1.71c.131-.608.346-1.6.478-2.21l.371-1.71c.132-.608-.242-.808-.832-.445l-1.01.623c-.37-.66-.74-1.317-.883-1.557a2.265,2.265,0,0,0-2.178-.956l-4.864.029,2.031,3.732a.7.7,0,0,1,.126.187c.1.205.465.911.831,1.608l-.988.609C364.992,298.386,364.979,298.825,365.551,299Z" transform="translate(263.053 1242.598)" fill="#8a8a8f"/>
    <path id="Path_5539" data-name="Path 5539" d="M350.412,293.175c-.522.829-1.844,3.035-1.844,3.035a1.055,1.055,0,0,0,.336,1.437l3.244,1.992a1.011,1.011,0,0,0,1.4-.37l2-3.437c.174-.3.385-.348.554-.168l-2.031-3.732-1.172.008A2.665,2.665,0,0,0,350.412,293.175Z" transform="translate(272.561 1242.553)" fill="#8a8a8f"/>
    <path id="Path_5534" data-name="Path 5534" d="M337.186,317.987c.366.742,1.377,2.651,2.119,4.051l2.3-3.933c.271-.484.773-1.381,1.193-2.124l1.177.684c.6.348.967.138.821-.467l-.412-1.7c-.146-.6-.385-1.592-.531-2.2l-.411-1.7a1.006,1.006,0,0,0-1.3-.755l-1.6.532-2.064.687-1.6.532c-.568.189-.543.628.054.975l.868.5c-.443.9-.965,1.956-1.1,2.26A3.51,3.51,0,0,0,337.186,317.987Z" transform="translate(280.049 1231.687)" fill="#8a8a8f"/>
    <path id="Path_5535" data-name="Path 5535" d="M346.364,331.011l-2.3,3.933c.413.779.742,1.4.83,1.573.243.483.59,1.427,2.785,1.414l3.19-.019a1.042,1.042,0,0,0,1.008-1.067l-.021-3.939a1.042,1.042,0,0,0-1.021-1.056l-4.357.026c-.393,0-.443-.27-.305-.524C346.192,331.318,346.263,331.193,346.364,331.011Z" transform="translate(275.289 1218.782)" fill="#8a8a8f"/>
    <path id="Path_5537" data-name="Path 5537" d="M375.052,334.518c.075-.133.247-.458.47-.89l-1.9-3.972c.04.231-.071.388-.345.389l-1.966.012-.01-1.231c-.007-.716-.363-.948-.793-.516l-1.21,1.213-1.564,1.568-1.21,1.214a1.09,1.09,0,0,0,.012,1.553l1.231,1.191,1.591,1.538,1.231,1.191c.438.422.791.184.785-.531l-.011-1.17,1.505-.01A2.439,2.439,0,0,0,375.052,334.518Z" transform="translate(261.406 1220.557)" fill="#8a8a8f"/>
  </g>
</svg>
