<svg xmlns="http://www.w3.org/2000/svg" width="10.529" height="14.824" viewBox="0 0 10.529 14.824">
  <path id="COPY3" d="M122.607,364.878c.192.034.388.059.578.106a4.671,4.671,0,0,1,3.627,3.668,4.573,4.573,0,0,1-.481,3.351q-1.7,3.119-3.4,6.232a.841.841,0,0,1-1.508,0l-3.4-6.23a4.731,4.731,0,0,1-.589-2.646,4.787,4.787,0,0,1,3.868-4.4l.447-.079Zm-.439,2.376a1.944,1.944,0,1,0,1.951,1.934A1.957,1.957,0,0,0,122.168,367.254Z" transform="translate(-116.916 -364.378)" fill="none" stroke="#000" stroke-miterlimit="10" stroke-width="1"/>
</svg>
