<svg xmlns="http://www.w3.org/2000/svg" width="13.45" height="13.474" viewBox="0 0 13.45 13.474">
  <path id="COPY4" d="M12.449,10.977a1.49,1.49,0,0,1-1.629,1.489,12.089,12.089,0,0,1-5.271-1.874A11.916,11.916,0,0,1,1.882,6.926a12.1,12.1,0,0,1-1.876-5.3A1.49,1.49,0,0,1,1.489,0H3.274a1.491,1.491,0,0,1,1.49,1.284,7.353,7.353,0,0,0,.4,1.609,1.491,1.491,0,0,1-.336,1.573l-.594.594A9.238,9.238,0,0,0,7.389,8.215l.6-.6a1.49,1.49,0,0,1,1.571-.335,7.361,7.361,0,0,0,1.612.4,1.49,1.49,0,0,1,1.281,1.508Z" transform="translate(0.501 0.5)" fill="none" stroke="#434343" stroke-width="1"/>
</svg>
