<svg xmlns="http://www.w3.org/2000/svg" width="14.341" height="16.674" viewBox="0 0 14.341 16.674">
  <g id="COPY5" transform="translate(-132.138 -364.878)">
    <path id="Path_5615" data-name="Path 5615" d="M139.835,364.878c.277.042.556.073.831.128a7.164,7.164,0,0,1,5.8,7.45,7.189,7.189,0,0,1-4.828,6.357.519.519,0,0,0-.245.186c-.5.722-.989,1.451-1.482,2.177a.666.666,0,0,1-1.2,0c-.5-.735-1-1.472-1.5-2.2a.437.437,0,0,0-.195-.153,7.032,7.032,0,0,1-4.719-5.334,7.133,7.133,0,0,1,4.355-8.1,6.969,6.969,0,0,1,2.012-.478.807.807,0,0,0,.125-.029Zm-.522,14.845c.057-.082.1-.138.136-.2.335-.493.675-.983,1-1.481a.956.956,0,0,1,.558-.412,5.849,5.849,0,1,0-7.477-4.708,5.681,5.681,0,0,0,3.753,4.588c.775.3.613.132,1.146.91C138.72,378.848,139.007,379.274,139.313,379.723Z"/>
    <path id="Path_5616" data-name="Path 5616" d="M140.031,373.013c0,.564,0,1.128,0,1.691a.376.376,0,0,1-.191.351.971.971,0,0,1-1.019.025.411.411,0,0,1-.225-.4c0-1.09,0-2.179,0-3.269,0-.345.1-.483.437-.555a1.118,1.118,0,0,1,.746.068.4.4,0,0,1,.25.4C140.027,371.885,140.031,372.449,140.031,373.013Z"/>
    <path id="Path_5617" data-name="Path 5617" d="M139.309,369.986a.731.731,0,0,1-.746-.609.717.717,0,0,1,.845-.712,1.093,1.093,0,0,1,.158.036.666.666,0,0,1,.491.71A.752.752,0,0,1,139.309,369.986Z"/>
  </g>
</svg>
