<svg id="credit-icon-2" xmlns="http://www.w3.org/2000/svg" width="60" height="60" viewBox="0 0 60 60">
  <rect id="Area" width="60" height="60" transform="translate(0 0)" fill="none"/>
  <path id="Background" d="M0,23.79A23.99,23.99,0,0,0,21,47.58V0A23.965,23.965,0,0,0,0,23.79Z" transform="translate(6 6.21)" fill="none"/>
  <path id="Border" d="M30,60A30,30,0,1,1,60,30,30.034,30.034,0,0,1,30,60Zm3-9V53.79A23.947,23.947,0,0,0,41.61,51ZM27,6.21a23.975,23.975,0,0,0,0,47.58ZM33,42v3h15.72a22.99,22.99,0,0,0,2.041-3Zm0-9v3H53.22a25.409,25.409,0,0,0,.57-3Zm0-9v3H53.79a24.992,24.992,0,0,0-.57-3Zm0-9v3H50.761a22.633,22.633,0,0,0-2.041-3ZM33,6.21V9h8.61A23.945,23.945,0,0,0,33,6.21Z" fill="#304659"/>
</svg>
