<svg id="credit-icon-1" xmlns="http://www.w3.org/2000/svg" width="60" height="60" viewBox="0 0 60 60">
  <rect id="Area" width="60" height="60" transform="translate(0)" fill="none"/>
  <path id="Background" d="M6,0a6,6,0,1,0,6,6A6.018,6.018,0,0,0,6,0Z" transform="translate(24 27)" fill="#304659"/>
  <path id="Border" d="M14.967,55.952l0,0A30.243,30.243,0,0,1,4.132,45.191,30.028,30.028,0,1,1,45,55.948L42,50.76a24.29,24.29,0,0,0,8.688-8.613,24,24,0,1,0-41.382,0,24.305,24.305,0,0,0,8.664,8.613l-3,5.189ZM21,45.573l0,0a18,18,0,1,1,18,0l-3-5.22a12,12,0,1,0-12,0l-3,5.222Z" transform="translate(0 3)" fill="#304659"/>
</svg>
