<svg xmlns="http://www.w3.org/2000/svg" width="25" height="24" viewBox="0 0 25 24">
  <g id="cross_message_new" transform="translate(-584 -227)">
    <g id="Cv9gIc" transform="translate(591.347 233.748)">
      <g id="Group_2782" data-name="Group 2782" transform="translate(0)">
        <path id="Path_5626" data-name="Path 5626" d="M-229.354,568.505h.3a1.307,1.307,0,0,1,.656.422q1.448,1.458,2.9,2.909a.484.484,0,0,1,.062.1.668.668,0,0,0,.117-.11q1.445-1.447,2.89-2.894a1.338,1.338,0,0,1,.663-.429h.279a1.236,1.236,0,0,1,.664.428c.069.076.146.145.218.219a1.383,1.383,0,0,1,.119.134.891.891,0,0,1-.113,1.192q-1.52,1.523-3.043,3.043c-.027.027-.053.055-.082.086l.748.747q1.191,1.19,2.381,2.381a.865.865,0,0,1,.118,1.165,3.889,3.889,0,0,1-.63.633.869.869,0,0,1-1.181-.121l-3.036-3.036c-.028-.027-.056-.053-.1-.1a.731.731,0,0,1-.068.094q-1.126,1.128-2.254,2.255c-.272.272-.542.547-.818.816a.884.884,0,0,1-1.254.008c-.089-.085-.171-.176-.262-.259a1.236,1.236,0,0,1-.429-.664v-.279a1.331,1.331,0,0,1,.429-.662q1.454-1.445,2.9-2.9a.615.615,0,0,1,.118-.07c-.064-.054-.093-.076-.119-.1q-1.45-1.449-2.9-2.9a1.323,1.323,0,0,1-.429-.663v-.3a1.407,1.407,0,0,1,.184-.376A2.162,2.162,0,0,1-229.354,568.505Z" transform="translate(230.51 -568.505)" fill="#a2a2a2"/>
      </g>
    </g>
    <g id="Ellipse_113" data-name="Ellipse 113" transform="translate(584 227)" fill="none" stroke="#a2a2a2" stroke-width="1">
      <ellipse cx="12.5" cy="12" rx="12.5" ry="12" stroke="none"/>
      <ellipse cx="12.5" cy="12" rx="12" ry="11.5" fill="none"/>
    </g>
  </g>
</svg>
