<svg xmlns="http://www.w3.org/2000/svg" width="12" height="12" viewBox="0 0 12 12">
  <g id="cross_btn" transform="translate(-369.771 -1587.771)">
    <g id="Cv9gIc" transform="translate(373.269 1591.268)">
      <g id="Group_2782" data-name="Group 2782" transform="translate(0)">
        <path id="Path_5626" data-name="Path 5626" d="M-229.943,568.505h.147a.641.641,0,0,1,.322.207q.71.715,1.424,1.426a.24.24,0,0,1,.03.05.325.325,0,0,0,.058-.054q.709-.71,1.417-1.419a.656.656,0,0,1,.325-.211h.137a.606.606,0,0,1,.326.21c.034.037.072.071.107.108a.667.667,0,0,1,.058.066.437.437,0,0,1-.055.585l-1.492,1.493-.04.042.367.366,1.167,1.168a.424.424,0,0,1,.058.571,1.9,1.9,0,0,1-.309.311.426.426,0,0,1-.579-.059l-1.489-1.489-.051-.048a.369.369,0,0,1-.033.046l-1.105,1.106c-.134.134-.266.268-.4.4a.434.434,0,0,1-.615,0c-.044-.041-.084-.086-.128-.127a.606.606,0,0,1-.211-.325v-.137a.653.653,0,0,1,.211-.325q.713-.709,1.423-1.421a.3.3,0,0,1,.058-.034c-.031-.027-.046-.037-.058-.05q-.711-.711-1.423-1.421a.649.649,0,0,1-.211-.325v-.147a.69.69,0,0,1,.09-.184A1.06,1.06,0,0,1-229.943,568.505Z" transform="translate(230.51 -568.505)" fill="#a2a2a2"/>
      </g>
    </g>
    <g id="Ellipse_113" data-name="Ellipse 113" transform="translate(369.771 1587.771)" fill="none" stroke="#a2a2a2" stroke-width="0.5">
      <circle cx="6" cy="6" r="6" stroke="none"/>
      <circle cx="6" cy="6" r="5.75" fill="none"/>
    </g>
  </g>
</svg>
