<svg xmlns="http://www.w3.org/2000/svg" xmlns:xlink="http://www.w3.org/1999/xlink" width="15.133" height="15.138" viewBox="0 0 15.133 15.138">
  <defs>
    <clipPath id="clip-path">
      <rect width="15.133" height="15.138" fill="none"/>
    </clipPath>
  </defs>
  <g id="date" clip-path="url(#clip-path)">
    <g id="date-2" data-name="date" transform="translate(-61.928 -724.151)">
      <path id="Path_6603" data-name="Path 6603" d="M74.46,739.289H64.529a.346.346,0,0,0-.079-.029,2.922,2.922,0,0,1-2.521-2.848q0-4.108,0-8.216a2.847,2.847,0,0,1,.1-.741,2.922,2.922,0,0,1,2.761-2.142c.2-.005.4,0,.616,0,0-.075,0-.133,0-.191a3.144,3.144,0,0,1,.017-.515.583.583,0,0,1,.639-.451.592.592,0,0,1,.526.58c0,.19,0,.38,0,.567h5.794c0-.169-.005-.33,0-.491a.952.952,0,0,1,.044-.288.589.589,0,0,1,1.136.212c0,.19,0,.379,0,.577.217,0,.409,0,.6,0a2.93,2.93,0,0,1,2.805,2.239c.03.118.054.237.081.356v8.78a.531.531,0,0,0-.028.082,2.882,2.882,0,0,1-2.078,2.4C74.794,739.222,74.625,739.25,74.46,739.289ZM75.879,730H63.116c0,.045-.005.079-.005.113q0,3.125,0,6.25a1.579,1.579,0,0,0,.044.365,1.743,1.743,0,0,0,1.787,1.373q4.55,0,9.1,0a2.028,2.028,0,0,0,.453-.045,1.735,1.735,0,0,0,1.381-1.749q0-3.074,0-6.147Zm-2.305-3.477c0,.393,0,.777,0,1.16a.59.59,0,0,1-1.18-.043c0-.373,0-.746,0-1.126H66.6v.14c0,.335,0,.67,0,1a.59.59,0,0,1-1.181.005c0-.212,0-.424,0-.635v-.51a1.877,1.877,0,0,0-2.287,2.269H75.864A1.877,1.877,0,0,0,73.573,726.525Z" fill="#777"/>
      <path id="Path_6604" data-name="Path 6604" d="M90.179,746.085c-.2,0-.394,0-.59,0A.59.59,0,0,1,89.6,744.9q.59,0,1.18,0a.59.59,0,0,1,.007,1.181C90.582,746.088,90.38,746.085,90.179,746.085Z" transform="translate(-17.202 -13.182)" fill="#777"/>
      <path id="Path_6605" data-name="Path 6605" d="M71.051,746.085c-.2,0-.393,0-.59,0a.59.59,0,0,1,0-1.181q.59,0,1.18,0a.591.591,0,1,1,0,1.181C71.444,746.087,71.248,746.085,71.051,746.085Z" transform="translate(-5.051 -13.182)" fill="#777"/>
      <path id="Path_6606" data-name="Path 6606" d="M80.617,746.085c-.2,0-.393,0-.59,0a.591.591,0,0,1,0-1.181q.59,0,1.18,0a.59.59,0,0,1,0,1.181C81.01,746.088,80.813,746.085,80.617,746.085Z" transform="translate(-11.123 -13.182)" fill="#777"/>
      <path id="Path_6607" data-name="Path 6607" d="M80.622,754.465c.2,0,.4,0,.6,0a.59.59,0,0,1,.007,1.179q-.619.011-1.238,0A.59.59,0,0,1,80,754.466C80.209,754.46,80.415,754.465,80.622,754.465Z" transform="translate(-11.123 -19.255)" fill="#777"/>
      <path id="Path_6608" data-name="Path 6608" d="M71.056,755.645c-.2,0-.393,0-.59,0a.6.6,0,0,1-.587-.6.585.585,0,0,1,.58-.584q.6-.007,1.195,0a.589.589,0,0,1,.581.585.6.6,0,0,1-.589.6C71.449,755.647,71.252,755.645,71.056,755.645Z" transform="translate(-5.051 -19.253)" fill="#777"/>
      <path id="Path_6609" data-name="Path 6609" d="M90.19,754.464c.2,0,.4,0,.6,0a.59.59,0,0,1,0,1.179c-.4.006-.806.005-1.209,0a.59.59,0,0,1,0-1.18C89.786,754.461,89.988,754.464,90.19,754.464Z" transform="translate(-17.202 -19.255)" fill="#777"/>
    </g>
  </g>
</svg>
