<svg id="Dots" xmlns="http://www.w3.org/2000/svg" width="20" height="20" viewBox="0 0 20 20">
  <rect id="Area" width="20" height="20" fill="none"/>
  <path id="Border" d="M10,16a2,2,0,1,1,2-2A2,2,0,0,1,10,16ZM2,16a2,2,0,1,1,2-2A2,2,0,0,1,2,16Zm12-4a2,2,0,1,1,2-2A2,2,0,0,1,14,12ZM6,12a2,2,0,1,1,2-2A2,2,0,0,1,6,12Zm4-4a2,2,0,1,1,2-2A2,2,0,0,1,10,8ZM2,8A2,2,0,1,1,4,6,2,2,0,0,1,2,8ZM14,4a2,2,0,1,1,2-2A2,2,0,0,1,14,4ZM6,4A2,2,0,1,1,8,2,2,2,0,0,1,6,4Z" transform="translate(2 2)" fill="#304659"/>
</svg>
