<svg xmlns="http://www.w3.org/2000/svg" width="18.94" height="25.02" viewBox="0 0 18.94 25.02">
  <g id="drop" transform="translate(0 0)">
    <g id="Group_1983" data-name="Group 1983" transform="translate(0 0)">
      <path id="Path_2815" data-name="Path 2815" d="M305.114,438.094l-.067-.124c-4-7.392-4.315-10.578-4.315-10.578s-.317,3.221-4.385,10.7a9.71,9.71,0,0,0-.834,7.752h0c.03.07.059.136.092.209a1.343,1.343,0,0,0,.092.2c.037.085.077.163.118.244a2.931,2.931,0,0,0,.166.287,2.032,2.032,0,0,0,.118.174c.044.05.1.143.151.213a5.053,5.053,0,0,0,.509.589c.048.05.1.1.151.151a6.352,6.352,0,0,0,1.391.988c.085.047.174.093.262.136.21.1.424.194.657.283l.155.058a10.1,10.1,0,0,0,1.347.384C307.79,448.256,307.03,441.617,305.114,438.094ZM303.3,446a3.5,3.5,0,0,1-2.529,1.1h-.041a3.494,3.494,0,0,1-2.484-1.1,3.894,3.894,0,0,1-.454-4.725l-.712.124a.262.262,0,0,1-.3-.225.268.268,0,0,1,.207-.314h0l1.4-.252h.052l.07.016.026.008.044.023.015.008.026.027a.249.249,0,0,1,.059.089l.015.054v.016l.162,1.411a.268.268,0,0,1-.225.3l0,0H298.6a.271.271,0,0,1-.262-.24l-.089-.779a3.343,3.343,0,0,0,.369,4.062,2.966,2.966,0,0,0,4.322,0,3.267,3.267,0,0,0,.9-2.267,3.338,3.338,0,0,0-.9-2.291,3.029,3.029,0,0,0-2.2-.965h0a.243.243,0,0,1-.258-.225v-.019a.255.255,0,0,1,.251-.264h0a3.447,3.447,0,0,1,2.569,1.1,3.886,3.886,0,0,1,0,5.314Z" transform="translate(-295.064 -424.737)" fill="#8a8a8f"/>
      <g id="Group_1106" data-name="Group 1106" transform="translate(17.879 4.202)">
        <path id="Path_2816" data-name="Path 2816" d="M299.941,427.849l-.018-.027-.015-.031Z" transform="translate(-299.908 -427.791)" fill="#8a8a8f"/>
      </g>
      <path id="Path_2817" data-name="Path 2817" d="M301.491,437.912l-.2-.047c-.066-.015-.129-.031-.188-.05s-.125-.039-.184-.058a4.1,4.1,0,0,1-.41-.159,3.6,3.6,0,0,1-.58-.326,1.567,1.567,0,0,1-.159-.124,2.853,2.853,0,0,1-.432-.422,2.437,2.437,0,0,1-.166-.221,2.7,2.7,0,0,1-.3-.562,4.862,4.862,0,0,1,.421-3.884,16.909,16.909,0,0,0,2.192-5.353A16.782,16.782,0,0,0,303.654,432l.015.031.022.027C304.644,433.835,305.024,437.16,301.491,437.912Z" transform="translate(-285.406 -426.707)" fill="#8a8a8f"/>
    </g>
  </g>
</svg>
