<svg xmlns="http://www.w3.org/2000/svg" width="32" height="32" viewBox="0 0 32 32">
  <g id="form-icon2" transform="translate(46.528 -471.826)">
    <path id="Path_6618" data-name="Path 6618" d="M-46.528,499.77v-6.936a.349.349,0,0,0,.057-.1,4.668,4.668,0,0,1,4.664-3.958c1.833,0,3.666.006,5.5,0a6.524,6.524,0,0,0,5.08-2.255,6.539,6.539,0,0,0,1.635-4.463c0-1.832,0-3.665,0-5.5a4.671,4.671,0,0,1,4.708-4.715q2.812-.006,5.624,0a4.671,4.671,0,0,1,4.728,4.727q0,2.811,0,5.622a4.365,4.365,0,0,1-.012.5,4.7,4.7,0,0,1-4.7,4.208c-1.844,0-3.687-.009-5.53,0a6.511,6.511,0,0,0-5.051,2.251,6.535,6.535,0,0,0-1.638,4.462c-.006,1.843.019,3.686-.007,5.528a4.533,4.533,0,0,1-2.683,4.234,9.679,9.679,0,0,1-1.373.456h-6.937a.372.372,0,0,0-.1-.058,4.62,4.62,0,0,1-3.839-3.568C-46.446,500.061-46.487,499.916-46.528,499.77ZM-28.484,485.8c.118-.041.187-.06.252-.088a8.714,8.714,0,0,1,3.583-.69c1.739.012,3.478.008,5.217,0a3.445,3.445,0,0,0,.893-.106,2.8,2.8,0,0,0,2.132-2.861q.008-2.686,0-5.372a3.209,3.209,0,0,0-.1-.831,2.781,2.781,0,0,0-2.8-2.131q-2.749-.022-5.5,0a2.813,2.813,0,0,0-2.326,1.125,2.982,2.982,0,0,0-.579,1.869q-.007,2.7,0,5.4a8.056,8.056,0,0,1-.366,2.518C-28.2,485.008-28.337,485.375-28.484,485.8Zm-4.163,4.1a1.7,1.7,0,0,0-.169.057,8.838,8.838,0,0,1-3.645.693c-1.719-.015-3.437-.008-5.155,0a3.521,3.521,0,0,0-.894.1,2.787,2.787,0,0,0-2.142,2.823c-.011,1.811-.007,3.623,0,5.435a3.1,3.1,0,0,0,.1.8,2.791,2.791,0,0,0,2.823,2.143q2.733.017,5.467,0a2.824,2.824,0,0,0,2.349-1.142,2.965,2.965,0,0,0,.566-1.842c.007-1.811,0-3.623.007-5.434a6.75,6.75,0,0,1,.1-1.335C-33.072,491.433-32.848,490.679-32.646,489.9Z" transform="translate(0 -0.006)" fill="#5d5d5d"/>
    <path id="Path_6619" data-name="Path 6619" d="M-46.528,475.9a9.672,9.672,0,0,1,.456-1.372,4.532,4.532,0,0,1,4.233-2.683c1.895-.027,3.79-.009,5.684,0a4.672,4.672,0,0,1,4.688,4.7q.006,2.826,0,5.652a4.671,4.671,0,0,1-4.718,4.7q-2.812,0-5.622,0a4.667,4.667,0,0,1-4.662-3.958.378.378,0,0,0-.058-.1Zm13.187,3.462c0-.885.009-1.771,0-2.656a3.4,3.4,0,0,0-.106-.862,2.79,2.79,0,0,0-2.833-2.129q-2.719-.013-5.437,0a3.027,3.027,0,0,0-.8.105,2.793,2.793,0,0,0-2.13,2.834q-.013,2.717,0,5.435a3.026,3.026,0,0,0,.105.8,2.793,2.793,0,0,0,2.834,2.129q2.718.013,5.437,0a3.025,3.025,0,0,0,.8-.105,2.8,2.8,0,0,0,2.13-2.834C-33.335,481.17-33.341,480.263-33.341,479.358Z" fill="#5d5d5d"/>
    <path id="Path_6620" data-name="Path 6620" d="M-11.292,518.073a9.679,9.679,0,0,1-1.373-.456,4.531,4.531,0,0,1-2.683-4.232c-.027-1.894-.01-3.789,0-5.683a4.672,4.672,0,0,1,4.7-4.687q2.826-.006,5.653,0a4.672,4.672,0,0,1,4.7,4.718q0,2.811,0,5.621a4.667,4.667,0,0,1-3.959,4.661.351.351,0,0,0-.1.058Zm9.125-7.5c0-.9.008-1.791,0-2.687a3.446,3.446,0,0,0-.1-.862,2.8,2.8,0,0,0-2.86-2.136q-2.687-.009-5.374,0a3.218,3.218,0,0,0-.832.1,2.8,2.8,0,0,0-2.136,2.86q-.009,2.686,0,5.373a3.189,3.189,0,0,0,.1.831A2.8,2.8,0,0,0-10.51,516.2q2.687.008,5.374,0a3.215,3.215,0,0,0,.832-.1,2.8,2.8,0,0,0,2.136-2.829C-2.16,512.366-2.167,511.471-2.167,510.575Z" transform="translate(-14.238 -14.247)" fill="#5d5d5d"/>
  </g>
</svg>
