<svg xmlns="http://www.w3.org/2000/svg" width="32" height="32" viewBox="0 0 32 32">
  <g id="form-icon5" transform="translate(-24 -1022.334)">
    <path id="Path_6616" data-name="Path 6616" d="M42,647.323V626.947a.866.866,0,0,0,.062-.166,6.451,6.451,0,0,1,4.2-5.221,13.882,13.882,0,0,1,1.545-.426H68.188a.866.866,0,0,0,.166.063,6.449,6.449,0,0,1,5.221,4.2A13.837,13.837,0,0,1,74,626.947v20.375a.865.865,0,0,0-.063.166,6.451,6.451,0,0,1-4.2,5.222,13.963,13.963,0,0,1-1.545.425H47.812a.9.9,0,0,0-.166-.063,6.451,6.451,0,0,1-5.222-4.2A13.987,13.987,0,0,1,42,647.323Zm15.968,3.937q4.625,0,9.25,0a5.551,5.551,0,0,0,1.086-.095,4.676,4.676,0,0,0,3.82-4.761q0-9.265,0-18.531a5.244,5.244,0,0,0-.09-1.024,4.677,4.677,0,0,0-4.75-3.834q-9.28-.005-18.562,0a5.155,5.155,0,0,0-1.024.1,4.668,4.668,0,0,0-3.818,4.7q-.01,9.327.009,18.656a5.177,5.177,0,0,0,.263,1.622,4.649,4.649,0,0,0,4.538,3.175Q53.328,651.268,57.968,651.26Z" transform="translate(-18 401.199)" fill="#5d5d5d"/>
    <g id="Group_4909" data-name="Group 4909" transform="translate(-230.307 739.986)">
      <path id="Path_6625" data-name="Path 6625" d="M260.052,322.778c.061-.277.1-.561.186-.831a4.925,4.925,0,0,1,3.787-3.518,1.859,1.859,0,0,1,.2-.024v.228c0,.814,0,1.629,0,2.443a1.631,1.631,0,0,0,.191.8c.7,1.33,1.394,2.668,2.094,4a2.564,2.564,0,0,0,.224.308l.054-.024v-.19c0-.654,0-1.308,0-1.962a.79.79,0,0,0-.085-.339c-.382-.747-.778-1.487-1.155-2.236a1.156,1.156,0,0,1-.114-.471c-.014-.478-.005-.956-.005-1.482.062.071.1.105.125.144q.647.9,1.292,1.806a.613.613,0,0,0,1.115,0q.631-.877,1.258-1.757a.467.467,0,0,1,.161-.151c0,.122,0,.244,0,.365a5.967,5.967,0,0,1-.034,1.335,5.668,5.668,0,0,1-.585,1.176c-.224.431-.449.862-.672,1.294a.455.455,0,0,0-.069.184c0,.76,0,1.52.04,2.308a1.777,1.777,0,0,0,.21-.264c.726-1.386,1.452-2.773,2.166-4.166a1.246,1.246,0,0,0,.122-.533c.012-.881.005-1.762.005-2.643V318.3l1.312.214V326.3h-11.3a.857.857,0,0,1-.521-.441Z" transform="translate(0 -17.707)" fill="#5d5d5d"/>
      <path id="Path_6626" data-name="Path 6626" d="M305.7,321.274a2.3,2.3,0,0,1-.024-.237q0-5.278,0-10.556a.71.71,0,0,1,.278-.649,1.38,1.38,0,0,1,1.1.01.612.612,0,0,1,.255.535c0,1.122,0,2.243,0,3.365v7.531Z" transform="translate(-26.742 -12.677)" fill="#5d5d5d"/>
      <path id="Path_6627" data-name="Path 6627" d="M298.753,323.085c0-.073-.01-.146-.01-.22q0-4.653,0-9.307a.627.627,0,0,1,.162-.535.968.968,0,0,1,.4-.191,1.948,1.948,0,0,1,.5-.006.58.58,0,0,1,.555.551c0,.06,0,.12,0,.18q0,4.654,0,9.307c0,.073,0,.146-.007.22Z" transform="translate(-22.679 -14.488)" fill="#5d5d5d"/>
      <path id="Path_6628" data-name="Path 6628" d="M291.753,324.969a1.407,1.407,0,0,1-.032-.213q0-4.005,0-8.01c0-.475.239-.688.715-.715.73-.04.93.247.926.928-.017,2.67-.006,5.34-.006,8.01Z" transform="translate(-18.563 -16.372)" fill="#5d5d5d"/>
      <path id="Path_6629" data-name="Path 6629" d="M298.7,291.931a3.816,3.816,0,1,1-3.82-3.834A3.813,3.813,0,0,1,298.7,291.931Zm-3.811-1.206a1.2,1.2,0,1,0,.007,2.392,1.211,1.211,0,0,0,1.194-1.2A1.2,1.2,0,0,0,294.891,290.726Z" transform="translate(-18.182 0)" fill="#5d5d5d"/>
      <path id="Path_6630" data-name="Path 6630" d="M268.5,299.945a4.8,4.8,0,0,0,6.731-2.606l.061-.013a10.5,10.5,0,0,1,.523,1.064,5.235,5.235,0,0,1-.64,5.142,3.518,3.518,0,0,1-2.424,1.484,3.208,3.208,0,0,1-2.549-.76,4.653,4.653,0,0,1-1.632-2.917,10.715,10.715,0,0,1-.085-1.155A2.094,2.094,0,0,1,268.5,299.945Z" transform="translate(-4.941 -5.41)" fill="#5d5d5d"/>
      <path id="Path_6631" data-name="Path 6631" d="M269.144,296.432a4,4,0,0,1,3.12-2.963,3.239,3.239,0,0,1,2.354.561.347.347,0,0,1,.052.046,3.627,3.627,0,0,1-2.453,2.763A3.537,3.537,0,0,1,269.144,296.432Z" transform="translate(-5.329 -3.127)" fill="#5d5d5d"/>
      <path id="Path_6632" data-name="Path 6632" d="M275.967,320.213l-1.3-1.813a4.649,4.649,0,0,0,2.589,0Z" transform="translate(-8.57 -17.762)" fill="#5d5d5d"/>
    </g>
  </g>
</svg>
