<svg xmlns="http://www.w3.org/2000/svg" width="32" height="32" viewBox="0 0 32 32">
  <g id="form-icon1" transform="translate(-42 -621.135)">
    <path id="Path_6616" data-name="Path 6616" d="M42,647.323V626.947a.866.866,0,0,0,.062-.166,6.451,6.451,0,0,1,4.2-5.221,13.882,13.882,0,0,1,1.545-.426H68.188a.866.866,0,0,0,.166.063,6.449,6.449,0,0,1,5.221,4.2A13.837,13.837,0,0,1,74,626.947v20.375a.865.865,0,0,0-.063.166,6.451,6.451,0,0,1-4.2,5.222,13.963,13.963,0,0,1-1.545.425H47.812a.9.9,0,0,0-.166-.063,6.451,6.451,0,0,1-5.222-4.2A13.987,13.987,0,0,1,42,647.323Zm15.968,3.937q4.625,0,9.25,0a5.551,5.551,0,0,0,1.086-.095,4.676,4.676,0,0,0,3.82-4.761q0-9.265,0-18.531a5.244,5.244,0,0,0-.09-1.024,4.677,4.677,0,0,0-4.75-3.834q-9.28-.005-18.562,0a5.155,5.155,0,0,0-1.024.1,4.668,4.668,0,0,0-3.818,4.7q-.01,9.327.009,18.656a5.177,5.177,0,0,0,.263,1.622,4.649,4.649,0,0,0,4.538,3.175Q53.328,651.268,57.968,651.26Z" fill="#5d5d5d"/>
    <path id="Path_6617" data-name="Path 6617" d="M50.116,637.613h.329c2.666,0,5.333,0,8,.006a.351.351,0,0,0,.408-.3c.815-2.54,1.646-5.075,2.472-7.61a.768.768,0,0,1,.164-.308l2.671,8.209h8.628l.036.07-6.99,5.08,2.7,8.321c-.79-.573-1.514-1.1-2.236-1.621-1.533-1.114-3.067-2.224-4.593-3.347a.358.358,0,0,0-.51.01q-3.264,2.387-6.54,4.757c-.067.048-.136.094-.274.189l2.7-8.309-6.989-5.079Zm11.377-2.079-.069,0c-.033.1-.067.193-.1.289-.371,1.135-.748,2.267-1.1,3.405a.339.339,0,0,1-.389.29c-1.187-.011-2.375-.005-3.562-.005h-.324a.767.767,0,0,0,.246.267c.943.686,1.881,1.377,2.833,2.05a.393.393,0,0,1,.184.531c-.379,1.109-.733,2.227-1.1,3.342-.037.113-.069.227-.127.42l3.471-2.519,3.455,2.507c-.034-.135-.048-.2-.069-.268-.382-1.185-.76-2.371-1.154-3.553a.3.3,0,0,1,.132-.41c.974-.7,1.94-1.4,2.907-2.107.088-.064.171-.135.3-.238-.143-.012-.222-.023-.3-.023-1.219,0-2.437-.006-3.656,0-.211,0-.317-.054-.375-.267-.105-.391-.244-.772-.369-1.156Q61.912,636.816,61.492,635.534Z" transform="translate(-3.456 -3.533)" fill="#5d5d5d"/>
  </g>
</svg>
