<svg xmlns="http://www.w3.org/2000/svg" width="31.999" height="31.984" viewBox="0 0 31.999 31.984">
  <g id="form-icon3" transform="translate(-60.312 25.59)">
    <path id="Path_6621" data-name="Path 6621" d="M75.621-25.59h.687a7.794,7.794,0,0,1,.781.3q6.939,3.506,13.873,7.021a2.272,2.272,0,0,1,1.348,2.2q-.016,6.48,0,12.961a2.27,2.27,0,0,1-1.347,2.2Q84.041,2.589,77.122,6.1a2.388,2.388,0,0,1-2.35-.027Q68.393,2.667,62-.7a2.9,2.9,0,0,1-1.684-1.827V-16.654a2.893,2.893,0,0,1,1.683-1.827c3.642-1.906,7.265-3.852,10.9-5.77C73.791-24.723,74.713-25.145,75.621-25.59Zm7.424,13.863c-.144.064-.247.106-.346.154-1.823.907-3.642,1.819-5.469,2.716a.487.487,0,0,0-.326.513q.015,6.013.007,12.026v.382c.148-.066.25-.106.348-.156Q83.64.677,90.023-2.551a.666.666,0,0,0,.415-.683q-.014-5.919-.006-11.839V-15.4a1.42,1.42,0,0,0-.14.047c-1.731.86-3.463,1.718-5.188,2.59a.445.445,0,0,0-.167.34c-.012,1.26-.005,2.52-.009,3.78A.966.966,0,0,1,84-7.6a.941.941,0,0,1-.953-1.01c-.009-.541,0-1.083,0-1.624ZM62.186-15.37v.341q0,5.9-.005,11.806a.682.682,0,0,0,.4.692Q68.648.67,74.7,3.89c.088.047.182.085.293.137.005-.1.013-.17.013-.241q0-6.12.007-12.242c0-.225-.1-.3-.271-.389q-6.109-3.18-12.214-6.367C62.431-15.263,62.328-15.3,62.186-15.37ZM82.1-13.383c-.1-.064-.154-.1-.207-.128q-6.2-3.281-12.394-6.564a.455.455,0,0,0-.488.019c-1.456.781-2.916,1.552-4.376,2.327l-1.4.74c.133.075.228.134.328.186q5.637,2.94,11.275,5.879c.377.2.758.531,1.138.533s.766-.328,1.147-.518C78.767-11.725,80.411-12.544,82.1-13.383ZM71.3-21.268c.074.047.107.073.144.092q6.268,3.318,12.541,6.625a.573.573,0,0,0,.452,0c1.55-.757,3.093-1.53,4.637-2.3.071-.036.138-.083.23-.139l-1.973-1q-5.491-2.782-10.98-5.568a.7.7,0,0,0-.751,0c-.42.247-.86.463-1.291.692Z" transform="translate(0)" fill="#5d5d5d"/>
  </g>
</svg>
