<svg xmlns="http://www.w3.org/2000/svg" width="32" height="32" viewBox="0 0 32 32">
  <g id="form-icon4" transform="translate(-24 -861.334)">
    <path id="Path_6616" data-name="Path 6616" d="M42,647.323V626.947a.866.866,0,0,0,.062-.166,6.451,6.451,0,0,1,4.2-5.221,13.882,13.882,0,0,1,1.545-.426H68.188a.866.866,0,0,0,.166.063,6.449,6.449,0,0,1,5.221,4.2A13.837,13.837,0,0,1,74,626.947v20.375a.865.865,0,0,0-.063.166,6.451,6.451,0,0,1-4.2,5.222,13.963,13.963,0,0,1-1.545.425H47.812a.9.9,0,0,0-.166-.063,6.451,6.451,0,0,1-5.222-4.2A13.987,13.987,0,0,1,42,647.323Zm15.968,3.937q4.625,0,9.25,0a5.551,5.551,0,0,0,1.086-.095,4.676,4.676,0,0,0,3.82-4.761q0-9.265,0-18.531a5.244,5.244,0,0,0-.09-1.024,4.677,4.677,0,0,0-4.75-3.834q-9.28-.005-18.562,0a5.155,5.155,0,0,0-1.024.1,4.668,4.668,0,0,0-3.818,4.7q-.01,9.327.009,18.656a5.177,5.177,0,0,0,.263,1.622,4.649,4.649,0,0,0,4.538,3.175Q53.328,651.268,57.968,651.26Z" transform="translate(-18 240.199)" fill="#5d5d5d"/>
    <g id="Group_4907" data-name="Group 4907" transform="translate(-272.613 403.424)">
      <path id="Path_6622" data-name="Path 6622" d="M305.5,499.518a2.378,2.378,0,0,1-.431-.43c-.963-1.645-1.913-3.3-2.866-4.948-.276-.478-.2-.75.283-1.029l2.694-1.554a.613.613,0,0,1,.986.266q1.441,2.494,2.881,4.989a.622.622,0,0,1-.259.99q-1.464.844-2.931,1.683c-.01.006-.015.021-.023.032Z" transform="translate(0 -14.896)" fill="#5d5d5d"/>
      <path id="Path_6623" data-name="Path 6623" d="M317.584,468.5a5.3,5.3,0,1,1,5.305,5.3A5.3,5.3,0,0,1,317.584,468.5Zm7.227-1.554a1.618,1.618,0,0,0-1.1-1.5c-.143-.049-.208-.1-.211-.268a.61.61,0,0,0-1.214-.02c-.008.181-.081.239-.238.295a1.641,1.641,0,0,0-.509,2.8c.2.166.409.314.615.468.414.307.83.611,1.242.921a.392.392,0,0,1,.166.457.4.4,0,0,1-.409.294h-.418c-.375,0-.482-.092-.531-.458a.625.625,0,0,0-1.246.1,1.642,1.642,0,0,0,1.115,1.516.251.251,0,0,1,.21.27.611.611,0,0,0,1.218-.017c0-.157.064-.2.2-.252a1.578,1.578,0,0,0,1.1-1.366,1.662,1.662,0,0,0-.774-1.626c-.553-.4-1.1-.81-1.646-1.218a.391.391,0,0,1-.163-.458.407.407,0,0,1,.414-.29c.16,0,.32,0,.481,0a.428.428,0,0,1,.464.431.619.619,0,1,0,1.235-.076Z" transform="translate(-8.206 0)" fill="#5d5d5d"/>
      <path id="Path_6624" data-name="Path 6624" d="M319.114,494.088c-.83,0-1.66,0-2.49,0a.3.3,0,0,1-.312-.174q-1.177-2.057-2.37-4.106a.289.289,0,0,1-.008-.339,4.337,4.337,0,0,1,3.15-2.122,3.917,3.917,0,0,1,3.447,1.113.413.413,0,0,0,.257.092c.767.007,1.535,0,2.3.006a.853.853,0,0,1,.832.762.842.842,0,0,1-.643.884,1.139,1.139,0,0,1-.27.022c-1.032,0-2.064,0-3.1,0a.627.627,0,0,0-.634.445.581.581,0,0,0,.234.678.841.841,0,0,0,.41.125c.99.01,1.981.013,2.971,0a2.388,2.388,0,0,0,1.412-.5c1.231-.9,2.471-1.791,3.712-2.679a.88.88,0,0,1,1.245.182.867.867,0,0,1-.2,1.24c-1.554,1.132-3.108,2.265-4.678,3.376a5.361,5.361,0,0,1-3.281.99C320.44,494.077,319.777,494.088,319.114,494.088Z" transform="translate(-6.252 -12.724)" fill="#5d5d5d"/>
    </g>
  </g>
</svg>
