<svg xmlns="http://www.w3.org/2000/svg" width="17" height="32.015" viewBox="0 0 17 32.015">
  <g id="gold_logo2" transform="translate(-90 -145.985)">
    <path id="Path_5792" data-name="Path 5792" d="M202.256,83.895h-6.772V78.94l1.279-1.2a2.307,2.307,0,0,0,1.24.363h.076a3.393,3.393,0,0,0,.652-.068,5.2,5.2,0,0,0,3.792-3.786,2.492,2.492,0,0,0-.576-2.34,2.3,2.3,0,0,0-1.669-.645,3.354,3.354,0,0,0-.661.069l-.008,0-.008,0a5.19,5.19,0,0,0-3.776,3.775l0,.008,0,.008a2.74,2.74,0,0,0,.161,1.731l-.5.467V71.417c1.523-.39,2.638-2.249,2.638-4.483,0-2.515-1.447-4.561-3.226-4.561s-3.225,2.046-3.225,4.561c0,2.234,1.114,4.093,2.636,4.483v5.925l-.547-.5a2.751,2.751,0,0,0,.15-1.707l0-.008,0-.008a5.19,5.19,0,0,0-3.776-3.776l-.008,0-.008,0a3.357,3.357,0,0,0-.661-.069,2.3,2.3,0,0,0-1.669.646,2.489,2.489,0,0,0-.577,2.33,5.2,5.2,0,0,0,3.786,3.793,3.422,3.422,0,0,0,.669.071h.068a2.3,2.3,0,0,0,1.262-.378l1.315,1.212v4.952h-7.175v1.177h7.175v1.663h1.177V85.072h7.11V83.895Zm-11.777-9.62-.338.368-.228.249.248.229,1.9,1.755a1.469,1.469,0,0,1-.405.054,2.137,2.137,0,0,1-.422-.045,3.684,3.684,0,0,1-1.82-1.043l-.1-.1h-.006A3.715,3.715,0,0,1,188.359,74a1.355,1.355,0,0,1,.258-1.255,1.136,1.136,0,0,1,.775-.3h.062a2.1,2.1,0,0,1,.418.044,4.025,4.025,0,0,1,2.885,2.884,1.988,1.988,0,0,1,.036.575l-1.838-1.693-.249-.23Zm4.667-7.679h-.839v3.575a3.653,3.653,0,0,1-1.46-3.237c0-1.834.938-3.383,2.049-3.383s2.049,1.549,2.049,3.383a3.652,3.652,0,0,1-1.46,3.237V66.6Zm4.43,8.522.247-.231-.231-.247-.342-.366-.231-.247-.247.231-1.83,1.71a1.978,1.978,0,0,1,.034-.595,4.024,4.024,0,0,1,2.886-2.884,2.1,2.1,0,0,1,.418-.043h.063a1.138,1.138,0,0,1,.781.309,1.361,1.361,0,0,1,.248,1.258,3.692,3.692,0,0,1-1.043,1.82l-.005.005,0,.005a3.7,3.7,0,0,1-1.832,1.045,2.129,2.129,0,0,1-.414.043,1.48,1.48,0,0,1-.385-.048Z" transform="translate(-96.132 83.612)" fill="#dead07"/>
    <text id="GOLD" transform="translate(90 176)" fill="#dead07" font-size="6" font-family="SegoeUI-Bold, Segoe UI" font-weight="700" letter-spacing="0.006em"><tspan x="0" y="0">GOLD</tspan></text>
  </g>
</svg>
