<svg xmlns="http://www.w3.org/2000/svg" xmlns:xlink="http://www.w3.org/1999/xlink" width="330" height="363.136" viewBox="0 0 330 363.136">
  <defs>
    <clipPath id="clip-path">
      <path id="Shape" d="M7.722,2.167l-4.8,5.026,4.8,5.026a1.312,1.312,0,0,1,0,1.795,1.173,1.173,0,0,1-1.713,0L.355,8.09a1.312,1.312,0,0,1,0-1.795L6.009.372a1.173,1.173,0,0,1,1.713,0A1.312,1.312,0,0,1,7.722,2.167Z" transform="translate(8.346 14.615) rotate(180)" fill="none"/>
    </clipPath>
  </defs>
  <g id="Group_3218" data-name="Group 3218" transform="translate(-23.423 -1956.5)">
    <text id="Popular_Training" data-name="Popular Training" transform="translate(23.423 1956.5)" font-size="20" font-family="SegoeUI-Bold, Segoe UI" font-weight="700" letter-spacing="0.019em"><tspan x="0" y="22">We are Projekt Indigo</tspan></text>
    <g id="Rectangle_53" data-name="Rectangle 53" transform="translate(25.423 2018)" fill="none" stroke="#707070" stroke-width="1">
      <rect width="326" height="39" stroke="none"/>
      <rect x="0.5" y="0.5" width="325" height="38" fill="none"/>
    </g>
    <text id="Change_Password" data-name="Change Password" transform="translate(28.423 2088.5)" font-size="16" font-family="SegoeUI, Segoe UI" letter-spacing="-0.02em"><tspan x="0" y="17">Terms &amp; condition</tspan></text>
    <text id="Change_Password-2" data-name="Change Password" transform="translate(28.423 2134.962)" font-size="16" font-family="SegoeUI, Segoe UI" letter-spacing="-0.02em"><tspan x="0" y="17">Privacy policy</tspan></text>
    <text id="Change_Password-3" data-name="Change Password" transform="translate(28.423 2181.424)" font-size="16" font-family="SegoeUI, Segoe UI" letter-spacing="-0.02em"><tspan x="0" y="17">Contact us</tspan></text>
    <text id="Change_Password-4" data-name="Change Password" transform="translate(28.423 2227.886)" font-size="16" font-family="SegoeUI, Segoe UI" letter-spacing="-0.02em"><tspan x="0" y="17">Social links</tspan></text>
    <text id="Change_Password-5" data-name="Change Password" transform="translate(64.423 2027)" font-size="16" font-family="SegoeUI, Segoe UI" letter-spacing="-0.02em"><tspan x="0" y="17">United States</tspan></text>
    <g id="Icons_Hamburger_Copy" data-name="Icons/Hamburger Copy" transform="translate(338.654 2033.192) rotate(90)">
      <path id="Shape-7" data-name="Shape" d="M7.722,2.167l-4.8,5.026,4.8,5.026a1.312,1.312,0,0,1,0,1.795,1.173,1.173,0,0,1-1.713,0L.355,8.09a1.312,1.312,0,0,1,0-1.795L6.009.372a1.173,1.173,0,0,1,1.713,0A1.312,1.312,0,0,1,7.722,2.167Z" transform="translate(8.346 14.615) rotate(180)" fill="none"/>
      <g id="Icons_Hamburger_Copy-2" data-name="Icons/Hamburger Copy" clip-path="url(#clip-path)">
        <g id="Style_Fill_Dark" data-name="Style/Fill/Dark" transform="translate(-7 -4)">
          <rect id="Background" width="21" height="22" fill="#0d0e15"/>
        </g>
      </g>
    </g>
    <g id="Icons_Hamburger_Copy-3" data-name="Icons/Hamburger Copy" transform="translate(338.654 1964.192) rotate(90)">
      <path id="Shape-8" data-name="Shape" d="M7.722,2.167l-4.8,5.026,4.8,5.026a1.312,1.312,0,0,1,0,1.795,1.173,1.173,0,0,1-1.713,0L.355,8.09a1.312,1.312,0,0,1,0-1.795L6.009.372a1.173,1.173,0,0,1,1.713,0A1.312,1.312,0,0,1,7.722,2.167Z" transform="translate(8.346 14.615) rotate(180)" fill="none"/>
      <g id="Icons_Hamburger_Copy-4" data-name="Icons/Hamburger Copy" clip-path="url(#clip-path)">
        <g id="Style_Fill_Dark-2" data-name="Style/Fill/Dark" transform="translate(-7 -4)">
          <rect id="Background-2" data-name="Background" width="21" height="22" fill="#0d0e15"/>
        </g>
      </g>
    </g>
    <g id="Icons_Hamburger_Copy-5" data-name="Icons/Hamburger Copy" transform="translate(338.654 2094.692) rotate(90)">
      <path id="Shape-9" data-name="Shape" d="M7.722,2.167l-4.8,5.026,4.8,5.026a1.312,1.312,0,0,1,0,1.795,1.173,1.173,0,0,1-1.713,0L.355,8.09a1.312,1.312,0,0,1,0-1.795L6.009.372a1.173,1.173,0,0,1,1.713,0A1.312,1.312,0,0,1,7.722,2.167Z" transform="translate(8.346 14.615) rotate(180)" fill="none"/>
      <g id="Icons_Hamburger_Copy-6" data-name="Icons/Hamburger Copy" clip-path="url(#clip-path)">
        <g id="Style_Fill_Dark-3" data-name="Style/Fill/Dark" transform="translate(-7 -4)">
          <rect id="Background-3" data-name="Background" width="21" height="22" fill="#0d0e15"/>
        </g>
      </g>
    </g>
    <g id="Icons_Hamburger_Copy-7" data-name="Icons/Hamburger Copy" transform="translate(338.654 2141.154) rotate(90)">
      <path id="Shape-10" data-name="Shape" d="M7.722,2.167l-4.8,5.026,4.8,5.026a1.312,1.312,0,0,1,0,1.795,1.173,1.173,0,0,1-1.713,0L.355,8.09a1.312,1.312,0,0,1,0-1.795L6.009.372a1.173,1.173,0,0,1,1.713,0A1.312,1.312,0,0,1,7.722,2.167Z" transform="translate(8.346 14.615) rotate(180)" fill="none"/>
      <g id="Icons_Hamburger_Copy-8" data-name="Icons/Hamburger Copy" clip-path="url(#clip-path)">
        <g id="Style_Fill_Dark-4" data-name="Style/Fill/Dark" transform="translate(-7 -4)">
          <rect id="Background-4" data-name="Background" width="21" height="22" fill="#0d0e15"/>
        </g>
      </g>
    </g>
    <g id="Icons_Hamburger_Copy-9" data-name="Icons/Hamburger Copy" transform="translate(338.654 2187.616) rotate(90)">
      <path id="Shape-11" data-name="Shape" d="M7.722,2.167l-4.8,5.026,4.8,5.026a1.312,1.312,0,0,1,0,1.795,1.173,1.173,0,0,1-1.713,0L.355,8.09a1.312,1.312,0,0,1,0-1.795L6.009.372a1.173,1.173,0,0,1,1.713,0A1.312,1.312,0,0,1,7.722,2.167Z" transform="translate(8.346 14.615) rotate(180)" fill="none"/>
      <g id="Icons_Hamburger_Copy-10" data-name="Icons/Hamburger Copy" clip-path="url(#clip-path)">
        <g id="Style_Fill_Dark-5" data-name="Style/Fill/Dark" transform="translate(-7 -4)">
          <rect id="Background-5" data-name="Background" width="21" height="22" fill="#0d0e15"/>
        </g>
      </g>
    </g>
    <g id="Icons_Hamburger_Copy-11" data-name="Icons/Hamburger Copy" transform="translate(338.654 2234.078) rotate(90)">
      <path id="Shape-12" data-name="Shape" d="M7.722,2.167l-4.8,5.026,4.8,5.026a1.312,1.312,0,0,1,0,1.795,1.173,1.173,0,0,1-1.713,0L.355,8.09a1.312,1.312,0,0,1,0-1.795L6.009.372a1.173,1.173,0,0,1,1.713,0A1.312,1.312,0,0,1,7.722,2.167Z" transform="translate(8.346 14.615) rotate(180)" fill="none"/>
      <g id="Icons_Hamburger_Copy-12" data-name="Icons/Hamburger Copy" clip-path="url(#clip-path)">
        <g id="Style_Fill_Dark-6" data-name="Style/Fill/Dark" transform="translate(-7 -4)">
          <rect id="Background-6" data-name="Background" width="21" height="22" fill="#0d0e15"/>
        </g>
      </g>
    </g>
    <rect id="Line_Copy_3" data-name="Line Copy 3" width="330" height="1" transform="translate(23.423 2118.5)" opacity="0.1"/>
    <rect id="Line_Copy_3-2" data-name="Line Copy 3" width="330" height="1" transform="translate(23.423 2164.962)" opacity="0.1"/>
    <rect id="Line_Copy_3-3" data-name="Line Copy 3" width="330" height="1" transform="translate(23.423 2211.424)" opacity="0.1"/>
    <rect id="Line_Copy_3-4" data-name="Line Copy 3" width="330" height="1" transform="translate(23.423 2257.886)" opacity="0.1"/>
    <g id="united-states" transform="translate(35.29 1942.995)">
      <path id="Path_2758" data-name="Path 2758" d="M21.246,100.583a.449.449,0,0,1-.447.447H.447A.449.449,0,0,1,0,100.583V87.452A.449.449,0,0,1,.447,87H20.8a.449.449,0,0,1,.447.447Z" transform="translate(0 0)" fill="#fff7ee"/>
      <g id="Group_1028" data-name="Group 1028" transform="translate(0 87.005)">
        <path id="Path_2759" data-name="Path 2759" d="M221.483,87.006H209.372v1.349H221.93v-.9A.449.449,0,0,0,221.483,87.006Z" transform="translate(-200.684 -87.006)" fill="#e02424"/>
        <path id="Path_2760" data-name="Path 2760" d="M197.725,209.2v.842a.507.507,0,0,1-.5.507h13.062V209.2H197.725Z" transform="translate(-189.037 -204.127)" fill="#e02424"/>
        <rect id="Rectangle_54" data-name="Rectangle 54" width="21.246" height="1.349" transform="translate(0 7.606)" fill="#e02424"/>
      </g>
      <rect id="Rectangle_55" data-name="Rectangle 55" width="1.364" height="1.349" transform="translate(0 94.611)" opacity="0.1"/>
      <g id="Group_1029" data-name="Group 1029" transform="translate(0 89.54)">
        <rect id="Rectangle_56" data-name="Rectangle 56" width="21.246" height="1.349" transform="translate(0 7.606)" fill="#e02424"/>
        <path id="Path_2761" data-name="Path 2761" d="M21.246,393.389v-.9H0v.9a.449.449,0,0,0,.447.447H20.8A.449.449,0,0,0,21.246,393.389Z" transform="translate(0 -382.346)" fill="#e02424"/>
        <rect id="Rectangle_57" data-name="Rectangle 57" width="12.558" height="1.349" transform="translate(8.688 0)" fill="#e02424"/>
      </g>
      <path id="Path_2762" data-name="Path 2762" d="M.447,87.006A.449.449,0,0,0,0,87.453v5.972H8.661a.507.507,0,0,0,.5-.507V87.006Z" transform="translate(0 -0.001)" fill="#0853a4"/>
      <path id="Path_2763" data-name="Path 2763" d="M1.856,87.006H.447A.449.449,0,0,0,0,87.453v5.972H1.409V87.453A.449.449,0,0,1,1.856,87.006Z" transform="translate(0 -0.001)" opacity="0.1"/>
      <g id="Group_1030" data-name="Group 1030" transform="translate(0.798 87.614)">
        <path id="Path_2764" data-name="Path 2764" d="M37.061,116a.062.062,0,0,1-.03-.008l-.122-.066-.122.066a.062.062,0,0,1-.03.008.063.063,0,0,1-.038-.012.066.066,0,0,1-.025-.064l.023-.139-.1-.1a.067.067,0,0,1-.016-.067.064.064,0,0,1,.052-.045l.136-.02.061-.127a.063.063,0,0,1,.115,0l.061.127.136.02a.064.064,0,0,1,.052.045.067.067,0,0,1-.016.067l-.1.1.023.139a.066.066,0,0,1-.025.064A.063.063,0,0,1,37.061,116Z" transform="translate(-35.878 -114.825)" fill="#fff"/>
        <path id="Path_2765" data-name="Path 2765" d="M37.061,143.425a.062.062,0,0,1-.03-.008l-.122-.066-.122.066a.062.062,0,0,1-.03.008.063.063,0,0,1-.038-.012.066.066,0,0,1-.025-.064l.023-.139-.1-.1a.067.067,0,0,1-.016-.067.065.065,0,0,1,.052-.045l.136-.02.061-.127a.063.063,0,0,1,.115,0l.061.127.136.02a.065.065,0,0,1,.052.045.067.067,0,0,1-.016.067l-.1.1.023.139a.066.066,0,0,1-.025.064A.063.063,0,0,1,37.061,143.425Z" transform="translate(-35.878 -141.108)" fill="#fff"/>
        <path id="Path_2766" data-name="Path 2766" d="M37.061,170.847a.063.063,0,0,1-.03-.008l-.122-.066-.122.066a.062.062,0,0,1-.03.008.063.063,0,0,1-.038-.012.066.066,0,0,1-.025-.064l.023-.139-.1-.1a.067.067,0,0,1-.016-.067.065.065,0,0,1,.052-.045l.136-.02.061-.127a.063.063,0,0,1,.115,0l.061.127.136.02a.065.065,0,0,1,.052.045.067.067,0,0,1-.016.067l-.1.1.023.139a.066.066,0,0,1-.025.064A.063.063,0,0,1,37.061,170.847Z" transform="translate(-35.878 -167.392)" fill="#fff"/>
        <path id="Path_2767" data-name="Path 2767" d="M37.061,198.265a.063.063,0,0,1-.03-.008l-.122-.066-.122.066a.062.062,0,0,1-.03.008.063.063,0,0,1-.038-.013.066.066,0,0,1-.025-.064l.023-.139-.1-.1a.067.067,0,0,1-.016-.067.065.065,0,0,1,.052-.045l.136-.02.061-.127a.063.063,0,0,1,.115,0l.061.127.136.02a.065.065,0,0,1,.052.045.067.067,0,0,1-.016.067l-.1.1.023.139a.066.066,0,0,1-.025.064A.063.063,0,0,1,37.061,198.265Z" transform="translate(-35.878 -193.672)" fill="#fff"/>
        <path id="Path_2768" data-name="Path 2768" d="M19.692,102.293a.062.062,0,0,1-.03-.008l-.122-.066-.122.066a.062.062,0,0,1-.03.008.063.063,0,0,1-.038-.013.066.066,0,0,1-.025-.064l.023-.139-.1-.1a.067.067,0,0,1-.016-.067.064.064,0,0,1,.052-.045l.136-.02.061-.127a.063.063,0,0,1,.115,0l.061.127.136.02a.065.065,0,0,1,.052.045.067.067,0,0,1-.016.067l-.1.1.023.139a.066.066,0,0,1-.025.064A.063.063,0,0,1,19.692,102.293Z" transform="translate(-19.23 -101.683)" fill="#fff"/>
        <path id="Path_2769" data-name="Path 2769" d="M19.692,129.714a.064.064,0,0,1-.03-.008l-.122-.066-.122.066a.063.063,0,0,1-.03.008.063.063,0,0,1-.038-.013.066.066,0,0,1-.025-.064l.023-.139-.1-.1a.067.067,0,0,1-.016-.067.064.064,0,0,1,.052-.045l.136-.02.061-.127a.063.063,0,0,1,.115,0l.061.127.136.02a.064.064,0,0,1,.052.045.067.067,0,0,1-.016.067l-.1.1.023.139a.066.066,0,0,1-.025.064A.063.063,0,0,1,19.692,129.714Z" transform="translate(-19.23 -127.966)" fill="#fff"/>
        <path id="Path_2770" data-name="Path 2770" d="M19.692,157.135a.063.063,0,0,1-.03-.007l-.122-.066-.122.066a.063.063,0,0,1-.068-.005.066.066,0,0,1-.025-.064l.023-.139-.1-.1a.067.067,0,0,1-.016-.067.064.064,0,0,1,.052-.045l.136-.02.061-.127a.063.063,0,0,1,.115,0l.061.127.136.02a.064.064,0,0,1,.052.045.067.067,0,0,1-.016.067l-.1.1.023.139a.066.066,0,0,1-.025.064A.063.063,0,0,1,19.692,157.135Z" transform="translate(-19.23 -154.249)" fill="#fff"/>
        <path id="Path_2771" data-name="Path 2771" d="M19.692,184.554a.062.062,0,0,1-.03-.007l-.122-.066-.122.066a.063.063,0,0,1-.068,0,.066.066,0,0,1-.025-.064l.023-.139-.1-.1a.067.067,0,0,1-.016-.067.064.064,0,0,1,.052-.045l.136-.02.061-.127a.063.063,0,0,1,.115,0l.061.127.136.02a.065.065,0,0,1,.052.045.067.067,0,0,1-.016.067l-.1.1.023.139a.066.066,0,0,1-.025.064A.063.063,0,0,1,19.692,184.554Z" transform="translate(-19.23 -180.53)" fill="#fff"/>
        <path id="Path_2772" data-name="Path 2772" d="M19.692,211.975a.063.063,0,0,1-.03-.008l-.122-.066-.122.066a.063.063,0,0,1-.068,0,.066.066,0,0,1-.025-.064l.023-.139-.1-.1a.067.067,0,0,1-.016-.067.064.064,0,0,1,.052-.045l.136-.02.061-.127a.063.063,0,0,1,.115,0l.061.127.136.02a.064.064,0,0,1,.052.045.067.067,0,0,1-.016.067l-.1.1.023.139a.066.066,0,0,1-.025.064A.062.062,0,0,1,19.692,211.975Z" transform="translate(-19.23 -206.814)" fill="#fff"/>
        <path id="Path_2773" data-name="Path 2773" d="M70.776,116a.062.062,0,0,1-.03-.008l-.122-.066L70.5,116a.062.062,0,0,1-.03.008.063.063,0,0,1-.038-.012.066.066,0,0,1-.025-.064l.023-.139-.1-.1a.067.067,0,0,1-.016-.067.064.064,0,0,1,.052-.045l.136-.02.061-.127a.063.063,0,0,1,.115,0l.061.127.136.02a.064.064,0,0,1,.052.045.067.067,0,0,1-.016.067l-.1.1.023.139a.066.066,0,0,1-.025.064A.063.063,0,0,1,70.776,116Z" transform="translate(-68.194 -114.825)" fill="#fff"/>
        <path id="Path_2774" data-name="Path 2774" d="M70.776,143.425a.062.062,0,0,1-.03-.008l-.122-.066-.122.066a.062.062,0,0,1-.03.008.063.063,0,0,1-.038-.012.066.066,0,0,1-.025-.064l.023-.139-.1-.1a.067.067,0,0,1-.016-.067.065.065,0,0,1,.052-.045l.136-.02.061-.127a.063.063,0,0,1,.115,0l.061.127.136.02a.065.065,0,0,1,.052.045.067.067,0,0,1-.016.067l-.1.1.023.139a.066.066,0,0,1-.025.064A.062.062,0,0,1,70.776,143.425Z" transform="translate(-68.194 -141.108)" fill="#fff"/>
        <path id="Path_2775" data-name="Path 2775" d="M70.776,170.847a.063.063,0,0,1-.03-.008l-.122-.066-.122.066a.062.062,0,0,1-.03.008.063.063,0,0,1-.038-.012.066.066,0,0,1-.025-.064l.023-.139-.1-.1a.067.067,0,0,1-.016-.067.065.065,0,0,1,.052-.045l.136-.02.061-.127a.063.063,0,0,1,.115,0l.061.127.136.02a.065.065,0,0,1,.052.045.067.067,0,0,1-.016.067l-.1.1.023.139a.066.066,0,0,1-.025.064A.063.063,0,0,1,70.776,170.847Z" transform="translate(-68.194 -167.392)" fill="#fff"/>
        <path id="Path_2776" data-name="Path 2776" d="M70.776,198.265a.063.063,0,0,1-.03-.008l-.122-.066-.122.066a.062.062,0,0,1-.03.008.063.063,0,0,1-.038-.013.066.066,0,0,1-.025-.064l.023-.139-.1-.1a.067.067,0,0,1-.016-.067.065.065,0,0,1,.052-.045l.136-.02.061-.127a.063.063,0,0,1,.115,0l.061.127.136.02a.065.065,0,0,1,.052.045.067.067,0,0,1-.016.067l-.1.1.023.139a.066.066,0,0,1-.025.064A.063.063,0,0,1,70.776,198.265Z" transform="translate(-68.194 -193.672)" fill="#fff"/>
        <path id="Path_2777" data-name="Path 2777" d="M53.408,102.293a.061.061,0,0,1-.03-.008l-.122-.066-.122.066a.062.062,0,0,1-.03.008.063.063,0,0,1-.038-.013.066.066,0,0,1-.025-.064l.023-.139-.1-.1a.067.067,0,0,1-.016-.067.064.064,0,0,1,.052-.045l.136-.02.061-.127a.063.063,0,0,1,.115,0l.061.127.136.02a.064.064,0,0,1,.052.045.067.067,0,0,1-.016.067l-.1.1.023.139a.066.066,0,0,1-.025.064A.063.063,0,0,1,53.408,102.293Z" transform="translate(-51.548 -101.683)" fill="#fff"/>
        <path id="Path_2778" data-name="Path 2778" d="M53.408,129.714a.063.063,0,0,1-.03-.008l-.122-.066-.122.066a.063.063,0,0,1-.03.008.063.063,0,0,1-.038-.013.066.066,0,0,1-.025-.064l.023-.139-.1-.1a.067.067,0,0,1-.016-.067.064.064,0,0,1,.052-.045l.136-.02.061-.127a.063.063,0,0,1,.115,0l.061.127.136.02a.064.064,0,0,1,.052.045.067.067,0,0,1-.016.067l-.1.1.023.139a.066.066,0,0,1-.025.064A.064.064,0,0,1,53.408,129.714Z" transform="translate(-51.548 -127.966)" fill="#fff"/>
        <path id="Path_2779" data-name="Path 2779" d="M53.408,157.135a.063.063,0,0,1-.03-.007l-.122-.066-.122.066a.063.063,0,0,1-.067-.005.066.066,0,0,1-.025-.064l.023-.139-.1-.1a.067.067,0,0,1-.016-.067.064.064,0,0,1,.052-.045l.136-.02.061-.127a.063.063,0,0,1,.115,0l.061.127.136.02a.064.064,0,0,1,.052.045.067.067,0,0,1-.016.067l-.1.1.023.139a.066.066,0,0,1-.025.064A.063.063,0,0,1,53.408,157.135Z" transform="translate(-51.548 -154.249)" fill="#fff"/>
        <path id="Path_2780" data-name="Path 2780" d="M53.408,184.554a.062.062,0,0,1-.03-.007l-.122-.066-.122.066a.063.063,0,0,1-.067,0,.066.066,0,0,1-.025-.064l.023-.139-.1-.1a.067.067,0,0,1-.016-.067.064.064,0,0,1,.052-.045l.136-.02.061-.127a.063.063,0,0,1,.115,0l.061.127.136.02a.064.064,0,0,1,.052.045.067.067,0,0,1-.016.067l-.1.1.023.139a.066.066,0,0,1-.025.064A.063.063,0,0,1,53.408,184.554Z" transform="translate(-51.548 -180.53)" fill="#fff"/>
        <path id="Path_2781" data-name="Path 2781" d="M53.408,211.975a.063.063,0,0,1-.03-.008l-.122-.066-.122.066a.063.063,0,0,1-.067,0,.066.066,0,0,1-.025-.064l.023-.139-.1-.1a.067.067,0,0,1-.016-.067.064.064,0,0,1,.052-.045l.136-.02.061-.127a.063.063,0,0,1,.115,0l.061.127.136.02a.064.064,0,0,1,.052.045.067.067,0,0,1-.016.067l-.1.1.023.139a.066.066,0,0,1-.025.064A.063.063,0,0,1,53.408,211.975Z" transform="translate(-51.548 -206.814)" fill="#fff"/>
        <path id="Path_2782" data-name="Path 2782" d="M104.491,116a.062.062,0,0,1-.03-.008l-.122-.066-.122.066a.062.062,0,0,1-.03.008.063.063,0,0,1-.038-.012.066.066,0,0,1-.025-.064l.023-.139-.1-.1a.067.067,0,0,1-.016-.067.064.064,0,0,1,.052-.045l.136-.02.061-.127a.063.063,0,0,1,.115,0l.061.127.136.02a.064.064,0,0,1,.052.045.067.067,0,0,1-.016.067l-.1.1.023.139a.066.066,0,0,1-.025.064A.063.063,0,0,1,104.491,116Z" transform="translate(-100.511 -114.825)" fill="#fff"/>
        <path id="Path_2783" data-name="Path 2783" d="M104.491,143.425a.062.062,0,0,1-.03-.008l-.122-.066-.122.066a.062.062,0,0,1-.03.008.063.063,0,0,1-.038-.012.066.066,0,0,1-.025-.064l.023-.139-.1-.1a.067.067,0,0,1-.016-.067.065.065,0,0,1,.052-.045l.136-.02.061-.127a.063.063,0,0,1,.115,0l.061.127.136.02a.065.065,0,0,1,.052.045.067.067,0,0,1-.016.067l-.1.1.023.139a.066.066,0,0,1-.025.064A.063.063,0,0,1,104.491,143.425Z" transform="translate(-100.511 -141.108)" fill="#fff"/>
        <path id="Path_2784" data-name="Path 2784" d="M104.491,170.847a.063.063,0,0,1-.03-.008l-.122-.066-.122.066a.062.062,0,0,1-.03.008.063.063,0,0,1-.038-.012.066.066,0,0,1-.025-.064l.023-.139-.1-.1a.067.067,0,0,1-.016-.067.064.064,0,0,1,.052-.045l.136-.02.061-.127a.063.063,0,0,1,.115,0l.061.127.136.02a.065.065,0,0,1,.052.045.067.067,0,0,1-.016.067l-.1.1.023.139a.066.066,0,0,1-.025.064A.063.063,0,0,1,104.491,170.847Z" transform="translate(-100.511 -167.392)" fill="#fff"/>
        <path id="Path_2785" data-name="Path 2785" d="M104.491,198.265a.063.063,0,0,1-.03-.008l-.122-.066-.122.066a.063.063,0,0,1-.067-.005.066.066,0,0,1-.025-.064l.023-.139-.1-.1a.067.067,0,0,1-.016-.067.064.064,0,0,1,.052-.045l.136-.02.061-.127a.063.063,0,0,1,.115,0l.061.127.136.02a.065.065,0,0,1,.052.045.067.067,0,0,1-.016.067l-.1.1.023.139a.066.066,0,0,1-.025.064A.063.063,0,0,1,104.491,198.265Z" transform="translate(-100.511 -193.672)" fill="#fff"/>
        <path id="Path_2786" data-name="Path 2786" d="M87.123,102.293a.061.061,0,0,1-.03-.008l-.122-.066-.122.066a.062.062,0,0,1-.03.008.063.063,0,0,1-.038-.013.066.066,0,0,1-.025-.064l.023-.139-.1-.1a.067.067,0,0,1-.016-.067.064.064,0,0,1,.052-.045l.136-.02.061-.127a.063.063,0,0,1,.115,0l.061.127.136.02a.064.064,0,0,1,.052.045.067.067,0,0,1-.016.067l-.1.1.023.139a.066.066,0,0,1-.025.064A.063.063,0,0,1,87.123,102.293Z" transform="translate(-83.863 -101.683)" fill="#fff"/>
        <path id="Path_2787" data-name="Path 2787" d="M87.123,129.714a.063.063,0,0,1-.03-.008l-.122-.066-.122.066a.062.062,0,0,1-.03.008.063.063,0,0,1-.038-.013.066.066,0,0,1-.025-.064l.023-.139-.1-.1a.067.067,0,0,1-.016-.067.064.064,0,0,1,.052-.045l.136-.02.061-.127a.063.063,0,0,1,.115,0l.061.127.136.02a.064.064,0,0,1,.052.045.067.067,0,0,1-.016.067l-.1.1.023.139a.066.066,0,0,1-.025.064A.063.063,0,0,1,87.123,129.714Z" transform="translate(-83.863 -127.966)" fill="#fff"/>
        <path id="Path_2788" data-name="Path 2788" d="M87.123,157.135a.063.063,0,0,1-.03-.007l-.122-.066-.122.066a.063.063,0,0,1-.067-.005.066.066,0,0,1-.025-.064l.023-.139-.1-.1a.067.067,0,0,1-.016-.067.064.064,0,0,1,.052-.045l.136-.02.061-.127a.063.063,0,0,1,.115,0l.061.127.136.02a.064.064,0,0,1,.052.045.067.067,0,0,1-.016.067l-.1.1.023.139a.066.066,0,0,1-.025.064A.063.063,0,0,1,87.123,157.135Z" transform="translate(-83.863 -154.249)" fill="#fff"/>
        <path id="Path_2789" data-name="Path 2789" d="M87.123,184.554a.062.062,0,0,1-.03-.007l-.122-.066-.122.066a.062.062,0,0,1-.03.007.063.063,0,0,1-.038-.012.066.066,0,0,1-.025-.064l.023-.139-.1-.1a.067.067,0,0,1-.016-.067.064.064,0,0,1,.052-.045l.136-.02.061-.127a.063.063,0,0,1,.115,0l.061.127.136.02a.064.064,0,0,1,.052.045.067.067,0,0,1-.016.067l-.1.1.023.139a.066.066,0,0,1-.025.064A.062.062,0,0,1,87.123,184.554Z" transform="translate(-83.863 -180.53)" fill="#fff"/>
        <path id="Path_2790" data-name="Path 2790" d="M87.123,211.975a.063.063,0,0,1-.03-.008l-.122-.066-.122.066a.063.063,0,0,1-.067,0,.066.066,0,0,1-.025-.064l.023-.139-.1-.1a.067.067,0,0,1-.016-.067.064.064,0,0,1,.052-.045l.136-.02.061-.127a.063.063,0,0,1,.115,0l.061.127.136.02a.064.064,0,0,1,.052.045.067.067,0,0,1-.016.067l-.1.1.023.139a.066.066,0,0,1-.025.064A.062.062,0,0,1,87.123,211.975Z" transform="translate(-83.863 -206.814)" fill="#fff"/>
        <path id="Path_2791" data-name="Path 2791" d="M138.205,116a.062.062,0,0,1-.03-.008l-.122-.066-.122.066a.063.063,0,0,1-.068,0,.066.066,0,0,1-.025-.064l.023-.139-.1-.1a.067.067,0,0,1-.016-.067.064.064,0,0,1,.052-.045l.136-.02.061-.127a.063.063,0,0,1,.115,0l.061.127.136.02a.064.064,0,0,1,.052.045.067.067,0,0,1-.016.067l-.1.1.023.139a.066.066,0,0,1-.025.064A.062.062,0,0,1,138.205,116Z" transform="translate(-132.826 -114.825)" fill="#fff"/>
        <path id="Path_2792" data-name="Path 2792" d="M138.205,143.425a.062.062,0,0,1-.03-.008l-.122-.066-.122.066a.062.062,0,0,1-.03.008.063.063,0,0,1-.038-.012.066.066,0,0,1-.025-.064l.023-.139-.1-.1a.066.066,0,0,1-.016-.067A.065.065,0,0,1,137.8,143l.136-.02.061-.127a.063.063,0,0,1,.115,0l.061.127.136.02a.064.064,0,0,1,.052.045.066.066,0,0,1-.016.067l-.1.1.023.139a.066.066,0,0,1-.025.064A.062.062,0,0,1,138.205,143.425Z" transform="translate(-132.826 -141.108)" fill="#fff"/>
        <path id="Path_2793" data-name="Path 2793" d="M138.205,170.847a.063.063,0,0,1-.03-.008l-.122-.066-.122.066a.063.063,0,0,1-.068,0,.066.066,0,0,1-.025-.064l.023-.139-.1-.1a.067.067,0,0,1-.016-.067.064.064,0,0,1,.052-.045l.136-.02.061-.127a.063.063,0,0,1,.115,0l.061.127.136.02a.064.064,0,0,1,.052.045.067.067,0,0,1-.016.067l-.1.1.023.139a.066.066,0,0,1-.025.064A.062.062,0,0,1,138.205,170.847Z" transform="translate(-132.826 -167.392)" fill="#fff"/>
        <path id="Path_2794" data-name="Path 2794" d="M138.205,198.265a.063.063,0,0,1-.03-.008l-.122-.066-.122.066a.063.063,0,0,1-.068-.005.066.066,0,0,1-.025-.064l.023-.139-.1-.1a.067.067,0,0,1-.016-.067.065.065,0,0,1,.052-.045l.136-.02.061-.127a.063.063,0,0,1,.115,0l.061.127.136.02a.064.064,0,0,1,.052.045.067.067,0,0,1-.016.067l-.1.1.023.139a.066.066,0,0,1-.025.064A.062.062,0,0,1,138.205,198.265Z" transform="translate(-132.826 -193.672)" fill="#fff"/>
        <path id="Path_2795" data-name="Path 2795" d="M120.838,102.293a.062.062,0,0,1-.03-.008l-.122-.066-.122.066a.062.062,0,0,1-.03.008.063.063,0,0,1-.038-.013.066.066,0,0,1-.025-.064l.023-.139-.1-.1a.067.067,0,0,1-.016-.067.065.065,0,0,1,.052-.045l.136-.02.061-.127a.063.063,0,0,1,.115,0l.061.127.136.02a.064.064,0,0,1,.052.045.067.067,0,0,1-.016.067l-.1.1.023.139a.066.066,0,0,1-.025.064A.063.063,0,0,1,120.838,102.293Z" transform="translate(-116.179 -101.683)" fill="#fff"/>
        <path id="Path_2796" data-name="Path 2796" d="M120.838,129.714a.064.064,0,0,1-.03-.008l-.122-.066-.122.066a.063.063,0,0,1-.03.008.064.064,0,0,1-.038-.013.066.066,0,0,1-.025-.064l.023-.139-.1-.1a.067.067,0,0,1-.016-.067.065.065,0,0,1,.052-.045l.136-.02.061-.127a.063.063,0,0,1,.115,0l.061.127.136.02a.064.064,0,0,1,.052.045.067.067,0,0,1-.016.067l-.1.1.023.139a.066.066,0,0,1-.025.064A.063.063,0,0,1,120.838,129.714Z" transform="translate(-116.179 -127.966)" fill="#fff"/>
        <path id="Path_2797" data-name="Path 2797" d="M120.838,157.135a.064.064,0,0,1-.03-.007l-.122-.066-.122.066a.063.063,0,0,1-.068-.005.066.066,0,0,1-.025-.064l.023-.139-.1-.1a.067.067,0,0,1-.016-.067.064.064,0,0,1,.052-.045l.136-.02.061-.127a.063.063,0,0,1,.115,0l.061.127.136.02a.064.064,0,0,1,.052.045.066.066,0,0,1-.016.067l-.1.1.023.139a.066.066,0,0,1-.025.064A.063.063,0,0,1,120.838,157.135Z" transform="translate(-116.179 -154.249)" fill="#fff"/>
        <path id="Path_2798" data-name="Path 2798" d="M120.838,184.554a.062.062,0,0,1-.03-.007l-.122-.066-.122.066a.062.062,0,0,1-.03.007.063.063,0,0,1-.038-.012.066.066,0,0,1-.025-.064l.023-.139-.1-.1a.067.067,0,0,1-.016-.067.065.065,0,0,1,.052-.045l.136-.02.061-.127a.063.063,0,0,1,.115,0l.061.127.136.02a.064.064,0,0,1,.052.045.067.067,0,0,1-.016.067l-.1.1.023.139a.066.066,0,0,1-.025.064A.063.063,0,0,1,120.838,184.554Z" transform="translate(-116.179 -180.53)" fill="#fff"/>
        <path id="Path_2799" data-name="Path 2799" d="M120.838,211.975a.063.063,0,0,1-.03-.008l-.122-.066-.122.066a.063.063,0,0,1-.068,0,.066.066,0,0,1-.025-.064l.023-.139-.1-.1a.067.067,0,0,1-.016-.067.065.065,0,0,1,.052-.045l.136-.02.061-.127a.063.063,0,0,1,.115,0l.061.127.136.02a.064.064,0,0,1,.052.045.067.067,0,0,1-.016.067l-.1.1.023.139a.066.066,0,0,1-.025.064A.062.062,0,0,1,120.838,211.975Z" transform="translate(-116.179 -206.814)" fill="#fff"/>
        <path id="Path_2800" data-name="Path 2800" d="M171.922,116a.062.062,0,0,1-.03-.008l-.122-.066-.122.066a.063.063,0,0,1-.067,0,.066.066,0,0,1-.025-.064l.023-.139-.1-.1a.067.067,0,0,1-.016-.067.065.065,0,0,1,.052-.045l.136-.02.061-.127a.063.063,0,0,1,.115,0l.061.127.136.02a.064.064,0,0,1,.052.045.067.067,0,0,1-.016.067l-.1.1.023.139a.066.066,0,0,1-.025.064A.063.063,0,0,1,171.922,116Z" transform="translate(-165.143 -114.825)" fill="#fff"/>
        <path id="Path_2801" data-name="Path 2801" d="M171.922,143.425a.062.062,0,0,1-.03-.008l-.122-.066-.122.066a.062.062,0,0,1-.03.008.062.062,0,0,1-.038-.012.066.066,0,0,1-.025-.064l.023-.139-.1-.1a.067.067,0,0,1-.016-.067.065.065,0,0,1,.052-.045l.136-.02.061-.127a.063.063,0,0,1,.115,0l.061.127.136.02a.064.064,0,0,1,.052.045.066.066,0,0,1-.016.067l-.1.1.023.139a.066.066,0,0,1-.025.064A.062.062,0,0,1,171.922,143.425Z" transform="translate(-165.143 -141.108)" fill="#fff"/>
        <path id="Path_2802" data-name="Path 2802" d="M171.922,170.847a.063.063,0,0,1-.03-.008l-.122-.066-.122.066a.063.063,0,0,1-.067,0,.066.066,0,0,1-.025-.064l.023-.139-.1-.1a.067.067,0,0,1-.016-.067.065.065,0,0,1,.052-.045l.136-.02.061-.127a.063.063,0,0,1,.115,0l.061.127.136.02a.064.064,0,0,1,.052.045.067.067,0,0,1-.016.067l-.1.1.023.139a.066.066,0,0,1-.025.064A.063.063,0,0,1,171.922,170.847Z" transform="translate(-165.143 -167.392)" fill="#fff"/>
        <path id="Path_2803" data-name="Path 2803" d="M171.922,198.265a.063.063,0,0,1-.03-.008l-.122-.066-.122.066a.063.063,0,0,1-.067-.005.066.066,0,0,1-.025-.064l.023-.139-.1-.1a.067.067,0,0,1-.016-.067.065.065,0,0,1,.052-.045l.136-.02.061-.127a.063.063,0,0,1,.115,0l.061.127.136.02a.064.064,0,0,1,.052.045.067.067,0,0,1-.016.067l-.1.1.023.139a.066.066,0,0,1-.025.064A.062.062,0,0,1,171.922,198.265Z" transform="translate(-165.143 -193.672)" fill="#fff"/>
        <path id="Path_2804" data-name="Path 2804" d="M154.554,102.293a.061.061,0,0,1-.03-.008l-.122-.066-.122.066a.062.062,0,0,1-.03.008.063.063,0,0,1-.038-.013.066.066,0,0,1-.025-.064l.023-.139-.1-.1a.067.067,0,0,1-.016-.067.064.064,0,0,1,.052-.045l.136-.02.061-.127a.063.063,0,0,1,.115,0l.061.127.136.02a.064.064,0,0,1,.052.045.067.067,0,0,1-.016.067l-.1.1.023.139a.066.066,0,0,1-.025.064A.063.063,0,0,1,154.554,102.293Z" transform="translate(-148.496 -101.683)" fill="#fff"/>
        <path id="Path_2805" data-name="Path 2805" d="M154.554,129.714a.063.063,0,0,1-.03-.008l-.122-.066-.122.066a.063.063,0,0,1-.03.008.063.063,0,0,1-.038-.013.066.066,0,0,1-.025-.064l.023-.139-.1-.1a.067.067,0,0,1-.016-.067.064.064,0,0,1,.052-.045l.136-.02.061-.127a.063.063,0,0,1,.115,0l.061.127.136.02a.064.064,0,0,1,.052.045.067.067,0,0,1-.016.067l-.1.1.023.139a.066.066,0,0,1-.025.064A.064.064,0,0,1,154.554,129.714Z" transform="translate(-148.496 -127.966)" fill="#fff"/>
        <path id="Path_2806" data-name="Path 2806" d="M154.554,157.135a.063.063,0,0,1-.03-.007l-.122-.066-.122.066a.063.063,0,0,1-.067-.005.066.066,0,0,1-.025-.064l.023-.139-.1-.1a.067.067,0,0,1-.016-.067.064.064,0,0,1,.052-.045l.136-.02.061-.127a.063.063,0,0,1,.115,0l.061.127.136.02a.064.064,0,0,1,.052.045.067.067,0,0,1-.016.067l-.1.1.023.139a.066.066,0,0,1-.025.064A.063.063,0,0,1,154.554,157.135Z" transform="translate(-148.496 -154.249)" fill="#fff"/>
        <path id="Path_2807" data-name="Path 2807" d="M154.554,184.554a.062.062,0,0,1-.03-.007l-.122-.066-.122.066a.063.063,0,0,1-.067,0,.066.066,0,0,1-.025-.064l.023-.139-.1-.1a.067.067,0,0,1-.016-.067.064.064,0,0,1,.052-.045l.136-.02.061-.127a.063.063,0,0,1,.115,0l.061.127.136.02a.064.064,0,0,1,.052.045.067.067,0,0,1-.016.067l-.1.1.023.139a.066.066,0,0,1-.025.064A.063.063,0,0,1,154.554,184.554Z" transform="translate(-148.496 -180.53)" fill="#fff"/>
        <path id="Path_2808" data-name="Path 2808" d="M154.554,211.975a.063.063,0,0,1-.03-.008l-.122-.066-.122.066a.063.063,0,0,1-.067,0,.066.066,0,0,1-.025-.064l.023-.139-.1-.1a.067.067,0,0,1-.016-.067.064.064,0,0,1,.052-.045l.136-.02.061-.127a.063.063,0,0,1,.115,0l.061.127.136.02a.064.064,0,0,1,.052.045.067.067,0,0,1-.016.067l-.1.1.023.139a.066.066,0,0,1-.025.064A.063.063,0,0,1,154.554,211.975Z" transform="translate(-148.496 -206.814)" fill="#fff"/>
        <path id="Path_2809" data-name="Path 2809" d="M188.268,102.293a.061.061,0,0,1-.03-.008l-.122-.066-.122.066a.062.062,0,0,1-.03.008.063.063,0,0,1-.038-.013.066.066,0,0,1-.025-.064l.023-.139-.1-.1a.067.067,0,0,1-.016-.067.065.065,0,0,1,.052-.045l.136-.02.061-.127a.063.063,0,0,1,.115,0l.061.127.136.02a.065.065,0,0,1,.052.045.067.067,0,0,1-.016.067l-.1.1.023.139a.066.066,0,0,1-.026.064A.063.063,0,0,1,188.268,102.293Z" transform="translate(-180.812 -101.683)" fill="#fff"/>
        <path id="Path_2810" data-name="Path 2810" d="M188.268,129.714a.063.063,0,0,1-.03-.008l-.122-.066-.122.066a.063.063,0,0,1-.03.008.064.064,0,0,1-.038-.013.066.066,0,0,1-.025-.064l.023-.139-.1-.1a.067.067,0,0,1-.016-.067.064.064,0,0,1,.052-.045l.136-.02.061-.127a.063.063,0,0,1,.115,0l.061.127.136.02a.065.065,0,0,1,.052.045.067.067,0,0,1-.016.067l-.1.1.023.139a.066.066,0,0,1-.026.064A.063.063,0,0,1,188.268,129.714Z" transform="translate(-180.812 -127.966)" fill="#fff"/>
        <path id="Path_2811" data-name="Path 2811" d="M188.268,157.135a.063.063,0,0,1-.03-.007l-.122-.066-.122.066a.063.063,0,0,1-.068-.005.066.066,0,0,1-.025-.064l.023-.139-.1-.1a.067.067,0,0,1-.016-.067.064.064,0,0,1,.052-.045l.136-.02.061-.127a.063.063,0,0,1,.115,0l.061.127.136.02a.065.065,0,0,1,.052.045.066.066,0,0,1-.016.067l-.1.1.023.139a.066.066,0,0,1-.026.064A.063.063,0,0,1,188.268,157.135Z" transform="translate(-180.812 -154.249)" fill="#fff"/>
        <path id="Path_2812" data-name="Path 2812" d="M188.268,184.554a.062.062,0,0,1-.03-.007l-.122-.066-.122.066a.062.062,0,0,1-.03.007.063.063,0,0,1-.038-.012.066.066,0,0,1-.025-.064l.023-.139-.1-.1a.067.067,0,0,1-.016-.067.064.064,0,0,1,.052-.045l.136-.02.061-.127a.063.063,0,0,1,.115,0l.061.127.136.02a.065.065,0,0,1,.052.045.067.067,0,0,1-.016.067l-.1.1.023.139a.066.066,0,0,1-.026.064A.062.062,0,0,1,188.268,184.554Z" transform="translate(-180.812 -180.53)" fill="#fff"/>
        <path id="Path_2813" data-name="Path 2813" d="M188.268,211.975a.063.063,0,0,1-.03-.008l-.122-.066-.122.066a.063.063,0,0,1-.068,0,.066.066,0,0,1-.025-.064l.023-.139-.1-.1a.067.067,0,0,1-.016-.067.065.065,0,0,1,.052-.045l.136-.02.061-.127a.063.063,0,0,1,.115,0l.061.127.136.02a.065.065,0,0,1,.052.045.067.067,0,0,1-.016.067l-.1.1.023.139a.066.066,0,0,1-.026.064A.062.062,0,0,1,188.268,211.975Z" transform="translate(-180.812 -206.814)" fill="#fff"/>
      </g>
      <rect id="Rectangle_58" data-name="Rectangle 58" width="1.364" height="1.349" transform="translate(0 97.146)" opacity="0.1"/>
      <path id="Path_2814" data-name="Path 2814" d="M1.364,393.389v-.9H0v.9a.449.449,0,0,0,.447.447H1.812A.449.449,0,0,1,1.364,393.389Z" transform="translate(0 -292.805)" opacity="0.1"/>
    </g>
    <g id="Group_25" data-name="Group 25" transform="translate(25.423 2288.354)">
      <g id="Group_19" data-name="Group 19" transform="translate(12.139)">
        <path id="Path_18" data-name="Path 18" d="M627.939,258.712c-1.906,0-3.456-2.268-3.456-5.055s1.551-5.055,3.456-5.055,3.458,2.268,3.458,5.055S629.846,258.712,627.939,258.712Zm0-9.51c-1.576,0-2.858,2-2.858,4.455s1.281,4.456,2.858,4.456,2.857-2,2.857-4.456S629.516,249.2,627.939,249.2Z" transform="translate(-624.483 -248.602)" stroke="#000" stroke-width="0.5"/>
      </g>
      <g id="Group_20" data-name="Group 20" transform="translate(17.028 10.648)">
        <path id="Path_19" data-name="Path 19" d="M630.53,264a2.357,2.357,0,0,1-1.71-.655,2.589,2.589,0,0,1-.58-2.423,5.818,5.818,0,0,1,4.227-4.226,2.382,2.382,0,0,1,3,3,5.45,5.45,0,0,1-1.53,2.7h0a5.456,5.456,0,0,1-2.7,1.53A3.66,3.66,0,0,1,630.53,264Zm2.645-6.779a2.925,2.925,0,0,0-.591.062,5.222,5.222,0,0,0-3.758,3.756,1.792,1.792,0,0,0,2.3,2.3,4.844,4.844,0,0,0,2.393-1.365h0a4.841,4.841,0,0,0,1.365-2.391,2.012,2.012,0,0,0-.417-1.882A1.772,1.772,0,0,0,633.175,257.221Z" transform="translate(-628.165 -256.621)" stroke="#000" stroke-width="0.5"/>
      </g>
      <g id="Group_21" data-name="Group 21" transform="translate(6.715 10.648)">
        <path id="Path_20" data-name="Path 20" d="M625.41,264a3.647,3.647,0,0,1-.712-.074,5.459,5.459,0,0,1-2.7-1.53h0a5.457,5.457,0,0,1-1.528-2.7,2.382,2.382,0,0,1,3-3,5.818,5.818,0,0,1,4.227,4.226,2.59,2.59,0,0,1-.58,2.423A2.358,2.358,0,0,1,625.41,264Zm-2.644-6.779a1.777,1.777,0,0,0-1.291.478,2.015,2.015,0,0,0-.417,1.882,4.862,4.862,0,0,0,1.365,2.391h0a4.835,4.835,0,0,0,2.391,1.365,1.792,1.792,0,0,0,2.3-2.3,5.224,5.224,0,0,0-3.756-3.756A2.927,2.927,0,0,0,622.767,257.221Z" transform="translate(-620.398 -256.621)" stroke="#000" stroke-width="0.5"/>
      </g>
      <g id="Group_22" data-name="Group 22" transform="translate(15.296 5.055)">
        <rect id="Rectangle_1" data-name="Rectangle 1" width="0.599" height="25.977" stroke="#000" stroke-width="0.5"/>
      </g>
      <g id="Group_23" data-name="Group 23" transform="translate(10.201 14.117)">
        <path id="Path_21" data-name="Path 21" d="M628.419,264.648l-5.4-4.974.406-.441,4.987,4.6,4.918-4.6.409.438Z" transform="translate(-623.023 -259.234)" stroke="#000" stroke-width="0.5"/>
      </g>
      <g id="Group_24" data-name="Group 24" transform="translate(0 25.765)">
        <rect id="Rectangle_2" data-name="Rectangle 2" width="31.113" height="0.599" stroke="#000" stroke-width="0.5"/>
      </g>
    </g>
    <text id="Copyright_2021_Projekt_Indigo" data-name="Copyright 2021 Projekt Indigo" transform="translate(74.423 2314)" fill="#a2a2a2" font-size="11" font-family="SegoeUI, Segoe UI" letter-spacing="-0.02em"><tspan x="0" y="0">Copyright 2021 Projekt Indigo</tspan></text>
    <text id="Select_country" data-name="Select country" transform="translate(25.423 2009)" font-size="11" font-family="SegoeUI, Segoe UI" letter-spacing="-0.02em"><tspan x="0" y="0">Select country</tspan></text>
  </g>
</svg>
