<svg id="inbox" xmlns="http://www.w3.org/2000/svg" width="21.412" height="17.67" viewBox="0 0 21.412 17.67">
  <path id="Path_5247" data-name="Path 5247" d="M86.032-166.508v7.852a2.26,2.26,0,0,1-2.254,2.279H66.885a2.27,2.27,0,0,1-2.266-2.279v-7.852l1.077.806v7.046a1.193,1.193,0,0,0,1.189,1.165H83.777a1.163,1.163,0,0,0,1.165-1.165V-165.7Z" transform="translate(-64.619 174.047)" fill="#040506"/>
  <path id="Path_5248" data-name="Path 5248" d="M83.772-171.551H66.88a2.23,2.23,0,0,0-2.241,2.229v1.97l9.338,6.947a2.231,2.231,0,0,0,2.675,0L86-167.352v-1.97A2.22,2.22,0,0,0,83.772-171.551Zm1.189,3.666-.061.049-8.867,6.6a1.172,1.172,0,0,1-.706.222,1.18,1.18,0,0,1-.719-.222l-8.941-6.651v-1.437a1.2,1.2,0,0,1,1.213-1.189H83.772a1.189,1.189,0,0,1,1.189,1.189Z" transform="translate(-64.614 171.551)" fill="#040506"/>
</svg>
