<svg id="input_check" xmlns="http://www.w3.org/2000/svg" width="10.523" height="10.518" viewBox="0 0 10.523 10.518">
  <g id="Group_4802" data-name="Group 4802" transform="translate(-539.419 -387.089)">
    <path id="Path_6601" data-name="Path 6601" d="M544.99,397.607h-.617l-.315-.038a5.265,5.265,0,0,1-4.521-4.125c-.054-.26-.079-.527-.118-.791v-.637c.007-.04.016-.08.02-.12a5.077,5.077,0,0,1,.542-1.916,5.233,5.233,0,0,1,5.093-2.877,5.054,5.054,0,0,1,3.536,1.749,5.128,5.128,0,0,1,1.295,4.125,5.268,5.268,0,0,1-4.426,4.569C545.316,397.568,545.153,397.586,544.99,397.607Zm3.379-7.119c-.025-.031-.044-.058-.067-.081l-.734-.734c-.112-.112-.112-.112-.224,0l-3.5,3.5c-.1.1-.105.1-.21,0q-.818-.817-1.634-1.636c-.066-.066-.109-.07-.175,0-.244.25-.493.5-.74.742-.1.1-.1.1,0,.193l2.551,2.55c.1.1.105.1.21,0l2.587-2.587,1.86-1.86C548.314,390.551,548.338,390.522,548.369,390.488Z" fill="#2f8927"/>
    <path id="Path_6602" data-name="Path 6602" d="M548.312,401.08Z" transform="translate(-0.012 -5.114)" fill="#fff"/>
  </g>
</svg>
