<svg id="jackets" xmlns="http://www.w3.org/2000/svg" width="45.966" height="52.935" viewBox="0 0 45.966 52.935">
  <path id="Path_5502" data-name="Path 5502" d="M282.966-72.892a8.9,8.9,0,0,0-5.852-7.725l-4.038-1.492-3.248-2.429a.466.466,0,0,0-.351-.117H254.435a.44.44,0,0,0-.322.117l-3.307,2.458L246.8-80.617a8.99,8.99,0,0,0-5.852,7.725l-1.961,26.862a3.007,3.007,0,0,0,1.434,2.809l.088.088v1.551a3.09,3.09,0,0,0,2.048,2.9l5.3,1.873.029.059a3.815,3.815,0,0,0,.907.907l.088.088v2.634a1.4,1.4,0,0,0,1.4,1.4h23.38a1.424,1.424,0,0,0,1.4-1.4v-2.634l.088-.088a3.243,3.243,0,0,0,.878-.907l.058-.059.059-.029,5.238-1.843a3.1,3.1,0,0,0,2.019-2.9v-1.551l.117-.088a2.93,2.93,0,0,0,1.4-2.809ZM269.622-82.958l.117-.234,2.4,1.785-.088.176c-.129.255-.246.515-.383.764-.073.135-.149.269-.228.4-.064.1-.132.2-.193.31a20.093,20.093,0,0,1-3.037,3.81c-.155.158-.316.316-.477.471s-.325.3-.489.456-.331.3-.5.442-.339.287-.512.427-.348.281-.524.416-.354.269-.535.4-.36.26-.544.386-.369.249-.553.372-.375.24-.565.354-.38.231-.574.342l-.073.041-.322.176v-3.746l.088-.059A17.983,17.983,0,0,0,269.622-82.958Zm-26.687,43.22a1.953,1.953,0,0,1-1.287-1.843v-1.141l5.56,1.668v2.078a1.935,1.935,0,0,0,.029.41l.029.351ZM261.4-32.861H250.28a.27.27,0,0,1-.293-.263v-2.107l.263.059a2.828,2.828,0,0,0,.849.117h10.3Zm0-3.336H251.1a2.8,2.8,0,0,1-2.78-2.78V-43.6l.146-.059,6.057-2.487a1.423,1.423,0,0,0,.761-1.843l-.644-1.551a1.387,1.387,0,0,0-1.814-.732l-4.506,1.843V-68.21a.556.556,0,0,0-.556-.556.563.563,0,0,0-.585.556v25.985L241.5-43.952a1.953,1.953,0,0,1-1.4-1.99l1.99-26.862a7.8,7.8,0,0,1,5.092-6.759l3.6-1.317.088.176a24.024,24.024,0,0,0,10.417,10.271l.117.059ZM248.32-44.83v-2.4l5-2.048.2.059.088.117.673,1.639-.088.2-.117.059ZM261.4-71.663l-.322-.176a22.805,22.805,0,0,1-9.218-9.393l-.088-.176,2.429-1.785.117.234a17.914,17.914,0,0,0,6.964,7.491l.117.059Zm.556-4.711-.117-.088a17.09,17.09,0,0,1-6.379-6.76l-.176-.322h13.373l-.176.322a16.96,16.96,0,0,1-6.408,6.76Zm11.968,43.366a.3.3,0,0,1-.263.176h-11.12v-2.224h10.3a3.9,3.9,0,0,0,.819-.088l.293-.088Zm1.7-11.822-5.794-2.37a.283.283,0,0,1-.146-.351l.644-1.551a.267.267,0,0,1,.351-.146l4.945,2.019Zm6.672,3.248a2.013,2.013,0,0,1-1.141,1.785l-.146.059-4.331,1.522.029-.351a1.807,1.807,0,0,0,.029-.41v-2.078l5.56-1.668Zm.146-2.37-5.706,1.726V-68.21a.563.563,0,0,0-.585-.556.556.556,0,0,0-.556.556v19.781L271.085-50.3a1.4,1.4,0,0,0-1.814.761l-.644,1.551a1.4,1.4,0,0,0,.761,1.814l6.2,2.546v4.653a2.8,2.8,0,0,1-2.78,2.78H262.541V-70.375l.117-.059.1-.053c.193-.105.389-.214.579-.325s.383-.222.574-.337.375-.231.562-.351.372-.24.553-.363.366-.249.544-.377.36-.258.535-.389.351-.266.524-.4.345-.275.515-.416.339-.284.506-.427.331-.293.494-.442.322-.3.483-.454.316-.307.471-.465.31-.316.462-.477a16.707,16.707,0,0,0,2.639-3.427c.158-.255.307-.515.448-.778s.269-.527.4-.79l.088-.176,3.6,1.317a7.835,7.835,0,0,1,5.121,6.759l1.961,26.862A1.9,1.9,0,0,1,282.439-43.952Z" transform="translate(-238.976 84.655)" fill="#171717"/>
  <path id="Path_5503" data-name="Path 5503" d="M248.345-69.8a.578.578,0,0,0-.41.176.557.557,0,0,0-.146.38.578.578,0,0,0,.176.41.556.556,0,0,0,.38.146.538.538,0,0,0,.556-.556A.556.556,0,0,0,248.345-69.8Z" transform="translate(-222 113.259)" fill="#171717"/>
  <path id="Path_5504" data-name="Path 5504" d="M248.364-73.235a.582.582,0,0,0-.585.556.587.587,0,0,0,.585.585.582.582,0,0,0,.556-.585A.576.576,0,0,0,248.364-73.235Z" transform="translate(-222.019 106.652)" fill="#171717"/>
  <path id="Path_5505" data-name="Path 5505" d="M248.345-76.655a.7.7,0,0,0-.41.146.7.7,0,0,0-.146.41.578.578,0,0,0,.176.41.556.556,0,0,0,.38.146.556.556,0,0,0,.556-.556A.538.538,0,0,0,248.345-76.655Z" transform="translate(-222 100.065)" fill="#171717"/>
  <path id="Path_5506" data-name="Path 5506" d="M248.345-78.375a.578.578,0,0,0-.41.176.7.7,0,0,0-.146.41.472.472,0,0,0,.176.38.472.472,0,0,0,.38.176.563.563,0,0,0,.556-.585A.556.556,0,0,0,248.345-78.375Z" transform="translate(-222 96.751)" fill="#171717"/>
  <path id="Path_5507" data-name="Path 5507" d="M248.345-71.515a.7.7,0,0,0-.41.146.7.7,0,0,0-.146.41.472.472,0,0,0,.176.38.472.472,0,0,0,.38.176.556.556,0,0,0,.556-.556A.538.538,0,0,0,248.345-71.515Z" transform="translate(-222 109.965)" fill="#171717"/>
  <path id="Path_5508" data-name="Path 5508" d="M248.345-74.945a.578.578,0,0,0-.41.176.556.556,0,0,0-.146.38.578.578,0,0,0,.176.41.556.556,0,0,0,.38.146.538.538,0,0,0,.556-.556A.556.556,0,0,0,248.345-74.945Z" transform="translate(-222 103.358)" fill="#171717"/>
</svg>
