<svg id="jeans" xmlns="http://www.w3.org/2000/svg" width="31.177" height="49.921" viewBox="0 0 31.177 49.921">
  <path id="Path_5510" data-name="Path 5510" d="M155.436-82.544a.556.556,0,0,1-.556.556h-.234a.538.538,0,0,1-.556-.556.538.538,0,0,1,.556-.556h.234A.556.556,0,0,1,155.436-82.544Z" transform="translate(-139.175 85.53)" fill="#171717"/>
  <path id="Path_5511" data-name="Path 5511" d="M180.143-34.83a3.544,3.544,0,0,0-.029-.556v-.38l-.058-2.4v-.878l-.322-14.075c-.263-12.436-.585-27.887-.615-28.823a2.1,2.1,0,0,0-2.078-2.048H151.964a2.146,2.146,0,0,0-1.931,2.078c-.322,14.543-.38,16.679-.38,17.03l-.615,28.852a5.638,5.638,0,0,1-.029.7c0,.351-.029.732,0,1.112v.117h6.643c.351-.029.7-.029,1.053-.059h1.141c.38,0,.79,0,1.17.029.38,0,.761.029,1.141.029h.059a.774.774,0,0,0,.263,0h.117c.029.029.058.029.117.029h.41a3.36,3.36,0,0,0,.556-.029,1.933,1.933,0,0,0,.41-.029v-.088c0-.059.029-.117.029-.176l.029-1.141a.371.371,0,0,1,.029-.176v-.059l.41-8.632c.059-1.317.117-2.6.146-3.921.059-1.258.117-2.546.176-3.8.058-1.2.088-2.37.146-3.57.029-1.024.088-2.048.117-3.073q.044-1.185.088-2.37v-.2c0-.41.029-.819.029-1.229a7.368,7.368,0,0,1,.644-3.16.571.571,0,0,1,.38-.351.62.62,0,0,1,.556,0,.813.813,0,0,1,.351.351,7.368,7.368,0,0,1,.644,3.16c0,.439.029.907.029,1.346v.117c.029.819.058,1.609.088,2.429.029,1.053.088,2.078.117,3.131l.819,18.845c.029.293.029.614.059.907.029.176.029.351.059.556.029.351.088.732.146,1.112v.059h.966c.2,0,.38-.029.585-.029.117,0,.176-.029.234,0h10.447l.439.029h.322v-.176C180.173-34.45,180.143-34.625,180.143-34.83ZM178.1-77.465c.088,4.184.088,4.184.088,4.214l-.029.614L174.233-77.7h3.833Zm-4.477-5.384h2.458a4.835,4.835,0,0,1,1.141.029.937.937,0,0,1,.761.907l.059,3.1h-4.419Zm-3.336,0h2.224v4.038h-2.224Zm-13.636,0h2.224v4.038h-2.224Zm-5.56,3.8c.029-.673.029-1.2.029-1.609.029-1.551.029-1.58.263-1.843h.029a.838.838,0,0,1,.556-.322,3.933,3.933,0,0,1,.936-.029h2.6v4.038h-4.419Zm-.029,1.346h3.863l-3.95,5.092ZM163.9-67.164l-.117.059a1.883,1.883,0,0,0-.878.907,8.086,8.086,0,0,0-.761,3.628c0,2.751-.761,19.869-1.112,27.126v.2H150.15v-.234l.761-35.261,5.443-6.964h7.55Zm-3.892-11.646v-4.038h9.159v4.038Zm5.033,10.827v-9.686h1.873v7.111a2.145,2.145,0,0,1-.936,1.609,4.981,4.981,0,0,0-.556.556Zm3.073,32.744v-.2C167.707-44.486,167-60,167-62.57a6.772,6.772,0,0,0-1.258-4.3l-.117-.146,1.551-1.522a2.808,2.808,0,0,0,.878-2.048v-7.081H172.8l.059.059,5.384,6.906v.059l.673,31.72L179-35.24Z" transform="translate(-148.996 83.99)" fill="#171717"/>
</svg>
