<svg xmlns="http://www.w3.org/2000/svg" xmlns:xlink="http://www.w3.org/1999/xlink" width="56.826" height="56.826" viewBox="0 0 56.826 56.826">
  <defs>
    <linearGradient id="linear-gradient" x1="0.107" y1="0.466" x2="0.933" y2="0.471" gradientUnits="objectBoundingBox">
      <stop offset="0" stop-color="#9b9b9b"/>
      <stop offset="0.527" stop-color="#cbcbcb"/>
      <stop offset="1" stop-color="#9b9b9b"/>
    </linearGradient>
  </defs>
  <g id="lite" transform="translate(0.156 0.155)">
    <ellipse id="Ellipse_200" data-name="Ellipse 200" cx="28.258" cy="28.258" rx="28.258" ry="28.258" transform="translate(0 0)" fill="none"/>
    <ellipse id="Ellipse_201" data-name="Ellipse 201" cx="27.913" cy="27.913" rx="27.913" ry="27.913" transform="translate(0.344 0.345)" fill="none" stroke="#9b9b9b" stroke-width="1"/>
    <ellipse id="Ellipse_198" data-name="Ellipse 198" cx="26.19" cy="26.19" rx="26.19" ry="26.19" transform="translate(2.067 2.068)" fill="url(#linear-gradient)"/>
    <ellipse id="Ellipse_198-2" data-name="Ellipse 198" cx="16.468" cy="16.469" rx="16.468" ry="16.469" transform="translate(11.789 11.789)" fill="#fff"/>
    <g id="Group_3755" data-name="Group 3755" transform="translate(4.623 4.43)">
      <g id="Group_3754" data-name="Group 3754">
        <path id="Path_6054" data-name="Path 6054" d="M1063.692,1140.939l.353-1.856a1.6,1.6,0,0,1,.661-1.076,1.732,1.732,0,0,1,2.307.449,1.665,1.665,0,0,1,.218,1.27l-.183.965,1.576.3-.162.853Zm.859-.721,1.809.343.147-.773a1.023,1.023,0,0,0-.1-.759.888.888,0,0,0-.623-.381.878.878,0,0,0-.714.126,1.031,1.031,0,0,0-.37.668Z" transform="translate(-1063.692 -1119.943)" fill="#fff"/>
        <path id="Path_6055" data-name="Path 6055" d="M1068.648,1133.8l1.667.747-.354.793-4.432-1.986.788-1.759a1.763,1.763,0,0,1,.873-.959,1.419,1.419,0,0,1,1.192.043,1.532,1.532,0,0,1,.686.572,1.313,1.313,0,0,1,.206.83l2.221-.167-.4.9-2.059.125Zm-2.122-.95,1.514.678.4-.893a.9.9,0,0,0,.063-.676.807.807,0,0,0-.465-.459.789.789,0,0,0-.651-.03.919.919,0,0,0-.468.5Z" transform="translate(-1064.263 -1117.7)" fill="#fff"/>
        <path id="Path_6056" data-name="Path 6056" d="M1070.9,1124.246a2.173,2.173,0,0,1,1.584-.88,3.02,3.02,0,0,1,2.849,2.31,2.438,2.438,0,0,1-2.12,2.614,3.019,3.019,0,0,1-2.848-2.31A2.171,2.171,0,0,1,1070.9,1124.246Zm1.6-.034a1.354,1.354,0,0,0-1.3,1.6,2.363,2.363,0,0,0,2,1.626,1.355,1.355,0,0,0,1.3-1.6,2.364,2.364,0,0,0-2-1.625Z" transform="translate(-1065.758 -1115.474)" fill="#fff"/>
        <path id="Path_6057" data-name="Path 6057" d="M1078.234,1122.363l.677-.505a.668.668,0,0,0,.449.27.771.771,0,0,0,.808-.632.877.877,0,0,0-.214-.591l-2.033-2.716.692-.518,2.037,2.72a1.542,1.542,0,0,1,.356,1.17,1.811,1.811,0,0,1-1.811,1.379A1.344,1.344,0,0,1,1078.234,1122.363Z" transform="translate(-1068.114 -1113.705)" fill="#fff"/>
        <path id="Path_6058" data-name="Path 6058" d="M1086.128,1117.931l.3.668-2.861,1.3-2.012-4.42,2.86-1.3.3.667-2.071.943.544,1.194,1.957-.891.285.627-1.957.891.574,1.261Z" transform="translate(-1069.245 -1112.62)" fill="#fff"/>
        <path id="Path_6059" data-name="Path 6059" d="M1090.308,1117.456l-.851.176-.982-4.756.85-.176.46,2.224.03-.006,1.439-2.616.979-.2-1.4,2.487,2.522,2.238-1.035.214-1.975-1.756-.354.643Z" transform="translate(-1071.394 -1111.974)" fill="#fff"/>
        <path id="Path_6060" data-name="Path 6060" d="M1098.547,1116.85l-.865-.03.143-4.119-1.452-.05.026-.733,3.766.131-.026.733-1.45-.051Z" transform="translate(-1073.849 -1111.917)" fill="#fff"/>
        <path id="Path_6061" data-name="Path 6061" d="M1109.472,1119.574l-.791-.357,2-4.425.792.356Z" transform="translate(-1077.674 -1112.81)" fill="#fff"/>
        <path id="Path_6062" data-name="Path 6062" d="M1111.889,1120.946l-.688-.477,2.767-3.99.619.429.041,4.168.026.019,1.938-2.8.687.475-2.767,3.99-.615-.426-.041-4.173-.025-.018Z" transform="translate(-1078.457 -1113.335)" fill="#fff"/>
        <path id="Path_6063" data-name="Path 6063" d="M1120.911,1122.178l1.135,1.361a2.248,2.248,0,0,1,.6,1.711,2.471,2.471,0,0,1-.98,1.609,2.5,2.5,0,0,1-1.77.684,2.228,2.228,0,0,1-1.582-.893l-1.136-1.363Zm-.008,1.136-2.6,2.171.522.625a1.423,1.423,0,0,0,1.055.583,1.84,1.84,0,0,0,1.222-.511,1.8,1.8,0,0,0,.708-1.1,1.437,1.437,0,0,0-.383-1.141Z" transform="translate(-1080.316 -1115.106)" fill="#fff"/>
        <path id="Path_6064" data-name="Path 6064" d="M1121.911,1132.037l-.428-.756,4.225-2.393.428.755Z" transform="translate(-1081.653 -1117.191)" fill="#fff"/>
        <path id="Path_6065" data-name="Path 6065" d="M1126.414,1137.539a1.939,1.939,0,0,1-2.682-1.313,2.162,2.162,0,0,1,.092-1.81,2.649,2.649,0,0,1,1.547-1.188,2.588,2.588,0,0,1,1.923-.014,2.157,2.157,0,0,1,1.176,1.358,2.215,2.215,0,0,1,.035,1.472,1.805,1.805,0,0,1-.887,1.039l-.288-.833a1.22,1.22,0,0,0,.472-.633,1.26,1.26,0,0,0-.028-.8A1.241,1.241,0,0,0,1127,1134a2,2,0,0,0-1.333.068,2.083,2.083,0,0,0-1.123.792,1.258,1.258,0,0,0-.115,1.139,1.277,1.277,0,0,0,.592.744,1.1,1.1,0,0,0,.9.069l.078-.023-.383-1.108.627-.216.66,1.908Z" transform="translate(-1082.304 -1118.481)" fill="#fff"/>
        <path id="Path_6066" data-name="Path 6066" d="M1130.224,1143.683a2.162,2.162,0,0,1-.59,1.713,3.012,3.012,0,0,1-3.661.186,2.435,2.435,0,0,1-.172-3.361,3.019,3.019,0,0,1,3.662-.187A2.171,2.171,0,0,1,1130.224,1143.683Zm-1.166,1.094a1.354,1.354,0,0,0-.1-2.063,2.364,2.364,0,0,0-2.578.13,1.356,1.356,0,0,0,.105,2.064,2.36,2.36,0,0,0,2.575-.131Z" transform="translate(-1082.811 -1121.112)" fill="#fff"/>
      </g>
    </g>
    <g id="Group_3756" data-name="Group 3756" transform="translate(18.526 17.071)">
      <g id="Group_19" data-name="Group 19" transform="translate(7.984)">
        <path id="Path_18" data-name="Path 18" d="M1097.723,1136.91c-1.254,0-2.274-1.492-2.274-3.325s1.02-3.325,2.274-3.325,2.274,1.492,2.274,3.325S1098.976,1136.91,1097.723,1136.91Zm0-6.255c-1.034,0-1.88,1.314-1.88,2.931s.843,2.931,1.88,2.931,1.88-1.314,1.88-2.931S1098.76,1130.655,1097.723,1130.655Z" transform="translate(-1095.449 -1130.259)" fill="#9b9b9b" stroke="#9b9b9b" stroke-miterlimit="10" stroke-width="0.5"/>
      </g>
      <g id="Group_20" data-name="Group 20" transform="translate(11.189 6.976)">
        <path id="Path_19" data-name="Path 19" d="M1101.667,1145.263a1.553,1.553,0,0,1-1.125-.431,1.7,1.7,0,0,1-.382-1.594,3.826,3.826,0,0,1,2.78-2.78,1.567,1.567,0,0,1,1.976,1.976,3.583,3.583,0,0,1-1.006,1.774h0a3.593,3.593,0,0,1-1.774,1.006A2.445,2.445,0,0,1,1101.667,1145.263Zm1.74-4.459a1.9,1.9,0,0,0-.389.041,3.435,3.435,0,0,0-2.472,2.471,1.178,1.178,0,0,0,1.511,1.511,3.193,3.193,0,0,0,1.574-.9h0a3.191,3.191,0,0,0,.9-1.573,1.324,1.324,0,0,0-.276-1.241,1.165,1.165,0,0,0-.845-.313Z" transform="translate(-1100.1 -1140.38)" fill="#9b9b9b" stroke="#9b9b9b" stroke-miterlimit="10" stroke-width="0.5"/>
      </g>
      <g id="Group_21" data-name="Group 21" transform="translate(4.388 6.976)">
        <path id="Path_20" data-name="Path 20" d="M1093.558,1145.263a2.418,2.418,0,0,1-.468-.049,3.6,3.6,0,0,1-1.775-1.006h0a3.588,3.588,0,0,1-1.005-1.774,1.567,1.567,0,0,1,1.976-1.976,3.824,3.824,0,0,1,2.78,2.78,1.7,1.7,0,0,1-.382,1.594A1.553,1.553,0,0,1,1093.558,1145.263Zm-1.739-4.459a1.169,1.169,0,0,0-.849.314,1.325,1.325,0,0,0-.276,1.241,3.2,3.2,0,0,0,.9,1.573h0a3.188,3.188,0,0,0,1.573.9,1.179,1.179,0,0,0,1.511-1.511,3.436,3.436,0,0,0-2.471-2.471,1.9,1.9,0,0,0-.384-.041Z" transform="translate(-1090.233 -1140.38)" fill="#9b9b9b" stroke="#9b9b9b" stroke-miterlimit="10" stroke-width="0.5"/>
      </g>
      <g id="Group_22" data-name="Group 22" transform="translate(10.061 3.326)">
        <rect id="Rectangle_1" data-name="Rectangle 1" width="0.394" height="17.088" fill="#9b9b9b" stroke="#9b9b9b" stroke-miterlimit="10" stroke-width="0.5"/>
      </g>
      <g id="Group_23" data-name="Group 23" transform="translate(6.71 9.285)">
        <path id="Path_21" data-name="Path 21" d="M1097.15,1147.293l-3.549-3.272.267-.29,3.281,3.024,3.235-3.023.27.288Z" transform="translate(-1093.601 -1143.731)" fill="#9b9b9b" stroke="#9b9b9b" stroke-miterlimit="10" stroke-width="0.5"/>
      </g>
      <g id="Group_24" data-name="Group 24" transform="translate(0 16.948)">
        <rect id="Rectangle_2" data-name="Rectangle 2" width="20.465" height="0.394" fill="#9b9b9b" stroke="#9b9b9b" stroke-miterlimit="10" stroke-width="0.5"/>
      </g>
    </g>
    <path id="Path_6067" data-name="Path 6067" d="M1105.649,1172.112a60.324,60.324,0,0,0-31.316,0l-2.068-8.118a77.016,77.016,0,0,1,35.452,0Z" transform="translate(-1061.734 -1123.029)" fill="#fff" stroke="#9b9b9b" stroke-miterlimit="10" stroke-width="0.75"/>
    <text id="LITE-2" data-name="LITE" transform="translate(24.256 44.133)" fill="#9b9b9b" font-size="4" font-family="SegoeUI, Segoe UI" letter-spacing="0.004em"><tspan x="0" y="0">LITE</tspan></text>
  </g>
</svg>
