<svg xmlns="http://www.w3.org/2000/svg" width="22.806" height="23.333" viewBox="0 0 22.806 23.333">
  <path id="more-filter" d="M21.812,0H1.455A.956.956,0,0,0,.6.519.97.97,0,0,0,.678,1.529L8.136,12.034l.008.011a2.131,2.131,0,0,1,.418,1.264v8.565a.952.952,0,0,0,.952.958.981.981,0,0,0,.376-.075l4.191-1.6a.908.908,0,0,0,.625-.9V13.309a2.131,2.131,0,0,1,.418-1.264l.008-.011L22.589,1.528A.969.969,0,0,0,22.664.519.956.956,0,0,0,21.812,0ZM14.189,11.358a3.3,3.3,0,0,0-.643,1.951v6.814L9.721,21.582V13.309a3.3,3.3,0,0,0-.643-1.951l-7.24-10.2H21.43Zm0,0" transform="translate(-0.23 0.25)" fill="#434343" stroke="#434343" stroke-width="0.5"/>
</svg>
