<svg xmlns="http://www.w3.org/2000/svg" width="21.981" height="22.365" viewBox="0 0 21.981 22.365">
  <g id="payment_icon_new" transform="translate(-332.413 -106.692)">
    <path id="Path_52" data-name="Path 52" d="M338-32.154a6,6,0,0,1,6-6,6,6,0,0,1,6,6h.461a2.769,2.769,0,0,1,2.769,2.769l-1.846,9.231a2.769,2.769,0,0,1-2.769,2.769h-9.231a2.769,2.769,0,0,1-2.769-2.769l-1.846-9.231a2.769,2.769,0,0,1,2.769-2.769Zm2.769,0h6.462A3.231,3.231,0,0,0,344-35.385,3.231,3.231,0,0,0,340.769-32.154Z" transform="translate(-1.606 145.692)" fill="none" stroke="#707070" stroke-width="1.5"/>
    <path id="Path_5807" data-name="Path 5807" d="M307.385-30.769A4.615,4.615,0,0,0,312-35.385,4.615,4.615,0,0,0,307.385-40a4.615,4.615,0,0,0-4.615,4.615A4.615,4.615,0,0,0,307.385-30.769Z" transform="translate(42.394 146.692)" fill="#fed07a"/>
  </g>
</svg>
