<svg xmlns="http://www.w3.org/2000/svg" width="21.197" height="21.197" viewBox="0 0 21.197 21.197">
  <g id="plus_icon_supplier" transform="translate(-21.65 -545.65)">
    <g id="Group_2777" data-name="Group 2777" transform="translate(22 546)">
      <path id="Path_5623" data-name="Path 5623" d="M22,563.254V549.243a.413.413,0,0,0,.037-.09,3.641,3.641,0,0,1,2.744-3.044c.153-.04.307-.073.461-.109H39.254a.418.418,0,0,0,.09.037,3.641,3.641,0,0,1,3.044,2.744c.04.153.073.307.109.461v14.011a.414.414,0,0,0-.037.09,3.641,3.641,0,0,1-2.744,3.044c-.153.04-.307.073-.461.109H25.243a.414.414,0,0,0-.09-.037,3.641,3.641,0,0,1-3.044-2.744C22.069,563.563,22.036,563.408,22,563.254Zm10.268-15.78q-3.232,0-6.465,0a3.181,3.181,0,0,0-.478.023,2.224,2.224,0,0,0-1.857,2.255c.016,4.33.006,8.66.008,12.99a2.924,2.924,0,0,0,.025.438,2.219,2.219,0,0,0,2.243,1.847c4.337-.016,8.673-.006,13.01-.007a2.766,2.766,0,0,0,.419-.023,2.225,2.225,0,0,0,1.857-2.255c-.016-4.33-.006-8.66-.008-12.99a2.371,2.371,0,0,0-.026-.438,2.16,2.16,0,0,0-2.222-1.84Q35.521,547.47,32.268,547.474Z" transform="translate(-22 -546)" fill="#252529" stroke="#252529" stroke-width="0.7"/>
      <path id="Path_5624" data-name="Path 5624" d="M54.791,580.262h-.243c-.86,0-1.72,0-2.581,0a.738.738,0,0,1-.812-.562.706.706,0,0,1,.621-.89c.445-.027.893-.015,1.339-.017.546,0,1.092,0,1.664,0,0-.09.011-.166.011-.243,0-.86,0-1.72,0-2.581a.738.738,0,0,1,.562-.812.706.706,0,0,1,.89.621c.027.445.015.893.017,1.339,0,.546,0,1.092,0,1.664.09,0,.166.011.243.011.86,0,1.72,0,2.581,0a.738.738,0,0,1,.812.562.706.706,0,0,1-.621.89c-.445.027-.893.015-1.339.017-.546,0-1.092,0-1.664,0,0,.09-.011.166-.011.243,0,.86,0,1.72,0,2.581a.738.738,0,0,1-.562.812.706.706,0,0,1-.89-.621c-.027-.445-.015-.893-.017-1.339C54.789,581.391,54.791,580.844,54.791,580.262Z" transform="translate(-45.278 -569.278)" fill="#252529" stroke="#252529" stroke-width="0.7"/>
    </g>
  </g>
</svg>
