<svg xmlns="http://www.w3.org/2000/svg" xmlns:xlink="http://www.w3.org/1999/xlink" width="56.826" height="56.826" viewBox="0 0 56.826 56.826">
  <defs>
    <linearGradient id="linear-gradient" x1="0.108" y1="0.5" x2="0.929" y2="0.5" gradientUnits="objectBoundingBox">
      <stop offset="0" stop-color="#ddb553"/>
      <stop offset="0.502" stop-color="#f3eb98"/>
      <stop offset="1" stop-color="#ddb553"/>
    </linearGradient>
  </defs>
  <g id="premium-yellow" transform="translate(0.155 0.155)">
    <ellipse id="Ellipse_202" data-name="Ellipse 202" cx="28.258" cy="28.258" rx="28.258" ry="28.258" transform="translate(0 0)" fill="none"/>
    <ellipse id="Ellipse_203" data-name="Ellipse 203" cx="27.913" cy="27.913" rx="27.913" ry="27.913" transform="translate(0.345 0.345)" fill="none" stroke="#deb856" stroke-width="1"/>
    <ellipse id="Ellipse_198" data-name="Ellipse 198" cx="26.19" cy="26.19" rx="26.19" ry="26.19" transform="translate(2.068 2.068)" fill="url(#linear-gradient)"/>
    <ellipse id="Ellipse_198-2" data-name="Ellipse 198" cx="16.468" cy="16.469" rx="16.468" ry="16.469" transform="translate(11.789 11.789)" fill="#fff"/>
    <g id="Group_3773" data-name="Group 3773" transform="translate(4.623 4.43)">
      <g id="Group_3759" data-name="Group 3759" transform="translate(0)">
        <path id="Path_6076" data-name="Path 6076" d="M1159.581,1140.939l.353-1.856a1.6,1.6,0,0,1,.661-1.076,1.575,1.575,0,0,1,1.24-.227,1.559,1.559,0,0,1,1.066.676,1.663,1.663,0,0,1,.219,1.27l-.183.965,1.576.3-.161.853Zm.859-.721,1.809.343.147-.773a1.026,1.026,0,0,0-.1-.759.889.889,0,0,0-.624-.381.877.877,0,0,0-.713.126,1.031,1.031,0,0,0-.37.668Z" transform="translate(-1159.581 -1119.943)" fill="#fff"/>
        <path id="Path_6077" data-name="Path 6077" d="M1164.537,1133.8l1.667.747-.354.793-4.432-1.986.788-1.759a1.762,1.762,0,0,1,.873-.959,1.419,1.419,0,0,1,1.192.043,1.539,1.539,0,0,1,.686.572,1.313,1.313,0,0,1,.206.83l2.22-.167-.4.9-2.058.125Zm-2.122-.95,1.514.678.4-.893a.894.894,0,0,0,.063-.676.8.8,0,0,0-.464-.459.79.79,0,0,0-.652-.03.918.918,0,0,0-.467.5Z" transform="translate(-1160.152 -1117.7)" fill="#fff"/>
        <path id="Path_6078" data-name="Path 6078" d="M1166.787,1124.246a2.171,2.171,0,0,1,1.585-.88,3.02,3.02,0,0,1,2.849,2.31,2.439,2.439,0,0,1-2.12,2.614,3.019,3.019,0,0,1-2.849-2.31A2.171,2.171,0,0,1,1166.787,1124.246Zm1.6-.034a1.354,1.354,0,0,0-1.3,1.6,2.361,2.361,0,0,0,2,1.626,1.356,1.356,0,0,0,1.3-1.6,2.364,2.364,0,0,0-2-1.625Z" transform="translate(-1161.647 -1115.474)" fill="#fff"/>
        <path id="Path_6079" data-name="Path 6079" d="M1174.123,1122.363l.677-.505a.669.669,0,0,0,.448.27.769.769,0,0,0,.808-.632.876.876,0,0,0-.214-.591l-2.033-2.716.691-.518,2.038,2.72a1.545,1.545,0,0,1,.356,1.17,1.811,1.811,0,0,1-1.811,1.379A1.343,1.343,0,0,1,1174.123,1122.363Z" transform="translate(-1164.003 -1113.705)" fill="#fff"/>
        <path id="Path_6080" data-name="Path 6080" d="M1182.016,1117.931l.3.668-2.862,1.3-2.012-4.42,2.861-1.3.3.667-2.071.943.544,1.194,1.957-.891.285.627-1.957.891.574,1.261Z" transform="translate(-1165.134 -1112.62)" fill="#fff"/>
        <path id="Path_6081" data-name="Path 6081" d="M1186.2,1117.456l-.851.176-.983-4.756.85-.176.46,2.224.03-.006,1.439-2.616.978-.2-1.4,2.487,2.521,2.238-1.035.214-1.975-1.756-.355.643Z" transform="translate(-1167.283 -1111.974)" fill="#fff"/>
        <path id="Path_6082" data-name="Path 6082" d="M1194.436,1116.85l-.865-.03.143-4.119-1.452-.05.025-.733,3.767.131-.025.733-1.45-.051Z" transform="translate(-1169.738 -1111.917)" fill="#fff"/>
        <path id="Path_6083" data-name="Path 6083" d="M1205.36,1119.574l-.791-.357,2-4.425.791.356Z" transform="translate(-1173.563 -1112.81)" fill="#fff"/>
        <path id="Path_6084" data-name="Path 6084" d="M1207.778,1120.946l-.688-.477,2.766-3.99.62.429.041,4.168.026.019,1.938-2.8.686.475-2.767,3.99-.615-.426-.042-4.173-.025-.018Z" transform="translate(-1174.346 -1113.335)" fill="#fff"/>
        <path id="Path_6085" data-name="Path 6085" d="M1216.8,1122.178l1.136,1.361a2.248,2.248,0,0,1,.6,1.711,2.471,2.471,0,0,1-.98,1.609,2.5,2.5,0,0,1-1.77.684,2.227,2.227,0,0,1-1.582-.893l-1.137-1.363Zm-.008,1.136-2.6,2.171.522.625a1.424,1.424,0,0,0,1.055.583,1.841,1.841,0,0,0,1.223-.511,1.8,1.8,0,0,0,.708-1.1,1.435,1.435,0,0,0-.383-1.141Z" transform="translate(-1176.205 -1115.106)" fill="#fff"/>
        <path id="Path_6086" data-name="Path 6086" d="M1217.8,1132.037l-.428-.756,4.225-2.393.428.755Z" transform="translate(-1177.542 -1117.191)" fill="#fff"/>
        <path id="Path_6087" data-name="Path 6087" d="M1222.3,1137.539a1.94,1.94,0,0,1-2.683-1.313,2.164,2.164,0,0,1,.092-1.81,2.654,2.654,0,0,1,1.547-1.188,2.588,2.588,0,0,1,1.923-.014,2.158,2.158,0,0,1,1.177,1.358,2.217,2.217,0,0,1,.034,1.472,1.8,1.8,0,0,1-.887,1.039l-.288-.833a1.218,1.218,0,0,0,.473-.633,1.266,1.266,0,0,0-.028-.8,1.241,1.241,0,0,0-.771-.819,2,2,0,0,0-1.333.068,2.079,2.079,0,0,0-1.123.792,1.259,1.259,0,0,0-.115,1.139,1.279,1.279,0,0,0,.591.744,1.1,1.1,0,0,0,.9.069l.077-.023-.382-1.108.627-.216.66,1.908Z" transform="translate(-1178.193 -1118.481)" fill="#fff"/>
        <path id="Path_6088" data-name="Path 6088" d="M1226.113,1143.683a2.162,2.162,0,0,1-.59,1.713,3.012,3.012,0,0,1-3.661.186,2.435,2.435,0,0,1-.172-3.361,3.018,3.018,0,0,1,3.662-.187A2.174,2.174,0,0,1,1226.113,1143.683Zm-1.165,1.094a1.353,1.353,0,0,0-.1-2.063,2.363,2.363,0,0,0-2.578.13,1.357,1.357,0,0,0,.1,2.064,2.361,2.361,0,0,0,2.576-.131Z" transform="translate(-1178.7 -1121.112)" fill="#fff"/>
      </g>
    </g>
    <g id="Group_3774" data-name="Group 3774" transform="translate(18.527 17.071)">
      <g id="Group_19" data-name="Group 19" transform="translate(7.984)">
        <path id="Path_18" data-name="Path 18" d="M1193.612,1136.91c-1.254,0-2.274-1.492-2.274-3.325s1.02-3.325,2.274-3.325,2.274,1.492,2.274,3.325S1194.865,1136.91,1193.612,1136.91Zm0-6.255c-1.034,0-1.879,1.314-1.879,2.931s.843,2.931,1.879,2.931,1.88-1.314,1.88-2.931S1194.649,1130.655,1193.612,1130.655Z" transform="translate(-1191.338 -1130.259)" fill="#e0be5f" stroke="#dfbb5a" stroke-miterlimit="10" stroke-width="0.5"/>
      </g>
      <g id="Group_20" data-name="Group 20" transform="translate(11.189 6.976)">
        <path id="Path_19" data-name="Path 19" d="M1197.556,1145.263a1.553,1.553,0,0,1-1.125-.431,1.7,1.7,0,0,1-.382-1.594,3.827,3.827,0,0,1,2.78-2.78,1.567,1.567,0,0,1,1.976,1.976,3.583,3.583,0,0,1-1.006,1.774h0a3.593,3.593,0,0,1-1.774,1.006A2.44,2.44,0,0,1,1197.556,1145.263Zm1.74-4.459a1.9,1.9,0,0,0-.389.041,3.435,3.435,0,0,0-2.472,2.471,1.179,1.179,0,0,0,1.511,1.511,3.191,3.191,0,0,0,1.574-.9h0a3.186,3.186,0,0,0,.9-1.573,1.322,1.322,0,0,0-.276-1.241,1.165,1.165,0,0,0-.845-.313Z" transform="translate(-1195.99 -1140.38)" fill="#e0be5f" stroke="#dfbb5a" stroke-miterlimit="10" stroke-width="0.5"/>
      </g>
      <g id="Group_21" data-name="Group 21" transform="translate(4.388 6.976)">
        <path id="Path_20" data-name="Path 20" d="M1189.447,1145.263a2.424,2.424,0,0,1-.468-.049,3.6,3.6,0,0,1-1.775-1.006h0a3.587,3.587,0,0,1-1.006-1.774,1.567,1.567,0,0,1,1.976-1.976,3.825,3.825,0,0,1,2.78,2.78,1.7,1.7,0,0,1-.382,1.594A1.553,1.553,0,0,1,1189.447,1145.263Zm-1.739-4.459a1.169,1.169,0,0,0-.849.314,1.327,1.327,0,0,0-.276,1.241,3.2,3.2,0,0,0,.9,1.573h0a3.188,3.188,0,0,0,1.573.9,1.179,1.179,0,0,0,1.511-1.511,3.436,3.436,0,0,0-2.471-2.471,1.9,1.9,0,0,0-.384-.041Z" transform="translate(-1186.121 -1140.38)" fill="#e0be5f" stroke="#dfbb5a" stroke-miterlimit="10" stroke-width="0.5"/>
      </g>
      <g id="Group_22" data-name="Group 22" transform="translate(10.061 3.326)">
        <rect id="Rectangle_1" data-name="Rectangle 1" width="0.394" height="17.088" fill="#e0be5f" stroke="#dfbb5a" stroke-miterlimit="10" stroke-width="0.5"/>
      </g>
      <g id="Group_23" data-name="Group 23" transform="translate(6.71 9.285)">
        <path id="Path_21" data-name="Path 21" d="M1193.04,1147.293l-3.55-3.272.267-.29,3.281,3.024,3.235-3.023.27.288Z" transform="translate(-1189.49 -1143.731)" fill="#e0be5f" stroke="#dfbb5a" stroke-miterlimit="10" stroke-width="0.5"/>
      </g>
      <g id="Group_24" data-name="Group 24" transform="translate(0 16.948)">
        <rect id="Rectangle_2" data-name="Rectangle 2" width="20.465" height="0.394" fill="#e0be5f" stroke="#dfbb5a" stroke-miterlimit="10" stroke-width="0.5"/>
      </g>
    </g>
    <path id="Path_6114" data-name="Path 6114" d="M1201.538,1172.112a60.324,60.324,0,0,0-31.316,0l-2.068-8.118a77.016,77.016,0,0,1,35.452,0Z" transform="translate(-1157.622 -1123.029)" fill="#fff" stroke="#e1bf60" stroke-miterlimit="10" stroke-width="0.75"/>
    <g id="Group_3801" data-name="Group 3801" transform="translate(18.527 41.921)">
      <path id="Path_6118" data-name="Path 6118" d="M321.475,440.484l1.127-.178a.933.933,0,0,1,.728.159.952.952,0,0,1,.373.651.934.934,0,0,1-.161.729.965.965,0,0,1-.653.374l-.666.1.152.97-.446.07Zm.509.325.177,1.121.562-.089a.659.659,0,0,0,.427-.216.534.534,0,0,0,.1-.437.549.549,0,0,0-.224-.394.652.652,0,0,0-.476-.074Z" transform="translate(-321.475 -439.505)" fill="#dfbb5a"/>
      <path id="Path_6119" data-name="Path 6119" d="M326.149,441.637l.127,1.1-.449.051-.332-2.895,1.145-.131a.994.994,0,0,1,.726.162.845.845,0,0,1,.335.618.9.9,0,0,1-.09.532.8.8,0,0,1-.376.359l.784,1.1-.52.059-.716-1.036Zm-.159-1.4.116,1.013.646-.074a.579.579,0,0,0,.389-.179.486.486,0,0,0,.1-.391.478.478,0,0,0-.192-.354.6.6,0,0,0-.425-.088Z" transform="translate(-322.724 -439.339)" fill="#dfbb5a"/>
      <path id="Path_6120" data-name="Path 6120" d="M331.648,441.817l.029.411-1.844.134-.213-2.905,1.845-.135.03.411-1.394.1.06.822,1.319-.1.028.391-1.318.1.063.872Z" transform="translate(-324.006 -439.204)" fill="#dfbb5a"/>
      <path id="Path_6121" data-name="Path 6121" d="M336.441,442.064l-.42.01-.048-2.1h-.028l-.808,2.039-.343.008-.9-2h-.028l.048,2.1-.42.01-.066-2.913.528-.012.977,2.191h.034l.879-2.233.528-.012Z" transform="translate(-325.19 -439.151)" fill="#dfbb5a"/>
      <path id="Path_6122" data-name="Path 6122" d="M339.3,442.106l-.452-.008.053-2.913.452.008Z" transform="translate(-326.873 -439.162)" fill="#dfbb5a"/>
      <path id="Path_6123" data-name="Path 6123" d="M341.191,439.24l-.1,1.867a.668.668,0,0,0,.164.511.847.847,0,0,0,1.068.06.67.67,0,0,0,.221-.489l.106-1.867.451.025-.108,1.908a1.01,1.01,0,0,1-.364.757,1.4,1.4,0,0,1-1.719-.1,1.012,1.012,0,0,1-.274-.795l.108-1.907Z" transform="translate(-327.428 -439.171)" fill="#dfbb5a"/>
      <path id="Path_6124" data-name="Path 6124" d="M347.923,442.754l-.416-.05.252-2.09-.028,0-1.09,1.9-.341-.041-.606-2.107-.028,0-.252,2.088L345,442.4l.349-2.893.526.064.654,2.307.034,0,1.188-2.085.525.063Z" transform="translate(-328.785 -439.262)" fill="#dfbb5a"/>
    </g>
  </g>
</svg>
