<svg xmlns="http://www.w3.org/2000/svg" xmlns:xlink="http://www.w3.org/1999/xlink" width="56.785" height="56.785" viewBox="0 0 56.785 56.785">
  <defs>
    <linearGradient id="linear-gradient" x1="0.107" y1="0.466" x2="0.933" y2="0.471" gradientUnits="objectBoundingBox">
      <stop offset="0" stop-color="#9b9b9b"/>
      <stop offset="0.527" stop-color="#cbcbcb"/>
      <stop offset="1" stop-color="#9b9b9b"/>
    </linearGradient>
  </defs>
  <g id="premium" transform="translate(0.156 0.156)">
    <ellipse id="Ellipse_200" data-name="Ellipse 200" cx="28.237" cy="28.237" rx="28.237" ry="28.237" transform="translate(0 0)" fill="none"/>
    <ellipse id="Ellipse_201" data-name="Ellipse 201" cx="27.893" cy="27.893" rx="27.893" ry="27.893" transform="translate(0.344 0.344)" fill="none" stroke="#9b9b9b" stroke-width="1"/>
    <ellipse id="Ellipse_198" data-name="Ellipse 198" cx="26.171" cy="26.171" rx="26.171" ry="26.171" transform="translate(2.066 2.066)" fill="url(#linear-gradient)"/>
    <ellipse id="Ellipse_198-2" data-name="Ellipse 198" cx="16.456" cy="16.456" rx="16.456" ry="16.456" transform="translate(11.78 11.78)" fill="#fff"/>
    <g id="Group_3755" data-name="Group 3755" transform="translate(4.62 4.426)">
      <g id="Group_3754" data-name="Group 3754" transform="translate(0 0)">
        <path id="Path_6054" data-name="Path 6054" d="M1063.692,1140.937l.353-1.854a1.6,1.6,0,0,1,.661-1.076,1.731,1.731,0,0,1,2.305.449,1.663,1.663,0,0,1,.218,1.269l-.182.964,1.575.3-.162.853Zm.859-.72,1.808.342.147-.773a1.023,1.023,0,0,0-.1-.759.888.888,0,0,0-.623-.381.877.877,0,0,0-.713.126,1.03,1.03,0,0,0-.37.667Z" transform="translate(-1063.692 -1119.956)" fill="#fff"/>
        <path id="Path_6055" data-name="Path 6055" d="M1068.646,1133.8l1.665.746-.354.793-4.428-1.984.787-1.758a1.762,1.762,0,0,1,.873-.958,1.418,1.418,0,0,1,1.191.043,1.53,1.53,0,0,1,.685.572,1.312,1.312,0,0,1,.206.829l2.219-.167-.4.9-2.057.125Zm-2.121-.95,1.512.678.4-.893a.9.9,0,0,0,.063-.676.806.806,0,0,0-.465-.459.787.787,0,0,0-.651-.03.918.918,0,0,0-.468.5Z" transform="translate(-1064.264 -1117.709)" fill="#fff"/>
        <path id="Path_6056" data-name="Path 6056" d="M1070.9,1124.246a2.171,2.171,0,0,1,1.583-.879,3.018,3.018,0,0,1,2.847,2.308,2.436,2.436,0,0,1-2.119,2.612,3.018,3.018,0,0,1-2.846-2.309A2.169,2.169,0,0,1,1070.9,1124.246Zm1.6-.034a1.353,1.353,0,0,0-1.3,1.6,2.36,2.36,0,0,0,2,1.625,1.353,1.353,0,0,0,1.3-1.6,2.362,2.362,0,0,0-2-1.624Z" transform="translate(-1065.761 -1115.48)" fill="#fff"/>
        <path id="Path_6057" data-name="Path 6057" d="M1078.234,1122.359l.676-.5a.654.654,0,0,0,.952.123.681.681,0,0,0,.3-.485.877.877,0,0,0-.214-.591l-2.031-2.714.691-.518,2.036,2.718a1.54,1.54,0,0,1,.356,1.169,1.81,1.81,0,0,1-1.809,1.378A1.344,1.344,0,0,1,1078.234,1122.359Z" transform="translate(-1068.121 -1113.708)" fill="#fff"/>
        <path id="Path_6058" data-name="Path 6058" d="M1086.124,1117.929l.3.667-2.859,1.3-2.01-4.417,2.858-1.3.3.667-2.07.942.544,1.194,1.955-.89.285.627-1.955.891.574,1.26Z" transform="translate(-1069.254 -1112.621)" fill="#fff"/>
        <path id="Path_6059" data-name="Path 6059" d="M1090.307,1117.452l-.851.176-.981-4.752.849-.176.459,2.223.03-.006,1.438-2.614.978-.2-1.4,2.486,2.52,2.236-1.034.214-1.974-1.755-.354.643Z" transform="translate(-1071.407 -1111.974)" fill="#fff"/>
        <path id="Path_6060" data-name="Path 6060" d="M1098.546,1116.847l-.864-.03.143-4.116-1.451-.05.025-.733,3.764.131-.026.733-1.449-.051Z" transform="translate(-1073.865 -1111.917)" fill="#fff"/>
        <path id="Path_6061" data-name="Path 6061" d="M1109.471,1119.57l-.79-.357,2-4.422.791.356Z" transform="translate(-1077.697 -1112.812)" fill="#fff"/>
        <path id="Path_6062" data-name="Path 6062" d="M1111.888,1120.943l-.687-.477,2.765-3.987.619.428.041,4.165.026.019,1.937-2.794.686.475-2.765,3.987-.614-.426-.041-4.17-.025-.018Z" transform="translate(-1078.481 -1113.337)" fill="#fff"/>
        <path id="Path_6063" data-name="Path 6063" d="M1120.909,1122.178l1.134,1.36a2.247,2.247,0,0,1,.6,1.71,2.468,2.468,0,0,1-.979,1.608,2.5,2.5,0,0,1-1.769.683,2.226,2.226,0,0,1-1.581-.893l-1.135-1.362Zm-.008,1.136-2.6,2.169.522.624a1.421,1.421,0,0,0,1.054.583,1.839,1.839,0,0,0,1.221-.51,1.8,1.8,0,0,0,.708-1.1,1.436,1.436,0,0,0-.383-1.14Z" transform="translate(-1080.343 -1115.111)" fill="#fff"/>
        <path id="Path_6064" data-name="Path 6064" d="M1121.911,1132.035l-.428-.755,4.222-2.391.428.755Z" transform="translate(-1081.682 -1117.2)" fill="#fff"/>
        <path id="Path_6065" data-name="Path 6065" d="M1126.412,1137.536a1.938,1.938,0,0,1-2.68-1.312,2.16,2.16,0,0,1,.092-1.809,2.647,2.647,0,0,1,1.545-1.187,2.588,2.588,0,0,1,1.922-.014,2.156,2.156,0,0,1,1.175,1.357,2.212,2.212,0,0,1,.035,1.471,1.806,1.806,0,0,1-.886,1.039l-.288-.833a1.22,1.22,0,0,0,.472-.632,1.26,1.26,0,0,0-.028-.8,1.24,1.24,0,0,0-.77-.819,2,2,0,0,0-1.332.068,2.082,2.082,0,0,0-1.122.791,1.257,1.257,0,0,0-.115,1.138,1.277,1.277,0,0,0,.592.744,1.1,1.1,0,0,0,.9.069l.078-.024-.383-1.107.627-.216.659,1.907Z" transform="translate(-1082.334 -1118.492)" fill="#fff"/>
        <path id="Path_6066" data-name="Path 6066" d="M1130.22,1143.682a2.161,2.161,0,0,1-.589,1.712,3.01,3.01,0,0,1-3.658.186,2.433,2.433,0,0,1-.172-3.358,3.016,3.016,0,0,1,3.66-.187A2.17,2.17,0,0,1,1130.22,1143.682Zm-1.165,1.093a1.352,1.352,0,0,0-.1-2.061,2.362,2.362,0,0,0-2.576.13,1.355,1.355,0,0,0,.105,2.063,2.358,2.358,0,0,0,2.574-.131Z" transform="translate(-1082.842 -1121.127)" fill="#fff"/>
      </g>
    </g>
    <g id="Group_3756" data-name="Group 3756" transform="translate(18.513 17.058)">
      <g id="Group_19" data-name="Group 19" transform="translate(7.978 0)">
        <path id="Path_18" data-name="Path 18" d="M1097.722,1136.905c-1.253,0-2.273-1.491-2.273-3.323s1.019-3.323,2.273-3.323,2.273,1.491,2.273,3.323S1098.974,1136.905,1097.722,1136.905Zm0-6.251c-1.033,0-1.878,1.313-1.878,2.928s.842,2.929,1.878,2.929,1.878-1.313,1.878-2.929S1098.758,1130.654,1097.722,1130.654Z" transform="translate(-1095.449 -1130.259)" fill="#9b9b9b" stroke="#9b9b9b" stroke-miterlimit="10" stroke-width="0.5"/>
      </g>
      <g id="Group_20" data-name="Group 20" transform="translate(11.181 6.97)">
        <path id="Path_19" data-name="Path 19" d="M1101.666,1145.26a1.553,1.553,0,0,1-1.124-.43,1.7,1.7,0,0,1-.382-1.593,3.824,3.824,0,0,1,2.778-2.778,1.566,1.566,0,0,1,1.974,1.974,3.582,3.582,0,0,1-1.005,1.773h0a3.593,3.593,0,0,1-1.773,1.006A2.458,2.458,0,0,1,1101.666,1145.26Zm1.738-4.456a1.889,1.889,0,0,0-.388.041,3.432,3.432,0,0,0-2.47,2.469,1.178,1.178,0,0,0,1.51,1.51,3.189,3.189,0,0,0,1.573-.9h0a3.187,3.187,0,0,0,.9-1.572,1.322,1.322,0,0,0-.276-1.24,1.164,1.164,0,0,0-.844-.313Z" transform="translate(-1100.1 -1140.38)" fill="#9b9b9b" stroke="#9b9b9b" stroke-miterlimit="10" stroke-width="0.5"/>
      </g>
      <g id="Group_21" data-name="Group 21" transform="translate(4.385 6.971)">
        <path id="Path_20" data-name="Path 20" d="M1093.556,1145.26a2.426,2.426,0,0,1-.468-.049,3.6,3.6,0,0,1-1.773-1.006h0a3.585,3.585,0,0,1-1-1.773,1.566,1.566,0,0,1,1.974-1.974,3.822,3.822,0,0,1,2.778,2.778,1.7,1.7,0,0,1-.382,1.593A1.551,1.551,0,0,1,1093.556,1145.26Zm-1.738-4.456a1.168,1.168,0,0,0-.849.314,1.324,1.324,0,0,0-.276,1.24,3.2,3.2,0,0,0,.9,1.572h0a3.185,3.185,0,0,0,1.572.9,1.178,1.178,0,0,0,1.51-1.51,3.434,3.434,0,0,0-2.469-2.469,1.885,1.885,0,0,0-.384-.041Z" transform="translate(-1090.232 -1140.381)" fill="#9b9b9b" stroke="#9b9b9b" stroke-miterlimit="10" stroke-width="0.5"/>
      </g>
      <g id="Group_22" data-name="Group 22" transform="translate(10.054 3.323)">
        <rect id="Rectangle_1" data-name="Rectangle 1" width="0.394" height="17.075" fill="#9b9b9b" stroke="#9b9b9b" stroke-miterlimit="10" stroke-width="0.5"/>
      </g>
      <g id="Group_23" data-name="Group 23" transform="translate(6.705 9.278)">
        <path id="Path_21" data-name="Path 21" d="M1097.148,1147.29l-3.547-3.269.267-.29,3.278,3.022,3.233-3.021.269.288Z" transform="translate(-1093.601 -1143.731)" fill="#9b9b9b" stroke="#9b9b9b" stroke-miterlimit="10" stroke-width="0.5"/>
      </g>
      <g id="Group_24" data-name="Group 24" transform="translate(0 16.936)">
        <rect id="Rectangle_2" data-name="Rectangle 2" width="20.45" height="0.394" fill="#9b9b9b" stroke="#9b9b9b" stroke-miterlimit="10" stroke-width="0.5"/>
      </g>
    </g>
    <path id="Path_6067" data-name="Path 6067" d="M1105.625,1172.1a60.282,60.282,0,0,0-31.293,0l-2.066-8.112a76.958,76.958,0,0,1,35.426,0Z" transform="translate(-1061.741 -1123.058)" fill="#fff" stroke="#9b9b9b" stroke-miterlimit="10" stroke-width="0.75"/>
    <g id="Group_3758" data-name="Group 3758" transform="translate(18.485 41.538)">
      <g id="Group_3757" data-name="Group 3757" transform="translate(0 0)">
        <path id="Path_6068" data-name="Path 6068" d="M1083.824,1166.721l1.125-.13a.964.964,0,0,1,.734.187.947.947,0,0,1,.351.67.932.932,0,0,1-.2.731.994.994,0,0,1-.687.351l-.585.068.11.956-.517.059Zm.566.364.126,1.1.47-.054a.614.614,0,0,0,.416-.194.533.533,0,0,0,.107-.424.525.525,0,0,0-.2-.386.62.62,0,0,0-.448-.093Z" transform="translate(-1083.824 -1166.046)" fill="#9b9b9b"/>
        <path id="Path_6069" data-name="Path 6069" d="M1089.644,1168.644l.038.438-1.835.161-.255-2.9.519-.045.216,2.462Z" transform="translate(-1084.997 -1165.958)" fill="#9b9b9b"/>
        <path id="Path_6070" data-name="Path 6070" d="M1093.033,1168.839l-.289-.738-1.07.06-.206.766-.536.03.868-2.965.586-.032,1.194,2.849Zm-.923-2.35-.338,1.264.826-.046-.474-1.218Z" transform="translate(-1086.037 -1165.852)" fill="#9b9b9b"/>
        <path id="Path_6071" data-name="Path 6071" d="M1095.843,1168.737l-.518.012-.061-2.471-.871.021-.011-.439,2.259-.056.012.439-.87.022Z" transform="translate(-1087.11 -1165.804)" fill="#9b9b9b"/>
        <path id="Path_6072" data-name="Path 6072" d="M1098.854,1168.726l-.521,0,.013-2.911h.52Z" transform="translate(-1088.341 -1165.807)" fill="#9b9b9b"/>
        <path id="Path_6073" data-name="Path 6073" d="M1100.4,1168.739l-.5-.017.1-2.91.451.015,1.377,2.086h.019l.067-2.039.5.016-.1,2.91-.448-.015-1.378-2.088h-.018Z" transform="translate(-1088.827 -1165.807)" fill="#9b9b9b"/>
        <path id="Path_6074" data-name="Path 6074" d="M1104.989,1166.021l-.133,1.833a.677.677,0,1,0,1.35.1l.133-1.833.517.037-.136,1.879a1,1,0,0,1-.379.754,1.432,1.432,0,0,1-1.74-.127,1.007,1.007,0,0,1-.267-.8l.136-1.88Z" transform="translate(-1090.207 -1165.86)" fill="#9b9b9b"/>
        <path id="Path_6075" data-name="Path 6075" d="M1111.488,1169.542l-.465-.052.228-2.054-.014,0-1.062,1.937-.353-.039-.611-2.123h-.014l-.229,2.054-.467-.052.322-2.894.6.067.643,2.282h.017l1.13-2.085.6.067Z" transform="translate(-1091.506 -1165.963)" fill="#9b9b9b"/>
      </g>
    </g>
  </g>
</svg>
