<svg id="profile" xmlns="http://www.w3.org/2000/svg" width="19.744" height="19.745" viewBox="0 0 19.744 19.745">
  <path id="Path_5245" data-name="Path 5245" d="M170.678-164.675a9.867,9.867,0,0,0-9.872-9.873,9.867,9.867,0,0,0-9.872,9.873,9.874,9.874,0,0,0,9.872,9.872A9.873,9.873,0,0,0,170.678-164.675Zm-9.872-8.715a8.725,8.725,0,0,1,8.715,8.715,8.665,8.665,0,0,1-1.493,4.878,9.869,9.869,0,0,0-14.445,0,8.674,8.674,0,0,1-1.492-4.878A8.725,8.725,0,0,1,160.807-173.39Zm-6.5,14.519a8.712,8.712,0,0,1,13,0A8.706,8.706,0,0,1,154.306-158.872Z" transform="translate(-150.935 174.548)" fill="#040506"/>
  <path id="Path_5246" data-name="Path 5246" d="M159.537-164.564a3.475,3.475,0,0,0,3.471-3.471v-1.156a3.475,3.475,0,0,0-3.471-3.471,3.475,3.475,0,0,0-3.471,3.471v1.156A3.475,3.475,0,0,0,159.537-164.564Zm-2.314-4.627a2.317,2.317,0,0,1,2.314-2.314,2.315,2.315,0,0,1,2.313,2.314v1.156a2.315,2.315,0,0,1-2.313,2.314,2.317,2.317,0,0,1-2.314-2.314Z" transform="translate(-149.665 175.015)" fill="#040506"/>
</svg>
