<svg id="PROFILE_SAVE" xmlns="http://www.w3.org/2000/svg" width="14.634" height="11.392" viewBox="0 0 14.634 11.392">
  <g id="Group_2781" data-name="Group 2781">
    <path id="Path_5625" data-name="Path 5625" d="M-117.451,582.956c.077-.1.117-.155.166-.2q3.437-3.446,6.875-6.891a1.1,1.1,0,0,1,1.511-.178,5.1,5.1,0,0,1,.778.777,1.084,1.084,0,0,1-.037,1.375c-.052.063-.11.121-.168.179l-8.495,8.514a.772.772,0,0,1-1.255,0l-4.019-4.028a1.141,1.141,0,0,1,0-1.79c.14-.14.279-.283.421-.421a1.11,1.11,0,0,1,1.612.011c.824.818,1.642,1.642,2.462,2.465A2.221,2.221,0,0,1-117.451,582.956Z" transform="translate(122.527 -575.458)" fill="#5d5d5d"/>
  </g>
</svg>
