<svg xmlns="http://www.w3.org/2000/svg" width="19.357" height="22.919" viewBox="0 0 19.357 22.919">
  <g id="protection_sheild" transform="translate(-476.859 -531.776)">
    <path id="Path_5626" data-name="Path 5626" d="M496.206,536.46a.94.94,0,0,0-.7-1.041q-2.977-1.238-5.956-2.474a21.214,21.214,0,0,0-3.015-1.17,18.669,18.669,0,0,0-2.693,1.036q-3.164,1.318-6.329,2.631a.91.91,0,0,0-.654.977c0,1.522-.006,3.045,0,4.568a13.964,13.964,0,0,0,.863,4.791,14.889,14.889,0,0,0,8.347,8.814,1.1,1.1,0,0,0,.925,0,15.026,15.026,0,0,0,9.2-13.678C496.231,539.431,496.206,537.945,496.206,536.46Zm-1.791,2.622c0,.027,0,1.859-.057,2.743a12.547,12.547,0,0,1-1.427,4.988,13.064,13.064,0,0,1-6.248,5.946.38.38,0,0,1-.286,0,13.282,13.282,0,0,1-7.745-12.221c0-1.134,0-2.269,0-3.4a.28.28,0,0,1,.209-.307q3.753-1.551,7.5-3.107a.509.509,0,0,1,.352,0c2.5,1.03,4.99,2.069,7.487,3.1a.29.29,0,0,1,.221.323C494.409,537.792,494.415,538.437,494.416,539.082Z" fill="#5d5d5d"/>
    <path id="Path_5627" data-name="Path 5627" d="M495.4,548.94q-1.73,1.722-3.451,3.451c-.116.116-.219.243-.349.387-.646-.648-1.249-1.258-1.859-1.861a.9.9,0,1,0-1.271,1.273q1.224,1.23,2.454,2.454a.88.88,0,0,0,1.3.015q2.247-2.233,4.481-4.48a.848.848,0,0,0,.226-.866A.9.9,0,0,0,495.4,548.94Z" transform="translate(-6.034 -8.998)" fill="#5d5d5d"/>
  </g>
</svg>
