<svg xmlns="http://www.w3.org/2000/svg" width="120.442" height="25.378" viewBox="0 0 120.442 25.378">
  <g id="rozarpay_logo" transform="translate(-57.524 -308.521)">
    <path id="Path_5637" data-name="Path 5637" d="M184.793,351.415a1.968,1.968,0,0,1,1.341,1.651c.218,1.623.405,3.249.6,4.875a1.482,1.482,0,0,1-.028.292h-3.587c-.153-1.408-.3-2.8-.453-4.182-.005-.047,0-.094-.009-.14-.141-1.719-.422-1.976-2.17-1.983-1.985-.008-1.977-.006-2.461,1.942-.36,1.448-.744,2.89-1.122,4.357h-3.416c.3-1.151.592-2.288.893-3.423,1.025-3.851,2.063-7.7,3.069-11.555.145-.557.345-.781.974-.766,2.412.057,4.827.023,7.24.056a3.772,3.772,0,0,1,2.959,1.214,3.1,3.1,0,0,1,.572,2.85A6.219,6.219,0,0,1,184.793,351.415Zm-5.551-2.13c1.122,0,2.125,0,3.127,0,.21,0,.421,0,.63-.015a2.882,2.882,0,0,0,2.8-2.018,1.382,1.382,0,0,0-1.294-2.021c-1.257-.083-2.52-.077-3.78-.08a.574.574,0,0,0-.449.285C179.922,346.684,179.6,347.943,179.242,349.285Z" transform="translate(-99.657 -29.186)" fill="#132340"/>
    <path id="Path_5638" data-name="Path 5638" d="M610.487,382.43c-.517,1.961-1.014,3.8-1.481,5.641-.127.5-.334.726-.9.688-.86-.058-1.728-.015-2.657-.015l4.287-16.01H613l-.449,1.4a24.825,24.825,0,0,1,2.164-1.3,3.784,3.784,0,0,1,5.651,3.965,8.594,8.594,0,0,1-3.046,5.954,5.4,5.4,0,0,1-4.707,1.241A2.781,2.781,0,0,1,610.487,382.43Zm4.483-7.592a7.682,7.682,0,0,0-1.74.775,5.051,5.051,0,0,0-1.812,4.547,1.249,1.249,0,0,0,.986,1.23,4.989,4.989,0,0,0,2.1-.09c1.656-.5,2.568-3.151,2.41-4.67C616.8,375.506,616.179,374.987,614.97,374.839Z" transform="translate(-470.866 -54.865)" fill="#13223f"/>
    <path id="Path_5639" data-name="Path 5639" d="M290.582,374.082l.364-1.375h3.289c-.318,1.238-.617,2.43-.933,3.618-.64,2.411-1.283,4.822-1.951,7.225a.635.635,0,0,1-.473.349c-.934.034-1.87.016-2.9.016l.353-1.567a5.476,5.476,0,0,1-4.268,1.736,3.29,3.29,0,0,1-3.344-2.967c-.418-3.1,1.605-7.257,4.985-8.438A3.849,3.849,0,0,1,290.582,374.082Zm-4.571,7.544a11.639,11.639,0,0,0,1.265-.355c1.808-.727,2.642-3.658,2.312-5.068a1.383,1.383,0,0,0-1.43-1.2,4.367,4.367,0,0,0-2.044.5,4.726,4.726,0,0,0-2.033,4.15C284.029,380.888,284.743,381.544,286.011,381.626Z" transform="translate(-191.754 -54.837)" fill="#132240"/>
    <path id="Path_5640" data-name="Path 5640" d="M728.352,374.307c.518-1.384.518-1.384,1.927-1.383h1.8c-.417,1.624-.808,3.2-1.229,4.77-.531,1.98-1.1,3.948-1.618,5.932-.112.432-.284.56-.716.543-.884-.035-1.771-.01-2.722-.01l.343-1.289a15.658,15.658,0,0,1-2.747,1.286c-3.109.808-5.314-1.186-4.861-4.364a8.734,8.734,0,0,1,2.985-5.692,5.708,5.708,0,0,1,4.463-1.443A3.1,3.1,0,0,1,728.352,374.307Zm-.767,2.817a5.1,5.1,0,0,0-.377-1.155,2.278,2.278,0,0,0-2.959-.459,4.871,4.871,0,0,0-2.263,3.6,2.093,2.093,0,0,0,.526,2.255,2.289,2.289,0,0,0,2.578.153C726.9,380.664,727.233,378.959,727.585,377.124Z" transform="translate(-567.985 -55.08)" fill="#132240"/>
    <path id="Path_5641" data-name="Path 5641" d="M116.227,308.861c-.144.683-.256,1.375-.437,2.047-1.039,3.858-2.1,7.708-3.139,11.566-.521,1.94-1.01,3.889-1.5,5.838-.268,1.065-.257,1.069-1.332,1.069H107l3.652-13.669-.155-.14-5.469,3.5a28.575,28.575,0,0,1,1-3.541c.191-.457.869-.727,1.352-1.041q3.494-2.28,7-4.533c.6-.388,1.237-.73,1.857-1.093Z" transform="translate(-40.82 -0.292)" fill="#337bc0"/>
    <path id="Path_5642" data-name="Path 5642" d="M464.422,384.217a15.107,15.107,0,0,1-2.736-.756,3.494,3.494,0,0,1-1.874-3.762,7.635,7.635,0,0,1,6.393-7.233,5.05,5.05,0,0,1,4.742,1.037,3.725,3.725,0,0,1,1.052,1.89A7.842,7.842,0,0,1,464.422,384.217Zm.673-2.63c.381-.095.767-.175,1.142-.287,1.763-.524,2.914-3.832,2.375-5.336a1.726,1.726,0,0,0-.956-.912,2.686,2.686,0,0,0-2.473.336,5.1,5.1,0,0,0-2,4.262C463.114,380.891,463.817,381.525,465.1,381.587Z" transform="translate(-345.691 -54.811)" fill="#13223f"/>
    <path id="Path_5643" data-name="Path 5643" d="M810.832,374.8h3.494l.9,6.893c.931-1.28,1.767-2.418,2.591-3.565.721-1,1.418-2.025,2.156-3.015a.922.922,0,0,1,.624-.324c.912-.036,1.825-.015,2.868-.015-.9,1.278-1.755,2.482-2.6,3.689q-2.859,4.063-5.714,8.128c-.911,1.3-1.813,2.6-2.736,3.884a.763.763,0,0,1-.49.32c-1.043.029-2.087.015-3.253.015,1.244-1.716,2.429-3.321,3.572-4.956a1.521,1.521,0,0,0,.256-1C811.967,381.508,811.4,378.173,810.832,374.8Z" transform="translate(-645.501 -56.931)" fill="#132240"/>
    <path id="Path_5644" data-name="Path 5644" d="M371.865,386.146a4.983,4.983,0,0,1,1.958-3.595c1.98-1.556,3.839-3.267,5.747-4.914a1.745,1.745,0,0,0,.169-.232h-5.487l.652-2.478h9.564a4.712,4.712,0,0,1-1.594,3.171c-2.181,1.717-4.225,3.608-6.415,5.5h5.947c-.217.808-.391,1.532-.618,2.239a.585.585,0,0,1-.453.291C378.2,386.151,375.057,386.146,371.865,386.146Z" transform="translate(-270.131 -57.067)" fill="#152340"/>
    <path id="Path_5645" data-name="Path 5645" d="M65.265,383.349H57.524c.109-.517.192-1.011.32-1.493q.542-2.029,1.121-4.049a.926.926,0,0,1,.322-.5q4.193-2.729,8.4-5.428a2.968,2.968,0,0,1,.433-.191l.22.09Z" transform="translate(0 -54.286)" fill="#142240"/>
    <path id="Path_5646" data-name="Path 5646" d="M548.845,384.273l3.024-11.2h3.3l-.357,1.42c1.7-1.608,3.362-2.119,4.768-1.492l-.814,3.019a3.439,3.439,0,0,0-3.9.53,4.253,4.253,0,0,0-1.063,1.754c-.55,1.778-.992,3.59-1.446,5.4-.11.438-.3.6-.754.577C550.721,384.246,549.832,384.273,548.845,384.273Z" transform="translate(-422.22 -55.191)" fill="#142340"/>
    <path id="Path_5647" data-name="Path 5647" d="M184.682,308.576l.027-.055-.035.048Z" transform="translate(-109.268)" fill="#337bc0"/>
  </g>
</svg>
