<svg xmlns="http://www.w3.org/2000/svg" xmlns:xlink="http://www.w3.org/1999/xlink" width="14" height="12" viewBox="0 0 14 12">
  <defs>
    <clipPath id="clip-path">
      <path id="_Color" data-name="↳🎨 Color" d="M5.293,11.707l-5-5A1,1,0,0,1,.073,5.625l0,0L.081,5.6l0-.01,0-.01L.1,5.569l0,0,.01-.02h0a1,1,0,0,1,.183-.252l5-5A1,1,0,1,1,6.707,1.707L3.414,5H13a1,1,0,1,1,0,2H3.414l3.293,3.293a1,1,0,1,1-1.414,1.414Z" fill="#a2a2a2"/>
    </clipPath>
  </defs>
  <g id="search_result_arrow" transform="translate(0 0)">
    <path id="_Color-2" data-name="↳🎨 Color" d="M5.293,11.707l-5-5A1,1,0,0,1,.073,5.625l0,0L.081,5.6l0-.01,0-.01L.1,5.569l0,0,.01-.02h0a1,1,0,0,1,.183-.252l5-5A1,1,0,1,1,6.707,1.707L3.414,5H13a1,1,0,1,1,0,2H3.414l3.293,3.293a1,1,0,1,1-1.414,1.414Z" fill="#a2a2a2"/>
  </g>
</svg>
