<svg id="search_filter_icon" xmlns="http://www.w3.org/2000/svg" width="20.702" height="18.967" viewBox="0 0 20.702 18.967">
  <path id="Path_5197" data-name="Path 5197" d="M84.159,82.069H71.825a2.544,2.544,0,0,0-4.823,0H65.077a.81.81,0,0,0,0,1.62H67a2.544,2.544,0,0,0,4.823,0H84.159a.81.81,0,1,0,0-1.62ZM69.414,83.8a.925.925,0,1,1,.925-.925A.926.926,0,0,1,69.414,83.8Z" transform="translate(-64.267 -80.334)" fill="#252529"/>
  <path id="Path_5198" data-name="Path 5198" d="M84.159,210.6H82.234a2.544,2.544,0,0,0-4.823,0H65.077a.81.81,0,0,0,0,1.62H77.41a2.544,2.544,0,0,0,4.823,0h1.925a.81.81,0,1,0,0-1.62Zm-4.337,1.735a.925.925,0,1,1,.925-.925A.926.926,0,0,1,79.822,212.336Z" transform="translate(-64.267 -201.928)" fill="#252529"/>
  <path id="Path_5199" data-name="Path 5199" d="M84.159,339.135H75.295a2.544,2.544,0,0,0-4.823,0H65.077a.81.81,0,0,0,0,1.62h5.395a2.544,2.544,0,0,0,4.823,0h8.864a.81.81,0,1,0,0-1.62Zm-11.276,1.735a.925.925,0,1,1,.925-.925A.926.926,0,0,1,72.883,340.869Z" transform="translate(-64.267 -323.522)" fill="#252529"/>
</svg>
