<svg xmlns="http://www.w3.org/2000/svg" width="18.351" height="18.336" viewBox="0 0 18.351 18.336">
  <path id="search1" d="M123.923-162.251l-4.017-4.017.2-.225a8.059,8.059,0,0,0,1.8-5.077,8.09,8.09,0,0,0-8.1-8.072,8.085,8.085,0,0,0-8.071,8.072,8.1,8.1,0,0,0,8.071,8.084,8.056,8.056,0,0,0,5.09-1.784l.225-.2,4.017,4a.55.55,0,0,0,.773,0,.505.505,0,0,0,.175-.374A.608.608,0,0,0,123.923-162.251ZM113.805-164.6a6.983,6.983,0,0,1-6.961-6.974,6.972,6.972,0,0,1,6.961-6.961,6.977,6.977,0,0,1,6.986,6.961A6.988,6.988,0,0,1,113.805-164.6Z" transform="translate(-105.734 179.642)" fill="#040506"/>
</svg>
