<svg id="shirts" xmlns="http://www.w3.org/2000/svg" width="47.856" height="51.347" viewBox="0 0 47.856 51.347">
  <path id="Path_5490" data-name="Path 5490" d="M247.322-64.342,242.114-79.09a.552.552,0,0,0-.351-.322l-10.242-2.546-3.365-4.214a.612.612,0,0,0-.38-.2h-8.691a.612.612,0,0,0-.38.2l-3.365,4.214-10.271,2.546a.633.633,0,0,0-.351.322l-5.179,14.748a.413.413,0,0,0-.029.263l3.453,19.957a.528.528,0,0,0,.5.41h4.711V-39a.536.536,0,0,0,.38.5L223.3-35.051a.32.32,0,0,0,.234,0L238.28-38.5a.528.528,0,0,0,.41-.5v-4.711h4.682a.481.481,0,0,0,.5-.41l3.482-19.957A.809.809,0,0,0,247.322-64.342ZM230.614-81.489,227.687-77.1l-3.57-3.57,3.629-4.389Zm-11.529-3.57,3.658,4.36-3.57,3.6-2.926-4.389ZM208.17-44.707H203.9l-.585-3.336h4.857Zm14.748,8.544-13.753-3.248V-68.994h-.995v19.957h-5.033l-2.634-15.1.059-.088,5.033-14.251,9.8-2.458,3.277,4.916a.446.446,0,0,0,.351.2.531.531,0,0,0,.41-.146l3.482-3.482Zm.5-45.268-3.248-3.921h6.525Zm19.547,36.724H238.69v-3.336h4.858Zm3.365-19.313-2.6,14.982H238.69V-68.994h-1.024v29.584l-13.753,3.248V-79.441l3.482,3.482a.616.616,0,0,0,.38.146.467.467,0,0,0,.41-.234l3.277-4.887,9.8,2.429.059.2,5,14.163Z" transform="translate(-199.496 86.376)" fill="#171717"/>
  <path id="Path_5491" data-name="Path 5491" d="M216.123-80.736h-6.935a.513.513,0,0,0-.5.5V-73.3a.519.519,0,0,0,.5.527h6.935a.525.525,0,0,0,.527-.527v-6.935A.519.519,0,0,0,216.123-80.736Zm-.5,6.935h-5.94v-5.94h5.94Z" transform="translate(-181.786 97.24)" fill="#171717"/>
</svg>
