<svg xmlns="http://www.w3.org/2000/svg" width="49.466" height="39.682" viewBox="0 0 49.466 39.682">
  <path id="shorts" d="M213.718-46.834h.029L209.27-76.915v-4.8a.519.519,0,0,0-.5-.527H169.327a.5.5,0,0,0-.5.527v4.77l-4.506,30.374a.518.518,0,0,0,.41.585l20.805,3.424a.525.525,0,0,0,.585-.41L189.05-55.2l2.9,12.231a.528.528,0,0,0,.5.41h.088l20.805-3.424a.54.54,0,0,0,.439-.585Zm-5.355-29.408,1.756,11.91-1.053-.439A8.171,8.171,0,0,1,204-71.034l-.907-5.355h5.238ZM198-81.217h10.242l.029,3.8H198Zm-28.15,0H180.1v3.8H169.825Zm-.088,4.828h5.267l-.907,5.355a8.3,8.3,0,0,1-5.092,6.291l-1.053.41Zm15.509,32.744-.176-.029-19.723-3.248.38-2.546.176.029,19.928,3.277Zm3.277-13.812-2.458,10.329-.176-.029L165.9-50.463l.029-.176,1.873-12.553,1.58-.615a9.314,9.314,0,0,0,5.706-7.052l.936-5.531h12.524Zm-7.462-19.957v-3.8h15.919v3.8Zm11.793,1.024v10.125a3.859,3.859,0,0,1-3.1,3.8l-.2.029V-76.389Zm-.878,29.262-.029-.176-2.429-10.154v-3.95h.146a4.938,4.938,0,0,0,4.214-4.857V-76.389h8.135l.029.146.907,5.384a9.314,9.314,0,0,0,5.706,7.052l1.609.615v.117l1.873,12.612-.176.029Zm20.513.234-19.664,3.248-.615-2.517.2-.029,19.869-3.277.38,2.546Z" transform="translate(-164.314 82.241)" fill="#171717"/>
</svg>
