<svg xmlns="http://www.w3.org/2000/svg" xmlns:xlink="http://www.w3.org/1999/xlink" width="56.785" height="56.785" viewBox="0 0 56.785 56.785">
  <defs>
    <linearGradient id="linear-gradient" x1="0.121" y1="0.5" x2="0.867" y2="0.5" gradientUnits="objectBoundingBox">
      <stop offset="0" stop-color="#777"/>
      <stop offset="0.498" stop-color="#9d9d9d"/>
      <stop offset="1" stop-color="#777"/>
    </linearGradient>
  </defs>
  <g id="silver" transform="translate(0.156 0.156)">
    <ellipse id="Ellipse_204" data-name="Ellipse 204" cx="28.237" cy="28.237" rx="28.237" ry="28.237" transform="translate(0 0)" fill="none"/>
    <ellipse id="Ellipse_205" data-name="Ellipse 205" cx="27.893" cy="27.893" rx="27.893" ry="27.893" transform="translate(0.344 0.344)" fill="none" stroke="#777" stroke-width="1"/>
    <ellipse id="Ellipse_198" data-name="Ellipse 198" cx="26.171" cy="26.171" rx="26.171" ry="26.171" transform="translate(2.066 2.066)" fill="url(#linear-gradient)"/>
    <ellipse id="Ellipse_198-2" data-name="Ellipse 198" cx="16.456" cy="16.456" rx="16.456" ry="16.456" transform="translate(11.78 11.78)" fill="#fff"/>
    <g id="Group_3770" data-name="Group 3770" transform="translate(4.62 4.426)">
      <g id="Group_3764" data-name="Group 3764" transform="translate(0 0)">
        <path id="Path_6094" data-name="Path 6094" d="M1259.221,1140.937l.352-1.854a1.6,1.6,0,0,1,.66-1.076,1.732,1.732,0,0,1,2.306.449,1.66,1.66,0,0,1,.218,1.269l-.183.964,1.575.3-.161.853Zm.858-.72,1.808.342.147-.773a1.023,1.023,0,0,0-.1-.759.885.885,0,0,0-.623-.381.874.874,0,0,0-.711.126,1.023,1.023,0,0,0-.37.667Z" transform="translate(-1259.221 -1119.956)" fill="#fff"/>
        <path id="Path_6095" data-name="Path 6095" d="M1264.173,1133.8l1.665.746-.354.793-4.428-1.984.786-1.758a1.765,1.765,0,0,1,.873-.958,1.418,1.418,0,0,1,1.191.043,1.529,1.529,0,0,1,.685.572,1.308,1.308,0,0,1,.206.829l2.22-.167-.4.9-2.057.125Zm-2.12-.95,1.512.678.4-.893a.9.9,0,0,0,.063-.676.8.8,0,0,0-.466-.459.787.787,0,0,0-.651-.03.918.918,0,0,0-.467.5Z" transform="translate(-1259.792 -1117.709)" fill="#fff"/>
        <path id="Path_6096" data-name="Path 6096" d="M1266.426,1124.246a2.168,2.168,0,0,1,1.583-.879,3.018,3.018,0,0,1,2.846,2.308,2.436,2.436,0,0,1-2.119,2.612,3.017,3.017,0,0,1-2.846-2.309A2.169,2.169,0,0,1,1266.426,1124.246Zm1.6-.034a1.354,1.354,0,0,0-1.3,1.6,2.358,2.358,0,0,0,2,1.625,1.355,1.355,0,0,0,1.3-1.6,2.363,2.363,0,0,0-2-1.624Z" transform="translate(-1261.29 -1115.48)" fill="#fff"/>
        <path id="Path_6097" data-name="Path 6097" d="M1273.761,1122.359l.677-.5a.667.667,0,0,0,.448.269.771.771,0,0,0,.808-.632.88.88,0,0,0-.214-.591l-2.031-2.714.691-.518,2.035,2.718a1.542,1.542,0,0,1,.357,1.169,1.811,1.811,0,0,1-1.809,1.378A1.346,1.346,0,0,1,1273.761,1122.359Z" transform="translate(-1263.65 -1113.708)" fill="#fff"/>
        <path id="Path_6098" data-name="Path 6098" d="M1281.651,1117.929l.3.667-2.858,1.3-2.011-4.417,2.858-1.3.306.667-2.07.942.543,1.194,1.956-.89.285.627-1.956.891.574,1.26Z" transform="translate(-1264.782 -1112.621)" fill="#fff"/>
        <path id="Path_6099" data-name="Path 6099" d="M1285.834,1117.452l-.85.176-.982-4.752.85-.176.459,2.223.03-.006,1.438-2.614.978-.2-1.395,2.486,2.519,2.236-1.034.214-1.973-1.755-.355.643Z" transform="translate(-1266.935 -1111.974)" fill="#fff"/>
        <path id="Path_6100" data-name="Path 6100" d="M1294.074,1116.847l-.865-.03.143-4.116-1.452-.05.026-.733,3.763.131-.026.733-1.448-.051Z" transform="translate(-1269.394 -1111.917)" fill="#fff"/>
        <path id="Path_6101" data-name="Path 6101" d="M1305,1119.57l-.789-.357,2-4.422.791.356Z" transform="translate(-1273.225 -1112.812)" fill="#fff"/>
        <path id="Path_6102" data-name="Path 6102" d="M1307.416,1120.943l-.687-.477,2.765-3.987.619.428.04,4.165.026.019,1.937-2.794.686.475-2.766,3.987-.613-.426-.042-4.17-.025-.018Z" transform="translate(-1274.01 -1113.337)" fill="#fff"/>
        <path id="Path_6103" data-name="Path 6103" d="M1316.436,1122.178l1.134,1.36a2.249,2.249,0,0,1,.6,1.71,2.468,2.468,0,0,1-.979,1.608,2.5,2.5,0,0,1-1.769.683,2.228,2.228,0,0,1-1.581-.893l-1.135-1.362Zm-.008,1.136-2.6,2.169.522.624a1.423,1.423,0,0,0,1.054.583,1.84,1.84,0,0,0,1.222-.51,1.8,1.8,0,0,0,.707-1.1,1.435,1.435,0,0,0-.382-1.14Z" transform="translate(-1275.871 -1115.111)" fill="#fff"/>
        <path id="Path_6104" data-name="Path 6104" d="M1317.44,1132.035l-.428-.755,4.221-2.391.428.755Z" transform="translate(-1277.211 -1117.2)" fill="#fff"/>
        <path id="Path_6105" data-name="Path 6105" d="M1321.94,1137.536a1.938,1.938,0,0,1-2.681-1.312,2.16,2.16,0,0,1,.092-1.809,2.652,2.652,0,0,1,1.545-1.187,2.59,2.59,0,0,1,1.922-.014,2.153,2.153,0,0,1,1.174,1.357,2.209,2.209,0,0,1,.035,1.471,1.8,1.8,0,0,1-.886,1.039l-.288-.833a1.213,1.213,0,0,0,.472-.632,1.371,1.371,0,0,0-.8-1.62,1.993,1.993,0,0,0-1.331.068,2.074,2.074,0,0,0-1.122.791,1.255,1.255,0,0,0-.116,1.138,1.277,1.277,0,0,0,.592.744,1.1,1.1,0,0,0,.9.069l.078-.024-.384-1.107.627-.216.659,1.907Z" transform="translate(-1277.863 -1118.492)" fill="#fff"/>
        <path id="Path_6106" data-name="Path 6106" d="M1325.749,1143.682a2.164,2.164,0,0,1-.591,1.712,3.008,3.008,0,0,1-3.657.186,2.431,2.431,0,0,1-.172-3.358,3.016,3.016,0,0,1,3.66-.187A2.175,2.175,0,0,1,1325.749,1143.682Zm-1.165,1.093a1.352,1.352,0,0,0-.1-2.061,2.361,2.361,0,0,0-2.576.13,1.356,1.356,0,0,0,.1,2.063,2.36,2.36,0,0,0,2.574-.131Z" transform="translate(-1278.37 -1121.127)" fill="#fff"/>
      </g>
    </g>
    <g id="Group_3771" data-name="Group 3771" transform="translate(18.513 17.058)">
      <g id="Group_19" data-name="Group 19" transform="translate(7.978 0)">
        <path id="Path_18" data-name="Path 18" d="M1293.25,1136.905c-1.253,0-2.273-1.491-2.273-3.323s1.019-3.323,2.273-3.323,2.273,1.491,2.273,3.323S1294.5,1136.905,1293.25,1136.905Zm0-6.251c-1.033,0-1.878,1.313-1.878,2.928s.842,2.929,1.878,2.929,1.878-1.313,1.878-2.929S1294.286,1130.654,1293.25,1130.654Z" transform="translate(-1290.977 -1130.259)" fill="#777" stroke="#777" stroke-miterlimit="10" stroke-width="0.5"/>
      </g>
      <g id="Group_20" data-name="Group 20" transform="translate(11.181 6.97)">
        <path id="Path_19" data-name="Path 19" d="M1297.194,1145.26a1.552,1.552,0,0,1-1.124-.43,1.7,1.7,0,0,1-.382-1.593,3.823,3.823,0,0,1,2.778-2.778,1.566,1.566,0,0,1,1.974,1.974,3.58,3.58,0,0,1-1.005,1.773h0a3.591,3.591,0,0,1-1.773,1.006A2.457,2.457,0,0,1,1297.194,1145.26Zm1.738-4.456a1.892,1.892,0,0,0-.388.041,3.432,3.432,0,0,0-2.47,2.469,1.178,1.178,0,0,0,1.51,1.51,3.186,3.186,0,0,0,1.573-.9h0a3.18,3.18,0,0,0,.9-1.572,1.322,1.322,0,0,0-.276-1.24,1.164,1.164,0,0,0-.844-.313Z" transform="translate(-1295.628 -1140.38)" fill="#777" stroke="#777" stroke-miterlimit="10" stroke-width="0.5"/>
      </g>
      <g id="Group_21" data-name="Group 21" transform="translate(4.385 6.971)">
        <path id="Path_20" data-name="Path 20" d="M1289.084,1145.26a2.431,2.431,0,0,1-.468-.049,3.594,3.594,0,0,1-1.773-1.006h0a3.584,3.584,0,0,1-1-1.773,1.566,1.566,0,0,1,1.974-1.974,3.822,3.822,0,0,1,2.778,2.778,1.7,1.7,0,0,1-.382,1.593A1.551,1.551,0,0,1,1289.084,1145.26Zm-1.738-4.456a1.168,1.168,0,0,0-.848.314,1.325,1.325,0,0,0-.276,1.24,3.2,3.2,0,0,0,.9,1.572h0a3.185,3.185,0,0,0,1.572.9,1.178,1.178,0,0,0,1.51-1.51,3.434,3.434,0,0,0-2.469-2.469,1.886,1.886,0,0,0-.384-.041Z" transform="translate(-1285.76 -1140.381)" fill="#777" stroke="#777" stroke-miterlimit="10" stroke-width="0.5"/>
      </g>
      <g id="Group_22" data-name="Group 22" transform="translate(10.054 3.323)">
        <rect id="Rectangle_1" data-name="Rectangle 1" width="0.394" height="17.075" fill="#777" stroke="#777" stroke-miterlimit="10" stroke-width="0.5"/>
      </g>
      <g id="Group_23" data-name="Group 23" transform="translate(6.705 9.278)">
        <path id="Path_21" data-name="Path 21" d="M1292.676,1147.29l-3.547-3.269.267-.29,3.278,3.022,3.233-3.021.269.288Z" transform="translate(-1289.129 -1143.731)" fill="#777" stroke="#777" stroke-miterlimit="10" stroke-width="0.5"/>
      </g>
      <g id="Group_24" data-name="Group 24" transform="translate(0 16.936)">
        <rect id="Rectangle_2" data-name="Rectangle 2" width="20.45" height="0.394" fill="#777" stroke="#777" stroke-miterlimit="10" stroke-width="0.5"/>
      </g>
    </g>
    <path id="Path_6094-2" data-name="Path 6094" d="M1301.153,1172.1a60.282,60.282,0,0,0-31.293,0l-2.066-8.112a76.958,76.958,0,0,1,35.426,0Z" transform="translate(-1257.269 -1123.058)" fill="#fff" stroke="#777" stroke-miterlimit="10" stroke-width="0.75"/>
    <g id="Group_3772" data-name="Group 3772" transform="translate(22.011 41.538)">
      <g id="Group_3767" data-name="Group 3767" transform="translate(0 0)">
        <path id="Path_6108" data-name="Path 6108" d="M1284.5,1168.273l.5-.037a.442.442,0,0,0,.229.306.8.8,0,0,0,.458.088.739.739,0,0,0,.419-.149.355.355,0,0,0,.144-.31.316.316,0,0,0-.14-.247,1.039,1.039,0,0,0-.407-.132l-.383-.06a1.212,1.212,0,0,1-.616-.243.686.686,0,0,1-.232-.492.76.76,0,0,1,.255-.647,1.216,1.216,0,0,1,.761-.3,1.2,1.2,0,0,1,.789.178.793.793,0,0,1,.349.6l-.5.036a.428.428,0,0,0-.2-.306.67.67,0,0,0-.417-.085.66.66,0,0,0-.389.141.345.345,0,0,0-.13.3.283.283,0,0,0,.136.227,1.06,1.06,0,0,0,.4.126l.34.051a1.346,1.346,0,0,1,.662.246.692.692,0,0,1,.238.5.8.8,0,0,1-.26.678,1.322,1.322,0,0,1-.818.3,1.3,1.3,0,0,1-.825-.172A.8.8,0,0,1,1284.5,1168.273Z" transform="translate(-1284.472 -1165.88)" fill="#777"/>
        <path id="Path_6109" data-name="Path 6109" d="M1288.962,1168.842l-.519.026-.149-2.907.52-.026Z" transform="translate(-1285.661 -1165.845)" fill="#777"/>
        <path id="Path_6110" data-name="Path 6110" d="M1291.833,1168.3l.013.44-1.842.052-.083-2.91.521-.015.07,2.471Z" transform="translate(-1286.168 -1165.824)" fill="#777"/>
        <path id="Path_6111" data-name="Path 6111" d="M1294.308,1168.725l-.6,0-.994-2.917.573,0,.723,2.357h.012l.754-2.347.561,0Z" transform="translate(-1287.039 -1165.804)" fill="#777"/>
        <path id="Path_6112" data-name="Path 6112" d="M1298.936,1168.41l-.019.439-1.883-.083.13-2.909,1.882.084-.019.439-1.363-.061-.035.786,1.289.057-.019.413-1.288-.057-.037.831Z" transform="translate(-1288.383 -1165.82)" fill="#777"/>
        <path id="Path_6113" data-name="Path 6113" d="M1301.065,1167.881l-.083,1.092-.519-.04.222-2.9,1.153.088a1.06,1.06,0,0,1,.718.3.846.846,0,0,1,.216.681.918.918,0,0,1-.184.5.78.78,0,0,1-.426.284l.544,1.219-.592-.045-.488-1.136Zm.107-1.391-.076.992.585.045a.538.538,0,0,0,.395-.1.484.484,0,0,0,.165-.356.468.468,0,0,0-.115-.373.546.546,0,0,0-.378-.162Z" transform="translate(-1289.45 -1165.874)" fill="#777"/>
      </g>
    </g>
  </g>
</svg>
