<svg xmlns="http://www.w3.org/2000/svg" width="65.802" height="27.36" viewBox="0 0 65.802 27.36">
  <g id="stripe_logo" transform="translate(-249.34 -1064.526)">
    <path id="Path_5648" data-name="Path 5648" d="M557.406,1111.94c.754-.077.49.654.789,1a1.548,1.548,0,0,0,.289-.148,5.428,5.428,0,0,1,7.9,1.475,10.551,10.551,0,0,1,1.483,7.086,9.845,9.845,0,0,1-.886,3.41,5.7,5.7,0,0,1-5.023,3.538,4.891,4.891,0,0,1-2.865-.7c-.171-.1-.342-.2-.615-.364,0,.588,0,1.087,0,1.586q0,1.529-.012,3.059c0,.221.037.454-.284.517-1.437.283-2.873.577-4.309.866a.2.2,0,0,0-.034-.116q0-.366.006-.732,0-1.47,0-2.94v-.49c.008-2.744.02-5.488.021-8.232,0-2.073-.014-4.146-.021-6.219l0-2.329a1.667,1.667,0,0,1,.538-.226C555.39,1111.944,556.4,1111.948,557.406,1111.94Zm6.012,8.092a5.665,5.665,0,0,0-.755-3.043,2.593,2.593,0,0,0-3.957-.6.887.887,0,0,0-.271.566q-.022,3.06.014,6.121a.847.847,0,0,0,.263.571,2.611,2.611,0,0,0,3.828-.43A5.247,5.247,0,0,0,563.419,1120.033Z" transform="translate(-267.208 -41.371)" fill="#4667ae"/>
    <path id="Path_5649" data-name="Path 5649" d="M689.076,1121.63H680.33a2.325,2.325,0,0,0,1.486,2.4,5.344,5.344,0,0,0,3,.285c1.115-.185,2.211-.49,3.359-.752a1.727,1.727,0,0,1,.035.287c0,.918,0,1.835.009,2.753a.565.565,0,0,1-.361.625c-3.039,1.284-6.076,1.561-9.036-.165a6.2,6.2,0,0,1-2.866-4.1,10.783,10.783,0,0,1,.843-8.006,6.512,6.512,0,0,1,9.586-2.085,7.28,7.28,0,0,1,2.364,3.909A12.967,12.967,0,0,1,689.076,1121.63Zm-8.929-3.42h4.674a2.769,2.769,0,0,0-1.159-2.577,2.071,2.071,0,0,0-2.365.047A2.732,2.732,0,0,0,680.147,1118.21Z" transform="translate(-374.026 -41.298)" fill="#4667ae"/>
    <path id="Path_5650" data-name="Path 5650" d="M260.065,1116.584c-.833-.277-1.59-.575-2.372-.775a6.165,6.165,0,0,0-2.838-.222c-.409.086-.74.253-.825.7a.852.852,0,0,0,.45.983c.392.208.8.387,1.209.562,1.047.448,2.146.8,3.138,1.348a4.486,4.486,0,0,1,1.839,5.6,4.785,4.785,0,0,1-3.492,3.058,11.308,11.308,0,0,1-7.248-.553.615.615,0,0,1-.355-.413c-.027-1.322-.016-2.644-.016-4.027.721.291,1.37.572,2.033.816a8.155,8.155,0,0,0,3.294.552,2.379,2.379,0,0,0,.827-.18.926.926,0,0,0,.27-1.564,4.889,4.889,0,0,0-1.252-.738c-1.005-.444-2.059-.785-3.04-1.275a3.881,3.881,0,0,1-2.237-2.751,4.841,4.841,0,0,1,3.435-5.769,10.875,10.875,0,0,1,6.844.312.537.537,0,0,1,.323.359C260.074,1113.924,260.065,1115.243,260.065,1116.584Z" transform="translate(0 -41.236)" fill="#4667ae"/>
    <path id="Path_5651" data-name="Path 5651" d="M351.436,1082.793l4.426-.939v3.954h3.418v3.887h-3.387c-.013.245-.032.439-.033.634,0,1.918-.005,3.835,0,5.753.006,1.571.829,2.252,2.4,2,.32-.052.639-.108,1-.169a3.186,3.186,0,0,1,.059.42c0,.938.015,1.877-.012,2.815-.005.182-.131.476-.267.521a6.41,6.41,0,0,1-5.218-.082,4.589,4.589,0,0,1-2.432-4.469q.019-6.241.051-12.483C351.438,1084.044,351.436,1083.454,351.436,1082.793Z" transform="translate(-89.548 -15.206)" fill="#4566ad"/>
    <path id="Path_5652" data-name="Path 5652" d="M432.79,1128.946h-4.481v-15.985h2.509c.428.006.947-.132,1.256.062.277.175.323.717.491,1.148a3.182,3.182,0,0,1,3.735-1.226v4.133a15.171,15.171,0,0,0-1.59.014,3.02,3.02,0,0,0-1.037.332,1.412,1.412,0,0,0-.835,1.459c.068,3.181.031,6.365.028,9.547A3.787,3.787,0,0,1,432.79,1128.946Z" transform="translate(-157.051 -42.356)" fill="#4567ae"/>
    <path id="Path_5653" data-name="Path 5653" d="M506.32,1113.955l1.088.029.058,1.323q0,.612,0,1.224c-.011.244-.031.487-.031.731q0,5.99,0,11.98v.776h-3.441l-.982.011a2.549,2.549,0,0,1-.132-.566q-.01-7.519,0-15.038c0-.12.017-.24.034-.468h2.551Z" transform="translate(-222.486 -43.376)" fill="#4566ad"/>
    <path id="Path_5654" data-name="Path 5654" d="M503.017,1069.229c-.041-.066-.116-.133-.117-.2-.012-1.078-.022-2.156-.008-3.234a.446.446,0,0,1,.241-.343c1.4-.319,2.806-.614,4.267-.926l.078.913v2.769c-.319.076-.534.129-.75.178Z" transform="translate(-222.494)" fill="#4767ae"/>
  </g>
</svg>
