<svg xmlns="http://www.w3.org/2000/svg" width="19.562" height="19.566" viewBox="0 0 19.562 19.566">
  <path id="suppliers" d="M107.9-168.471l-8.72-4.429a1.285,1.285,0,0,0-.574-.125,1.392,1.392,0,0,0-.586.137L94.276-170.9a.262.262,0,0,0-.075.05l-4.491,2.383a1.263,1.263,0,0,0-.674,1.123v8.209a1.263,1.263,0,0,0,.674,1.123l8.309,4.416a1.308,1.308,0,0,0,1.16.012l8.72-4.429a1.245,1.245,0,0,0,.7-1.135v-8.184A1.245,1.245,0,0,0,107.9-168.471Zm-9.419-3.543a.319.319,0,0,1,.262,0l8.309,4.217-3.368,1.672-.037-.025-8.121-4.291Zm-.374,17.341-.125-.062-7.81-4.142a.291.291,0,0,1-.162-.262v-7.834l8.1,4.229Zm.462-8.945L90.546-167.8l3.93-2.1.037.025,8.084,4.279-3.992,2Zm9.057,4.466a.291.291,0,0,1-.162.262l-8.371,4.242v-8.1l.05-.025,3.917-1.946v2.121a.49.49,0,0,0,.5.487.487.487,0,0,0,.487-.487V-165.2l.05-.025,3.531-1.759Z" transform="translate(-89.036 173.024)" fill="#040506"/>
</svg>
