<svg xmlns="http://www.w3.org/2000/svg" width="49.923" height="45.18" viewBox="0 0 49.923 45.18">
  <path id="t-shirts" d="M330.41-68.136h-.176v-.2l-10.388-9.217a.473.473,0,0,0-.2-.117l-7.55-2.692a.638.638,0,0,0-.819.351.372.372,0,0,0-.029.176,5.753,5.753,0,0,1-1.756,4.038,5.776,5.776,0,0,1-3.98,1.609h-.117a5.748,5.748,0,0,1-5.648-5.648.633.633,0,0,0-.614-.585.423.423,0,0,0-.2.059l-7.579,2.721a.733.733,0,0,0-.2.117l-10.388,9.276a.636.636,0,0,0,0,.878l8.4,8.486V-35.86a.644.644,0,0,0,.644.614h31.486a.644.644,0,0,0,.644-.614V-58.889l8.369-8.457A.624.624,0,0,0,330.41-68.136ZM321.9-60.674v-5.5a.649.649,0,0,0-.644-.644.625.625,0,0,0-.615.644v29.613H290.38V-66.175a.649.649,0,0,0-.644-.644.625.625,0,0,0-.614.644v5.5L282.1-67.756l9.861-8.808,6.642-2.4.088.439a6.918,6.918,0,0,0,2.926,4.448,6.985,6.985,0,0,0,5.209,1.053,6.929,6.929,0,0,0,5.5-5.5l.088-.439,6.76,2.487,9.715,8.72Z" transform="translate(-280.577 80.426)" fill="#171717"/>
</svg>
