<svg xmlns="http://www.w3.org/2000/svg" width="32.866" height="55.249" viewBox="0 0 32.866 55.249">
  <path id="trousers" d="M214.318-84.513a.6.6,0,0,0-.585-.527H187.6a.55.55,0,0,0-.556.527l-2.809,53.2a.551.551,0,0,0,.5.585l9.335.936a.54.54,0,0,0,.614-.468l5.969-36.694,5.969,36.694a.591.591,0,0,0,.556.468h.117l9.276-.936a.523.523,0,0,0,.527-.585Zm-26.16.585h8.223v2.6h-8.369Zm-.2,3.746h3.6l-.117.468a7.845,7.845,0,0,1-3.16,4.389l-.615.41ZM200.009-70l-6.35,39.035-8.252-.819v-.351L187.6-73.628l.351-.117a9.033,9.033,0,0,0,4.711-6.145l.058-.293h3.658v3.658a7.126,7.126,0,0,0,3.482,6.145l.2.146Zm.088-1.4-.614-.585a6.2,6.2,0,0,1-1.99-4.536v-3.658h2.6Zm0-9.92h-2.6v-2.6h2.6Zm13.578,6.408-.614-.41a7.935,7.935,0,0,1-3.131-4.389l-.146-.468h3.628Zm-12.436-9.013h11.968l.146,2.6H201.238Zm6.438,52.964L201.238-70.5v-9.686h7.374l.059.293a9.184,9.184,0,0,0,4.8,6.174l.234.088.059.234,2.195,41.581Z" transform="translate(-184.234 85.04)" fill="#171717"/>
</svg>
