<svg xmlns="http://www.w3.org/2000/svg" width="31.782" height="31.782" viewBox="0 0 31.782 31.782">
  <g id="user-instagram-icon" opacity="0.198">
    <path id="Path_2755" data-name="Path 2755" d="M108.691,91h-14.9A2.8,2.8,0,0,0,91,93.793v14.9a2.8,2.8,0,0,0,2.793,2.793h14.9a2.8,2.8,0,0,0,2.793-2.793v-14.9A2.8,2.8,0,0,0,108.691,91Zm-7.449,16.76a6.518,6.518,0,1,1,6.518-6.518A6.526,6.526,0,0,1,101.242,107.76Zm6.518-11.173a1.862,1.862,0,1,1,1.862-1.862A1.865,1.865,0,0,1,107.76,96.587Zm0,0" transform="translate(-85.351 -85.351)"/>
    <path id="Path_2756" data-name="Path 2756" d="M185.656,181a4.656,4.656,0,1,0,4.656,4.656A4.661,4.661,0,0,0,185.656,181Zm0,0" transform="translate(-169.764 -169.764)"/>
    <path id="Path_2757" data-name="Path 2757" d="M27.065,0H4.718A4.768,4.768,0,0,0,0,4.718V27.065a4.768,4.768,0,0,0,4.718,4.718H27.065a4.768,4.768,0,0,0,4.718-4.718V4.718A4.768,4.768,0,0,0,27.065,0ZM28,23.34A4.661,4.661,0,0,1,23.34,28H8.442A4.661,4.661,0,0,1,3.787,23.34V8.442A4.661,4.661,0,0,1,8.442,3.787h14.9A4.661,4.661,0,0,1,28,8.442Zm0,0"/>
  </g>
</svg>
