<svg xmlns="http://www.w3.org/2000/svg" width="31.782" height="31.782" viewBox="0 0 31.782 31.782">
  <g id="user-linkedin-icon" transform="translate(0 0.001)" opacity="0.203">
    <path id="linkedin-2" d="M25.632,0H2.549A2.549,2.549,0,0,0,0,2.549V25.632a2.549,2.549,0,0,0,2.549,2.549H25.632a2.549,2.549,0,0,0,2.549-2.549V2.549A2.549,2.549,0,0,0,25.632,0Z" transform="translate(1.801 1.8)" fill="#ffeacc"/>
    <path id="linkedin-2-2" data-name="linkedin-2" d="M28.907,0H2.875A2.875,2.875,0,0,0,0,2.875V28.907a2.875,2.875,0,0,0,2.875,2.875H28.907a2.875,2.875,0,0,0,2.875-2.875V2.875A2.875,2.875,0,0,0,28.907,0ZM9.835,27.443A.837.837,0,0,1,9,28.28H5.437a.837.837,0,0,1-.837-.837V12.513a.837.837,0,0,1,.837-.837H9a.837.837,0,0,1,.837.837ZM7.217,10.27A3.383,3.383,0,1,1,10.6,6.886,3.383,3.383,0,0,1,7.217,10.27ZM28.447,27.51a.769.769,0,0,1-.769.769H23.856a.769.769,0,0,1-.769-.769v-7c0-1.045.306-4.578-2.73-4.578-2.355,0-2.833,2.418-2.929,3.5V27.51a.769.769,0,0,1-.769.769h-3.7a.769.769,0,0,1-.769-.769V12.446a.769.769,0,0,1,.769-.769h3.7a.769.769,0,0,1,.769.769v1.3c.873-1.311,2.171-2.322,4.935-2.322,6.12,0,6.084,5.717,6.084,8.858V27.51Z" transform="translate(0 -0.001)"/>
  </g>
</svg>
