<svg id="Les_Deux_logo" data-name="Les Deux logo" xmlns="http://www.w3.org/2000/svg" width="76.792" height="21.39" viewBox="0 0 76.792 21.39">
  <path id="Path_2713" data-name="Path 2713" d="M239.5,258.838h1.6v-9.887h-1.6v-.2h4.657v.2h-1.6v9.887h2.574a2.563,2.563,0,0,0,1.994-.794,4.868,4.868,0,0,0,1.058-2.17h.159v3.175H239.5Z" transform="translate(-239.5 -248.491)"/>
  <path id="Path_2714" data-name="Path 2714" d="M286.28,258.838h1.6v-9.887h-1.6v-.2h8.268v2.5h-.159a7.321,7.321,0,0,0-.4-.991,2.736,2.736,0,0,0-.521-.722,1.947,1.947,0,0,0-.724-.442,3.143,3.143,0,0,0-1.01-.144h-2.4v4.466h.94a3.174,3.174,0,0,0,.809-.087,1.223,1.223,0,0,0,.571-.324,1.919,1.919,0,0,0,.4-.652,7.964,7.964,0,0,0,.326-1.058h.159v4.491h-.159c-.068-.279-.138-.548-.212-.809a2.493,2.493,0,0,0-.3-.694,1.427,1.427,0,0,0-.519-.485,1.738,1.738,0,0,0-.847-.18h-1.171v5.217h2.735a2.392,2.392,0,0,0,1.321-.339,3.072,3.072,0,0,0,.861-.811,3.523,3.523,0,0,0,.491-.976,4.95,4.95,0,0,0,.2-.847h.161v3.175H286.28Z" transform="translate(-276.378 -248.491)"/>
  <path id="Path_2715" data-name="Path 2715" d="M337.43,254.968h.159a5.883,5.883,0,0,0,.411,1.314,3.867,3.867,0,0,0,.557.881,2.445,2.445,0,0,0,.635.535,2.739,2.739,0,0,0,.671.275,3.374,3.374,0,0,0,.652.1q.311.013.584.013a2.963,2.963,0,0,0,1.257-.231,2.2,2.2,0,0,0,.781-.584,2.117,2.117,0,0,0,.4-.766,2.8,2.8,0,0,0,.116-.76,1.87,1.87,0,0,0-.188-.868,2.116,2.116,0,0,0-.476-.614,2.7,2.7,0,0,0-.635-.411,4.34,4.34,0,0,0-.635-.246l-1.662-.506a4.282,4.282,0,0,1-1.772-.955,2.134,2.134,0,0,1-.6-1.59,3.1,3.1,0,0,1,.231-1.207,2.836,2.836,0,0,1,.65-.963,3.061,3.061,0,0,1,1.005-.635,3.844,3.844,0,0,1,2.117-.144,3.691,3.691,0,0,1,.584.195l.442.195a.976.976,0,0,0,.4.087.447.447,0,0,0,.254-.051,1,1,0,0,0,.18-.252h.212V250.4h-.174a4.287,4.287,0,0,0-.3-1.005,3.15,3.15,0,0,0-.542-.847,2.455,2.455,0,0,0-1.894-.817,3.487,3.487,0,0,0-.766.1,2.433,2.433,0,0,0-.781.324,1.976,1.976,0,0,0-.6.607,1.759,1.759,0,0,0-.239.955,1.55,1.55,0,0,0,.188.787,1.859,1.859,0,0,0,.485.55,3.022,3.022,0,0,0,.665.375c.246.1.493.19.745.267l1.748.55c.182.057.423.135.694.231a3.173,3.173,0,0,1,.817.434,2.523,2.523,0,0,1,.679.766,2.371,2.371,0,0,1,.282,1.213,3.358,3.358,0,0,1-.254,1.3,3.2,3.2,0,0,1-.73,1.084,3.579,3.579,0,0,1-1.156.751,3.955,3.955,0,0,1-1.532.281h-.533a3.077,3.077,0,0,1-.434-.036l-.4-.066c-.135-.025-.286-.061-.449-.108s-.4-.125-.622-.212a1.834,1.834,0,0,0-.578-.116.4.4,0,0,0-.3.087.762.762,0,0,0-.138.233h-.212Z" transform="translate(-316.702 -247.525)"/>
  <path id="Path_2716" data-name="Path 2716" d="M398.89,258.742h1.6v-9.887h-1.6v-.2h3.092c.135,0,.269-.011.4-.021s.271,0,.4,0h.406c.288,0,.546,0,.773.015s.438.028.635.051a4.536,4.536,0,0,1,.565.1c.178.042.368.1.569.165a5.247,5.247,0,0,1,1.526.773,4.368,4.368,0,0,1,1.058,1.122,4.677,4.677,0,0,1,.607,1.386,6.2,6.2,0,0,1,.195,1.577,5.861,5.861,0,0,1-.231,1.712,4.835,4.835,0,0,1-.635,1.344,4.644,4.644,0,0,1-.948,1.012,5.011,5.011,0,0,1-1.162.686,4.248,4.248,0,0,1-.658.246,4.529,4.529,0,0,1-.635.131c-.212.028-.455.049-.715.057s-.559.015-.9.015h-.461c-.165,0-.328-.013-.493-.023s-.324-.017-.483-.021H398.9Zm3.048,0q.248.028.571.044c.212,0,.455.013.715.013a9.312,9.312,0,0,0,.976-.051,3.64,3.64,0,0,0,.925-.212,2.91,2.91,0,0,0,.823-.476,3.091,3.091,0,0,0,.688-.817,5.4,5.4,0,0,0,.635-1.6,8.256,8.256,0,0,0,.18-1.784,9.2,9.2,0,0,0-.212-2.074,4.168,4.168,0,0,0-.707-1.6,3.3,3.3,0,0,0-1.323-1.02,5.116,5.116,0,0,0-2.038-.36c-.241,0-.459,0-.658.015l-.572.028Z" transform="translate(-365.153 -248.394)"/>
  <path id="Path_2717" data-name="Path 2717" d="M454.54,258.838h1.6v-9.887h-1.6v-.2h8.268v2.5h-.159a7.334,7.334,0,0,0-.4-.991,2.785,2.785,0,0,0-.521-.722A1.948,1.948,0,0,0,461,249.1a3.147,3.147,0,0,0-1.012-.144H457.6v4.466h.94a3.174,3.174,0,0,0,.809-.087,1.223,1.223,0,0,0,.571-.324,1.919,1.919,0,0,0,.4-.652,7.959,7.959,0,0,0,.326-1.058h.159v4.491h-.159c-.068-.279-.138-.548-.212-.809a2.491,2.491,0,0,0-.3-.694,1.416,1.416,0,0,0-.521-.485,1.723,1.723,0,0,0-.847-.18H457.6v5.217h2.733a2.392,2.392,0,0,0,1.321-.339,3.1,3.1,0,0,0,.861-.811,3.523,3.523,0,0,0,.491-.976,4.947,4.947,0,0,0,.2-.847h.161v3.175H454.54Z" transform="translate(-409.024 -248.491)"/>
  <path id="Path_2718" data-name="Path 2718" d="M502,248.75h4.657v.2h-1.6v6.985a6.053,6.053,0,0,0,.152,1.467,2.407,2.407,0,0,0,.455.967,1.681,1.681,0,0,0,.751.527,3.015,3.015,0,0,0,1.027.159,3.984,3.984,0,0,0,1.431-.237,2.386,2.386,0,0,0,1.058-.847,3.515,3.515,0,0,0,.252-.375,2.1,2.1,0,0,0,.188-.442,3.3,3.3,0,0,0,.123-.605,7.236,7.236,0,0,0,.044-.874v-6.725h-1.6v-.2h3.442v.2h-1.6v7.01a4.4,4.4,0,0,1-.129,1.107,3.024,3.024,0,0,1-.535,1.033,2.752,2.752,0,0,1-1.084.847,4.464,4.464,0,0,1-1.835.318,3.768,3.768,0,0,1-2.652-.847,3.46,3.46,0,0,1-.927-2.631v-6.837H502Z" transform="translate(-446.438 -248.491)"/>
  <path id="Path_2719" data-name="Path 2719" d="M554.31,258.838H555.7l2.891-4.828-3.073-5.059h-1.2v-.2h4.307v.2h-1.393l2.314,3.81,2.311-3.81h-1.386v-.2h3.006v.2h-1.386l-2.415,4,3.6,5.882h1.2v.212h-4.333v-.212h1.386l-2.817-4.625-2.766,4.625h1.388v.212H554.31Z" transform="translate(-487.676 -248.491)"/>
  <path id="Path_2720" data-name="Path 2720" d="M346.9,328.329a1.557,1.557,0,0,1-.252.233,1.255,1.255,0,0,1-.326.171,1.211,1.211,0,0,1-.423.066,1.119,1.119,0,0,1-.434-.078.931.931,0,0,1-.32-.212.911.911,0,0,1-.2-.313,1.037,1.037,0,0,1-.07-.383,1.674,1.674,0,0,1,.159-.688,2.456,2.456,0,0,1,.423-.646,2.338,2.338,0,0,1,.6-.48,1.441,1.441,0,0,1,.7-.188.966.966,0,0,1,.212.028.6.6,0,0,1,.195.085.466.466,0,0,1,.142.163.533.533,0,0,1,.055.252c0,.146-.036.239-.108.284a.423.423,0,0,1-.226.066.222.222,0,0,1-.165-.049.161.161,0,0,1-.047-.114.273.273,0,0,1,.025-.129.477.477,0,0,1,.063-.089.668.668,0,0,0,.064-.089.285.285,0,0,0,.025-.129.146.146,0,0,0-.076-.144.436.436,0,0,0-.212-.04.785.785,0,0,0-.394.106,1.318,1.318,0,0,0-.341.279,2,2,0,0,0-.273.4,3.72,3.72,0,0,0-.212.461,2.871,2.871,0,0,0-.129.468,2.231,2.231,0,0,0-.042.423.733.733,0,0,0,.161.48.6.6,0,0,0,.5.2.815.815,0,0,0,.339-.07,1.112,1.112,0,0,0,.279-.176,1.292,1.292,0,0,0,.212-.226q.081-.1.152-.212l.091.053a2.566,2.566,0,0,1-.152.241Z" transform="translate(-322.575 -309.24)"/>
  <path id="Path_2721" data-name="Path 2721" d="M357.411,326.936a2.063,2.063,0,0,1,.423-.595,1.944,1.944,0,0,1,.563-.4,1.387,1.387,0,0,1,.593-.146.91.91,0,0,1,.447.106.988.988,0,0,1,.318.271,1.171,1.171,0,0,1,.184.362,1.3,1.3,0,0,1,.059.381,1.625,1.625,0,0,1-.165.722,2.263,2.263,0,0,1-.423.6,1.973,1.973,0,0,1-.557.4,1.326,1.326,0,0,1-.582.148.952.952,0,0,1-.423-.091,1.025,1.025,0,0,1-.322-.246,1.01,1.01,0,0,1-.212-.351,1.232,1.232,0,0,1-.074-.423A1.7,1.7,0,0,1,357.411,326.936Zm.423,1.607a.554.554,0,0,0,.411.163.681.681,0,0,0,.383-.119,1.322,1.322,0,0,0,.322-.313,2.54,2.54,0,0,0,.258-.423,3.657,3.657,0,0,0,.186-.474,3.909,3.909,0,0,0,.116-.449,2,2,0,0,0,.038-.341.847.847,0,0,0-.133-.5.55.55,0,0,0-.472-.184.657.657,0,0,0-.362.112,1.311,1.311,0,0,0-.313.292,2.442,2.442,0,0,0-.254.423,3.549,3.549,0,0,0-.186.47,3.869,3.869,0,0,0-.116.468,2.47,2.47,0,0,0-.038.4.671.671,0,0,0,.169.476Z" transform="translate(-332.319 -309.231)"/>
  <path id="Path_2722" data-name="Path 2722" d="M368.246,325.961l.027-.091h1.039l-.138.423h.013a1.225,1.225,0,0,1,.129-.161,1.094,1.094,0,0,1,.195-.167,1.191,1.191,0,0,1,.246-.133.833.833,0,0,1,.294-.053.862.862,0,0,1,.722.349,1.093,1.093,0,0,1,.178.37,1.577,1.577,0,0,1,.059.44,1.6,1.6,0,0,1-.131.6,2.233,2.233,0,0,1-.368.593,2.152,2.152,0,0,1-.563.457,1.435,1.435,0,0,1-.715.184.635.635,0,0,1-.442-.167.745.745,0,0,1-.229-.451h-.015l-.8,2.284h.552l-.025.093H366.79l.028-.093h.474l1.575-4.479Zm.423,2.284a.757.757,0,0,0,.116.212.635.635,0,0,0,.184.161.532.532,0,0,0,.273.064.635.635,0,0,0,.353-.11,1.379,1.379,0,0,0,.311-.282,2.239,2.239,0,0,0,.265-.4,3.8,3.8,0,0,0,.2-.461,3.6,3.6,0,0,0,.129-.461,2.143,2.143,0,0,0,.044-.4.989.989,0,0,0-.112-.489.424.424,0,0,0-.4-.212.669.669,0,0,0-.313.072,1.092,1.092,0,0,0-.254.178,2.027,2.027,0,0,0-.2.212l-.146.188-.521,1.469c.023.1.044.176.07.267Z" transform="translate(-339.847 -309.215)"/>
  <path id="Path_2723" data-name="Path 2723" d="M391.094,328.195a1.125,1.125,0,0,1-.212.243,1.408,1.408,0,0,1-.341.212,1.287,1.287,0,0,1-.961,0,.907.907,0,0,1-.315-.239.877.877,0,0,1-.178-.318,1.1,1.1,0,0,1-.057-.341,1.637,1.637,0,0,1,.163-.682,2.571,2.571,0,0,1,.423-.646,2.373,2.373,0,0,1,.588-.483,1.315,1.315,0,0,1,.673-.193,1.229,1.229,0,0,1,.262.03.951.951,0,0,1,.237.089.542.542,0,0,1,.171.152.37.37,0,0,1,.066.224.533.533,0,0,1-.1.313.859.859,0,0,1-.248.229,1.614,1.614,0,0,1-.332.163,2.7,2.7,0,0,1-.351.1c-.114.023-.212.042-.313.053s-.163.017-.212.017h-.212a1.188,1.188,0,0,1-.184-.021c-.049.142-.089.281-.123.423a1.942,1.942,0,0,0-.049.438.7.7,0,0,0,.184.529.654.654,0,0,0,.468.176.805.805,0,0,0,.372-.083,1.321,1.321,0,0,0,.284-.195,1.522,1.522,0,0,0,.212-.227c.055-.078.1-.138.135-.182l.078.047A1.925,1.925,0,0,0,391.094,328.195Zm.027-2.248a.334.334,0,0,0-.265-.093.73.73,0,0,0-.392.119,1.52,1.52,0,0,0-.339.292,2.325,2.325,0,0,0-.256.385,2.24,2.24,0,0,0-.169.372,2.009,2.009,0,0,0,.334.025,1.365,1.365,0,0,0,.449-.072,1.434,1.434,0,0,0,.373-.19.961.961,0,0,0,.256-.277.635.635,0,0,0,.1-.33.328.328,0,0,0-.087-.231Z" transform="translate(-357.38 -309.193)"/>
  <path id="Path_2724" data-name="Path 2724" d="M402.459,326.131l.028-.091h1.039l-.269.8h.013q.635-.847,1.2-.847a.613.613,0,0,1,.438.148.478.478,0,0,1,.163.366.714.714,0,0,1-.036.212q-.038.108-.089.26l-.423,1.219c-.025.074-.051.148-.072.212a.761.761,0,0,0-.034.212.336.336,0,0,0,.034.146.14.14,0,0,0,.138.066.394.394,0,0,0,.212-.066.993.993,0,0,0,.182-.159,1.238,1.238,0,0,0,.142-.195c.038-.068.07-.125.091-.174l.072.032c-.021.044-.053.1-.091.176a1.155,1.155,0,0,1-.154.212.888.888,0,0,1-.235.18.664.664,0,0,1-.328.076.634.634,0,0,1-.356-.091.332.332,0,0,1-.146-.3.79.79,0,0,1,.023-.178c.015-.061.034-.127.055-.2l.555-1.575a.894.894,0,0,0,.053-.262.28.28,0,0,0-.057-.165.226.226,0,0,0-.2-.078.7.7,0,0,0-.334.108,1.816,1.816,0,0,0-.383.3,2.738,2.738,0,0,0-.358.442,2.558,2.558,0,0,0-.275.548l-.493,1.378h-.455l.948-2.735Z" transform="translate(-367.691 -309.385)"/>
  <path id="Path_2725" data-name="Path 2725" d="M420.023,316l.027-.091h1.041l-1.1,2.985H420c.066-.089.142-.182.231-.282a2.375,2.375,0,0,1,.29-.273,1.774,1.774,0,0,1,.332-.212.821.821,0,0,1,.353-.083.62.62,0,0,1,.438.148.483.483,0,0,1,.161.366.715.715,0,0,1-.036.212q-.038.108-.089.26l-.423,1.219c-.025.074-.051.148-.072.212a.757.757,0,0,0-.032.212.333.333,0,0,0,.032.146.14.14,0,0,0,.138.066.393.393,0,0,0,.212-.066.989.989,0,0,0,.182-.159,1.232,1.232,0,0,0,.142-.195c.038-.068.07-.125.091-.174l.072.032c-.021.044-.051.1-.091.176a1.15,1.15,0,0,1-.154.212.887.887,0,0,1-.235.18.665.665,0,0,1-.328.076.635.635,0,0,1-.356-.091.332.332,0,0,1-.146-.3.792.792,0,0,1,.023-.178c.015-.061.034-.127.055-.2l.555-1.575a.9.9,0,0,0,.053-.262.28.28,0,0,0-.057-.165.226.226,0,0,0-.2-.078.7.7,0,0,0-.334.108,1.871,1.871,0,0,0-.383.3,2.736,2.736,0,0,0-.358.442,2.559,2.559,0,0,0-.275.548l-.487,1.4h-.455L420.63,316Z" transform="translate(-380.888 -301.435)"/>
  <path id="Path_2726" data-name="Path 2726" d="M437.893,328.186a1.149,1.149,0,0,0-.042.284q0,.171.165.171a.4.4,0,0,0,.237-.076.925.925,0,0,0,.18-.171,1.086,1.086,0,0,0,.125-.19c.034-.063.057-.108.07-.135l.087.047c-.023.049-.055.11-.1.184a1.059,1.059,0,0,1-.171.212,1.093,1.093,0,0,1-.243.178.665.665,0,0,1-.324.076c-.29,0-.434-.131-.434-.4a1.205,1.205,0,0,1,.019-.161,1.567,1.567,0,0,1,.053-.212H437.5c-.061.074-.131.157-.212.248a1.883,1.883,0,0,1-.267.25,1.462,1.462,0,0,1-.326.19.989.989,0,0,1-.394.076.755.755,0,0,1-.267-.049.636.636,0,0,1-.229-.152.716.716,0,0,1-.155-.26,1.1,1.1,0,0,1-.055-.375,1.417,1.417,0,0,1,.1-.527,2.6,2.6,0,0,1,.275-.5,2.654,2.654,0,0,1,.387-.444,3.745,3.745,0,0,1,.449-.356,2.292,2.292,0,0,1,.447-.237,1.117,1.117,0,0,1,.394-.087.515.515,0,0,1,.334.112.364.364,0,0,1,.14.3h.013l.112-.322h.461l-.72,2C437.956,327.973,437.923,328.081,437.893,328.186Zm.152-1.761a.664.664,0,0,0,.023-.155.587.587,0,0,0-.017-.129.375.375,0,0,0-.059-.129.423.423,0,0,0-.116-.1.379.379,0,0,0-.19-.042.846.846,0,0,0-.423.121,1.744,1.744,0,0,0-.387.32,2.749,2.749,0,0,0-.332.453,3.762,3.762,0,0,0-.26.512,3.607,3.607,0,0,0-.169.5,1.934,1.934,0,0,0-.059.423.635.635,0,0,0,.083.341.3.3,0,0,0,.273.133.756.756,0,0,0,.389-.118,1.944,1.944,0,0,0,.362-.284,2.627,2.627,0,0,0,.284-.33,1.283,1.283,0,0,0,.152-.256l.349-.969Q438.011,326.514,438.045,326.425Z" transform="translate(-394.091 -309.208)"/>
  <path id="Path_2727" data-name="Path 2727" d="M452.739,328.661a.608.608,0,0,1,.248.546,1.142,1.142,0,0,1-.112.474,1.564,1.564,0,0,1-.322.464,1.765,1.765,0,0,1-1.706.423,1.579,1.579,0,0,1-.4-.182.893.893,0,0,1-.275-.265.556.556,0,0,1-.1-.309.635.635,0,0,1,.074-.3,1.427,1.427,0,0,1,.182-.254,1.458,1.458,0,0,1,.212-.2c.078-.055.142-.1.195-.129l.184-.1-.148-.047a.572.572,0,0,1-.157-.078.423.423,0,0,1-.127-.146.529.529,0,0,1-.049-.243.663.663,0,0,1,.106-.366.927.927,0,0,1,.356-.292l.243-.131a1.028,1.028,0,0,1-.142-.212.671.671,0,0,1-.055-.3.889.889,0,0,1,.125-.455,1.464,1.464,0,0,1,.322-.385,1.652,1.652,0,0,1,.436-.267,1.191,1.191,0,0,1,.459-.1,1.058,1.058,0,0,1,.309.038,1.015,1.015,0,0,1,.227.1.775.775,0,0,1,.165.135.891.891,0,0,1,.106.138,1.7,1.7,0,0,1,.19-.233.465.465,0,0,1,.616,0,.37.37,0,0,1,.129.288.292.292,0,0,1-.066.195.275.275,0,0,1-.212.076.248.248,0,0,1-.155-.047.14.14,0,0,1-.063-.119.18.18,0,0,1,.021-.091.211.211,0,0,1,.047-.059.284.284,0,0,0,.044-.064.212.212,0,0,0,.021-.1.1.1,0,0,0-.034-.072.118.118,0,0,0-.091-.034.307.307,0,0,0-.212.1.857.857,0,0,0-.174.25.562.562,0,0,1,.07.155.707.707,0,0,1,.03.188.792.792,0,0,1-.123.423,1.481,1.481,0,0,1-.315.368,1.743,1.743,0,0,1-.423.265,1.138,1.138,0,0,1-.449.1,1.119,1.119,0,0,1-.464-.076,2.136,2.136,0,0,1-.248-.127l-.138.066a.992.992,0,0,0-.32.212.368.368,0,0,0-.108.241.226.226,0,0,0,.142.212,1.27,1.27,0,0,0,.457.089l.847.038a1.244,1.244,0,0,1,.624.186Zm-2.142.669a1,1,0,0,0-.093.457.787.787,0,0,0,.07.351.656.656,0,0,0,.184.235.7.7,0,0,0,.262.131,1.119,1.119,0,0,0,.3.04,1.522,1.522,0,0,0,.538-.1,1.692,1.692,0,0,0,.447-.248,1.225,1.225,0,0,0,.307-.349.825.825,0,0,0,.112-.409.582.582,0,0,0-.036-.2.453.453,0,0,0-.123-.171.678.678,0,0,0-.231-.125,1.209,1.209,0,0,0-.356-.055l-.929-.034-.184.146A1,1,0,0,0,450.6,329.33Zm.955-1.727a.65.65,0,0,0,.766-.017,1.037,1.037,0,0,0,.267-.326,1.48,1.48,0,0,0,.154-.423,1.905,1.905,0,0,0,.051-.423.476.476,0,0,0-.148-.4.592.592,0,0,0-.366-.112.538.538,0,0,0-.362.135,1.27,1.27,0,0,0-.271.326,1.694,1.694,0,0,0-.171.408,1.542,1.542,0,0,0-.059.387.548.548,0,0,0,.14.447Z" transform="translate(-405.5 -309.246)"/>
  <path id="Path_2728" data-name="Path 2728" d="M470.212,326.178l-.758,2.174a1.787,1.787,0,0,0-.078.245.712.712,0,0,0-.028.163.271.271,0,0,0,.051.163.186.186,0,0,0,.167.074.708.708,0,0,0,.385-.135,2.291,2.291,0,0,0,.4-.345,3.128,3.128,0,0,0,.364-.472,2.72,2.72,0,0,0,.256-.516l.468-1.35h.461l-.777,2.233c-.023.066-.044.131-.068.2a.635.635,0,0,0-.032.195.2.2,0,0,0,.047.133.165.165,0,0,0,.138.057.364.364,0,0,0,.212-.074.983.983,0,0,0,.184-.167,1.463,1.463,0,0,0,.142-.195c.04-.066.068-.118.087-.157l.078.032c-.017.036-.044.089-.083.161a1.008,1.008,0,0,1-.155.212.954.954,0,0,1-.243.188.707.707,0,0,1-.343.078.591.591,0,0,1-.345-.089.335.335,0,0,1-.129-.3.9.9,0,0,1,.025-.212,2.057,2.057,0,0,1,.08-.233l-.015-.013-.212.267a2.812,2.812,0,0,1-.275.275,1.663,1.663,0,0,1-.318.212.728.728,0,0,1-.345.089.707.707,0,0,1-.449-.131.459.459,0,0,1-.165-.383.78.78,0,0,1,.047-.233c.032-.091.057-.169.08-.241l.635-1.825h-.582l.025-.091Z" transform="translate(-420.38 -309.524)"/>
  <path id="Path_2729" data-name="Path 2729" d="M486.784,328.195a1.183,1.183,0,0,1-.212.243,1.409,1.409,0,0,1-.341.212,1.287,1.287,0,0,1-.961,0,.908.908,0,0,1-.315-.239.877.877,0,0,1-.178-.318,1.1,1.1,0,0,1-.057-.341,1.631,1.631,0,0,1,.161-.682,2.692,2.692,0,0,1,.423-.646,2.381,2.381,0,0,1,.591-.483,1.308,1.308,0,0,1,.671-.193,1.249,1.249,0,0,1,.265.03.983.983,0,0,1,.237.089.541.541,0,0,1,.171.152.385.385,0,0,1,.066.224.533.533,0,0,1-.1.313.859.859,0,0,1-.248.229,1.671,1.671,0,0,1-.332.163,2.716,2.716,0,0,1-.368.123c-.114.023-.212.042-.311.053s-.165.017-.212.017h-.212a1.2,1.2,0,0,1-.184-.021c-.049.142-.089.281-.123.423a1.943,1.943,0,0,0-.049.438.7.7,0,0,0,.184.529.654.654,0,0,0,.468.176.81.81,0,0,0,.372-.083,1.315,1.315,0,0,0,.284-.195,1.518,1.518,0,0,0,.212-.227c.055-.078.1-.138.135-.182l.078.047Q486.841,328.119,486.784,328.195Zm.027-2.248a.335.335,0,0,0-.265-.093.731.731,0,0,0-.392.119,1.482,1.482,0,0,0-.339.292,2.323,2.323,0,0,0-.265.377,2.451,2.451,0,0,0-.171.372,2.051,2.051,0,0,0,.337.025,1.365,1.365,0,0,0,.449-.072,1.389,1.389,0,0,0,.37-.19.968.968,0,0,0,.258-.277.634.634,0,0,0,.1-.33.328.328,0,0,0-.078-.222Z" transform="translate(-432.816 -309.193)"/>
</svg>
