<svg id="JC_FINAL_LOGO" data-name="JC FINAL LOGO" xmlns="http://www.w3.org/2000/svg" width="53" height="39.763" viewBox="0 0 53 39.763">
  <path id="Path_2754" data-name="Path 2754" d="M407.478,393.654a.263.263,0,1,1-.526,0v-1.673a.263.263,0,0,1,.526,0Zm0,2.653a.263.263,0,1,1-.526,0v-1.672a.263.263,0,1,1,.526,0Zm15.65-.264-.047-.026a4.768,4.768,0,1,1-.194-3.967l5.848-3.375a11.657,11.657,0,0,0-21.487,2.573v-8.016h-7.491v10.42c0,3.74-1.215,5.173-4.616,5.432v6.568a15.024,15.024,0,0,0,7.916-2,8.934,8.934,0,0,0,4.112-6.68,11.66,11.66,0,0,0,21.838,2.384l-5.49-3.092Z" transform="translate(-383.487 -382.61)" fill="#231f20"/>
  <text id="SINCE_1963" data-name="SINCE 1963" transform="translate(12.771 38.763)" fill="#231f20" font-size="3" font-family="ArialMT, Arial" letter-spacing="0.16em"><tspan x="0" y="0">SINCE 1963</tspan></text>
  <text id="JEANS_COMPANY" data-name="JEANS COMPANY" transform="translate(0 33.251)" fill="#231f20" font-size="5" font-family="ArialMT, Arial" letter-spacing="0.16em"><tspan x="0" y="0">JEANS COMPANY</tspan></text>
</svg>
