<svg xmlns="http://www.w3.org/2000/svg" width="16.734" height="23.683" viewBox="0 0 16.734 23.683">
  <g id="bookmark-orange" transform="translate(0.5 0.5)">
    <g id="Group_2427" data-name="Group 2427" transform="translate(0)">
      <path id="Path_5540" data-name="Path 5540" d="M102.563,0H89.855a1.474,1.474,0,0,0-1.513,1.428v20.4a.851.851,0,0,0,.466.749.955.955,0,0,0,.919-.019l6.512-6.072,6.455,6.045a.952.952,0,0,0,.918.017.85.85,0,0,0,.464-.748V1.428A1.474,1.474,0,0,0,102.563,0Zm-.3,20.267-5.548-5.521a.955.955,0,0,0-.952,0l-5.6,5.542V1.714h12.1Z" transform="translate(-88.342 0)" fill="#fed07a" stroke="#fed07a" stroke-width="1"/>
    </g>
  </g>
</svg>
