<svg xmlns="http://www.w3.org/2000/svg" width="21.274" height="22.246" viewBox="0 0 21.274 22.246">
  <g id="bookapoinment_icon" transform="translate(-398.258 -445.397)">
    <g id="Group_3461" data-name="Group 3461">
      <path id="Path_5902" data-name="Path 5902" d="M412.093,453.019a7.187,7.187,0,1,1-7.184,7.195A7.183,7.183,0,0,1,412.093,453.019Zm5.756,7.2a5.749,5.749,0,1,0-5.771,5.728A5.762,5.762,0,0,0,417.849,460.221Z" fill="#5d5d5d" stroke="#5d5d5d" stroke-width="0.5"/>
      <path id="Path_5903" data-name="Path 5903" d="M412.812,459.488h2.152v1.432c-.055,0-.1.009-.155.009-1.086,0-2.173,0-3.259,0-.137,0-.178-.034-.177-.174q.008-2.346,0-4.692c0-.137.035-.18.176-.177.413.01,1.009-.094,1.263.177Z" fill="#5d5d5d" stroke="#5d5d5d" stroke-width="0.5"/>
    </g>
    <path id="Path_5904" data-name="Path 5904" d="M415.765,447.9v3.934a7.186,7.186,0,0,0-1.818-.778V447.9a.439.439,0,0,0-.437-.437H400.762a.438.438,0,0,0-.436.437v13.111a.437.437,0,0,0,.436.436h2.07a7.688,7.688,0,0,0,.6,1.818h-2.666a2.256,2.256,0,0,1-2.254-2.254V447.9a2.257,2.257,0,0,1,2.254-2.255H413.51A2.257,2.257,0,0,1,415.765,447.9Z" fill="#5d5d5d" stroke="#5d5d5d" stroke-width="0.5"/>
  </g>
</svg>
