<svg xmlns="http://www.w3.org/2000/svg" width="12.872" height="18.115" viewBox="0 0 12.872 18.115">
  <g id="bookmark" transform="translate(-87.842 0.5)">
    <g id="Group_1026" data-name="Group 1026" transform="translate(88.342)">
      <path id="Path_2711" data-name="Path 2711" d="M99.072,0H89.484a1.112,1.112,0,0,0-1.142,1.078V16.469a.642.642,0,0,0,.351.565.721.721,0,0,0,.694-.014L94.3,12.437,99.171,17a.719.719,0,0,0,.693.013.641.641,0,0,0,.35-.564V1.078A1.112,1.112,0,0,0,99.072,0Zm-.228,15.292-4.186-4.165a.72.72,0,0,0-.718,0l-4.228,4.182V1.293h9.132Z" transform="translate(-88.342)" stroke="#000" stroke-width="1"/>
    </g>
  </g>
</svg>
