<svg xmlns="http://www.w3.org/2000/svg" width="49.623" height="42.895" viewBox="0 0 49.623 42.895">
  <g id="book" transform="translate(-16 -48)">
    <path id="Path_2846" data-name="Path 2846" d="M188.8,304.246a.841.841,0,0,0-1.189,0l-3.364,3.364a.841.841,0,0,0-.246.595v3.364a.841.841,0,0,0,.841.841h6.729a.841.841,0,0,0,.841-.841v-3.364a.841.841,0,0,0-.246-.595Zm1.928,6.482h-1.682v-1.682a.841.841,0,0,0-1.682,0v1.682h-1.682v-2.175l2.523-2.523,2.523,2.523Z" transform="translate(-150.338 -229.085)"/>
    <path id="Path_2847" data-name="Path 2847" d="M195.364,206.729A3.364,3.364,0,1,0,192,203.364,3.364,3.364,0,0,0,195.364,206.729Zm0-5.046a1.682,1.682,0,1,1-1.682,1.682A1.682,1.682,0,0,1,195.364,201.682Z" transform="translate(-157.496 -136.02)"/>
    <path id="Path_2848" data-name="Path 2848" d="M99.364,200a3.364,3.364,0,1,0,3.364,3.364A3.364,3.364,0,0,0,99.364,200Zm0,5.046a1.682,1.682,0,1,1,1.682-1.682A1.682,1.682,0,0,1,99.364,205.046Z" transform="translate(-71.589 -136.02)"/>
    <path id="Path_2849" data-name="Path 2849" d="M301.046,224a.841.841,0,0,0-.841.841,1.682,1.682,0,0,1-2.8,1.254.841.841,0,0,0-1.122,1.253,3.364,3.364,0,0,0,5.607-2.507A.841.841,0,0,0,301.046,224Z" transform="translate(-250.562 -157.496)"/>
    <path id="Path_2850" data-name="Path 2850" d="M99.364,320a3.364,3.364,0,1,0,3.364,3.364A3.364,3.364,0,0,0,99.364,320Zm0,5.046a1.682,1.682,0,1,1,1.682-1.682A1.682,1.682,0,0,1,99.364,325.046Z" transform="translate(-71.589 -243.404)"/>
    <path id="Path_2851" data-name="Path 2851" d="M291.364,320a3.364,3.364,0,1,0,3.364,3.364A3.364,3.364,0,0,0,291.364,320Zm0,5.046a1.682,1.682,0,1,1,1.682-1.682A1.682,1.682,0,0,1,291.364,325.046Z" transform="translate(-243.404 -243.404)"/>
    <path id="Path_2852" data-name="Path 2852" d="M63.237,54.939A2.954,2.954,0,0,0,60.3,52.206H55.53V50.523a2.523,2.523,0,0,0-5.046,0v1.682H45.437V50.523a2.523,2.523,0,1,0-5.046,0v1.682H35.345V50.523a2.523,2.523,0,1,0-5.046,0v1.682H25.252V50.523a2.523,2.523,0,1,0-5.046,0v1.682H17.892A1.9,1.9,0,0,0,16,54.1V89a1.9,1.9,0,0,0,1.892,1.892H57.843a1.9,1.9,0,0,0,1.88-1.682h5.059a.841.841,0,0,0,.839-.9ZM52.166,50.523a.841.841,0,0,1,1.682,0v3.364a.841.841,0,0,1-1.682,0Zm-10.093,0a.841.841,0,0,1,1.682,0v3.364a.841.841,0,0,1-1.682,0Zm-10.093,0a.841.841,0,0,1,1.682,0v3.364a.841.841,0,0,1-1.682,0Zm-10.093,0a.841.841,0,0,1,1.682,0v3.364a.841.841,0,0,1-1.682,0Zm-4,3.364h2.313a2.523,2.523,0,1,0,5.046,0H30.3a2.523,2.523,0,1,0,5.046,0h5.046a2.523,2.523,0,1,0,5.046,0h5.046a2.523,2.523,0,0,0,5.046,0h2.523v3.364H17.682V54.1A.21.21,0,0,1,17.892,53.887ZM58.054,89a.21.21,0,0,1-.21.21H17.892a.21.21,0,0,1-.21-.21V58.934H58.054Zm1.682-1.472V53.887H60.3a1.266,1.266,0,0,1,1.258,1.172L63.879,87.53Z"/>
    <path id="Path_2853" data-name="Path 2853" d="M301.046,408h-4.205a.841.841,0,0,0,0,1.682h4.205a.841.841,0,0,0,0-1.682Z" transform="translate(-250.563 -322.152)"/>
    <path id="Path_2854" data-name="Path 2854" d="M369.682,408h-.841a.841.841,0,0,0,0,1.682h.841a.841.841,0,1,0,0-1.682Z" transform="translate(-314.993 -322.152)"/>
    <path id="Path_2855" data-name="Path 2855" d="M303.267,176.194a.841.841,0,0,0-1.185.108l-3.616,4.339-1.031-1.031a.841.841,0,1,0-1.19,1.189l1.682,1.682a.841.841,0,0,0,.595.246h.038a.841.841,0,0,0,.608-.3l4.205-5.046A.841.841,0,0,0,303.267,176.194Z" transform="translate(-250.562 -114.542)"/>
  </g>
</svg>
