<svg xmlns="http://www.w3.org/2000/svg" width="25.807" height="30.504" viewBox="0 0 25.807 30.504">
  <g id="bookmark-white" transform="translate(-33.261)">
    <path id="Path_2838" data-name="Path 2838" d="M58.675,1.008A2.273,2.273,0,0,0,57.617.182,2.232,2.232,0,0,0,56.729,0H35.6a2.231,2.231,0,0,0-.887.181,2.272,2.272,0,0,0-1.058.827,2.139,2.139,0,0,0-.393,1.25V28.247a2.141,2.141,0,0,0,.393,1.25,2.271,2.271,0,0,0,1.058.827,2.23,2.23,0,0,0,.887.181,2.4,2.4,0,0,0,1.673-.665l8.891-8.549,8.891,8.549a2.4,2.4,0,0,0,1.673.645,2.346,2.346,0,0,0,1.946-.988,2.138,2.138,0,0,0,.393-1.25V2.258A2.14,2.14,0,0,0,58.675,1.008ZM56.487,27.621l-8.528-8.186-1.794-1.713L44.37,19.436l-8.528,8.186V2.581H56.487v25.04Z"/>
  </g>
</svg>
