<svg xmlns="http://www.w3.org/2000/svg" width="39.852" height="39.855" viewBox="0 0 39.852 39.855">
  <g id="browse" transform="translate(-106 -229.654)">
    <path id="Path_2842" data-name="Path 2842" d="M106,245.922c.1-.676.175-1.357.3-2.028a17.441,17.441,0,0,1,17.9-14.228,17.408,17.408,0,0,1,15.726,11.824,17.2,17.2,0,0,1-1.684,14.76c-.053.088-.1.179-.17.3q.784.779,1.567,1.558c1.706,1.705,3.424,3.4,5.114,5.121a3.659,3.659,0,0,1-1.205,6.012c-.286.114-.592.179-.888.267h-1.012a5.421,5.421,0,0,1-2.785-1.79c-1.887-1.926-3.808-3.82-5.715-5.725-.088-.088-.183-.169-.277-.255l-.32.194A17.432,17.432,0,0,1,106.3,250.245c-.126-.683-.2-1.377-.3-2.065Zm17.408,16.255a15.094,15.094,0,1,0-15.072-15.088A15.139,15.139,0,0,0,123.408,262.177Zm11.445-1.8c.018.019.076.087.139.15l3.688,3.688c.844.844,1.685,1.691,2.533,2.531a1.336,1.336,0,0,0,2.279-.642,1.382,1.382,0,0,0-.472-1.328q-3.087-3.077-6.167-6.162a.743.743,0,0,0-.123-.1Z"/>
    <path id="Path_2843" data-name="Path 2843" d="M166.495,302.543a12.427,12.427,0,1,1,12.416-12.433A12.455,12.455,0,0,1,166.495,302.543Zm10.077-12.433A10.089,10.089,0,1,0,166.515,300.2,10.106,10.106,0,0,0,176.572,290.11Z" transform="translate(-43.06 -43.039)"/>
    <path id="Path_2844" data-name="Path 2844" d="M217.531,360.557a1.072,1.072,0,0,1-.683.964,1.233,1.233,0,0,1-1.33-.247,13.318,13.318,0,0,0-2.022-1.423,7.5,7.5,0,0,0-8.509,1.287,1.369,1.369,0,0,1-1.058.484,1.1,1.1,0,0,1-1.012-.73,1.147,1.147,0,0,1,.31-1.313,9.475,9.475,0,0,1,4.594-2.552,9.776,9.776,0,0,1,9.266,2.5A1.2,1.2,0,0,1,217.531,360.557Z" transform="translate(-86.758 -113.871)"/>
    <path id="Path_2845" data-name="Path 2845" d="M240.746,404.738a4.877,4.877,0,0,1,3.279,1.3,1.179,1.179,0,1,1-1.572,1.737,2.557,2.557,0,0,0-3.523.006,1.188,1.188,0,0,1-1.759,0,1.205,1.205,0,0,1,.206-1.753A4.93,4.93,0,0,1,240.746,404.738Z" transform="translate(-117.269 -156.876)"/>
  </g>
</svg>
