<svg id="captcha_new" xmlns="http://www.w3.org/2000/svg" width="17.444" height="17.169" viewBox="0 0 17.444 17.169">
  <path id="Path_5176" data-name="Path 5176" d="M385.265,330.444a.621.621,0,0,0-.065-.174c-.032-.06-.128-.233-.255-.461Z" transform="translate(-371.411 -319.213)" fill="#fff"/>
  <path id="Path_5172" data-name="Path 5172" d="M365.055,296.948l1.2.349,1.557.451,1.2.349a.756.756,0,0,0,.957-.562l.278-1.219c.1-.433.259-1.142.357-1.576l.278-1.219c.1-.433-.181-.576-.623-.317l-.756.444c-.277-.471-.554-.938-.661-1.11a1.726,1.726,0,0,0-1.63-.681l-3.641.021,1.52,2.66a.5.5,0,0,1,.094.133c.072.146.348.649.622,1.146l-.74.434C364.637,296.511,364.627,296.824,365.055,296.948Z" transform="translate(-356.011 -291.858)" fill="#fff"/>
  <path id="Path_5171" data-name="Path 5171" d="M349.91,292.818c-.391.591-1.381,2.164-1.381,2.164a.731.731,0,0,0,.252,1.024l2.428,1.42a.778.778,0,0,0,1.05-.264l1.5-2.45c.13-.216.288-.248.415-.12l-1.52-2.66-.877.005A2.031,2.031,0,0,0,349.91,292.818Z" transform="translate(-345.081 -291.911)" fill="#fff"/>
  <path id="Path_5173" data-name="Path 5173" d="M337.007,315.634c.274.529,1.031,1.89,1.586,2.888l1.721-2.8c.2-.345.579-.984.893-1.514l.881.487c.447.248.724.1.615-.332l-.308-1.212-.4-1.566-.307-1.212a.757.757,0,0,0-.972-.538l-1.2.379-1.545.49-1.2.379c-.425.135-.407.448.04.7l.65.359c-.332.639-.723,1.394-.821,1.611A2.4,2.4,0,0,0,337.007,315.634Z" transform="translate(-336.473 -304.786)" fill="#fff"/>
  <path id="Path_5177" data-name="Path 5177" d="M345.786,331.011l-1.721,2.8c.309.555.556,1,.621,1.121.182.344.442,1.017,2.084,1.008l2.388-.014a.76.76,0,0,0,.755-.761l-.016-2.808a.761.761,0,0,0-.764-.752l-3.261.018c-.294,0-.332-.193-.228-.373Z" transform="translate(-341.945 -320.079)" fill="#fff"/>
  <path id="Path_5174" data-name="Path 5174" d="M382.066,318.333l1.423,2.831c.5-.914,1.343-2.5,1.689-3.187a2.706,2.706,0,0,0,.38-2.132c-.213-.419-1.267-2.454-1.267-2.454a.7.7,0,0,0-1-.276l-2.412,1.478a.8.8,0,0,0-.277,1.058s.733,1.313,1.141,2.048c.127.228.223.4.255.461A.609.609,0,0,1,382.066,318.333Z" transform="translate(-368.213 -307.102)" fill="#fff"/>
  <path id="Path_5175" data-name="Path 5175" d="M372.827,332.673c.056-.095.185-.327.352-.635l-1.423-2.831c.03.165-.053.276-.258.278l-1.471.009-.008-.878c0-.51-.272-.675-.594-.368l-.906.865-1.171,1.117-.906.865a.751.751,0,0,0,.009,1.107l.922.849,1.191,1.1.921.849c.327.3.592.131.587-.379l-.008-.834,1.127-.007A1.817,1.817,0,0,0,372.827,332.673Z" transform="translate(-357.902 -317.976)" fill="#fff"/>
</svg>
