<svg xmlns="http://www.w3.org/2000/svg" width="13.896" height="19.503" viewBox="0 0 13.896 19.503">
  <path id="chat_bookmark_icon" d="M317.858,412.768H307.6a1.8,1.8,0,0,0-1.839,1.758v16.441a1.283,1.283,0,0,0,.7,1.145,1.383,1.383,0,0,0,.638.158,1.368,1.368,0,0,0,.688-.187l4.942-4.587,4.788,4.483.112.083a1.362,1.362,0,0,0,1.323.028,1.291,1.291,0,0,0,.7-1.148V414.509A1.8,1.8,0,0,0,317.858,412.768Zm-9.426,15.1v-12.5h8.537v12.882l-3.435-3.418-.125-.1a1.387,1.387,0,0,0-1.372,0l-1.555,1.331Z" transform="translate(-305.756 -412.769)" fill="#5d5d5d"/>
</svg>
