<svg id="clapping" xmlns="http://www.w3.org/2000/svg" width="19.943" height="18.5" viewBox="0 0 19.943 18.5">
  <path id="Path_2815" data-name="Path 2815" d="M113.626,43.311V41.458a1.753,1.753,0,0,0-3.506,0v.276l-2.69-2.69a1.732,1.732,0,0,0-2.812.528A1.753,1.753,0,0,0,102,41a1.752,1.752,0,0,0-1.653,1.653,1.753,1.753,0,0,0-1.142,2.989l.484.484a1.752,1.752,0,0,0-.484,2.821l5.509,5.509a3.7,3.7,0,0,0,5.233,0l4.216-4.216a2.128,2.128,0,0,0,.627-1.515v-3.76A1.756,1.756,0,0,0,113.626,43.311Zm-7.82-3.441a.566.566,0,0,1,.8,0l3.687,3.687a.584.584,0,0,0,1-.413V41.458a.584.584,0,0,1,1.169,0v1.853h0a1.756,1.756,0,0,0-1.169,1.652v1.188l-5.483-5.483A.566.566,0,0,1,105.805,39.87Zm-2.465.813a.585.585,0,0,1,.826,0l.484.484a1.747,1.747,0,0,0-.826.826l-.484-.484a.584.584,0,0,1,0-.826Zm10.285,8.04a.968.968,0,0,1-.285.689l-4.216,4.216a2.535,2.535,0,0,1-3.581,0l-3.03-3.03-2.479-2.479a.584.584,0,0,1,.826-.826l2.479,2.479a.584.584,0,0,0,.826-.826l-4.131-4.131a.584.584,0,1,1,.826-.826l4.131,4.131a.577.577,0,0,0,.044.04.585.585,0,0,0,.738,0,.577.577,0,0,0,.044-.04.584.584,0,0,0,0-.826l-4.131-4.131a.584.584,0,0,1,.826-.826l1.653,1.653,2.479,2.479a.584.584,0,0,0,.826-.826l-2.479-2.479a.584.584,0,1,1,.826-.826l2.479,2.479,3.162,3.162a.584.584,0,0,0,1-.413v-2.6a.584.584,0,0,1,1.169,0Zm0,0" transform="translate(-94.851 -37.036)"/>
  <path id="Path_2816" data-name="Path 2816" d="M120.584,3.038a.584.584,0,0,0,.584-.584V.584a.584.584,0,0,0-1.169,0v1.87A.584.584,0,0,0,120.584,3.038Zm0,0" transform="translate(-115.326)"/>
  <path id="Path_2817" data-name="Path 2817" d="M30,29.171a.584.584,0,1,0-.826.826l1.4,1.4a.584.584,0,0,0,.826-.826Zm0,0" transform="translate(-27.87 -27.87)"/>
  <path id="Path_2818" data-name="Path 2818" d="M2.454,120H.584a.584.584,0,0,0,0,1.169h1.87a.584.584,0,0,0,0-1.169Zm0,0" transform="translate(0 -115.326)"/>
</svg>
