<svg xmlns="http://www.w3.org/2000/svg" width="47.432" height="43.455" viewBox="0 0 47.432 43.455">
  <g id="connect" transform="translate(-3179.359 -1438.208)">
    <g id="connection" transform="translate(3179.633 1438.628)">
      <path id="Path_2865" data-name="Path 2865" d="M367.712,44.969a2.889,2.889,0,1,0-2.888-2.889A2.889,2.889,0,0,0,367.712,44.969Zm0-4.452a1.564,1.564,0,1,1-1.563,1.564A1.564,1.564,0,0,1,367.712,40.516Zm0,0" transform="translate(-330.294 -35.508)" stroke="#000" stroke-width="0.5"/>
      <path id="Path_2866" data-name="Path 2866" d="M351.71,95.3a.684.684,0,0,0-.534.291,2.058,2.058,0,0,1-.429.44,1.985,1.985,0,0,1-2.809-.442.68.68,0,0,0-.534-.288A2.678,2.678,0,0,0,344.771,98v2.83a.6.6,0,0,0,.631.615h8.31a.587.587,0,0,0,.618-.615V98A2.667,2.667,0,0,0,351.71,95.3Zm1.3,4.827H346.1V98a1.33,1.33,0,0,1,1.04-1.31,3.329,3.329,0,0,0,4.4.411,3.128,3.128,0,0,0,.437-.411A1.321,1.321,0,0,1,353.005,98Zm0,0" transform="translate(-312.139 -86.304)" stroke="#000" stroke-width="0.5"/>
      <path id="Path_2867" data-name="Path 2867" d="M37.46.277a9.433,9.433,0,0,0-7.668,14.934l-6.345,2-6.345-2a9.435,9.435,0,1,0-9.309,3.8L5.776,21.026a6.341,6.341,0,0,0,.27,8.939c2.764,2.77,5.744,5.755,8.228,8.238a2.619,2.619,0,0,0,.672,2.49l.033.033a2.583,2.583,0,0,0,1.837.751,2.756,2.756,0,0,0,.657-.08l.25.249a2.888,2.888,0,0,0,1.444.783,2.571,2.571,0,0,0,1.709.633l.1,0a2.863,2.863,0,0,0,1.928-.849l.547-.547.547.547a2.861,2.861,0,0,0,1.927.848l.1,0a2.568,2.568,0,0,0,1.708-.632,2.919,2.919,0,0,0,1.445-.785l.251-.25a2.629,2.629,0,0,0,2.493-.669l.033-.033a2.627,2.627,0,0,0,.67-2.489c2.5-2.5,5.433-5.437,8.229-8.238a6.341,6.341,0,0,0,.27-8.939L39.1,19.01A9.438,9.438,0,0,0,37.46.277ZM1.321,9.715a8.113,8.113,0,1,1,8.113,8.113A8.113,8.113,0,0,1,1.321,9.715ZM21.963,41.274l-.017.015a2.541,2.541,0,0,0,.338-.788l.226.226Zm9.049-1.519-.034.033a1.41,1.41,0,0,1-1.985-.1l-9.579-9.579-.937.937,8.341,8.342a1.409,1.409,0,0,1,.106,1.977l-.01.01a1.261,1.261,0,0,1-.949.361,1.54,1.54,0,0,1-1.036-.462l-8.341-8.34-.937.937,4.916,4.917a1.541,1.541,0,0,1,.461,1.036,1.261,1.261,0,0,1-.362.949l-.031.031a1.41,1.41,0,0,1-1.981-.1c-2.685-2.672-7.433-7.428-11.673-11.677a5.017,5.017,0,0,1-.271-7.066l2.811-2.811a9.41,9.41,0,0,0,6.655-2.842l5.066,1.6-2.807.885a.663.663,0,0,0-.46.693l.071.765a3.52,3.52,0,0,0,1.206,2.522,3.578,3.578,0,0,0,2.725.849l.4-.039,9.166,9.179a1.41,1.41,0,0,1,.1,1.984l-.005.006a1.262,1.262,0,0,1-.944.356,1.535,1.535,0,0,1-.993-.42L26.709,31.7c-2.28-2.279-4.25-4.247-4.439-4.438l-.94.934c.191.193,2.161,2.162,4.442,4.442l2.949,2.948h0l.057.056,2.134,2.134A1.41,1.41,0,0,1,31.012,39.755Zm8.9-10.727c-2.687,2.692-5.5,5.508-7.933,7.943-.041-.047-.083-.093-.128-.137l-.476-.476a2.54,2.54,0,0,0,1.206-.677l.008-.007a2.735,2.735,0,0,0-.106-3.85l-8.1-8.108.534-.535a.663.663,0,0,0-.533-1.128L21.85,22.3a2.262,2.262,0,0,1-1.727-.53,2.21,2.21,0,0,1-.752-1.6c0-.011,0-.022,0-.033l-.023-.248,11.37-3.585a9.41,9.41,0,0,0,6.654,2.842l2.811,2.811A5.016,5.016,0,0,1,39.91,29.029Zm-2.45-11.2a8.113,8.113,0,1,1,8.113-8.113A8.113,8.113,0,0,1,37.46,17.828Zm0,0" transform="translate(0.004 -0.277)" stroke="#000" stroke-width="0.5"/>
      <path id="Path_2868" data-name="Path 2868" d="M71.6,44.969a2.889,2.889,0,1,0-2.889-2.889A2.889,2.889,0,0,0,71.6,44.969Zm0-4.452A1.564,1.564,0,1,1,70.04,42.08,1.564,1.564,0,0,1,71.6,40.516Zm0,0" transform="translate(-62.211 -35.508)" stroke="#000" stroke-width="0.5"/>
      <path id="Path_2869" data-name="Path 2869" d="M58.327,100.834V98A2.675,2.675,0,0,0,55.7,95.3a.684.684,0,0,0-.534.291,2.059,2.059,0,0,1-.429.44,2.014,2.014,0,0,1-2.808-.445.679.679,0,0,0-.534-.285A2.669,2.669,0,0,0,48.768,98v2.83a.589.589,0,0,0,.621.615H57.7a.6.6,0,0,0,.629-.615ZM57,100.124H50.093V98a1.325,1.325,0,0,1,1.034-1.31,3.325,3.325,0,0,0,4.4.411,3.135,3.135,0,0,0,.44-.411A1.324,1.324,0,0,1,57,98Zm0,0" transform="translate(-44.151 -86.304)" stroke="#000" stroke-width="0.5"/>
    </g>
  </g>
</svg>
