<svg id="drop_new" xmlns="http://www.w3.org/2000/svg" width="14.177" height="17.833" viewBox="0 0 14.177 17.833">
  <g id="Group_1985" data-name="Group 1985" transform="translate(0 0)">
    <g id="Group_1983" data-name="Group 1983">
      <path id="Path_2815" data-name="Path 2815" d="M302.587,435.02l-.05-.088c-3-5.269-3.23-7.54-3.23-7.54s-.238,2.3-3.282,7.625a6.63,6.63,0,0,0-.624,5.525h0c.022.05.044.1.069.149a.94.94,0,0,0,.069.141c.028.061.058.116.088.174a2.073,2.073,0,0,0,.124.2,1.484,1.484,0,0,0,.089.124c.033.036.075.1.113.152a3.663,3.663,0,0,0,.381.42c.036.036.075.075.113.108a4.759,4.759,0,0,0,1.041.7c.064.033.13.066.2.1.158.075.318.138.492.2l.116.042a7.877,7.877,0,0,0,1.008.273C304.59,442.264,304.021,437.531,302.587,435.02Zm-1.356,5.633a2.687,2.687,0,0,1-1.893.785h-.03a2.673,2.673,0,0,1-2.2-4.15l-.533.089a.2.2,0,0,1-.224-.16.192.192,0,0,1,.155-.224h0l1.044-.18h.039l.052.011.019.006.033.016.011.006.019.019a.177.177,0,0,1,.044.064l.011.039v.011l.122,1.005a.193.193,0,0,1-.169.216l0,0h-.022a.2.2,0,0,1-.2-.171l-.066-.555a2.286,2.286,0,1,0,4.183,1.279,2.32,2.32,0,0,0-2.318-2.321h0a.179.179,0,0,1-.193-.16v-.014a.186.186,0,0,1,.188-.188h0a2.678,2.678,0,0,1,1.92,4.575Z" transform="translate(-295.064 -425.499)" fill="#fff"/>
      <g id="Group_1106" data-name="Group 1106" transform="translate(13.382 2.995)">
        <path id="Path_2816" data-name="Path 2816" d="M299.933,427.833l-.014-.019-.011-.022Z" transform="translate(-299.908 -427.791)" fill="#fff"/>
      </g>
      <path id="Path_2817" data-name="Path 2817" d="M300.777,434.694l-.146-.033c-.05-.011-.1-.022-.141-.036s-.094-.028-.138-.042a3.175,3.175,0,0,1-.307-.113,2.722,2.722,0,0,1-.434-.232,1.162,1.162,0,0,1-.119-.089,2.092,2.092,0,0,1-.323-.3,1.745,1.745,0,0,1-.124-.157,1.893,1.893,0,0,1-.224-.4,3.32,3.32,0,0,1,.315-2.768,11.739,11.739,0,0,0,1.641-3.815,11.648,11.648,0,0,0,1.619,3.774l.011.022.017.019C303.137,431.788,303.421,434.158,300.777,434.694Z" transform="translate(-288.738 -426.707)" fill="#fff"/>
    </g>
  </g>
</svg>
