<svg xmlns="http://www.w3.org/2000/svg" width="65.247" height="59.56" viewBox="0 0 65.247 59.56">
  <g id="feature2" transform="translate(0.255 0.258)">
    <g id="connection" transform="translate(0 0)">
      <path id="Path_2865" data-name="Path 2865" d="M368.811,47.165a3.987,3.987,0,1,0-3.986-3.987A3.988,3.988,0,0,0,368.811,47.165Zm0-6.145a2.158,2.158,0,1,1-2.158,2.158A2.159,2.159,0,0,1,368.811,41.02Zm0,0" transform="translate(-317.165 -34.108)" stroke="#000" stroke-width="0.5"/>
      <path id="Path_2866" data-name="Path 2866" d="M354.348,95.3a.944.944,0,0,0-.737.4,2.841,2.841,0,0,1-.592.607,2.74,2.74,0,0,1-3.877-.61.939.939,0,0,0-.737-.4,3.7,3.7,0,0,0-3.635,3.736v3.906a.824.824,0,0,0,.871.849h11.47a.81.81,0,0,0,.853-.849V99.033A3.68,3.68,0,0,0,354.348,95.3Zm1.788,6.662H346.6V99.033a1.835,1.835,0,0,1,1.435-1.808,4.594,4.594,0,0,0,6.078.568,4.318,4.318,0,0,0,.6-.568,1.823,1.823,0,0,1,1.421,1.808Zm0,0" transform="translate(-299.731 -82.884)" stroke="#000" stroke-width="0.5"/>
      <path id="Path_2867" data-name="Path 2867" d="M51.7.277A13.019,13.019,0,0,0,41.122,20.89l-8.758,2.762L23.605,20.89a13.022,13.022,0,1,0-12.848,5.243L7.973,28.915a8.752,8.752,0,0,0,.373,12.338c3.815,3.823,7.928,7.943,11.356,11.37a3.615,3.615,0,0,0,.927,3.437l.045.045a3.565,3.565,0,0,0,2.536,1.036,3.8,3.8,0,0,0,.907-.111l.344.343a3.985,3.985,0,0,0,1.994,1.081,3.548,3.548,0,0,0,2.359.874l.133,0a3.951,3.951,0,0,0,2.661-1.172l.755-.755.755.755a3.948,3.948,0,0,0,2.66,1.171l.133,0a3.544,3.544,0,0,0,2.358-.873,4.029,4.029,0,0,0,1.995-1.083l.346-.345a3.628,3.628,0,0,0,3.441-.923l.046-.046a3.626,3.626,0,0,0,.925-3.436c3.454-3.453,7.5-7.5,11.358-11.371a8.752,8.752,0,0,0,.373-12.338L53.97,26.132A13.027,13.027,0,0,0,51.7.277ZM1.825,13.3a11.2,11.2,0,1,1,11.2,11.2A11.2,11.2,0,0,1,1.825,13.3Zm28.49,43.558-.023.021a3.507,3.507,0,0,0,.466-1.088l.312.312Zm12.49-2.1-.046.046a1.947,1.947,0,0,1-2.739-.139L26.8,41.452l-1.293,1.293L37.018,54.258a1.945,1.945,0,0,1,.147,2.729L37.151,57a1.741,1.741,0,0,1-1.309.5,2.125,2.125,0,0,1-1.43-.637L22.9,45.35l-1.293,1.293,6.786,6.786a2.127,2.127,0,0,1,.637,1.43,1.74,1.74,0,0,1-.5,1.31l-.043.043a1.946,1.946,0,0,1-2.735-.135C22.048,52.39,15.493,45.824,9.641,39.961a6.924,6.924,0,0,1-.375-9.753l3.88-3.88a12.987,12.987,0,0,0,9.185-3.923l6.992,2.2-3.874,1.222a.914.914,0,0,0-.635.957l.1,1.056a4.858,4.858,0,0,0,1.664,3.481A4.938,4.938,0,0,0,30.338,32.5l.549-.054L43.537,45.112a1.947,1.947,0,0,1,.137,2.738l-.007.008a1.741,1.741,0,0,1-1.3.491,2.119,2.119,0,0,1-1.37-.58l-4.129-4.128c-3.147-3.146-5.865-5.862-6.126-6.126l-1.3,1.288c.264.266,2.983,2.984,6.131,6.131L39.643,49h0c.026.026.052.052.079.078,1.1,1.1,2.116,2.115,2.945,2.945A1.946,1.946,0,0,1,42.8,54.766Zm12.281-14.8c-3.709,3.716-7.588,7.6-10.95,10.963-.057-.064-.115-.128-.177-.189l-.657-.657a3.506,3.506,0,0,0,1.665-.934l.011-.01a3.775,3.775,0,0,0-.147-5.314L33.656,32.628l.737-.738a.914.914,0,0,0-.736-1.556l-3.5.343a3.122,3.122,0,0,1-2.383-.731,3.05,3.05,0,0,1-1.038-2.2c0-.015,0-.031,0-.046l-.032-.343L42.4,22.405a12.987,12.987,0,0,0,9.184,3.923l3.88,3.88A6.924,6.924,0,0,1,55.086,39.961ZM51.7,24.5A11.2,11.2,0,1,1,62.9,13.3,11.2,11.2,0,0,1,51.7,24.5Zm0,0" transform="translate(0.004 -0.277)" stroke="#000" stroke-width="0.5"/>
      <path id="Path_2868" data-name="Path 2868" d="M72.7,47.165a3.987,3.987,0,1,0-3.987-3.987A3.987,3.987,0,0,0,72.7,47.165Zm0-6.145a2.158,2.158,0,1,1-2.158,2.158A2.158,2.158,0,0,1,72.7,41.02Zm0,0" transform="translate(-59.738 -34.108)" stroke="#000" stroke-width="0.5"/>
      <path id="Path_2869" data-name="Path 2869" d="M61.962,102.939V99.033A3.692,3.692,0,0,0,58.331,95.3a.944.944,0,0,0-.737.4A2.843,2.843,0,0,1,57,96.3a2.779,2.779,0,0,1-3.876-.614.938.938,0,0,0-.737-.393,3.683,3.683,0,0,0-3.62,3.736v3.906a.813.813,0,0,0,.857.849h11.47a.822.822,0,0,0,.867-.849Zm-1.829-.98H50.6V99.033a1.829,1.829,0,0,1,1.428-1.808,4.59,4.59,0,0,0,6.074.568,4.328,4.328,0,0,0,.608-.568,1.827,1.827,0,0,1,1.426,1.808Zm0,0" transform="translate(-42.396 -82.884)" stroke="#000" stroke-width="0.5"/>
    </g>
  </g>
</svg>
