<svg id="feature5" xmlns="http://www.w3.org/2000/svg" width="66.466" height="57.454" viewBox="0 0 66.466 57.454">
  <path id="Path_2846" data-name="Path 2846" d="M190.429,304.33a1.127,1.127,0,0,0-1.593,0l-4.506,4.506a1.126,1.126,0,0,0-.33.8v4.506a1.127,1.127,0,0,0,1.127,1.127h9.012a1.127,1.127,0,0,0,1.127-1.127v-4.506a1.126,1.126,0,0,0-.33-.8Zm2.583,8.682h-2.253v-2.253a1.127,1.127,0,0,0-2.253,0v2.253h-2.253V310.1l3.38-3.38,3.38,3.38Z" transform="translate(-160.343 -267.95)"/>
  <path id="Path_2847" data-name="Path 2847" d="M196.506,209.012A4.506,4.506,0,1,0,192,204.506,4.506,4.506,0,0,0,196.506,209.012Zm0-6.759a2.253,2.253,0,1,1-2.253,2.253A2.253,2.253,0,0,1,196.506,202.253Z" transform="translate(-167.216 -178.596)"/>
  <path id="Path_2848" data-name="Path 2848" d="M100.506,200a4.506,4.506,0,1,0,4.506,4.506A4.506,4.506,0,0,0,100.506,200Zm0,6.759a2.253,2.253,0,1,1,2.253-2.253A2.253,2.253,0,0,1,100.506,206.759Z" transform="translate(-84.735 -178.596)"/>
  <path id="Path_2849" data-name="Path 2849" d="M302.759,224a1.127,1.127,0,0,0-1.127,1.127,2.253,2.253,0,0,1-3.755,1.68,1.127,1.127,0,1,0-1.5,1.679,4.506,4.506,0,0,0,7.511-3.359A1.127,1.127,0,0,0,302.759,224Z" transform="translate(-256.57 -199.216)"/>
  <path id="Path_2850" data-name="Path 2850" d="M100.506,320a4.506,4.506,0,1,0,4.506,4.506A4.506,4.506,0,0,0,100.506,320Zm0,6.759a2.253,2.253,0,1,1,2.253-2.253A2.253,2.253,0,0,1,100.506,326.759Z" transform="translate(-84.735 -281.698)"/>
  <path id="Path_2851" data-name="Path 2851" d="M292.506,320a4.506,4.506,0,1,0,4.506,4.506A4.506,4.506,0,0,0,292.506,320Zm0,6.759a2.253,2.253,0,1,1,2.253-2.253A2.253,2.253,0,0,1,292.506,326.759Z" transform="translate(-249.698 -281.698)"/>
  <path id="Path_2852" data-name="Path 2852" d="M79.27,57.295a3.957,3.957,0,0,0-3.933-3.661h-6.39V51.38a3.38,3.38,0,0,0-6.759,0v2.253H55.429V51.38a3.38,3.38,0,0,0-6.759,0v2.253H41.911V51.38a3.38,3.38,0,0,0-6.759,0v2.253H28.392V51.38a3.38,3.38,0,0,0-6.759,0v2.253h-3.1A2.538,2.538,0,0,0,16,56.167v46.752a2.538,2.538,0,0,0,2.535,2.535H72.046a2.538,2.538,0,0,0,2.518-2.253H81.34a1.127,1.127,0,0,0,1.124-1.207ZM64.441,51.38a1.127,1.127,0,0,1,2.253,0v4.506a1.127,1.127,0,0,1-2.253,0Zm-13.519,0a1.127,1.127,0,0,1,2.253,0v4.506a1.127,1.127,0,0,1-2.253,0Zm-13.519,0a1.127,1.127,0,0,1,2.253,0v4.506a1.127,1.127,0,0,1-2.253,0Zm-13.519,0a1.127,1.127,0,0,1,2.253,0v4.506a1.127,1.127,0,0,1-2.253,0Zm-5.351,4.506h3.1a3.38,3.38,0,1,0,6.759,0h6.759a3.38,3.38,0,1,0,6.759,0H48.67a3.38,3.38,0,1,0,6.759,0h6.759a3.38,3.38,0,1,0,6.759,0h3.38v4.506H18.253V56.167A.282.282,0,0,1,18.535,55.886Zm53.792,47.033a.282.282,0,0,1-.282.282H18.535a.282.282,0,0,1-.282-.282V62.645H72.327Zm2.253-1.971V55.886h.757a1.7,1.7,0,0,1,1.686,1.57l3.107,43.492Z" transform="translate(-16 -48)"/>
  <path id="Path_2853" data-name="Path 2853" d="M302.759,408h-5.633a1.127,1.127,0,0,0,0,2.253h5.633a1.127,1.127,0,1,0,0-2.253Z" transform="translate(-256.571 -357.306)"/>
  <path id="Path_2854" data-name="Path 2854" d="M370.253,408h-1.127a1.127,1.127,0,1,0,0,2.253h1.127a1.127,1.127,0,1,0,0-2.253Z" transform="translate(-318.432 -357.306)"/>
  <path id="Path_2855" data-name="Path 2855" d="M305.733,176.261a1.127,1.127,0,0,0-1.587.144l-4.843,5.811-1.381-1.381a1.127,1.127,0,1,0-1.593,1.593l2.253,2.253a1.126,1.126,0,0,0,.8.33h.051a1.126,1.126,0,0,0,.814-.4l5.633-6.759A1.127,1.127,0,0,0,305.733,176.261Z" transform="translate(-256.571 -157.975)"/>
</svg>
