<svg xmlns="http://www.w3.org/2000/svg" width="66.726" height="62.732" viewBox="0 0 66.726 62.732">
  <g id="feature3" transform="translate(0.375 0.375)">
    <path id="Path_2856" data-name="Path 2856" d="M52.409,15.5H13.567a13.567,13.567,0,1,0,0,27.135h9.879V53.6l-.482-.4a6.28,6.28,0,0,0-8.316.363A5.425,5.425,0,0,0,15,61.632l8.446,7.087v6.83a1.933,1.933,0,0,0,1.933,1.933H48.574a1.933,1.933,0,0,0,1.933-1.933V53.829a5.807,5.807,0,0,0-5.082-5.754L35.044,46.781V42.635H52.409a13.567,13.567,0,0,0,0-27.135Zm-25.1,58.116V69.75H46.641v3.866ZM44.947,51.911a1.936,1.936,0,0,1,1.694,1.918V65.884H26.083l-8.6-7.214a1.565,1.565,0,0,1-.1-2.382,2.4,2.4,0,0,1,3.1-.135l3.658,3.069a1.934,1.934,0,0,0,3.175-1.481V33.025a1.933,1.933,0,0,1,3.866,0V48.488a1.933,1.933,0,0,0,1.694,1.918Zm7.462-13.142H35.044V33.025a5.8,5.8,0,1,0-11.6,0v5.744H13.567a9.7,9.7,0,1,1,0-19.4H52.409a9.7,9.7,0,0,1,0,19.4Z" transform="translate(0 -15.5)" stroke="linen" stroke-width="0.75"/>
    <path id="Path_2857" data-name="Path 2857" d="M313.063,76.066,306.7,82.431l-2.5-2.5a1.933,1.933,0,1,0-2.733,2.734l3.866,3.866a1.933,1.933,0,0,0,2.733,0L315.8,78.8a1.933,1.933,0,1,0-2.733-2.734Z" transform="translate(-262.125 -67.768)" stroke="linen" stroke-width="0.75"/>
  </g>
</svg>
