<svg xmlns="http://www.w3.org/2000/svg" width="52.077" height="59.167" viewBox="0 0 52.077 59.167">
  <g id="feature1" transform="translate(0.25 0.245)">
    <g id="Group_1073" data-name="Group 1073" transform="translate(5.198 5.792)">
      <path id="Path_2870" data-name="Path 2870" d="M1286.008-80.3c-3.113-2.653-3.579-5.582-1.319-7.936a4.871,4.871,0,0,1,7.24.175c2.1,2.371,1.54,5.353-1.625,7.834.773,0,1.372-.009,1.971,0a5.176,5.176,0,0,1,5.135,5c.156,3.665-.154,3.986-3.854,3.986q-5.949,0-11.9,0c-2.015,0-2.613-.618-2.622-2.662-.015-3.457,1.277-5.541,3.955-6.167A19.8,19.8,0,0,1,1286.008-80.3Zm2.211,7.132c2.138,0,4.276-.014,6.413.008.678.007.953-.221.983-.94.115-2.741-1.272-4.283-3.991-4.309q-3.381-.032-6.763,0c-2.686.023-4.042,1.475-4.028,4.173,0,.813.286,1.094,1.089,1.08C1284.021-73.2,1286.12-73.173,1288.219-73.172Zm3.007-11.667a2.893,2.893,0,0,0-3-3,2.914,2.914,0,0,0-3,3,2.926,2.926,0,0,0,3,3A2.911,2.911,0,0,0,1291.225-84.839Z" transform="translate(-1279.036 89.766)" stroke="#000" stroke-width="0.5"/>
    </g>
    <g id="Group_1074" data-name="Group 1074" transform="translate(0 0)">
      <path id="Path_2871" data-name="Path 2871" d="M1299.861-110.328a.409.409,0,0,0,.45.351,9.731,9.731,0,0,1,2.282-.123,3.366,3.366,0,0,1,2.907,3.3,1.453,1.453,0,0,0,.856,1.448,3.773,3.773,0,0,1,1.9,4.369c-.427,1.9-.931,3.774-1.423,5.653-.164.624-.421,1.275-1.252,1.034-.809-.234-.712-.918-.557-1.547.456-1.849.945-3.69,1.386-5.543a1.748,1.748,0,0,0-.924-2.206.413.413,0,0,0-.6.221c-.095.282-.187.559-.259.842-1.564,6.138-3.238,12.253-4.617,18.432a34.314,34.314,0,0,0-.311,6.727c-.04,2.061.068,12.537.077,14.6,0,.662-.042,1.344-.9,1.343s-.9-.692-.909-1.343c-.036-2.643-.133-13.709-.176-16.352,0-.179,0-.149-.01-.359a.437.437,0,0,0-.7-.341,3.94,3.94,0,0,1-1.078.588,2.061,2.061,0,0,1-2.543-1.414,30.481,30.481,0,0,1-.758-3.315,6.725,6.725,0,0,1,0-2.2c1.564-6.219,3.4-11.8,4.807-18.052a30.43,30.43,0,0,0,.355-6.713,1.654,1.654,0,0,0-1.776-1.655q-.467-.016-.934-.015-16.866,0-33.731,0c-2.267,0-2.788.534-2.789,2.839q0,12.78,0,25.561,0,11.721,0,23.443c0,2.441.525,2.972,2.917,2.972q16.55,0,33.1,0c1.822,0,3.22-.114,3.267-3.312,0-.945.034-1.837.047-2.824-.015-1,.167-.58.5-.65a1.633,1.633,0,0,1,.7-.007.683.683,0,0,1,.515.641c.134,1.35.106,2.719.106,4.078,0,2.362-.831,3.993-4.1,3.993-1.439,0-2.879.011-4.319.011-10,0-20,.029-30-.044a6.6,6.6,0,0,1-3.211-.686,3.606,3.606,0,0,1-1.35-3.131q.009-25.3.011-50.6a4.2,4.2,0,0,1,4.193-4.2q17.463-.031,34.927,0a3.711,3.711,0,0,1,3.8,3.395C1299.79-110.846,1299.827-110.577,1299.861-110.328Zm-4.749,28.06a.779.779,0,0,0,1.353.266,7.753,7.753,0,0,0,1.6-2.539c1.561-5.566,2.9-11.193,4.32-16.8.4-1.58.84-3.152,1.159-4.749a1.679,1.679,0,0,0-1.558-2.23c-1.14-.017-1.607.716-1.861,1.722-1.7,6.735-3.354,13.484-5.177,20.186A7.165,7.165,0,0,0,1295.111-82.268Z" transform="translate(-1256.818 114.523)" stroke="#000" stroke-width="0.5"/>
    </g>
    <g id="Group_1075" data-name="Group 1075" transform="translate(6.176 33.223)">
      <path id="Path_2872" data-name="Path 2872" d="M1303.774,29.118h-19.74a.819.819,0,0,1,0-1.638h19.74a.819.819,0,0,1,0,1.638Z" transform="translate(-1283.215 -27.48)" stroke="#000" stroke-width="0.5"/>
    </g>
    <g id="Group_1076" data-name="Group 1076" transform="translate(6.176 37.571)">
      <path id="Path_2873" data-name="Path 2873" d="M1310.294,47.7h-26.261a.819.819,0,0,1,0-1.638h26.261a.819.819,0,0,1,0,1.638Z" transform="translate(-1283.215 -46.061)" stroke="#000" stroke-width="0.5"/>
    </g>
  </g>
</svg>
