<svg id="feature4" xmlns="http://www.w3.org/2000/svg" width="53.378" height="53.383" viewBox="0 0 53.378 53.383">
  <path id="Path_2842" data-name="Path 2842" d="M106,251.444c.133-.906.235-1.817.4-2.716a23.361,23.361,0,0,1,23.981-19.057,23.317,23.317,0,0,1,21.064,15.838,23.032,23.032,0,0,1-2.255,19.77c-.071.118-.136.24-.228.4q1.05,1.043,2.1,2.087c2.285,2.284,4.586,4.553,6.849,6.859a4.9,4.9,0,0,1-1.614,8.052c-.383.153-.792.24-1.19.358h-1.355a7.26,7.26,0,0,1-3.73-2.4c-2.528-2.58-5.1-5.116-7.655-7.669-.118-.118-.246-.226-.372-.342l-.429.26A23.349,23.349,0,0,1,106.4,257.234c-.169-.915-.268-1.844-.4-2.766Zm23.316,21.772a20.218,20.218,0,1,0-20.188-20.209A20.277,20.277,0,0,0,129.316,273.216Zm15.33-2.4c.024.025.1.116.186.2l4.94,4.939c1.131,1.13,2.257,2.265,3.392,3.39a1.79,1.79,0,0,0,3.053-.86,1.852,1.852,0,0,0-.632-1.778q-4.135-4.122-8.26-8.254a.994.994,0,0,0-.165-.133Z" transform="translate(-106 -229.654)"/>
  <path id="Path_2843" data-name="Path 2843" d="M170.716,310.979a16.645,16.645,0,1,1,16.63-16.652A16.683,16.683,0,0,1,170.716,310.979Zm13.5-16.652a13.514,13.514,0,1,0-13.471,13.52A13.537,13.537,0,0,0,184.214,294.327Z" transform="translate(-147.364 -270.998)"/>
  <path id="Path_2844" data-name="Path 2844" d="M222.522,361.852a1.436,1.436,0,0,1-.915,1.292,1.651,1.651,0,0,1-1.782-.331,17.84,17.84,0,0,0-2.708-1.906,10.042,10.042,0,0,0-11.4,1.724,1.833,1.833,0,0,1-1.417.649,1.471,1.471,0,0,1-1.356-.978,1.537,1.537,0,0,1,.415-1.759,12.691,12.691,0,0,1,6.154-3.418,13.094,13.094,0,0,1,12.411,3.35A1.607,1.607,0,0,1,222.522,361.852Z" transform="translate(-189.34 -339.039)"/>
  <path id="Path_2845" data-name="Path 2845" d="M242.058,404.738a6.532,6.532,0,0,1,4.392,1.738,1.58,1.58,0,1,1-2.105,2.327,3.425,3.425,0,0,0-4.719.007,1.592,1.592,0,0,1-2.356,0,1.615,1.615,0,0,1,.276-2.349A6.6,6.6,0,0,1,242.058,404.738Z" transform="translate(-218.649 -380.35)"/>
</svg>
