<svg xmlns="http://www.w3.org/2000/svg" width="64.776" height="60.9" viewBox="0 0 64.776 60.9">
  <g id="feature6" transform="translate(0.375 0.375)">
    <path id="Path_2856" data-name="Path 2856" d="M50.86,15.5H13.166a13.166,13.166,0,1,0,0,26.333h9.587V52.47l-.468-.393a6.1,6.1,0,0,0-8.071.352,5.264,5.264,0,0,0,.342,7.838l8.2,6.878v6.628a1.876,1.876,0,0,0,1.876,1.876H47.138a1.876,1.876,0,0,0,1.876-1.876V52.7a5.636,5.636,0,0,0-4.932-5.584L34.008,45.856V41.833H50.86a13.166,13.166,0,1,0,0-26.333ZM26.5,71.9V68.147H45.262V71.9ZM43.619,50.834A1.879,1.879,0,0,1,45.263,52.7V64.4H25.312l-8.343-7a1.519,1.519,0,0,1-.1-2.312,2.331,2.331,0,0,1,3.006-.131l3.549,2.978A1.877,1.877,0,0,0,26.5,56.493V32.507a1.876,1.876,0,0,1,3.752,0V47.513A1.876,1.876,0,0,0,31.9,49.375ZM50.86,38.081H34.008V32.507a5.627,5.627,0,0,0-11.255,0v5.574H13.166a9.415,9.415,0,1,1,0-18.83H50.86a9.415,9.415,0,0,1,0,18.83Z" transform="translate(0 -15.5)" stroke="linen" stroke-width="0.75"/>
    <path id="Path_2857" data-name="Path 2857" d="M312.7,76.049l-6.177,6.177L304.1,79.8a1.876,1.876,0,0,0-2.653,2.653l3.752,3.752a1.876,1.876,0,0,0,2.653,0l7.5-7.5a1.876,1.876,0,0,0-2.653-2.653Z" transform="translate(-263.272 -67.997)" stroke="linen" stroke-width="0.75"/>
  </g>
</svg>
