<svg xmlns="http://www.w3.org/2000/svg" width="19" height="19" viewBox="0 0 19 19">
  <g id="forward" transform="translate(-23.75 -23.749)">
    <path id="Path_2838" data-name="Path 2838" d="M143.124,29.241l1.975-1.975V37.715a.957.957,0,1,0,1.914,0V27.266l1.975,1.975a.957.957,0,1,0,1.353-1.353l-3.609-3.609a.957.957,0,0,0-1.353,0l-3.609,3.609a.957.957,0,0,0,1.353,1.353Z" transform="translate(-112.806 0)" stroke="#fff" stroke-width="0.5"/>
    <path id="Path_2839" data-name="Path 2839" d="M41.543,232a.957.957,0,0,0-.957.957v7.336H25.914v-7.336a.957.957,0,0,0-1.914,0v7.655a1.6,1.6,0,0,0,1.595,1.595H40.905a1.6,1.6,0,0,0,1.595-1.595v-7.655A.957.957,0,0,0,41.543,232Z" transform="translate(0 -199.708)" stroke="#fff" stroke-width="0.5"/>
  </g>
</svg>
