<svg xmlns="http://www.w3.org/2000/svg" width="48.552" height="45.657" viewBox="0 0 48.552 45.657">
  <g id="go" transform="translate(0.375 -15.125)">
    <path id="Path_2856" data-name="Path 2856" d="M37.972,15.5H9.83a9.83,9.83,0,1,0,0,19.66h7.157V43.1l-.349-.293a4.55,4.55,0,0,0-6.025.263,3.93,3.93,0,0,0,.256,5.852l6.119,5.135v4.949a1.4,1.4,0,0,0,1.4,1.4H35.193a1.4,1.4,0,0,0,1.4-1.4V43.27A4.208,4.208,0,0,0,32.912,39.1l-7.522-.937v-3H37.972a9.83,9.83,0,0,0,0-19.66ZM19.788,57.606v-2.8h14v2.8ZM32.565,41.88a1.4,1.4,0,0,1,1.227,1.39V52H18.9l-6.229-5.227a1.134,1.134,0,0,1-.075-1.726,1.74,1.74,0,0,1,2.245-.1l2.65,2.224a1.4,1.4,0,0,0,2.3-1.073V28.2a1.4,1.4,0,0,1,2.8,0V39.4a1.4,1.4,0,0,0,1.227,1.39Zm5.406-9.521H25.39V28.2a4.2,4.2,0,1,0-8.4,0v4.162H9.83a7.029,7.029,0,0,1,0-14.058H37.972a7.029,7.029,0,0,1,0,14.058Z" stroke="linen" stroke-width="0.75"/>
    <path id="Path_2857" data-name="Path 2857" d="M309.712,75.91,305.1,80.521l-1.811-1.811a1.4,1.4,0,0,0-1.98,1.98l2.8,2.8a1.4,1.4,0,0,0,1.98,0l5.6-5.6a1.4,1.4,0,0,0-1.98-1.98Z" transform="translate(-272.807 -54.398)" stroke="linen" stroke-width="0.75"/>
  </g>
</svg>
