<svg xmlns="http://www.w3.org/2000/svg" width="11" height="19.938" viewBox="0 0 11 19.938">
  <g id="gold_logo_svg" transform="translate(-90 -145.985)">
    <path id="Path_5792" data-name="Path 5792" d="M196.539,75.76h-4.212V72.678l.8-.743a1.435,1.435,0,0,0,.771.226h.047a2.11,2.11,0,0,0,.405-.042,3.235,3.235,0,0,0,2.359-2.355,1.55,1.55,0,0,0-.358-1.456,1.432,1.432,0,0,0-1.038-.4,2.086,2.086,0,0,0-.411.043h-.01A3.228,3.228,0,0,0,192.54,70.3v.01a1.7,1.7,0,0,0,.1,1.076l-.311.291V68a2.73,2.73,0,0,0,1.641-2.789c0-1.564-.9-2.837-2.007-2.837s-2.006,1.273-2.006,2.837A2.73,2.73,0,0,0,191.6,68v3.686l-.34-.313a1.711,1.711,0,0,0,.093-1.062V70.3A3.228,3.228,0,0,0,189,67.951h-.01a2.088,2.088,0,0,0-.411-.043,1.429,1.429,0,0,0-1.038.4,1.548,1.548,0,0,0-.359,1.449,3.233,3.233,0,0,0,2.355,2.36,2.128,2.128,0,0,0,.416.044h.042a1.433,1.433,0,0,0,.785-.235l.818.754v3.08h-4.463v.732H191.6v1.035h.732V76.492h4.422V75.76Zm-7.326-5.984L189,70l-.142.155.154.142,1.184,1.092a.914.914,0,0,1-.252.033,1.329,1.329,0,0,1-.263-.028,2.291,2.291,0,0,1-1.132-.648l-.062-.065h0a2.311,2.311,0,0,1-.591-1.081.843.843,0,0,1,.161-.781.707.707,0,0,1,.482-.188h.039a1.307,1.307,0,0,1,.26.027,2.5,2.5,0,0,1,1.794,1.794,1.236,1.236,0,0,1,.023.358l-1.143-1.053-.155-.143Zm2.9-4.776H191.6v2.224a2.272,2.272,0,0,1-.908-2.014c0-1.141.584-2.1,1.274-2.1s1.274.964,1.274,2.1a2.272,2.272,0,0,1-.908,2.014V65Zm2.755,5.3.154-.144L194.882,70l-.213-.228-.144-.154-.154.144-1.138,1.064a1.231,1.231,0,0,1,.021-.37,2.5,2.5,0,0,1,1.795-1.794,1.306,1.306,0,0,1,.26-.027h.039a.708.708,0,0,1,.486.192.846.846,0,0,1,.154.782,2.3,2.3,0,0,1-.649,1.132l0,0,0,0a2.3,2.3,0,0,1-1.139.65,1.324,1.324,0,0,1-.258.027.92.92,0,0,1-.239-.03Z" transform="translate(-96.51 83.612)" fill="#dead07"/>
    <text id="GOLD" transform="translate(90 164.923)" fill="#dead07" font-size="4" font-family="SegoeUI-Bold, Segoe UI" font-weight="700" letter-spacing="0.006em"><tspan x="0" y="0">GOLD</tspan></text>
  </g>
</svg>
