<svg xmlns="http://www.w3.org/2000/svg" width="53" height="49" viewBox="0 0 53 49">
  <g id="loction_toggle_icon" transform="translate(-163 -690)">
    <rect id="Rectangle_143" data-name="Rectangle 143" width="53" height="49" rx="8" transform="translate(163 690)" fill="linen"/>
    <g id="map" transform="translate(169 695)">
      <g id="Group_2366" data-name="Group 2366" transform="translate(21.375)">
        <g id="Group_2365" data-name="Group 2365">
          <path id="Path_5458" data-name="Path 5458" d="M296.313,0A8.322,8.322,0,0,0,288,8.313c0,4.266,6.669,11.82,7.429,12.668a1.187,1.187,0,0,0,1.767,0c.76-.848,7.429-8.4,7.429-12.668A8.322,8.322,0,0,0,296.313,0Zm0,11.875a3.563,3.563,0,1,1,3.563-3.562A3.564,3.564,0,0,1,296.313,11.875Z" transform="translate(-288)" fill="#5d5d5d"/>
        </g>
      </g>
      <g id="Group_2368" data-name="Group 2368" transform="translate(0 9.5)">
        <g id="Group_2367" data-name="Group 2367">
          <path id="Path_5459" data-name="Path 5459" d="M.746,132.451a1.191,1.191,0,0,0-.746,1.1v21.757a1.187,1.187,0,0,0,1.629,1.1l10.246-4.1V128Z" transform="translate(0 -128)" fill="#5d5d5d"/>
        </g>
      </g>
      <g id="Group_2370" data-name="Group 2370" transform="translate(26.125 14.989)">
        <g id="Group_2369" data-name="Group 2369">
          <path id="Path_5460" data-name="Path 5460" d="M358.213,209.531a3.561,3.561,0,0,1-5.3,0c-.242-.268-.553-.622-.912-1.043v16.475l11.129-4.451a1.184,1.184,0,0,0,.746-1.1V201.952A51.6,51.6,0,0,1,358.213,209.531Z" transform="translate(-352 -201.952)" fill="#5d5d5d"/>
        </g>
      </g>
      <g id="Group_2372" data-name="Group 2372" transform="translate(14.25 9.5)">
        <g id="Group_2371" data-name="Group 2371">
          <path id="Path_5461" data-name="Path 5461" d="M197.5,130.2,192,128v24.315l9.5,3.8V137.044A30.92,30.92,0,0,1,197.5,130.2Z" transform="translate(-192 -128)" fill="#5d5d5d"/>
        </g>
      </g>
    </g>
  </g>
</svg>
