<svg xmlns="http://www.w3.org/2000/svg" width="31.613" height="31.533" viewBox="0 0 31.613 31.533">
  <g id="Group_1056" data-name="Group 1056" transform="translate(0.25 0.25)">
    <g id="Group_19" data-name="Group 19" transform="translate(12.139)">
      <path id="Path_18" data-name="Path 18" d="M627.939,258.712c-1.906,0-3.456-2.268-3.456-5.055s1.551-5.055,3.456-5.055,3.458,2.268,3.458,5.055S629.846,258.712,627.939,258.712Zm0-9.51c-1.576,0-2.858,2-2.858,4.455s1.281,4.456,2.858,4.456,2.857-2,2.857-4.456S629.516,249.2,627.939,249.2Z" transform="translate(-624.483 -248.602)" stroke="#000" stroke-width="0.5"/>
    </g>
    <g id="Group_20" data-name="Group 20" transform="translate(17.028 10.648)">
      <path id="Path_19" data-name="Path 19" d="M630.53,264a2.357,2.357,0,0,1-1.71-.655,2.589,2.589,0,0,1-.58-2.423,5.818,5.818,0,0,1,4.227-4.226,2.382,2.382,0,0,1,3,3,5.45,5.45,0,0,1-1.53,2.7h0a5.456,5.456,0,0,1-2.7,1.53A3.66,3.66,0,0,1,630.53,264Zm2.645-6.779a2.925,2.925,0,0,0-.591.062,5.222,5.222,0,0,0-3.758,3.756,1.792,1.792,0,0,0,2.3,2.3,4.844,4.844,0,0,0,2.393-1.365h0a4.841,4.841,0,0,0,1.365-2.391,2.012,2.012,0,0,0-.417-1.882A1.772,1.772,0,0,0,633.175,257.221Z" transform="translate(-628.165 -256.621)" stroke="#000" stroke-width="0.5"/>
    </g>
    <g id="Group_21" data-name="Group 21" transform="translate(6.715 10.648)">
      <path id="Path_20" data-name="Path 20" d="M625.41,264a3.647,3.647,0,0,1-.712-.074,5.459,5.459,0,0,1-2.7-1.53h0a5.457,5.457,0,0,1-1.528-2.7,2.382,2.382,0,0,1,3-3,5.818,5.818,0,0,1,4.227,4.226,2.59,2.59,0,0,1-.58,2.423A2.358,2.358,0,0,1,625.41,264Zm-2.644-6.779a1.777,1.777,0,0,0-1.291.478,2.015,2.015,0,0,0-.417,1.882,4.862,4.862,0,0,0,1.365,2.391h0a4.835,4.835,0,0,0,2.391,1.365,1.792,1.792,0,0,0,2.3-2.3,5.224,5.224,0,0,0-3.756-3.756A2.927,2.927,0,0,0,622.767,257.221Z" transform="translate(-620.398 -256.621)" stroke="#000" stroke-width="0.5"/>
    </g>
    <g id="Group_22" data-name="Group 22" transform="translate(15.296 5.055)">
      <rect id="Rectangle_1" data-name="Rectangle 1" width="0.599" height="25.977" stroke="#000" stroke-width="0.5"/>
    </g>
    <g id="Group_23" data-name="Group 23" transform="translate(10.201 14.117)">
      <path id="Path_21" data-name="Path 21" d="M628.419,264.648l-5.4-4.974.406-.441,4.987,4.6,4.918-4.6.409.438Z" transform="translate(-623.023 -259.234)" stroke="#000" stroke-width="0.5"/>
    </g>
    <g id="Group_24" data-name="Group 24" transform="translate(0 25.765)">
      <rect id="Rectangle_2" data-name="Rectangle 2" width="31.113" height="0.599" stroke="#000" stroke-width="0.5"/>
    </g>
  </g>
</svg>
