<svg xmlns="http://www.w3.org/2000/svg" width="21.372" height="17.898" viewBox="0 0 21.372 17.898">
  <g id="message_new" transform="translate(0.75 0.75)">
    <path id="Path_5247" data-name="Path 5247" d="M84.491-166.508v7.287a2.1,2.1,0,0,1-2.092,2.115H66.721a2.107,2.107,0,0,1-2.1-2.115v-7.287l1,.748v6.539a1.107,1.107,0,0,0,1.1,1.081H82.4a1.08,1.08,0,0,0,1.081-1.081v-6.539Z" transform="translate(-64.619 173.504)" fill="none" stroke="#5d5d5d" stroke-width="1.5"/>
    <path id="Path_5248" data-name="Path 5248" d="M82.4-171.551H66.718a2.07,2.07,0,0,0-2.079,2.069v1.828l8.666,6.448a2.07,2.07,0,0,0,2.482,0l8.677-6.448v-1.828A2.06,2.06,0,0,0,82.4-171.551Zm1.1,3.4-.057.045-8.229,6.127a1.087,1.087,0,0,1-.655.206,1.1,1.1,0,0,1-.667-.206l-8.3-6.172v-1.334a1.115,1.115,0,0,1,1.125-1.1H82.4a1.1,1.1,0,0,1,1.1,1.1Z" transform="translate(-64.616 171.551)" fill="none" stroke="#5d5d5d" stroke-width="1.5"/>
  </g>
</svg>
