<svg xmlns="http://www.w3.org/2000/svg" width="37.87" height="43.005" viewBox="0 0 37.87 43.005">
  <g id="registar" transform="translate(-1256.568 114.768)">
    <g id="Group_1073" data-name="Group 1073" transform="translate(1260.584 -110.326)">
      <path id="Path_2870" data-name="Path 2870" d="M1284.088-82.91c-2.255-1.922-2.593-4.044-.956-5.75a3.529,3.529,0,0,1,5.246.127c1.521,1.718,1.116,3.878-1.178,5.676.56,0,.994-.006,1.428,0a3.75,3.75,0,0,1,3.72,3.624c.113,2.655-.111,2.888-2.792,2.888q-4.31,0-8.62,0c-1.46,0-1.893-.448-1.9-1.928-.011-2.5.925-4.015,2.866-4.468A14.349,14.349,0,0,1,1284.088-82.91Zm1.6,5.167c1.549,0,3.1-.01,4.647.006.491,0,.69-.16.712-.681.083-1.986-.921-3.1-2.891-3.122q-2.45-.023-4.9,0c-1.946.017-2.929,1.068-2.918,3.024,0,.589.208.793.789.783C1282.648-77.761,1284.169-77.744,1285.689-77.743Zm2.178-8.453a2.1,2.1,0,0,0-2.17-2.173,2.111,2.111,0,0,0-2.177,2.171,2.12,2.12,0,0,0,2.174,2.177A2.109,2.109,0,0,0,1287.868-86.2Z" transform="translate(-1279.036 89.766)" stroke="#000" stroke-width="0.5"/>
    </g>
    <g id="Group_1074" data-name="Group 1074" transform="translate(1256.818 -114.523)">
      <path id="Path_2871" data-name="Path 2871" d="M1288-111.483a.3.3,0,0,0,.326.254,7.05,7.05,0,0,1,1.653-.089,2.439,2.439,0,0,1,2.106,2.389,1.052,1.052,0,0,0,.62,1.049,2.734,2.734,0,0,1,1.376,3.165c-.309,1.373-.674,2.734-1.031,4.1-.119.452-.305.924-.907.749-.586-.17-.516-.665-.4-1.121.33-1.34.685-2.674,1-4.016a1.267,1.267,0,0,0-.67-1.6.3.3,0,0,0-.436.16c-.069.2-.136.405-.188.61-1.133,4.447-2.346,8.877-3.345,13.355a24.86,24.86,0,0,0-.225,4.874c-.029,1.493.049,9.084.056,10.577,0,.479-.031.974-.652.973s-.652-.5-.658-.973c-.026-1.915-.1-9.932-.128-11.847,0-.13,0-.108-.007-.26a.317.317,0,0,0-.506-.247,2.853,2.853,0,0,1-.781.426,1.494,1.494,0,0,1-1.843-1.025,22.076,22.076,0,0,1-.549-2.4,4.871,4.871,0,0,1,0-1.593c1.133-4.506,2.46-8.549,3.482-13.079a22.049,22.049,0,0,0,.257-4.863,1.2,1.2,0,0,0-1.286-1.2q-.338-.011-.676-.011-12.22,0-24.439,0c-1.643,0-2.02.387-2.021,2.057q0,9.26,0,18.52,0,8.492,0,16.985c0,1.769.381,2.153,2.113,2.153h23.982c1.32,0,2.333-.083,2.367-2.4,0-.684.025-1.331.034-2.046-.011-.722.121-.42.365-.471a1.183,1.183,0,0,1,.509,0,.5.5,0,0,1,.373.464c.1.978.077,1.97.077,2.955,0,1.711-.6,2.893-2.97,2.893-1.043,0-2.086.008-3.129.008-7.244,0-14.489.021-21.733-.032a4.782,4.782,0,0,1-2.326-.5,2.613,2.613,0,0,1-.978-2.268q.007-18.329.008-36.658a3.044,3.044,0,0,1,3.038-3.042q12.653-.022,25.305,0a2.689,2.689,0,0,1,2.753,2.46C1287.952-111.859,1287.979-111.664,1288-111.483Zm-3.441,20.33a.564.564,0,0,0,.981.192,5.618,5.618,0,0,0,1.16-1.84c1.131-4.033,2.1-8.11,3.13-12.172.289-1.145.609-2.284.839-3.441a1.217,1.217,0,0,0-1.129-1.616c-.826-.012-1.164.519-1.349,1.248-1.232,4.88-2.43,9.769-3.751,14.625A5.192,5.192,0,0,0,1284.563-91.153Z" transform="translate(-1256.818 114.523)" stroke="#000" stroke-width="0.5"/>
    </g>
    <g id="Group_1075" data-name="Group 1075" transform="translate(1261.293 -90.452)">
      <path id="Path_2872" data-name="Path 2872" d="M1298.11,28.667h-14.3a.593.593,0,0,1,0-1.187h14.3a.593.593,0,0,1,0,1.187Z" transform="translate(-1283.215 -27.48)" stroke="#000" stroke-width="0.5"/>
    </g>
    <g id="Group_1076" data-name="Group 1076" transform="translate(1261.293 -87.302)">
      <path id="Path_2873" data-name="Path 2873" d="M1302.835,47.248h-19.027a.593.593,0,0,1,0-1.187h19.027a.593.593,0,0,1,0,1.187Z" transform="translate(-1283.215 -46.061)" stroke="#000" stroke-width="0.5"/>
    </g>
  </g>
</svg>
