<svg xmlns="http://www.w3.org/2000/svg" width="13.425" height="18.843" viewBox="0 0 13.425 18.843">
  <path id="Path_5577" data-name="Path 5577" d="M317.448,412.768h-9.915a1.74,1.74,0,0,0-1.777,1.7v15.885a1.24,1.24,0,0,0,.678,1.106,1.337,1.337,0,0,0,.617.153,1.322,1.322,0,0,0,.665-.181L312.49,427l4.626,4.331.108.08a1.316,1.316,0,0,0,1.278.027,1.247,1.247,0,0,0,.679-1.109V414.45A1.735,1.735,0,0,0,317.448,412.768Zm-9.108,14.589v-12.08h8.248v12.446l-3.319-3.3-.121-.093a1.341,1.341,0,0,0-1.326,0l-1.5,1.286Z" transform="translate(-305.756 -412.768)" fill="#5d5d5d"/>
</svg>
