<svg id="search-icon" xmlns="http://www.w3.org/2000/svg" xmlns:xlink="http://www.w3.org/1999/xlink" width="20.66" height="20.661" viewBox="0 0 20.66 20.661">
  <defs>
    <clipPath id="clip-path">
      <path id="_Color" data-name="↳🎨 Color" d="M19.186,20.661a1.468,1.468,0,0,1-1.044-.432L14.83,16.918a9.344,9.344,0,1,1,2.088-2.088l3.312,3.312a1.475,1.475,0,0,1-1.044,2.519ZM9.347,2.951A6.4,6.4,0,1,0,13.76,13.975a1.321,1.321,0,0,1,.215-.215A6.4,6.4,0,0,0,9.347,2.951Z" fill="#fff"/>
    </clipPath>
  </defs>
  <path id="_Color-2" data-name="↳🎨 Color" d="M19.186,20.661a1.468,1.468,0,0,1-1.044-.432L14.83,16.918a9.344,9.344,0,1,1,2.088-2.088l3.312,3.312a1.475,1.475,0,0,1-1.044,2.519ZM9.347,2.951A6.4,6.4,0,1,0,13.76,13.975a1.321,1.321,0,0,1,.215-.215A6.4,6.4,0,0,0,9.347,2.951Z" transform="translate(0 0)" fill="#fff"/>
</svg>
