<svg xmlns="http://www.w3.org/2000/svg" width="21.246" height="14.026" viewBox="0 0 21.246 14.026">
  <g id="united-states" transform="translate(0 -87.005)">
    <path id="Path_2758" data-name="Path 2758" d="M21.246,100.583a.449.449,0,0,1-.447.447H.447A.449.449,0,0,1,0,100.583V87.452A.449.449,0,0,1,.447,87H20.8a.449.449,0,0,1,.447.447Z" transform="translate(0 0)" fill="#fff7ee"/>
    <g id="Group_1028" data-name="Group 1028" transform="translate(0 87.005)">
      <path id="Path_2759" data-name="Path 2759" d="M221.483,87.006H209.372v1.349H221.93v-.9A.449.449,0,0,0,221.483,87.006Z" transform="translate(-200.684 -87.006)" fill="#e02424"/>
      <path id="Path_2760" data-name="Path 2760" d="M197.725,209.2v.842a.507.507,0,0,1-.5.507h13.062V209.2H197.725Z" transform="translate(-189.037 -204.127)" fill="#e02424"/>
      <rect id="Rectangle_54" data-name="Rectangle 54" width="21.246" height="1.349" transform="translate(0 7.606)" fill="#e02424"/>
    </g>
    <rect id="Rectangle_55" data-name="Rectangle 55" width="1.364" height="1.349" transform="translate(0 94.611)" opacity="0.1"/>
    <g id="Group_1029" data-name="Group 1029" transform="translate(0 89.54)">
      <rect id="Rectangle_56" data-name="Rectangle 56" width="21.246" height="1.349" transform="translate(0 7.606)" fill="#e02424"/>
      <path id="Path_2761" data-name="Path 2761" d="M21.246,393.389v-.9H0v.9a.449.449,0,0,0,.447.447H20.8A.449.449,0,0,0,21.246,393.389Z" transform="translate(0 -382.346)" fill="#e02424"/>
      <rect id="Rectangle_57" data-name="Rectangle 57" width="12.558" height="1.349" transform="translate(8.688 0)" fill="#e02424"/>
    </g>
    <path id="Path_2762" data-name="Path 2762" d="M.447,87.006A.449.449,0,0,0,0,87.453v5.972H8.661a.507.507,0,0,0,.5-.507V87.006Z" transform="translate(0 -0.001)" fill="#0853a4"/>
    <path id="Path_2763" data-name="Path 2763" d="M1.856,87.006H.447A.449.449,0,0,0,0,87.453v5.972H1.409V87.453A.449.449,0,0,1,1.856,87.006Z" transform="translate(0 -0.001)" opacity="0.1"/>
    <g id="Group_1030" data-name="Group 1030" transform="translate(0.798 87.614)">
      <path id="Path_2764" data-name="Path 2764" d="M37.061,116a.062.062,0,0,1-.03-.008l-.122-.066-.122.066a.062.062,0,0,1-.03.008.063.063,0,0,1-.038-.012.066.066,0,0,1-.025-.064l.023-.139-.1-.1a.067.067,0,0,1-.016-.067.064.064,0,0,1,.052-.045l.136-.02.061-.127a.063.063,0,0,1,.115,0l.061.127.136.02a.064.064,0,0,1,.052.045.067.067,0,0,1-.016.067l-.1.1.023.139a.066.066,0,0,1-.025.064A.063.063,0,0,1,37.061,116Z" transform="translate(-35.878 -114.825)" fill="#fff"/>
      <path id="Path_2765" data-name="Path 2765" d="M37.061,143.425a.062.062,0,0,1-.03-.008l-.122-.066-.122.066a.062.062,0,0,1-.03.008.063.063,0,0,1-.038-.012.066.066,0,0,1-.025-.064l.023-.139-.1-.1a.067.067,0,0,1-.016-.067.065.065,0,0,1,.052-.045l.136-.02.061-.127a.063.063,0,0,1,.115,0l.061.127.136.02a.065.065,0,0,1,.052.045.067.067,0,0,1-.016.067l-.1.1.023.139a.066.066,0,0,1-.025.064A.063.063,0,0,1,37.061,143.425Z" transform="translate(-35.878 -141.108)" fill="#fff"/>
      <path id="Path_2766" data-name="Path 2766" d="M37.061,170.847a.063.063,0,0,1-.03-.008l-.122-.066-.122.066a.062.062,0,0,1-.03.008.063.063,0,0,1-.038-.012.066.066,0,0,1-.025-.064l.023-.139-.1-.1a.067.067,0,0,1-.016-.067.065.065,0,0,1,.052-.045l.136-.02.061-.127a.063.063,0,0,1,.115,0l.061.127.136.02a.065.065,0,0,1,.052.045.067.067,0,0,1-.016.067l-.1.1.023.139a.066.066,0,0,1-.025.064A.063.063,0,0,1,37.061,170.847Z" transform="translate(-35.878 -167.392)" fill="#fff"/>
      <path id="Path_2767" data-name="Path 2767" d="M37.061,198.265a.063.063,0,0,1-.03-.008l-.122-.066-.122.066a.062.062,0,0,1-.03.008.063.063,0,0,1-.038-.013.066.066,0,0,1-.025-.064l.023-.139-.1-.1a.067.067,0,0,1-.016-.067.065.065,0,0,1,.052-.045l.136-.02.061-.127a.063.063,0,0,1,.115,0l.061.127.136.02a.065.065,0,0,1,.052.045.067.067,0,0,1-.016.067l-.1.1.023.139a.066.066,0,0,1-.025.064A.063.063,0,0,1,37.061,198.265Z" transform="translate(-35.878 -193.672)" fill="#fff"/>
      <path id="Path_2768" data-name="Path 2768" d="M19.692,102.293a.062.062,0,0,1-.03-.008l-.122-.066-.122.066a.062.062,0,0,1-.03.008.063.063,0,0,1-.038-.013.066.066,0,0,1-.025-.064l.023-.139-.1-.1a.067.067,0,0,1-.016-.067.064.064,0,0,1,.052-.045l.136-.02.061-.127a.063.063,0,0,1,.115,0l.061.127.136.02a.065.065,0,0,1,.052.045.067.067,0,0,1-.016.067l-.1.1.023.139a.066.066,0,0,1-.025.064A.063.063,0,0,1,19.692,102.293Z" transform="translate(-19.23 -101.683)" fill="#fff"/>
      <path id="Path_2769" data-name="Path 2769" d="M19.692,129.714a.064.064,0,0,1-.03-.008l-.122-.066-.122.066a.063.063,0,0,1-.03.008.063.063,0,0,1-.038-.013.066.066,0,0,1-.025-.064l.023-.139-.1-.1a.067.067,0,0,1-.016-.067.064.064,0,0,1,.052-.045l.136-.02.061-.127a.063.063,0,0,1,.115,0l.061.127.136.02a.064.064,0,0,1,.052.045.067.067,0,0,1-.016.067l-.1.1.023.139a.066.066,0,0,1-.025.064A.063.063,0,0,1,19.692,129.714Z" transform="translate(-19.23 -127.966)" fill="#fff"/>
      <path id="Path_2770" data-name="Path 2770" d="M19.692,157.135a.063.063,0,0,1-.03-.007l-.122-.066-.122.066a.063.063,0,0,1-.068-.005.066.066,0,0,1-.025-.064l.023-.139-.1-.1a.067.067,0,0,1-.016-.067.064.064,0,0,1,.052-.045l.136-.02.061-.127a.063.063,0,0,1,.115,0l.061.127.136.02a.064.064,0,0,1,.052.045.067.067,0,0,1-.016.067l-.1.1.023.139a.066.066,0,0,1-.025.064A.063.063,0,0,1,19.692,157.135Z" transform="translate(-19.23 -154.249)" fill="#fff"/>
      <path id="Path_2771" data-name="Path 2771" d="M19.692,184.554a.062.062,0,0,1-.03-.007l-.122-.066-.122.066a.063.063,0,0,1-.068,0,.066.066,0,0,1-.025-.064l.023-.139-.1-.1a.067.067,0,0,1-.016-.067.064.064,0,0,1,.052-.045l.136-.02.061-.127a.063.063,0,0,1,.115,0l.061.127.136.02a.065.065,0,0,1,.052.045.067.067,0,0,1-.016.067l-.1.1.023.139a.066.066,0,0,1-.025.064A.063.063,0,0,1,19.692,184.554Z" transform="translate(-19.23 -180.53)" fill="#fff"/>
      <path id="Path_2772" data-name="Path 2772" d="M19.692,211.975a.063.063,0,0,1-.03-.008l-.122-.066-.122.066a.063.063,0,0,1-.068,0,.066.066,0,0,1-.025-.064l.023-.139-.1-.1a.067.067,0,0,1-.016-.067.064.064,0,0,1,.052-.045l.136-.02.061-.127a.063.063,0,0,1,.115,0l.061.127.136.02a.064.064,0,0,1,.052.045.067.067,0,0,1-.016.067l-.1.1.023.139a.066.066,0,0,1-.025.064A.062.062,0,0,1,19.692,211.975Z" transform="translate(-19.23 -206.814)" fill="#fff"/>
      <path id="Path_2773" data-name="Path 2773" d="M70.776,116a.062.062,0,0,1-.03-.008l-.122-.066L70.5,116a.062.062,0,0,1-.03.008.063.063,0,0,1-.038-.012.066.066,0,0,1-.025-.064l.023-.139-.1-.1a.067.067,0,0,1-.016-.067.064.064,0,0,1,.052-.045l.136-.02.061-.127a.063.063,0,0,1,.115,0l.061.127.136.02a.064.064,0,0,1,.052.045.067.067,0,0,1-.016.067l-.1.1.023.139a.066.066,0,0,1-.025.064A.063.063,0,0,1,70.776,116Z" transform="translate(-68.194 -114.825)" fill="#fff"/>
      <path id="Path_2774" data-name="Path 2774" d="M70.776,143.425a.062.062,0,0,1-.03-.008l-.122-.066-.122.066a.062.062,0,0,1-.03.008.063.063,0,0,1-.038-.012.066.066,0,0,1-.025-.064l.023-.139-.1-.1a.067.067,0,0,1-.016-.067.065.065,0,0,1,.052-.045l.136-.02.061-.127a.063.063,0,0,1,.115,0l.061.127.136.02a.065.065,0,0,1,.052.045.067.067,0,0,1-.016.067l-.1.1.023.139a.066.066,0,0,1-.025.064A.062.062,0,0,1,70.776,143.425Z" transform="translate(-68.194 -141.108)" fill="#fff"/>
      <path id="Path_2775" data-name="Path 2775" d="M70.776,170.847a.063.063,0,0,1-.03-.008l-.122-.066-.122.066a.062.062,0,0,1-.03.008.063.063,0,0,1-.038-.012.066.066,0,0,1-.025-.064l.023-.139-.1-.1a.067.067,0,0,1-.016-.067.065.065,0,0,1,.052-.045l.136-.02.061-.127a.063.063,0,0,1,.115,0l.061.127.136.02a.065.065,0,0,1,.052.045.067.067,0,0,1-.016.067l-.1.1.023.139a.066.066,0,0,1-.025.064A.063.063,0,0,1,70.776,170.847Z" transform="translate(-68.194 -167.392)" fill="#fff"/>
      <path id="Path_2776" data-name="Path 2776" d="M70.776,198.265a.063.063,0,0,1-.03-.008l-.122-.066-.122.066a.062.062,0,0,1-.03.008.063.063,0,0,1-.038-.013.066.066,0,0,1-.025-.064l.023-.139-.1-.1a.067.067,0,0,1-.016-.067.065.065,0,0,1,.052-.045l.136-.02.061-.127a.063.063,0,0,1,.115,0l.061.127.136.02a.065.065,0,0,1,.052.045.067.067,0,0,1-.016.067l-.1.1.023.139a.066.066,0,0,1-.025.064A.063.063,0,0,1,70.776,198.265Z" transform="translate(-68.194 -193.672)" fill="#fff"/>
      <path id="Path_2777" data-name="Path 2777" d="M53.408,102.293a.061.061,0,0,1-.03-.008l-.122-.066-.122.066a.062.062,0,0,1-.03.008.063.063,0,0,1-.038-.013.066.066,0,0,1-.025-.064l.023-.139-.1-.1a.067.067,0,0,1-.016-.067.064.064,0,0,1,.052-.045l.136-.02.061-.127a.063.063,0,0,1,.115,0l.061.127.136.02a.064.064,0,0,1,.052.045.067.067,0,0,1-.016.067l-.1.1.023.139a.066.066,0,0,1-.025.064A.063.063,0,0,1,53.408,102.293Z" transform="translate(-51.548 -101.683)" fill="#fff"/>
      <path id="Path_2778" data-name="Path 2778" d="M53.408,129.714a.063.063,0,0,1-.03-.008l-.122-.066-.122.066a.063.063,0,0,1-.03.008.063.063,0,0,1-.038-.013.066.066,0,0,1-.025-.064l.023-.139-.1-.1a.067.067,0,0,1-.016-.067.064.064,0,0,1,.052-.045l.136-.02.061-.127a.063.063,0,0,1,.115,0l.061.127.136.02a.064.064,0,0,1,.052.045.067.067,0,0,1-.016.067l-.1.1.023.139a.066.066,0,0,1-.025.064A.064.064,0,0,1,53.408,129.714Z" transform="translate(-51.548 -127.966)" fill="#fff"/>
      <path id="Path_2779" data-name="Path 2779" d="M53.408,157.135a.063.063,0,0,1-.03-.007l-.122-.066-.122.066a.063.063,0,0,1-.067-.005.066.066,0,0,1-.025-.064l.023-.139-.1-.1a.067.067,0,0,1-.016-.067.064.064,0,0,1,.052-.045l.136-.02.061-.127a.063.063,0,0,1,.115,0l.061.127.136.02a.064.064,0,0,1,.052.045.067.067,0,0,1-.016.067l-.1.1.023.139a.066.066,0,0,1-.025.064A.063.063,0,0,1,53.408,157.135Z" transform="translate(-51.548 -154.249)" fill="#fff"/>
      <path id="Path_2780" data-name="Path 2780" d="M53.408,184.554a.062.062,0,0,1-.03-.007l-.122-.066-.122.066a.063.063,0,0,1-.067,0,.066.066,0,0,1-.025-.064l.023-.139-.1-.1a.067.067,0,0,1-.016-.067.064.064,0,0,1,.052-.045l.136-.02.061-.127a.063.063,0,0,1,.115,0l.061.127.136.02a.064.064,0,0,1,.052.045.067.067,0,0,1-.016.067l-.1.1.023.139a.066.066,0,0,1-.025.064A.063.063,0,0,1,53.408,184.554Z" transform="translate(-51.548 -180.53)" fill="#fff"/>
      <path id="Path_2781" data-name="Path 2781" d="M53.408,211.975a.063.063,0,0,1-.03-.008l-.122-.066-.122.066a.063.063,0,0,1-.067,0,.066.066,0,0,1-.025-.064l.023-.139-.1-.1a.067.067,0,0,1-.016-.067.064.064,0,0,1,.052-.045l.136-.02.061-.127a.063.063,0,0,1,.115,0l.061.127.136.02a.064.064,0,0,1,.052.045.067.067,0,0,1-.016.067l-.1.1.023.139a.066.066,0,0,1-.025.064A.063.063,0,0,1,53.408,211.975Z" transform="translate(-51.548 -206.814)" fill="#fff"/>
      <path id="Path_2782" data-name="Path 2782" d="M104.491,116a.062.062,0,0,1-.03-.008l-.122-.066-.122.066a.062.062,0,0,1-.03.008.063.063,0,0,1-.038-.012.066.066,0,0,1-.025-.064l.023-.139-.1-.1a.067.067,0,0,1-.016-.067.064.064,0,0,1,.052-.045l.136-.02.061-.127a.063.063,0,0,1,.115,0l.061.127.136.02a.064.064,0,0,1,.052.045.067.067,0,0,1-.016.067l-.1.1.023.139a.066.066,0,0,1-.025.064A.063.063,0,0,1,104.491,116Z" transform="translate(-100.511 -114.825)" fill="#fff"/>
      <path id="Path_2783" data-name="Path 2783" d="M104.491,143.425a.062.062,0,0,1-.03-.008l-.122-.066-.122.066a.062.062,0,0,1-.03.008.063.063,0,0,1-.038-.012.066.066,0,0,1-.025-.064l.023-.139-.1-.1a.067.067,0,0,1-.016-.067.065.065,0,0,1,.052-.045l.136-.02.061-.127a.063.063,0,0,1,.115,0l.061.127.136.02a.065.065,0,0,1,.052.045.067.067,0,0,1-.016.067l-.1.1.023.139a.066.066,0,0,1-.025.064A.063.063,0,0,1,104.491,143.425Z" transform="translate(-100.511 -141.108)" fill="#fff"/>
      <path id="Path_2784" data-name="Path 2784" d="M104.491,170.847a.063.063,0,0,1-.03-.008l-.122-.066-.122.066a.062.062,0,0,1-.03.008.063.063,0,0,1-.038-.012.066.066,0,0,1-.025-.064l.023-.139-.1-.1a.067.067,0,0,1-.016-.067.064.064,0,0,1,.052-.045l.136-.02.061-.127a.063.063,0,0,1,.115,0l.061.127.136.02a.065.065,0,0,1,.052.045.067.067,0,0,1-.016.067l-.1.1.023.139a.066.066,0,0,1-.025.064A.063.063,0,0,1,104.491,170.847Z" transform="translate(-100.511 -167.392)" fill="#fff"/>
      <path id="Path_2785" data-name="Path 2785" d="M104.491,198.265a.063.063,0,0,1-.03-.008l-.122-.066-.122.066a.063.063,0,0,1-.067-.005.066.066,0,0,1-.025-.064l.023-.139-.1-.1a.067.067,0,0,1-.016-.067.064.064,0,0,1,.052-.045l.136-.02.061-.127a.063.063,0,0,1,.115,0l.061.127.136.02a.065.065,0,0,1,.052.045.067.067,0,0,1-.016.067l-.1.1.023.139a.066.066,0,0,1-.025.064A.063.063,0,0,1,104.491,198.265Z" transform="translate(-100.511 -193.672)" fill="#fff"/>
      <path id="Path_2786" data-name="Path 2786" d="M87.123,102.293a.061.061,0,0,1-.03-.008l-.122-.066-.122.066a.062.062,0,0,1-.03.008.063.063,0,0,1-.038-.013.066.066,0,0,1-.025-.064l.023-.139-.1-.1a.067.067,0,0,1-.016-.067.064.064,0,0,1,.052-.045l.136-.02.061-.127a.063.063,0,0,1,.115,0l.061.127.136.02a.064.064,0,0,1,.052.045.067.067,0,0,1-.016.067l-.1.1.023.139a.066.066,0,0,1-.025.064A.063.063,0,0,1,87.123,102.293Z" transform="translate(-83.863 -101.683)" fill="#fff"/>
      <path id="Path_2787" data-name="Path 2787" d="M87.123,129.714a.063.063,0,0,1-.03-.008l-.122-.066-.122.066a.062.062,0,0,1-.03.008.063.063,0,0,1-.038-.013.066.066,0,0,1-.025-.064l.023-.139-.1-.1a.067.067,0,0,1-.016-.067.064.064,0,0,1,.052-.045l.136-.02.061-.127a.063.063,0,0,1,.115,0l.061.127.136.02a.064.064,0,0,1,.052.045.067.067,0,0,1-.016.067l-.1.1.023.139a.066.066,0,0,1-.025.064A.063.063,0,0,1,87.123,129.714Z" transform="translate(-83.863 -127.966)" fill="#fff"/>
      <path id="Path_2788" data-name="Path 2788" d="M87.123,157.135a.063.063,0,0,1-.03-.007l-.122-.066-.122.066a.063.063,0,0,1-.067-.005.066.066,0,0,1-.025-.064l.023-.139-.1-.1a.067.067,0,0,1-.016-.067.064.064,0,0,1,.052-.045l.136-.02.061-.127a.063.063,0,0,1,.115,0l.061.127.136.02a.064.064,0,0,1,.052.045.067.067,0,0,1-.016.067l-.1.1.023.139a.066.066,0,0,1-.025.064A.063.063,0,0,1,87.123,157.135Z" transform="translate(-83.863 -154.249)" fill="#fff"/>
      <path id="Path_2789" data-name="Path 2789" d="M87.123,184.554a.062.062,0,0,1-.03-.007l-.122-.066-.122.066a.062.062,0,0,1-.03.007.063.063,0,0,1-.038-.012.066.066,0,0,1-.025-.064l.023-.139-.1-.1a.067.067,0,0,1-.016-.067.064.064,0,0,1,.052-.045l.136-.02.061-.127a.063.063,0,0,1,.115,0l.061.127.136.02a.064.064,0,0,1,.052.045.067.067,0,0,1-.016.067l-.1.1.023.139a.066.066,0,0,1-.025.064A.062.062,0,0,1,87.123,184.554Z" transform="translate(-83.863 -180.53)" fill="#fff"/>
      <path id="Path_2790" data-name="Path 2790" d="M87.123,211.975a.063.063,0,0,1-.03-.008l-.122-.066-.122.066a.063.063,0,0,1-.067,0,.066.066,0,0,1-.025-.064l.023-.139-.1-.1a.067.067,0,0,1-.016-.067.064.064,0,0,1,.052-.045l.136-.02.061-.127a.063.063,0,0,1,.115,0l.061.127.136.02a.064.064,0,0,1,.052.045.067.067,0,0,1-.016.067l-.1.1.023.139a.066.066,0,0,1-.025.064A.062.062,0,0,1,87.123,211.975Z" transform="translate(-83.863 -206.814)" fill="#fff"/>
      <path id="Path_2791" data-name="Path 2791" d="M138.205,116a.062.062,0,0,1-.03-.008l-.122-.066-.122.066a.063.063,0,0,1-.068,0,.066.066,0,0,1-.025-.064l.023-.139-.1-.1a.067.067,0,0,1-.016-.067.064.064,0,0,1,.052-.045l.136-.02.061-.127a.063.063,0,0,1,.115,0l.061.127.136.02a.064.064,0,0,1,.052.045.067.067,0,0,1-.016.067l-.1.1.023.139a.066.066,0,0,1-.025.064A.062.062,0,0,1,138.205,116Z" transform="translate(-132.826 -114.825)" fill="#fff"/>
      <path id="Path_2792" data-name="Path 2792" d="M138.205,143.425a.062.062,0,0,1-.03-.008l-.122-.066-.122.066a.062.062,0,0,1-.03.008.063.063,0,0,1-.038-.012.066.066,0,0,1-.025-.064l.023-.139-.1-.1a.066.066,0,0,1-.016-.067A.065.065,0,0,1,137.8,143l.136-.02.061-.127a.063.063,0,0,1,.115,0l.061.127.136.02a.064.064,0,0,1,.052.045.066.066,0,0,1-.016.067l-.1.1.023.139a.066.066,0,0,1-.025.064A.062.062,0,0,1,138.205,143.425Z" transform="translate(-132.826 -141.108)" fill="#fff"/>
      <path id="Path_2793" data-name="Path 2793" d="M138.205,170.847a.063.063,0,0,1-.03-.008l-.122-.066-.122.066a.063.063,0,0,1-.068,0,.066.066,0,0,1-.025-.064l.023-.139-.1-.1a.067.067,0,0,1-.016-.067.064.064,0,0,1,.052-.045l.136-.02.061-.127a.063.063,0,0,1,.115,0l.061.127.136.02a.064.064,0,0,1,.052.045.067.067,0,0,1-.016.067l-.1.1.023.139a.066.066,0,0,1-.025.064A.062.062,0,0,1,138.205,170.847Z" transform="translate(-132.826 -167.392)" fill="#fff"/>
      <path id="Path_2794" data-name="Path 2794" d="M138.205,198.265a.063.063,0,0,1-.03-.008l-.122-.066-.122.066a.063.063,0,0,1-.068-.005.066.066,0,0,1-.025-.064l.023-.139-.1-.1a.067.067,0,0,1-.016-.067.065.065,0,0,1,.052-.045l.136-.02.061-.127a.063.063,0,0,1,.115,0l.061.127.136.02a.064.064,0,0,1,.052.045.067.067,0,0,1-.016.067l-.1.1.023.139a.066.066,0,0,1-.025.064A.062.062,0,0,1,138.205,198.265Z" transform="translate(-132.826 -193.672)" fill="#fff"/>
      <path id="Path_2795" data-name="Path 2795" d="M120.838,102.293a.062.062,0,0,1-.03-.008l-.122-.066-.122.066a.062.062,0,0,1-.03.008.063.063,0,0,1-.038-.013.066.066,0,0,1-.025-.064l.023-.139-.1-.1a.067.067,0,0,1-.016-.067.065.065,0,0,1,.052-.045l.136-.02.061-.127a.063.063,0,0,1,.115,0l.061.127.136.02a.064.064,0,0,1,.052.045.067.067,0,0,1-.016.067l-.1.1.023.139a.066.066,0,0,1-.025.064A.063.063,0,0,1,120.838,102.293Z" transform="translate(-116.179 -101.683)" fill="#fff"/>
      <path id="Path_2796" data-name="Path 2796" d="M120.838,129.714a.064.064,0,0,1-.03-.008l-.122-.066-.122.066a.063.063,0,0,1-.03.008.064.064,0,0,1-.038-.013.066.066,0,0,1-.025-.064l.023-.139-.1-.1a.067.067,0,0,1-.016-.067.065.065,0,0,1,.052-.045l.136-.02.061-.127a.063.063,0,0,1,.115,0l.061.127.136.02a.064.064,0,0,1,.052.045.067.067,0,0,1-.016.067l-.1.1.023.139a.066.066,0,0,1-.025.064A.063.063,0,0,1,120.838,129.714Z" transform="translate(-116.179 -127.966)" fill="#fff"/>
      <path id="Path_2797" data-name="Path 2797" d="M120.838,157.135a.064.064,0,0,1-.03-.007l-.122-.066-.122.066a.063.063,0,0,1-.068-.005.066.066,0,0,1-.025-.064l.023-.139-.1-.1a.067.067,0,0,1-.016-.067.064.064,0,0,1,.052-.045l.136-.02.061-.127a.063.063,0,0,1,.115,0l.061.127.136.02a.064.064,0,0,1,.052.045.066.066,0,0,1-.016.067l-.1.1.023.139a.066.066,0,0,1-.025.064A.063.063,0,0,1,120.838,157.135Z" transform="translate(-116.179 -154.249)" fill="#fff"/>
      <path id="Path_2798" data-name="Path 2798" d="M120.838,184.554a.062.062,0,0,1-.03-.007l-.122-.066-.122.066a.062.062,0,0,1-.03.007.063.063,0,0,1-.038-.012.066.066,0,0,1-.025-.064l.023-.139-.1-.1a.067.067,0,0,1-.016-.067.065.065,0,0,1,.052-.045l.136-.02.061-.127a.063.063,0,0,1,.115,0l.061.127.136.02a.064.064,0,0,1,.052.045.067.067,0,0,1-.016.067l-.1.1.023.139a.066.066,0,0,1-.025.064A.063.063,0,0,1,120.838,184.554Z" transform="translate(-116.179 -180.53)" fill="#fff"/>
      <path id="Path_2799" data-name="Path 2799" d="M120.838,211.975a.063.063,0,0,1-.03-.008l-.122-.066-.122.066a.063.063,0,0,1-.068,0,.066.066,0,0,1-.025-.064l.023-.139-.1-.1a.067.067,0,0,1-.016-.067.065.065,0,0,1,.052-.045l.136-.02.061-.127a.063.063,0,0,1,.115,0l.061.127.136.02a.064.064,0,0,1,.052.045.067.067,0,0,1-.016.067l-.1.1.023.139a.066.066,0,0,1-.025.064A.062.062,0,0,1,120.838,211.975Z" transform="translate(-116.179 -206.814)" fill="#fff"/>
      <path id="Path_2800" data-name="Path 2800" d="M171.922,116a.062.062,0,0,1-.03-.008l-.122-.066-.122.066a.063.063,0,0,1-.067,0,.066.066,0,0,1-.025-.064l.023-.139-.1-.1a.067.067,0,0,1-.016-.067.065.065,0,0,1,.052-.045l.136-.02.061-.127a.063.063,0,0,1,.115,0l.061.127.136.02a.064.064,0,0,1,.052.045.067.067,0,0,1-.016.067l-.1.1.023.139a.066.066,0,0,1-.025.064A.063.063,0,0,1,171.922,116Z" transform="translate(-165.143 -114.825)" fill="#fff"/>
      <path id="Path_2801" data-name="Path 2801" d="M171.922,143.425a.062.062,0,0,1-.03-.008l-.122-.066-.122.066a.062.062,0,0,1-.03.008.062.062,0,0,1-.038-.012.066.066,0,0,1-.025-.064l.023-.139-.1-.1a.067.067,0,0,1-.016-.067.065.065,0,0,1,.052-.045l.136-.02.061-.127a.063.063,0,0,1,.115,0l.061.127.136.02a.064.064,0,0,1,.052.045.066.066,0,0,1-.016.067l-.1.1.023.139a.066.066,0,0,1-.025.064A.062.062,0,0,1,171.922,143.425Z" transform="translate(-165.143 -141.108)" fill="#fff"/>
      <path id="Path_2802" data-name="Path 2802" d="M171.922,170.847a.063.063,0,0,1-.03-.008l-.122-.066-.122.066a.063.063,0,0,1-.067,0,.066.066,0,0,1-.025-.064l.023-.139-.1-.1a.067.067,0,0,1-.016-.067.065.065,0,0,1,.052-.045l.136-.02.061-.127a.063.063,0,0,1,.115,0l.061.127.136.02a.064.064,0,0,1,.052.045.067.067,0,0,1-.016.067l-.1.1.023.139a.066.066,0,0,1-.025.064A.063.063,0,0,1,171.922,170.847Z" transform="translate(-165.143 -167.392)" fill="#fff"/>
      <path id="Path_2803" data-name="Path 2803" d="M171.922,198.265a.063.063,0,0,1-.03-.008l-.122-.066-.122.066a.063.063,0,0,1-.067-.005.066.066,0,0,1-.025-.064l.023-.139-.1-.1a.067.067,0,0,1-.016-.067.065.065,0,0,1,.052-.045l.136-.02.061-.127a.063.063,0,0,1,.115,0l.061.127.136.02a.064.064,0,0,1,.052.045.067.067,0,0,1-.016.067l-.1.1.023.139a.066.066,0,0,1-.025.064A.062.062,0,0,1,171.922,198.265Z" transform="translate(-165.143 -193.672)" fill="#fff"/>
      <path id="Path_2804" data-name="Path 2804" d="M154.554,102.293a.061.061,0,0,1-.03-.008l-.122-.066-.122.066a.062.062,0,0,1-.03.008.063.063,0,0,1-.038-.013.066.066,0,0,1-.025-.064l.023-.139-.1-.1a.067.067,0,0,1-.016-.067.064.064,0,0,1,.052-.045l.136-.02.061-.127a.063.063,0,0,1,.115,0l.061.127.136.02a.064.064,0,0,1,.052.045.067.067,0,0,1-.016.067l-.1.1.023.139a.066.066,0,0,1-.025.064A.063.063,0,0,1,154.554,102.293Z" transform="translate(-148.496 -101.683)" fill="#fff"/>
      <path id="Path_2805" data-name="Path 2805" d="M154.554,129.714a.063.063,0,0,1-.03-.008l-.122-.066-.122.066a.063.063,0,0,1-.03.008.063.063,0,0,1-.038-.013.066.066,0,0,1-.025-.064l.023-.139-.1-.1a.067.067,0,0,1-.016-.067.064.064,0,0,1,.052-.045l.136-.02.061-.127a.063.063,0,0,1,.115,0l.061.127.136.02a.064.064,0,0,1,.052.045.067.067,0,0,1-.016.067l-.1.1.023.139a.066.066,0,0,1-.025.064A.064.064,0,0,1,154.554,129.714Z" transform="translate(-148.496 -127.966)" fill="#fff"/>
      <path id="Path_2806" data-name="Path 2806" d="M154.554,157.135a.063.063,0,0,1-.03-.007l-.122-.066-.122.066a.063.063,0,0,1-.067-.005.066.066,0,0,1-.025-.064l.023-.139-.1-.1a.067.067,0,0,1-.016-.067.064.064,0,0,1,.052-.045l.136-.02.061-.127a.063.063,0,0,1,.115,0l.061.127.136.02a.064.064,0,0,1,.052.045.067.067,0,0,1-.016.067l-.1.1.023.139a.066.066,0,0,1-.025.064A.063.063,0,0,1,154.554,157.135Z" transform="translate(-148.496 -154.249)" fill="#fff"/>
      <path id="Path_2807" data-name="Path 2807" d="M154.554,184.554a.062.062,0,0,1-.03-.007l-.122-.066-.122.066a.063.063,0,0,1-.067,0,.066.066,0,0,1-.025-.064l.023-.139-.1-.1a.067.067,0,0,1-.016-.067.064.064,0,0,1,.052-.045l.136-.02.061-.127a.063.063,0,0,1,.115,0l.061.127.136.02a.064.064,0,0,1,.052.045.067.067,0,0,1-.016.067l-.1.1.023.139a.066.066,0,0,1-.025.064A.063.063,0,0,1,154.554,184.554Z" transform="translate(-148.496 -180.53)" fill="#fff"/>
      <path id="Path_2808" data-name="Path 2808" d="M154.554,211.975a.063.063,0,0,1-.03-.008l-.122-.066-.122.066a.063.063,0,0,1-.067,0,.066.066,0,0,1-.025-.064l.023-.139-.1-.1a.067.067,0,0,1-.016-.067.064.064,0,0,1,.052-.045l.136-.02.061-.127a.063.063,0,0,1,.115,0l.061.127.136.02a.064.064,0,0,1,.052.045.067.067,0,0,1-.016.067l-.1.1.023.139a.066.066,0,0,1-.025.064A.063.063,0,0,1,154.554,211.975Z" transform="translate(-148.496 -206.814)" fill="#fff"/>
      <path id="Path_2809" data-name="Path 2809" d="M188.268,102.293a.061.061,0,0,1-.03-.008l-.122-.066-.122.066a.062.062,0,0,1-.03.008.063.063,0,0,1-.038-.013.066.066,0,0,1-.025-.064l.023-.139-.1-.1a.067.067,0,0,1-.016-.067.065.065,0,0,1,.052-.045l.136-.02.061-.127a.063.063,0,0,1,.115,0l.061.127.136.02a.065.065,0,0,1,.052.045.067.067,0,0,1-.016.067l-.1.1.023.139a.066.066,0,0,1-.026.064A.063.063,0,0,1,188.268,102.293Z" transform="translate(-180.812 -101.683)" fill="#fff"/>
      <path id="Path_2810" data-name="Path 2810" d="M188.268,129.714a.063.063,0,0,1-.03-.008l-.122-.066-.122.066a.063.063,0,0,1-.03.008.064.064,0,0,1-.038-.013.066.066,0,0,1-.025-.064l.023-.139-.1-.1a.067.067,0,0,1-.016-.067.064.064,0,0,1,.052-.045l.136-.02.061-.127a.063.063,0,0,1,.115,0l.061.127.136.02a.065.065,0,0,1,.052.045.067.067,0,0,1-.016.067l-.1.1.023.139a.066.066,0,0,1-.026.064A.063.063,0,0,1,188.268,129.714Z" transform="translate(-180.812 -127.966)" fill="#fff"/>
      <path id="Path_2811" data-name="Path 2811" d="M188.268,157.135a.063.063,0,0,1-.03-.007l-.122-.066-.122.066a.063.063,0,0,1-.068-.005.066.066,0,0,1-.025-.064l.023-.139-.1-.1a.067.067,0,0,1-.016-.067.064.064,0,0,1,.052-.045l.136-.02.061-.127a.063.063,0,0,1,.115,0l.061.127.136.02a.065.065,0,0,1,.052.045.066.066,0,0,1-.016.067l-.1.1.023.139a.066.066,0,0,1-.026.064A.063.063,0,0,1,188.268,157.135Z" transform="translate(-180.812 -154.249)" fill="#fff"/>
      <path id="Path_2812" data-name="Path 2812" d="M188.268,184.554a.062.062,0,0,1-.03-.007l-.122-.066-.122.066a.062.062,0,0,1-.03.007.063.063,0,0,1-.038-.012.066.066,0,0,1-.025-.064l.023-.139-.1-.1a.067.067,0,0,1-.016-.067.064.064,0,0,1,.052-.045l.136-.02.061-.127a.063.063,0,0,1,.115,0l.061.127.136.02a.065.065,0,0,1,.052.045.067.067,0,0,1-.016.067l-.1.1.023.139a.066.066,0,0,1-.026.064A.062.062,0,0,1,188.268,184.554Z" transform="translate(-180.812 -180.53)" fill="#fff"/>
      <path id="Path_2813" data-name="Path 2813" d="M188.268,211.975a.063.063,0,0,1-.03-.008l-.122-.066-.122.066a.063.063,0,0,1-.068,0,.066.066,0,0,1-.025-.064l.023-.139-.1-.1a.067.067,0,0,1-.016-.067.065.065,0,0,1,.052-.045l.136-.02.061-.127a.063.063,0,0,1,.115,0l.061.127.136.02a.065.065,0,0,1,.052.045.067.067,0,0,1-.016.067l-.1.1.023.139a.066.066,0,0,1-.026.064A.062.062,0,0,1,188.268,211.975Z" transform="translate(-180.812 -206.814)" fill="#fff"/>
    </g>
    <rect id="Rectangle_58" data-name="Rectangle 58" width="1.364" height="1.349" transform="translate(0 97.146)" opacity="0.1"/>
    <path id="Path_2814" data-name="Path 2814" d="M1.364,393.389v-.9H0v.9a.449.449,0,0,0,.447.447H1.812A.449.449,0,0,1,1.364,393.389Z" transform="translate(0 -292.805)" opacity="0.1"/>
  </g>
</svg>
