<svg xmlns="http://www.w3.org/2000/svg" width="68.967" height="68.968" viewBox="0 0 68.967 68.968">
  <g id="verified-icon1" transform="translate(-79.282 -509.49)">
    <g id="Group_4497" data-name="Group 4497">
      <ellipse id="Ellipse_132" data-name="Ellipse 132" cx="34.484" cy="34.484" rx="34.484" ry="34.484" transform="translate(79.282 509.49)" fill="#f0f0f0"/>
      <g id="Group_3115" data-name="Group 3115" transform="translate(1343.962 163.146)">
        <g id="Group_2963" data-name="Group 2963" transform="translate(-1231.663 374.021)">
          <g id="Group_2962" data-name="Group 2962" transform="translate(0 0)">
            <g id="Group_2961" data-name="Group 2961">
              <g id="Group_2960" data-name="Group 2960">
                <g id="Group_2959" data-name="Group 2959">
                  <path id="Path_5726" data-name="Path 5726" d="M-1200.46,398.248a4.526,4.526,0,0,1-4.521-4.522,4.526,4.526,0,0,1,4.521-4.521,4.527,4.527,0,0,1,4.521,4.521A4.527,4.527,0,0,1-1200.46,398.248Zm0-8.164a3.647,3.647,0,0,0-3.643,3.642,3.647,3.647,0,0,0,3.643,3.643,3.647,3.647,0,0,0,3.643-3.643A3.647,3.647,0,0,0-1200.46,390.084Z" transform="translate(1204.981 -389.205)" fill="#5d5d5d"/>
                </g>
              </g>
            </g>
          </g>
        </g>
        <g id="Group_2968" data-name="Group 2968" transform="translate(-1241.281 374.021)">
          <g id="Group_2967" data-name="Group 2967" transform="translate(0 0)">
            <g id="Group_2966" data-name="Group 2966">
              <g id="Group_2965" data-name="Group 2965">
                <g id="Group_2964" data-name="Group 2964">
                  <path id="Path_5727" data-name="Path 5727" d="M-1222.351,398.248a4.526,4.526,0,0,1-4.521-4.522,4.526,4.526,0,0,1,4.521-4.521,4.49,4.49,0,0,1,3.2,1.324.439.439,0,0,1,0,.621.44.44,0,0,1-.621,0,3.619,3.619,0,0,0-2.576-1.067,3.647,3.647,0,0,0-3.642,3.642,3.647,3.647,0,0,0,3.642,3.643,3.653,3.653,0,0,0,2.68-1.176.44.44,0,0,1,.621-.025.439.439,0,0,1,.026.621A4.536,4.536,0,0,1-1222.351,398.248Z" transform="translate(1226.872 -389.205)" fill="#5d5d5d"/>
                </g>
              </g>
            </g>
          </g>
        </g>
        <g id="Group_2972" data-name="Group 2972" transform="translate(-1225.09 395.929)">
          <g id="Group_2971" data-name="Group 2971">
            <g id="Group_2970" data-name="Group 2970">
              <g id="Group_2969" data-name="Group 2969">
                <path id="Path_5728" data-name="Path 5728" d="M-1190.021,439.066" transform="translate(1190.021 -439.066)" fill="#5d5d5d" stroke="#1f2020" stroke-miterlimit="10" stroke-width="2"/>
              </g>
            </g>
          </g>
        </g>
        <g id="Group_2982" data-name="Group 2982" transform="translate(-1239.493 388.105)">
          <g id="Group_2976" data-name="Group 2976" transform="translate(0)">
            <g id="Group_2975" data-name="Group 2975">
              <g id="Group_2974" data-name="Group 2974">
                <g id="Group_2973" data-name="Group 2973">
                  <path id="Path_5729" data-name="Path 5729" d="M-1222.3,427.859l-.5-.059a7.415,7.415,0,0,1,7.367-6.541,7.394,7.394,0,0,1,7.315,6.175l-.5.084a6.888,6.888,0,0,0-6.815-5.752A6.908,6.908,0,0,0-1222.3,427.859Z" transform="translate(1222.803 -421.259)" fill="#5d5d5d"/>
                </g>
              </g>
            </g>
          </g>
          <g id="Group_2981" data-name="Group 2981" transform="translate(11.984 3.872)">
            <g id="Group_2980" data-name="Group 2980">
              <g id="Group_2979" data-name="Group 2979">
                <g id="Group_2978" data-name="Group 2978">
                  <g id="Group_2977" data-name="Group 2977">
                    <path id="Path_5730" data-name="Path 5730" d="M-1195.527,431.247l.286-.42,2.066,1.41,1.255-2.164.439.255-1.529,2.636Z" transform="translate(1195.527 -430.073)" fill="#5d5d5d"/>
                  </g>
                </g>
              </g>
            </g>
          </g>
        </g>
        <g id="Group_2992" data-name="Group 2992" transform="translate(-1240.77 396.514)">
          <g id="Group_2986" data-name="Group 2986" transform="translate(1.349 0.163)">
            <g id="Group_2985" data-name="Group 2985">
              <g id="Group_2984" data-name="Group 2984">
                <g id="Group_2983" data-name="Group 2983">
                  <path id="Path_5731" data-name="Path 5731" d="M-1215.323,447.369a7.393,7.393,0,0,1-7.315-6.176l.5-.084a6.888,6.888,0,0,0,6.815,5.753,6.908,6.908,0,0,0,6.863-6.093l.5.059A7.415,7.415,0,0,1-1215.323,447.369Z" transform="translate(1222.638 -440.769)" fill="#5d5d5d"/>
                </g>
              </g>
            </g>
          </g>
          <g id="Group_2991" data-name="Group 2991">
            <g id="Group_2990" data-name="Group 2990">
              <g id="Group_2989" data-name="Group 2989">
                <g id="Group_2988" data-name="Group 2988">
                  <g id="Group_2987" data-name="Group 2987">
                    <path id="Path_5732" data-name="Path 5732" d="M-1221.662,442.114l-.286.42-2.067-1.409-1.255,2.164-.439-.255,1.529-2.635Z" transform="translate(1225.708 -440.398)" fill="#5d5d5d"/>
                  </g>
                </g>
              </g>
            </g>
          </g>
        </g>
        <g id="Group_2996" data-name="Group 2996" transform="translate(-1239.745 387.851)">
          <g id="Group_2995" data-name="Group 2995" transform="translate(0 0)">
            <g id="Group_2994" data-name="Group 2994">
              <g id="Group_2993" data-name="Group 2993">
                <path id="Path_5733" data-name="Path 5733" d="M-1222.369,427.565l-1.007-.119a7.669,7.669,0,0,1,7.619-6.765,7.374,7.374,0,0,1,7.47,6.209l-1,.163a6.377,6.377,0,0,0-6.469-5.357A6.654,6.654,0,0,0-1222.369,427.565Z" transform="translate(1223.376 -420.681)" fill="#5d5d5d"/>
              </g>
            </g>
          </g>
        </g>
        <g id="Group_3000" data-name="Group 3000" transform="translate(-1239.662 396.647)">
          <g id="Group_2999" data-name="Group 2999" transform="translate(0)">
            <g id="Group_2998" data-name="Group 2998">
              <g id="Group_2997" data-name="Group 2997">
                <path id="Path_5734" data-name="Path 5734" d="M-1215.631,447.585a7.656,7.656,0,0,1-7.556-6.335l1-.176a6.643,6.643,0,0,0,6.557,5.5,6.655,6.655,0,0,0,6.611-5.87l1.007.119A7.669,7.669,0,0,1-1215.631,447.585Z" transform="translate(1223.187 -440.701)" fill="#5d5d5d"/>
              </g>
            </g>
          </g>
        </g>
        <g id="Group_3005" data-name="Group 3005" transform="translate(-1221.664 377.297)">
          <g id="Group_3004" data-name="Group 3004" transform="translate(0)">
            <g id="Group_3003" data-name="Group 3003">
              <g id="Group_3002" data-name="Group 3002">
                <g id="Group_3001" data-name="Group 3001">
                  <path id="Path_5735" data-name="Path 5735" d="M-1177.448,403.722c.222,0,.343.18.343.42s-.12.45-.343.45h-4.219c-.352,0-.557-.2-.557-.6a3.007,3.007,0,0,1,.353-1.141,5.073,5.073,0,0,1,1.761-1.921l.64-.45c.909-.64,1.3-1.03,1.3-1.79,0-.74-.575-1.2-1.447-1.2a1.509,1.509,0,0,0-1.595,1.37.393.393,0,0,1-.408.31.672.672,0,0,1-.139-.01.417.417,0,0,1-.353-.41.827.827,0,0,1,.019-.15,2.643,2.643,0,0,1,.612-1.221,2.456,2.456,0,0,1,1.91-.72,2.043,2.043,0,0,1,2.309,2.06,2.678,2.678,0,0,1-1.558,2.34l-.612.4a3.888,3.888,0,0,0-1.845,2.261Z" transform="translate(1182.223 -396.66)" fill="#5d5d5d"/>
                </g>
              </g>
            </g>
          </g>
        </g>
        <g id="Group_3114" data-name="Group 3114" transform="translate(-1252.574 362.122)">
          <g id="Group_3008" data-name="Group 3008" transform="translate(30.821 25.491)">
            <g id="Group_3007" data-name="Group 3007">
              <g id="Group_3006" data-name="Group 3006">
                <path id="Path_5736" data-name="Path 5736" d="M-1182.425,420.219c0-.05.1-.076.246-.081s.259.015.26.065l.038,1.269c0,.048-.108.077-.256.081s-.248-.017-.25-.065Z" transform="translate(1182.425 -420.138)" fill="#5d5d5d"/>
              </g>
            </g>
          </g>
          <g id="Group_3011" data-name="Group 3011" transform="translate(33.264 25.385)">
            <g id="Group_3010" data-name="Group 3010">
              <g id="Group_3009" data-name="Group 3009">
                <path id="Path_5737" data-name="Path 5737" d="M-1176.867,419.986c0-.05.1-.079.243-.087s.259.01.262.06l.066,1.269c0,.048-.107.079-.254.087s-.249-.012-.251-.06Z" transform="translate(1176.867 -419.897)" fill="#5d5d5d"/>
              </g>
            </g>
          </g>
          <g id="Group_3014" data-name="Group 3014" transform="translate(35.682 25.228)">
            <g id="Group_3013" data-name="Group 3013">
              <g id="Group_3012" data-name="Group 3012">
                <path id="Path_5738" data-name="Path 5738" d="M-1171.361,419.647c-.006-.05.1-.085.238-.1s.259-.006.265.044l.142,1.264c.006.049-.1.086-.249.1s-.249,0-.254-.046Z" transform="translate(1171.362 -419.539)" fill="#5d5d5d"/>
              </g>
            </g>
          </g>
          <g id="Group_3017" data-name="Group 3017" transform="translate(37.964 24.586)">
            <g id="Group_3016" data-name="Group 3016">
              <g id="Group_3015" data-name="Group 3015">
                <path id="Path_5739" data-name="Path 5739" d="M-1166.165,418.315c-.021-.045.065-.111.194-.171s.244-.088.265-.043l.537,1.15c.021.044-.069.113-.2.176s-.236.083-.256.039Z" transform="translate(1166.168 -418.078)" fill="#5d5d5d"/>
              </g>
            </g>
          </g>
          <g id="Group_3020" data-name="Group 3020" transform="translate(39.936 23.223)">
            <g id="Group_3019" data-name="Group 3019">
              <g id="Group_3018" data-name="Group 3018">
                <path id="Path_5740" data-name="Path 5740" d="M-1161.671,415.33c-.034-.037.028-.125.132-.222s.206-.158.24-.121l.861.931c.033.036-.031.129-.14.229s-.2.15-.232.114Z" transform="translate(1161.681 -414.976)" fill="#5d5d5d"/>
              </g>
            </g>
          </g>
          <g id="Group_3023" data-name="Group 3023" transform="translate(41.492 21.362)">
            <g id="Group_3022" data-name="Group 3022">
              <g id="Group_3021" data-name="Group 3021">
                <path id="Path_5741" data-name="Path 5741" d="M-1158.121,411.173c-.042-.027-.005-.129.071-.249s.159-.205.2-.178l1.07.685c.04.026,0,.133-.077.258s-.154.2-.2.169Z" transform="translate(1158.138 -410.74)" fill="#5d5d5d"/>
              </g>
            </g>
          </g>
          <g id="Group_3026" data-name="Group 3026" transform="translate(42.563 19.204)">
            <g id="Group_3025" data-name="Group 3025">
              <g id="Group_3024" data-name="Group 3024">
                <path id="Path_5742" data-name="Path 5742" d="M-1155.671,406.31c-.047-.017-.035-.124.012-.258s.107-.236.155-.22l1.2.419c.046.016.033.129-.015.268s-.105.226-.151.21Z" transform="translate(1155.701 -405.83)" fill="#5d5d5d"/>
              </g>
            </g>
          </g>
          <g id="Group_3029" data-name="Group 3029" transform="translate(43.112 16.882)">
            <g id="Group_3028" data-name="Group 3028">
              <g id="Group_3027" data-name="Group 3027">
                <path id="Path_5743" data-name="Path 5743" d="M-1154.4,401.049c-.05,0-.063-.112-.05-.254s.048-.255.1-.25l1.264.119c.048,0,.063.117.049.265s-.048.244-.1.239Z" transform="translate(1154.453 -400.545)" fill="#5d5d5d"/>
              </g>
            </g>
          </g>
          <g id="Group_3032" data-name="Group 3032" transform="translate(43.007 14.299)">
            <g id="Group_3031" data-name="Group 3031">
              <g id="Group_3030" data-name="Group 3030">
                <path id="Path_5744" data-name="Path 5744" d="M-1154.555,395.4c-.05.009-.092-.09-.118-.23s-.025-.258.025-.268l1.25-.233c.047-.009.092.1.12.241s.021.248-.027.257Z" transform="translate(1154.69 -394.666)" fill="#5d5d5d"/>
              </g>
            </g>
          </g>
          <g id="Group_3035" data-name="Group 3035" transform="translate(42.161 11.734)">
            <g id="Group_3034" data-name="Group 3034">
              <g id="Group_3033" data-name="Group 3033">
                <path id="Path_5745" data-name="Path 5745" d="M-1156.347,389.9c-.044.025-.116-.055-.187-.179s-.108-.236-.064-.261l1.1-.632c.042-.024.119.06.192.188s.1.228.059.252Z" transform="translate(1156.617 -388.828)" fill="#5d5d5d"/>
              </g>
            </g>
          </g>
          <g id="Group_3038" data-name="Group 3038" transform="translate(40.623 9.666)">
            <g id="Group_3037" data-name="Group 3037">
              <g id="Group_3036" data-name="Group 3036">
                <path id="Path_5746" data-name="Path 5746" d="M-1159.722,385.43c-.032.038-.128-.012-.236-.1s-.182-.185-.15-.223l.818-.97c.031-.037.132.015.245.111s.173.179.142.216Z" transform="translate(1160.117 -384.122)" fill="#5d5d5d"/>
              </g>
            </g>
          </g>
          <g id="Group_3041" data-name="Group 3041" transform="translate(38.576 8.298)">
            <g id="Group_3040" data-name="Group 3040">
              <g id="Group_3039" data-name="Group 3039">
                <path id="Path_5747" data-name="Path 5747" d="M-1164.307,382.4c-.02.046-.126.026-.257-.03s-.228-.123-.209-.169l.5-1.17c.019-.044.131-.024.267.035s.218.121.2.165Z" transform="translate(1164.775 -381.009)" fill="#5d5d5d"/>
              </g>
            </g>
          </g>
          <g id="Group_3044" data-name="Group 3044" transform="translate(36.281 7.568)">
            <g id="Group_3043" data-name="Group 3043">
              <g id="Group_3042" data-name="Group 3042">
                <path id="Path_5748" data-name="Path 5748" d="M-1169.5,380.734c-.01.049-.117.052-.257.025s-.249-.073-.24-.122l.242-1.25c.009-.047.123-.051.268-.023s.239.072.229.12Z" transform="translate(1170 -379.346)" fill="#5d5d5d"/>
              </g>
            </g>
          </g>
          <g id="Group_3047" data-name="Group 3047" transform="translate(33.878 7.292)">
            <g id="Group_3046" data-name="Group 3046">
              <g id="Group_3045" data-name="Group 3045">
                <path id="Path_5749" data-name="Path 5749" d="M-1174.963,380.072c0,.051-.108.069-.251.064s-.257-.033-.255-.083l.052-1.269c0-.048.114-.069.261-.063s.247.035.245.083Z" transform="translate(1175.469 -378.719)" fill="#5d5d5d"/>
              </g>
            </g>
          </g>
          <g id="Group_3050" data-name="Group 3050" transform="translate(31.368 7.336)">
            <g id="Group_3049" data-name="Group 3049">
              <g id="Group_3048" data-name="Group 3048">
                <path id="Path_5750" data-name="Path 5750" d="M-1180.6,380.148c0,.05-.1.08-.243.088s-.259-.008-.262-.058l-.076-1.269c0-.048.106-.08.254-.089s.249.01.252.058Z" transform="translate(1181.181 -378.818)" fill="#5d5d5d"/>
              </g>
            </g>
          </g>
          <g id="Group_3053" data-name="Group 3053" transform="translate(29.308 5.098)">
            <g id="Group_3052" data-name="Group 3052">
              <g id="Group_3051" data-name="Group 3051">
                <path id="Path_5751" data-name="Path 5751" d="M-1185.631,374.732c-.045.022-.112-.064-.173-.192s-.09-.243-.044-.265l1.15-.547c.043-.021.114.069.177.2s.083.235.04.255Z" transform="translate(1185.87 -373.725)" fill="#5d5d5d"/>
              </g>
            </g>
          </g>
          <g id="Group_3056" data-name="Group 3056" transform="translate(27.945 2.876)">
            <g id="Group_3055" data-name="Group 3055">
              <g id="Group_3054" data-name="Group 3054">
                <path id="Path_5752" data-name="Path 5752" d="M-1188.616,369.915c-.037.035-.126-.027-.223-.131s-.159-.2-.123-.239l.927-.87c.035-.033.129.03.23.138s.151.2.115.232Z" transform="translate(1188.973 -368.667)" fill="#5d5d5d"/>
              </g>
            </g>
          </g>
          <g id="Group_3059" data-name="Group 3059" transform="translate(26.067 1.24)">
            <g id="Group_3058" data-name="Group 3058">
              <g id="Group_3057" data-name="Group 3057">
                <path id="Path_5753" data-name="Path 5753" d="M-1192.8,366.316c-.025.043-.128.011-.252-.059s-.212-.149-.187-.192l.632-1.1c.024-.042.132-.008.26.065s.2.145.179.187Z" transform="translate(1193.247 -364.944)" fill="#5d5d5d"/>
              </g>
            </g>
          </g>
          <g id="Group_3062" data-name="Group 3062" transform="translate(23.856 0.279)">
            <g id="Group_3061" data-name="Group 3061">
              <g id="Group_3060" data-name="Group 3060">
                <path id="Path_5754" data-name="Path 5754" d="M-1197.788,364.146c-.012.049-.12.046-.258.011s-.245-.085-.233-.134l.3-1.231c.011-.047.125-.044.268-.009s.234.084.223.131Z" transform="translate(1198.279 -362.757)" fill="#5d5d5d"/>
              </g>
            </g>
          </g>
          <g id="Group_3065" data-name="Group 3065" transform="translate(21.473)">
            <g id="Group_3064" data-name="Group 3064">
              <g id="Group_3063" data-name="Group 3063">
                <path id="Path_5755" data-name="Path 5755" d="M-1203.171,363.46c0,.05-.1.075-.247.078s-.259-.018-.259-.069l-.024-1.269c0-.048.109-.076.257-.078s.248.02.249.069Z" transform="translate(1203.701 -362.122)" fill="#5d5d5d"/>
              </g>
            </g>
          </g>
          <g id="Group_3068" data-name="Group 3068" transform="translate(18.817 0.369)">
            <g id="Group_3067" data-name="Group 3067">
              <g id="Group_3066" data-name="Group 3066">
                <path id="Path_5756" data-name="Path 5756" d="M-1208.908,364.217c.014.048-.081.1-.218.139s-.255.05-.269,0l-.352-1.222c-.013-.047.086-.1.228-.142s.245-.045.259,0Z" transform="translate(1209.748 -362.962)" fill="#5d5d5d"/>
              </g>
            </g>
          </g>
          <g id="Group_3071" data-name="Group 3071" transform="translate(16.378 1.403)">
            <g id="Group_3070" data-name="Group 3070">
              <g id="Group_3069" data-name="Group 3069">
                <path id="Path_5757" data-name="Path 5757" d="M-1214.2,366.417c.026.043-.052.117-.173.192s-.233.115-.259.072l-.661-1.083c-.025-.041.057-.12.182-.2s.224-.108.25-.066Z" transform="translate(1215.298 -365.315)" fill="#5d5d5d"/>
              </g>
            </g>
          </g>
          <g id="Group_3074" data-name="Group 3074" transform="translate(14.321 3.061)">
            <g id="Group_3073" data-name="Group 3073">
              <g id="Group_3072" data-name="Group 3072">
                <path id="Path_5758" data-name="Path 5758" d="M-1218.7,369.967c.036.034-.019.127-.116.231s-.194.172-.231.138l-.927-.87c-.035-.033.022-.131.123-.239s.188-.163.224-.13Z" transform="translate(1219.981 -369.088)" fill="#5d5d5d"/>
              </g>
            </g>
          </g>
          <g id="Group_3077" data-name="Group 3077" transform="translate(12.786 5.192)">
            <g id="Group_3076" data-name="Group 3076">
              <g id="Group_3075" data-name="Group 3075">
                <path id="Path_5759" data-name="Path 5759" d="M-1222.1,374.561c.044.025.013.128-.057.252s-.146.214-.19.19l-1.113-.618c-.042-.024-.01-.132.062-.261s.143-.2.185-.181Z" transform="translate(1223.474 -373.94)" fill="#5d5d5d"/>
              </g>
            </g>
          </g>
          <g id="Group_3080" data-name="Group 3080" transform="translate(11.785 7.617)">
            <g id="Group_3079" data-name="Group 3079">
              <g id="Group_3078" data-name="Group 3078">
                <path id="Path_5760" data-name="Path 5760" d="M-1224.359,379.834c.048.015.039.122,0,.258s-.1.24-.146.225l-1.212-.376c-.046-.014-.037-.127.006-.268s.1-.229.143-.215Z" transform="translate(1225.751 -379.457)" fill="#5d5d5d"/>
              </g>
            </g>
          </g>
          <g id="Group_3083" data-name="Group 3083" transform="translate(11.261 10.104)">
            <g id="Group_3082" data-name="Group 3082">
              <g id="Group_3081" data-name="Group 3081">
                <path id="Path_5761" data-name="Path 5761" d="M-1225.565,385.317c.05.008.056.116.033.257s-.064.252-.114.244l-1.255-.2c-.048-.007-.055-.121-.032-.267s.064-.241.112-.233Z" transform="translate(1226.945 -385.117)" fill="#5d5d5d"/>
              </g>
            </g>
          </g>
          <g id="Group_3086" data-name="Group 3086" transform="translate(8.299 10.067)">
            <g id="Group_3085" data-name="Group 3085">
              <g id="Group_3084" data-name="Group 3084">
                <path id="Path_5762" data-name="Path 5762" d="M-1232.929,386.319c.01.049-.088.094-.227.123s-.258.031-.268-.018l-.262-1.245c-.01-.047.094-.095.238-.126s.247-.027.258.021Z" transform="translate(1233.687 -385.034)" fill="#5d5d5d"/>
              </g>
            </g>
          </g>
          <g id="Group_3089" data-name="Group 3089" transform="translate(5.856 11.644)">
            <g id="Group_3088" data-name="Group 3088">
              <g id="Group_3087" data-name="Group 3087">
                <path id="Path_5763" data-name="Path 5763" d="M-1237.916,389.395c.04.03-.005.128-.091.242s-.174.192-.214.162l-1.013-.765c-.038-.029.008-.133.1-.25s.17-.183.208-.154Z" transform="translate(1239.247 -388.623)" fill="#5d5d5d"/>
              </g>
            </g>
          </g>
          <g id="Group_3092" data-name="Group 3092" transform="translate(4.704 14.09)">
            <g id="Group_3091" data-name="Group 3091">
              <g id="Group_3090" data-name="Group 3090">
                <path id="Path_5764" data-name="Path 5764" d="M-1240.473,394.563c.048.015.04.122,0,.258s-.1.241-.145.226l-1.217-.371c-.046-.014-.038-.127,0-.269s.1-.23.143-.216Z" transform="translate(1241.868 -394.191)" fill="#5d5d5d"/>
              </g>
            </g>
          </g>
          <g id="Group_3095" data-name="Group 3095" transform="translate(4.264 16.71)">
            <g id="Group_3094" data-name="Group 3094">
              <g id="Group_3093" data-name="Group 3093">
                <path id="Path_5765" data-name="Path 5765" d="M-1241.508,400.234c.05,0,.066.11.057.252s-.04.257-.09.253l-1.269-.08c-.048,0-.066-.115-.057-.263s.041-.246.089-.243Z" transform="translate(1242.869 -400.154)" fill="#5d5d5d"/>
              </g>
            </g>
          </g>
          <g id="Group_3098" data-name="Group 3098" transform="translate(3.764 19.134)">
            <g id="Group_3097" data-name="Group 3097">
              <g id="Group_3096" data-name="Group 3096">
                <path id="Path_5766" data-name="Path 5766" d="M-1243.356,406.986c.006.05-.1.085-.238.1s-.259.007-.265-.043l-.148-1.265c-.006-.048.1-.086.248-.1s.249,0,.254.044Z" transform="translate(1244.007 -405.67)" fill="#5d5d5d"/>
              </g>
            </g>
          </g>
          <g id="Group_3101" data-name="Group 3101" transform="translate(1.149 20.3)">
            <g id="Group_3100" data-name="Group 3100">
              <g id="Group_3099" data-name="Group 3099">
                <path id="Path_5767" data-name="Path 5767" d="M-1248.724,409.28c.033.037-.029.125-.135.22s-.208.155-.241.118l-.851-.946c-.032-.036.033-.128.143-.227s.2-.147.233-.111Z" transform="translate(1249.96 -408.323)" fill="#5d5d5d"/>
              </g>
            </g>
          </g>
          <g id="Group_3104" data-name="Group 3104" transform="translate(0 22.946)">
            <g id="Group_3103" data-name="Group 3103">
              <g id="Group_3102" data-name="Group 3102">
                <path id="Path_5768" data-name="Path 5768" d="M-1251.307,414.347c.048-.012.1.084.132.222s.041.256-.007.268l-1.231.314c-.047.012-.1-.089-.135-.232s-.036-.246.01-.258Z" transform="translate(1252.574 -414.346)" fill="#5d5d5d"/>
              </g>
            </g>
          </g>
          <g id="Group_3107" data-name="Group 3107" transform="translate(2.153 24.409)">
            <g id="Group_3106" data-name="Group 3106">
              <g id="Group_3105" data-name="Group 3105">
                <path id="Path_5769" data-name="Path 5769" d="M-1247.167,417.7c.019-.046.126-.026.256.031s.228.124.208.17l-.5,1.164c-.019.044-.13.024-.266-.035s-.217-.121-.2-.166Z" transform="translate(1247.674 -417.675)" fill="#5d5d5d"/>
              </g>
            </g>
          </g>
          <g id="Group_3110" data-name="Group 3110" transform="translate(4.696 25.101)">
            <g id="Group_3109" data-name="Group 3109">
              <g id="Group_3108" data-name="Group 3108">
                <path id="Path_5770" data-name="Path 5770" d="M-1241.652,419.293c.009-.05.117-.053.256-.027s.25.071.241.12l-.233,1.25c-.009.048-.123.052-.268.025s-.239-.07-.23-.118Z" transform="translate(1241.886 -419.25)" fill="#5d5d5d"/>
              </g>
            </g>
          </g>
          <g id="Group_3113" data-name="Group 3113" transform="translate(7.239 25.417)">
            <g id="Group_3112" data-name="Group 3112">
              <g id="Group_3111" data-name="Group 3111">
                <path id="Path_5771" data-name="Path 5771" d="M-1236,420.028c0-.051.111-.065.253-.054s.256.043.252.093l-.1,1.269c0,.048-.116.065-.263.054s-.245-.044-.242-.092Z" transform="translate(1236.099 -419.97)" fill="#5d5d5d"/>
              </g>
            </g>
          </g>
        </g>
      </g>
    </g>
  </g>
</svg>
