<svg xmlns="http://www.w3.org/2000/svg" width="68.967" height="68.968" viewBox="0 0 68.967 68.968">
  <g id="verified-icon2" transform="translate(-333.209 -509.49)">
    <ellipse id="Ellipse_134" data-name="Ellipse 134" cx="34.484" cy="34.484" rx="34.484" ry="34.484" transform="translate(333.209 509.49)" fill="#f0f0f0"/>
    <g id="Group_3117" data-name="Group 3117" transform="translate(-4155.999 9557)">
      <g id="Group_2942" data-name="Group 2942">
        <path id="Path_5656" data-name="Path 5656" d="M509.725,542.3a5.221,5.221,0,0,1,4.713-.505,7.082,7.082,0,0,1,4.243,5.505c.381,2.282-.726,4.3-2.94,8.327-.741,1.348-1.205,1.969-1.5,1.885-.549-.154.534-2.508-.325-4.862-1.418-3.886-5.7-4.167-5.866-7.064a4.36,4.36,0,0,1,1.676-3.286" transform="translate(4023.028 -9567.52)" fill="#5d5d5d"/>
        <path id="Path_5657" data-name="Path 5657" d="M509.989,538.178a1.732,1.732,0,1,1-1.687-2.121,1.941,1.941,0,0,1,1.687,2.121" transform="translate(4023.028 -9567.52)" fill="#5d5d5d"/>
        <path id="Path_5658" data-name="Path 5658" d="M513.44,537.543a1.213,1.213,0,1,1-1.182-1.486,1.36,1.36,0,0,1,1.182,1.486" transform="translate(4023.028 -9567.52)" fill="#5d5d5d"/>
        <path id="Path_5659" data-name="Path 5659" d="M516.534,537.939a1.067,1.067,0,1,1-1.039-1.307,1.2,1.2,0,0,1,1.039,1.307" transform="translate(4023.028 -9567.52)" fill="#5d5d5d"/>
        <path id="Path_5660" data-name="Path 5660" d="M519.042,539.485a.94.94,0,1,1-.916-1.152,1.055,1.055,0,0,1,.916,1.152" transform="translate(4023.028 -9567.52)" fill="#5d5d5d"/>
        <path id="Path_5661" data-name="Path 5661" d="M520.871,541.98a.81.81,0,1,1-.789-.992.908.908,0,0,1,.789.992" transform="translate(4023.028 -9567.52)" fill="#5d5d5d"/>
        <path id="Path_5662" data-name="Path 5662" d="M510.064,551.873c.83.1-.059,3.167,2.138,6.17,1.213,1.658,2.5,2.112,2.64,3.706a3.875,3.875,0,0,1-.948,2.719,4.053,4.053,0,0,1-2.722,1.253c-.039,0-.1.01-.18.016a4.325,4.325,0,0,1-2.691-.658,4.058,4.058,0,0,1-1.1-1.155c-.86-1.408-.45-3.22.02-4.929,1.1-3.981,1.988-7.228,2.842-7.122" transform="translate(4023.028 -9567.52)" fill="#5d5d5d"/>
        <path id="Path_5663" data-name="Path 5663" d="M506.412,574.853v-4.345h.877v1.71h1.719v-1.71h.878v4.345h-.878v-1.9h-1.719v1.9Z" transform="translate(4023.028 -9567.52)" fill="#5d5d5d"/>
        <path id="Path_5664" data-name="Path 5664" d="M512.141,576.423v.451h-1.7a1.16,1.16,0,0,1,.166-.485,3.226,3.226,0,0,1,.546-.607,3.329,3.329,0,0,0,.4-.415.533.533,0,0,0,.1-.3.339.339,0,0,0-.087-.25.373.373,0,0,0-.484,0,.478.478,0,0,0-.1.305l-.484-.049a.793.793,0,0,1,.271-.575.914.914,0,0,1,.571-.175.824.824,0,0,1,.589.2.664.664,0,0,1,.214.5.875.875,0,0,1-.062.326,1.289,1.289,0,0,1-.194.324,3,3,0,0,1-.318.323c-.153.141-.25.234-.291.28a.8.8,0,0,0-.1.135Z" transform="translate(4023.028 -9567.52)" fill="#5d5d5d"/>
        <path id="Path_5665" data-name="Path 5665" d="M513.487,572.677a1.63,1.63,0,0,0,.341,1.119,1.171,1.171,0,0,0,1.726,0,1.657,1.657,0,0,0,.337-1.133,1.632,1.632,0,0,0-.328-1.115,1.214,1.214,0,0,0-1.744.005,1.639,1.639,0,0,0-.332,1.121m-.9.03a2.748,2.748,0,0,1,.2-1.114,2.02,2.02,0,0,1,.4-.6,1.686,1.686,0,0,1,.562-.391,2.379,2.379,0,0,1,.936-.172,2.039,2.039,0,0,1,1.537.595,2.663,2.663,0,0,1,.005,3.3,2.286,2.286,0,0,1-3.071,0,2.247,2.247,0,0,1-.572-1.629" transform="translate(4023.028 -9567.52)" fill="#5d5d5d"/>
      </g>
      <g id="Group_2943" data-name="Group 2943">
        <path id="Path_5666" data-name="Path 5666" d="M486.91,573.218l.859.272a1.92,1.92,0,0,1-.657,1.068,1.87,1.87,0,0,1-1.166.349,1.891,1.891,0,0,1-1.438-.6,2.289,2.289,0,0,1-.563-1.634,2.4,2.4,0,0,1,.566-1.7,1.941,1.941,0,0,1,1.489-.607,1.826,1.826,0,0,1,1.308.476,1.727,1.727,0,0,1,.449.809l-.877.21a.905.905,0,0,0-.925-.737,1,1,0,0,0-.792.35,1.716,1.716,0,0,0-.3,1.135,1.847,1.847,0,0,0,.3,1.186.974.974,0,0,0,.779.353.893.893,0,0,0,.608-.224,1.31,1.31,0,0,0,.365-.707" transform="translate(4023.028 -9567.52)" fill="#5d5d5d"/>
        <path id="Path_5667" data-name="Path 5667" d="M489.263,572.634a1.646,1.646,0,0,0,.345,1.131,1.185,1.185,0,0,0,1.744,0,1.678,1.678,0,0,0,.34-1.146,1.65,1.65,0,0,0-.331-1.126,1.226,1.226,0,0,0-1.762.005,1.655,1.655,0,0,0-.336,1.133m-.913.03a2.787,2.787,0,0,1,.2-1.126,2.094,2.094,0,0,1,.408-.6,1.707,1.707,0,0,1,.568-.395,2.4,2.4,0,0,1,.946-.174,2.064,2.064,0,0,1,1.553.6,2.69,2.69,0,0,1,0,3.337,2.042,2.042,0,0,1-1.545.6,2.066,2.066,0,0,1-1.557-.6,2.27,2.27,0,0,1-.578-1.646" transform="translate(4023.028 -9567.52)" fill="#5d5d5d"/>
        <path id="Path_5668" data-name="Path 5668" d="M494.663,576.418v.456h-1.72a1.194,1.194,0,0,1,.168-.49,3.258,3.258,0,0,1,.552-.614,3.4,3.4,0,0,0,.406-.419.535.535,0,0,0,.1-.3.343.343,0,0,0-.088-.252.377.377,0,0,0-.489,0,.477.477,0,0,0-.1.307l-.489-.048a.8.8,0,0,1,.274-.582.925.925,0,0,1,.576-.176.831.831,0,0,1,.6.2.669.669,0,0,1,.217.508.9.9,0,0,1-.062.33,1.317,1.317,0,0,1-.2.326,3.039,3.039,0,0,1-.321.327c-.154.142-.252.236-.294.283a.811.811,0,0,0-.1.136Z" transform="translate(4023.028 -9567.52)" fill="#5d5d5d"/>
        <path id="Path_5669" data-name="Path 5669" d="M491.279,538.965a1.958,1.958,0,1,0,1.908-2.4,2.2,2.2,0,0,0-1.908,2.4" transform="translate(4023.028 -9567.52)" fill="#5d5d5d"/>
        <path id="Path_5670" data-name="Path 5670" d="M487.377,538.247a1.371,1.371,0,1,0,1.337-1.679,1.538,1.538,0,0,0-1.337,1.679" transform="translate(4023.028 -9567.52)" fill="#5d5d5d"/>
        <path id="Path_5671" data-name="Path 5671" d="M483.879,538.7a1.206,1.206,0,1,0,1.175-1.477,1.352,1.352,0,0,0-1.175,1.477" transform="translate(4023.028 -9567.52)" fill="#5d5d5d"/>
        <path id="Path_5672" data-name="Path 5672" d="M481.044,540.442a1.063,1.063,0,1,0,1.035-1.3,1.192,1.192,0,0,0-1.035,1.3" transform="translate(4023.028 -9567.52)" fill="#5d5d5d"/>
        <path id="Path_5673" data-name="Path 5673" d="M478.976,543.263a.916.916,0,1,0,.892-1.122,1.027,1.027,0,0,0-.892,1.122" transform="translate(4023.028 -9567.52)" fill="#5d5d5d"/>
        <path id="Path_5674" data-name="Path 5674" d="M489.924,541.993A3.363,3.363,0,0,1,492.8,543.1a3.154,3.154,0,0,1,.852,1.911,3.214,3.214,0,0,1-.318,1.529,4.053,4.053,0,0,1-.959,1.346c-.606.573-1.237,1.12-1.843,1.693a4.484,4.484,0,0,0-1.44,4.3,4.828,4.828,0,0,0,1.209,2.238,13.956,13.956,0,0,1,1.6,2.042,4.717,4.717,0,0,1,.588,2.685,5.134,5.134,0,0,1-.4,1.812,2.918,2.918,0,0,1-.551.833,3.445,3.445,0,0,1-1.719.917,4.652,4.652,0,0,1-2.137.1,3.327,3.327,0,0,1-.953-.321,3.584,3.584,0,0,1-1.394-1.389,4.47,4.47,0,0,1-.639-2.153c-.033-.912-.205-1.814-.3-2.721a13.564,13.564,0,0,0-.627-3.4c-.681-1.856-1.447-1.638-2.108-3.333a7.447,7.447,0,0,1-.082-4.528,5.072,5.072,0,0,1,1.707-2.472,9.748,9.748,0,0,1,4.65-1.955c.612-.107,1.234-.157,1.984-.25" transform="translate(4023.028 -9567.52)" fill="#5d5d5d"/>
      </g>
    </g>
  </g>
</svg>
