<svg xmlns="http://www.w3.org/2000/svg" width="68.967" height="68.968" viewBox="0 0 68.967 68.968">
  <g id="verified-icon4" transform="translate(-347.282 -617.365)">
    <ellipse id="Ellipse_141" data-name="Ellipse 141" cx="34.484" cy="34.484" rx="34.484" ry="34.484" transform="translate(347.282 617.365)" fill="#f0f0f0"/>
    <g id="fsc-3" transform="translate(361.586 627.642)">
      <path id="Path_5774" data-name="Path 5774" d="M21.86.735C12.963.735,9.824,14.517,6.9,25.6c-1.058-1.066-4.313-4.3-4.317-4.3a1.262,1.262,0,0,0-1.867.012,1.317,1.317,0,0,0,0,1.837c.027.023,4.411,4.382,5.926,5.893a1.316,1.316,0,0,0,1.627.292A1.727,1.727,0,0,0,9,28.277C14.192,5.07,18.834,3.34,21.848,3.34A5.414,5.414,0,0,1,27.3,8.94a4.688,4.688,0,0,1,3.107,8c2.522,1.217,3.647,2.713,3.647,4.606a3.9,3.9,0,0,1-3.915,3.825c-2.3,0-3.475-1.476-5.269-1.483a1.291,1.291,0,0,0-1.308,1.3v4.685H20.177V25.21A1.268,1.268,0,0,0,18.955,23.9a2.62,2.62,0,0,0-.286.018l-4.539.558a1.356,1.356,0,0,0-1.053,1.287,1.325,1.325,0,0,0,1.394,1.3.833.833,0,0,0,.226-.012c-.008,0,2.873-.365,2.873-.365v4.624a1.329,1.329,0,0,0,1.264,1.159h6.03a1.337,1.337,0,0,0,1.31-1.312V26.941a8.541,8.541,0,0,0,3.917,1.064,6.524,6.524,0,0,0,3.88-11.824,7.281,7.281,0,0,0-4.307-9.418A8.033,8.033,0,0,0,21.86.735" fill="#5d5d5d"/>
      <path id="Path_5775" data-name="Path 5775" d="M21.86.735C12.963.735,9.824,14.517,6.9,25.6c-1.058-1.066-4.313-4.3-4.317-4.3a1.262,1.262,0,0,0-1.867.012,1.317,1.317,0,0,0,0,1.837c.027.023,4.411,4.382,5.926,5.893a1.316,1.316,0,0,0,1.627.292A1.727,1.727,0,0,0,9,28.277C14.192,5.07,18.834,3.34,21.848,3.34A5.414,5.414,0,0,1,27.3,8.94a4.688,4.688,0,0,1,3.107,8c2.522,1.217,3.647,2.713,3.647,4.606a3.9,3.9,0,0,1-3.915,3.825c-2.3,0-3.475-1.476-5.269-1.483a1.291,1.291,0,0,0-1.308,1.3v4.685H20.177V25.21A1.268,1.268,0,0,0,18.955,23.9a2.62,2.62,0,0,0-.286.018l-4.539.558a1.356,1.356,0,0,0-1.053,1.287,1.325,1.325,0,0,0,1.394,1.3.833.833,0,0,0,.226-.012c-.008,0,2.873-.365,2.873-.365v4.624a1.329,1.329,0,0,0,1.264,1.159h6.03a1.337,1.337,0,0,0,1.31-1.312V26.941a8.541,8.541,0,0,0,3.917,1.064,6.524,6.524,0,0,0,3.88-11.824,7.281,7.281,0,0,0-4.307-9.418A8.033,8.033,0,0,0,21.86.735m-3.8,36.9c0,1.09,1.219,1.747,3.229,2.7,1.594.743,2.51,1.531,2.51,2.164,0,1.023-1.1,1.386-2.138,1.386a2.888,2.888,0,0,1-3.069-2.063l-.046-.121H18.42c-.281,0-.505.013-.63.165a.608.608,0,0,0-.034.525s.353,1.464.353,1.464c.1.357.224.415.8.527a17.351,17.351,0,0,0,2.641.267c3.057,0,4.422-1.238,4.422-2.467,0-.895-.888-1.75-2.805-2.7l-.871-.419c-1.311-.623-2.106-.993-2.106-1.65,0-.636.823-1.079,2-1.079a1.909,1.909,0,0,1,2.129,1.6l.033.14h.145c.341,0,.556-.028.682-.165a.363.363,0,0,0,.086-.311l-.119-1.268c-.034-.408-.345-.467-.777-.554a10.637,10.637,0,0,0-2.057-.2c-2.656,0-4.241.776-4.241,2.071M26.868,40.2c0,2.207,1.92,4.446,5.6,4.446a7.245,7.245,0,0,0,3.671-.835l.209-.11-.339-.378.019.019a.277.277,0,0,0-.271-.135l-.179.061a6.035,6.035,0,0,1-2.672.522,3.786,3.786,0,0,1-3.948-3.958c0-2.589,2.221-3.5,4.113-3.5,1.364,0,2.089.485,2.225,1.489l.015.164h.17c.162,0,.593,0,.593-.322V36.148c0-.372-.428-.423-.606-.45l-.178-.025a12.739,12.739,0,0,0-1.961-.111c-3.745,0-6.461,1.951-6.461,4.638M13.017,35.67,9.706,35.7,7.5,35.661l-.336-.008A.328.328,0,0,0,6.826,36a.339.339,0,0,0,.365.391c1.333,0,1.383.107,1.395.617l.013.321.021,1.36v2.926c0,.484-.017,1.256-.049,1.878-.009.18-.018.349-1.2.349-.334,0-.531.067-.531.389a.294.294,0,0,0,.32.345h.074c.141-.007.514-.024,2.356-.024,1.963,0,2.356.02,2.49.024h.069c.258,0,.482-.024.482-.345,0-.359-.3-.389-.8-.389-1.183,0-1.192-.169-1.2-.345-.028-.571-.052-1.343-.052-1.882V40.556h.992c1.518,0,1.686.043,1.9,1.209a.383.383,0,0,0,.435.286c.357,0,.4-.194.4-.281l-.03-.438a9.232,9.232,0,0,1-.05-.985V38.554c0-.269-.325-.269-.5-.269-.286,0-.353.181-.535,1.029-.084.322-.71.508-1.719.508h-.895V37.189c0-.718.127-.723.285-.725.581-.027,1.988-.075,2.41-.075a1.9,1.9,0,0,1,1.009.248,11.345,11.345,0,0,1,1.37.971c.228.182.356.29.541.29.11,0,.429,0,.429-.276a1.053,1.053,0,0,0-.133-.357c-.121-.271-.328-.715-.59-1.4-.076-.217-.324-.217-.788-.217l-2.1.02ZM34.012,3.4h.468a.807.807,0,0,0,.448-.1.311.311,0,0,0,.125-.265.318.318,0,0,0-.12-.259.858.858,0,0,0-.482-.095h-.439V3.4Zm1.616,1.332h-.47a4.507,4.507,0,0,0-.577-.9.554.554,0,0,0-.34-.1h-.228v1h-.384V2.369h.824a2.174,2.174,0,0,1,.565.056.541.541,0,0,1,.323.219.6.6,0,0,1,.126.365.639.639,0,0,1-.178.439.707.707,0,0,1-.5.224v.007c.14.035.327.233.551.6l.292.46Zm-1.035.621a1.763,1.763,0,0,0,1.3-.538,1.793,1.793,0,0,0,.548-1.3A1.757,1.757,0,0,0,35.9,2.22a1.8,1.8,0,0,0-1.3-.54,1.773,1.773,0,0,0-1.3.537,1.781,1.781,0,0,0-.541,1.3,1.778,1.778,0,0,0,.538,1.3,1.774,1.774,0,0,0,1.3.541M34.6,1.316a2.13,2.13,0,0,1,1.55.641A2.112,2.112,0,0,1,36.8,3.514a2.123,2.123,0,0,1-.647,1.556,2.211,2.211,0,0,1-3.12.006,2.115,2.115,0,0,1-.652-1.562,2.107,2.107,0,0,1,.652-1.554A2.129,2.129,0,0,1,34.6,1.316" fill="#5d5d5d"/>
      <path id="Path_5776" data-name="Path 5776" d="M147.033,7.461A2.324,2.324,0,0,1,144.7,5.143a2.221,2.221,0,0,1,.684-1.634,2.318,2.318,0,0,1,3.282,0,2.222,2.222,0,0,1,.684,1.638,2.327,2.327,0,0,1-2.319,2.318m0-4.4a2.029,2.029,0,0,0-1.483.614,1.98,1.98,0,0,0-.618,1.469,1.984,1.984,0,0,0,.618,1.475,2.031,2.031,0,0,0,1.483.61,1.99,1.99,0,0,0,1.473-.614,2.072,2.072,0,0,0,0-2.945,2.027,2.027,0,0,0-1.47-.609" transform="translate(-112.431 -1.629)" fill="#5d5d5d"/>
      <path id="Path_5777" data-name="Path 5777" d="M148.3,8.387a1.964,1.964,0,0,1-1.961-1.958,1.96,1.96,0,0,1,3.345-1.378,1.872,1.872,0,0,1,.577,1.378,1.91,1.91,0,0,1-.583,1.386,1.882,1.882,0,0,1-1.379.573m0-3.677a1.728,1.728,0,0,0-1.725,1.72A1.73,1.73,0,0,0,148.3,8.154a1.644,1.644,0,0,0,1.216-.507,1.675,1.675,0,0,0,.514-1.221,1.64,1.64,0,0,0-.508-1.212,1.687,1.687,0,0,0-1.221-.5" transform="translate(-113.708 -2.914)" fill="#5d5d5d"/>
      <path id="Path_5778" data-name="Path 5778" d="M152.635,10.193h-.75l-.033-.06a4,4,0,0,0-.548-.87.458.458,0,0,0-.267-.074h-.113v1h-.617V7.6h.94a2.366,2.366,0,0,1,.6.056.68.68,0,0,1,.387.264.722.722,0,0,1,.146.434.752.752,0,0,1-.209.519.735.735,0,0,1-.3.2,2.589,2.589,0,0,1,.365.481Zm-.613-.233h.189l-.177-.281c-.288-.465-.44-.533-.478-.541l-.063-.014a5.155,5.155,0,0,1,.529.835m-1.483,0h.152v-1h.346a.674.674,0,0,1,.409.123l.019.015V8.916l.107-.019a.586.586,0,0,0,.422-.183.517.517,0,0,0,.151-.364.5.5,0,0,0-.1-.3.439.439,0,0,0-.258-.174,1.968,1.968,0,0,0-.537-.052h-.708V9.96Z" transform="translate(-116.796 -5.343)" fill="#5d5d5d"/>
      <path id="Path_5779" data-name="Path 5779" d="M152.633,9.983h-.585V9.037h.556a.925.925,0,0,1,.553.121.457.457,0,0,1,0,.709.885.885,0,0,1-.519.117m-.351-.232h.352a.673.673,0,0,0,.381-.075.2.2,0,0,0,.076-.168.209.209,0,0,0-.076-.168.745.745,0,0,0-.41-.07h-.323Z" transform="translate(-118.152 -6.466)" fill="#5d5d5d"/>
    </g>
  </g>
</svg>
