<svg xmlns="http://www.w3.org/2000/svg" width="31.302" height="19.326" viewBox="0 0 31.302 19.326">
  <g id="video_call" transform="translate(739.549 360.854) rotate(180)">
    <g id="Group_2633" data-name="Group 2633" transform="translate(729.476 342.575)">
      <path id="Path_5621" data-name="Path 5621" d="M740.954,365.246a1.259,1.259,0,0,1-.512-.109l-7.3-3.24a1.26,1.26,0,0,1-.749-1.151v-7.8a1.266,1.266,0,0,1,.722-1.139h0l7.3-3.451a1.259,1.259,0,0,1,1.8,1.139v14.492a1.26,1.26,0,0,1-1.259,1.26Zm-6.935-4.74,6.566,2.912V350.075l-6.566,3.1Zm-.211-7.229h0Z" transform="translate(-732.391 -348.233)" fill="#5d5d5d" stroke="#5d5d5d" stroke-width="0.5"/>
    </g>
    <g id="Group_2634" data-name="Group 2634" transform="translate(708.497 341.777)">
      <path id="Path_5622" data-name="Path 5622" d="M728.305,366.151H711.3a2.8,2.8,0,0,1-2.8-2.8V350.124a2.8,2.8,0,0,1,2.8-2.8h17.009a2.8,2.8,0,0,1,2.8,2.8v13.228A2.8,2.8,0,0,1,728.305,366.151Zm-17.009-17.2a1.172,1.172,0,0,0-1.171,1.17v13.228a1.173,1.173,0,0,0,1.171,1.171h17.009a1.173,1.173,0,0,0,1.171-1.171V350.124a1.172,1.172,0,0,0-1.171-1.17Z" transform="translate(-708.497 -347.325)" fill="#5d5d5d" stroke="#5d5d5d" stroke-width="0.5"/>
    </g>
  </g>
</svg>
